<svg xmlns="http://www.w3.org/2000/svg" xmlns:xlink="http://www.w3.org/1999/xlink" width="241" zoomAndPan="magnify" viewBox="0 0 180.75 203.249992" height="271" preserveAspectRatio="xMidYMid meet" version="1.0"><defs><filter x="0%" y="0%" width="100%" height="100%" id="6a9a383139"><feColorMatrix values="0 0 0 0 1 0 0 0 0 1 0 0 0 0 1 0 0 0 1 0" color-interpolation-filters="sRGB"/></filter><clipPath id="644a3adc53"><path d="M 0.207031 0 L 169 0 L 169 202.503906 L 0.207031 202.503906 Z M 0.207031 0 " clip-rule="nonzero"/></clipPath><mask id="eab0ceaa91"><g filter="url(#6a9a383139)"><rect x="-18.075" width="216.9" fill="#000000" y="-20.324999" height="243.899991" fill-opacity="0.3882"/></g></mask><clipPath id="416457aa3d"><path d="M 1 0 L 168 0 L 168 190 L 1 190 Z M 1 0 " clip-rule="nonzero"/></clipPath><clipPath id="d33e51351c"><path d="M 141.738281 202.773438 L -3.84375 185.007812 L 22.53125 -31.136719 L 168.113281 -13.375 Z M 141.738281 202.773438 " clip-rule="nonzero"/></clipPath><clipPath id="224c6415c0"><path d="M 141.738281 202.773438 L -3.84375 185.007812 L 22.53125 -31.136719 L 168.113281 -13.375 Z M 141.738281 202.773438 " clip-rule="nonzero"/></clipPath><clipPath id="d5d7b7cdf6"><path d="M 141.738281 202.773438 L -3.84375 185.007812 L 22.53125 -31.136719 L 168.113281 -13.375 Z M 141.738281 202.773438 " clip-rule="nonzero"/></clipPath><clipPath id="628d1de48e"><path d="M 74 72 L 83 72 L 83 76 L 74 76 Z M 74 72 " clip-rule="nonzero"/></clipPath><clipPath id="c96d604ec4"><path d="M 141.738281 202.773438 L -3.84375 185.007812 L 22.53125 -31.136719 L 168.113281 -13.375 Z M 141.738281 202.773438 " clip-rule="nonzero"/></clipPath><clipPath id="9b8824f6a1"><path d="M 141.738281 202.773438 L -3.84375 185.007812 L 22.53125 -31.136719 L 168.113281 -13.375 Z M 141.738281 202.773438 " clip-rule="nonzero"/></clipPath><clipPath id="ba92dc940a"><path d="M 141.738281 202.773438 L -3.84375 185.007812 L 22.53125 -31.136719 L 168.113281 -13.375 Z M 141.738281 202.773438 " clip-rule="nonzero"/></clipPath><clipPath id="7f4cc0a4e5"><path d="M 67 56 L 85 56 L 85 60 L 67 60 Z M 67 56 " clip-rule="nonzero"/></clipPath><clipPath id="097ae53945"><path d="M 141.738281 202.773438 L -3.84375 185.007812 L 22.53125 -31.136719 L 168.113281 -13.375 Z M 141.738281 202.773438 " clip-rule="nonzero"/></clipPath><clipPath id="4145b47783"><path d="M 141.738281 202.773438 L -3.84375 185.007812 L 22.53125 -31.136719 L 168.113281 -13.375 Z M 141.738281 202.773438 " clip-rule="nonzero"/></clipPath><clipPath id="9bca58edb3"><path d="M 141.738281 202.773438 L -3.84375 185.007812 L 22.53125 -31.136719 L 168.113281 -13.375 Z M 141.738281 202.773438 " clip-rule="nonzero"/></clipPath><clipPath id="ec0f684e7c"><path d="M 90 54 L 103 54 L 103 57 L 90 57 Z M 90 54 " clip-rule="nonzero"/></clipPath><clipPath id="d7ccbcfc6e"><path d="M 141.738281 202.773438 L -3.84375 185.007812 L 22.53125 -31.136719 L 168.113281 -13.375 Z M 141.738281 202.773438 " clip-rule="nonzero"/></clipPath><clipPath id="ea4164636e"><path d="M 141.738281 202.773438 L -3.84375 185.007812 L 22.53125 -31.136719 L 168.113281 -13.375 Z M 141.738281 202.773438 " clip-rule="nonzero"/></clipPath><clipPath id="c987501d47"><path d="M 141.738281 202.773438 L -3.84375 185.007812 L 22.53125 -31.136719 L 168.113281 -13.375 Z M 141.738281 202.773438 " clip-rule="nonzero"/></clipPath><clipPath id="cb73f7afac"><path d="M 90 55 L 91 55 L 91 57 L 90 57 Z M 90 55 " clip-rule="nonzero"/></clipPath><clipPath id="7c4757ecff"><path d="M 141.738281 202.773438 L -3.84375 185.007812 L 22.53125 -31.136719 L 168.113281 -13.375 Z M 141.738281 202.773438 " clip-rule="nonzero"/></clipPath><clipPath id="f308d8d422"><path d="M 141.738281 202.773438 L -3.84375 185.007812 L 22.53125 -31.136719 L 168.113281 -13.375 Z M 141.738281 202.773438 " clip-rule="nonzero"/></clipPath><clipPath id="a2d4f6b214"><path d="M 141.738281 202.773438 L -3.84375 185.007812 L 22.53125 -31.136719 L 168.113281 -13.375 Z M 141.738281 202.773438 " clip-rule="nonzero"/></clipPath><clipPath id="8ff37a7a06"><path d="M 61 112 L 65 112 L 65 128 L 61 128 Z M 61 112 " clip-rule="nonzero"/></clipPath><clipPath id="8244a5feb3"><path d="M 141.738281 202.773438 L -3.84375 185.007812 L 22.53125 -31.136719 L 168.113281 -13.375 Z M 141.738281 202.773438 " clip-rule="nonzero"/></clipPath><clipPath id="a5e12605ad"><path d="M 141.738281 202.773438 L -3.84375 185.007812 L 22.53125 -31.136719 L 168.113281 -13.375 Z M 141.738281 202.773438 " clip-rule="nonzero"/></clipPath><clipPath id="e6de44a7bf"><path d="M 141.738281 202.773438 L -3.84375 185.007812 L 22.53125 -31.136719 L 168.113281 -13.375 Z M 141.738281 202.773438 " clip-rule="nonzero"/></clipPath><clipPath id="b84cfe25ca"><path d="M 130 59 L 135 59 L 135 75 L 130 75 Z M 130 59 " clip-rule="nonzero"/></clipPath><clipPath id="32a1888191"><path d="M 141.738281 202.773438 L -3.84375 185.007812 L 22.53125 -31.136719 L 168.113281 -13.375 Z M 141.738281 202.773438 " clip-rule="nonzero"/></clipPath><clipPath id="ac9c2ee425"><path d="M 141.738281 202.773438 L -3.84375 185.007812 L 22.53125 -31.136719 L 168.113281 -13.375 Z M 141.738281 202.773438 " clip-rule="nonzero"/></clipPath><clipPath id="1bbfbc63da"><path d="M 141.738281 202.773438 L -3.84375 185.007812 L 22.53125 -31.136719 L 168.113281 -13.375 Z M 141.738281 202.773438 " clip-rule="nonzero"/></clipPath><clipPath id="6be6369e43"><path d="M 135 55 L 137 55 L 137 58 L 135 58 Z M 135 55 " clip-rule="nonzero"/></clipPath><clipPath id="41355353b9"><path d="M 141.738281 202.773438 L -3.84375 185.007812 L 22.53125 -31.136719 L 168.113281 -13.375 Z M 141.738281 202.773438 " clip-rule="nonzero"/></clipPath><clipPath id="c8bb2f3484"><path d="M 141.738281 202.773438 L -3.84375 185.007812 L 22.53125 -31.136719 L 168.113281 -13.375 Z M 141.738281 202.773438 " clip-rule="nonzero"/></clipPath><clipPath id="8134776d1c"><path d="M 141.738281 202.773438 L -3.84375 185.007812 L 22.53125 -31.136719 L 168.113281 -13.375 Z M 141.738281 202.773438 " clip-rule="nonzero"/></clipPath><clipPath id="6b85067493"><path d="M 15 129 L 27 129 L 27 137 L 15 137 Z M 15 129 " clip-rule="nonzero"/></clipPath><clipPath id="ce5257c5d1"><path d="M 141.738281 202.773438 L -3.84375 185.007812 L 22.53125 -31.136719 L 168.113281 -13.375 Z M 141.738281 202.773438 " clip-rule="nonzero"/></clipPath><clipPath id="e20f06ea6d"><path d="M 141.738281 202.773438 L -3.84375 185.007812 L 22.53125 -31.136719 L 168.113281 -13.375 Z M 141.738281 202.773438 " clip-rule="nonzero"/></clipPath><clipPath id="c9a07c87de"><path d="M 141.738281 202.773438 L -3.84375 185.007812 L 22.53125 -31.136719 L 168.113281 -13.375 Z M 141.738281 202.773438 " clip-rule="nonzero"/></clipPath><clipPath id="4a71014f70"><path d="M 33 121 L 41 121 L 41 126 L 33 126 Z M 33 121 " clip-rule="nonzero"/></clipPath><clipPath id="e9f8197724"><path d="M 141.738281 202.773438 L -3.84375 185.007812 L 22.53125 -31.136719 L 168.113281 -13.375 Z M 141.738281 202.773438 " clip-rule="nonzero"/></clipPath><clipPath id="1617ae19cd"><path d="M 141.738281 202.773438 L -3.84375 185.007812 L 22.53125 -31.136719 L 168.113281 -13.375 Z M 141.738281 202.773438 " clip-rule="nonzero"/></clipPath><clipPath id="4c97467ba8"><path d="M 141.738281 202.773438 L -3.84375 185.007812 L 22.53125 -31.136719 L 168.113281 -13.375 Z M 141.738281 202.773438 " clip-rule="nonzero"/></clipPath><clipPath id="2f8479aa81"><path d="M 29 125 L 34 125 L 34 128 L 29 128 Z M 29 125 " clip-rule="nonzero"/></clipPath><clipPath id="76584dbe58"><path d="M 141.738281 202.773438 L -3.84375 185.007812 L 22.53125 -31.136719 L 168.113281 -13.375 Z M 141.738281 202.773438 " clip-rule="nonzero"/></clipPath><clipPath id="02fc0ce4f8"><path d="M 141.738281 202.773438 L -3.84375 185.007812 L 22.53125 -31.136719 L 168.113281 -13.375 Z M 141.738281 202.773438 " clip-rule="nonzero"/></clipPath><clipPath id="6482b210b1"><path d="M 141.738281 202.773438 L -3.84375 185.007812 L 22.53125 -31.136719 L 168.113281 -13.375 Z M 141.738281 202.773438 " clip-rule="nonzero"/></clipPath><clipPath id="cf09974391"><path d="M 28 127 L 30 127 L 30 129 L 28 129 Z M 28 127 " clip-rule="nonzero"/></clipPath><clipPath id="791eea8865"><path d="M 141.738281 202.773438 L -3.84375 185.007812 L 22.53125 -31.136719 L 168.113281 -13.375 Z M 141.738281 202.773438 " clip-rule="nonzero"/></clipPath><clipPath id="293f6cffc8"><path d="M 141.738281 202.773438 L -3.84375 185.007812 L 22.53125 -31.136719 L 168.113281 -13.375 Z M 141.738281 202.773438 " clip-rule="nonzero"/></clipPath><clipPath id="766e0a8a7e"><path d="M 141.738281 202.773438 L -3.84375 185.007812 L 22.53125 -31.136719 L 168.113281 -13.375 Z M 141.738281 202.773438 " clip-rule="nonzero"/></clipPath><clipPath id="5319841f16"><path d="M 27 128 L 29 128 L 29 129 L 27 129 Z M 27 128 " clip-rule="nonzero"/></clipPath><clipPath id="74ecaa6efe"><path d="M 141.738281 202.773438 L -3.84375 185.007812 L 22.53125 -31.136719 L 168.113281 -13.375 Z M 141.738281 202.773438 " clip-rule="nonzero"/></clipPath><clipPath id="a60045eb0e"><path d="M 141.738281 202.773438 L -3.84375 185.007812 L 22.53125 -31.136719 L 168.113281 -13.375 Z M 141.738281 202.773438 " clip-rule="nonzero"/></clipPath><clipPath id="21d0b48a60"><path d="M 141.738281 202.773438 L -3.84375 185.007812 L 22.53125 -31.136719 L 168.113281 -13.375 Z M 141.738281 202.773438 " clip-rule="nonzero"/></clipPath><clipPath id="aeffb1af5f"><path d="M 26 129 L 28 129 L 28 130 L 26 130 Z M 26 129 " clip-rule="nonzero"/></clipPath><clipPath id="5247f7babe"><path d="M 141.738281 202.773438 L -3.84375 185.007812 L 22.53125 -31.136719 L 168.113281 -13.375 Z M 141.738281 202.773438 " clip-rule="nonzero"/></clipPath><clipPath id="99c4d68d70"><path d="M 141.738281 202.773438 L -3.84375 185.007812 L 22.53125 -31.136719 L 168.113281 -13.375 Z M 141.738281 202.773438 " clip-rule="nonzero"/></clipPath><clipPath id="bbdf34744e"><path d="M 141.738281 202.773438 L -3.84375 185.007812 L 22.53125 -31.136719 L 168.113281 -13.375 Z M 141.738281 202.773438 " clip-rule="nonzero"/></clipPath><clipPath id="7873231c4a"><path d="M 27 128 L 28 128 L 28 130 L 27 130 Z M 27 128 " clip-rule="nonzero"/></clipPath><clipPath id="e870493092"><path d="M 141.738281 202.773438 L -3.84375 185.007812 L 22.53125 -31.136719 L 168.113281 -13.375 Z M 141.738281 202.773438 " clip-rule="nonzero"/></clipPath><clipPath id="466baeb796"><path d="M 141.738281 202.773438 L -3.84375 185.007812 L 22.53125 -31.136719 L 168.113281 -13.375 Z M 141.738281 202.773438 " clip-rule="nonzero"/></clipPath><clipPath id="583d003b3a"><path d="M 141.738281 202.773438 L -3.84375 185.007812 L 22.53125 -31.136719 L 168.113281 -13.375 Z M 141.738281 202.773438 " clip-rule="nonzero"/></clipPath><clipPath id="fda331669a"><path d="M 40 121 L 41 121 L 41 122 L 40 122 Z M 40 121 " clip-rule="nonzero"/></clipPath><clipPath id="884c02bff8"><path d="M 141.738281 202.773438 L -3.84375 185.007812 L 22.53125 -31.136719 L 168.113281 -13.375 Z M 141.738281 202.773438 " clip-rule="nonzero"/></clipPath><clipPath id="b9004210fb"><path d="M 141.738281 202.773438 L -3.84375 185.007812 L 22.53125 -31.136719 L 168.113281 -13.375 Z M 141.738281 202.773438 " clip-rule="nonzero"/></clipPath><clipPath id="14547d6e00"><path d="M 141.738281 202.773438 L -3.84375 185.007812 L 22.53125 -31.136719 L 168.113281 -13.375 Z M 141.738281 202.773438 " clip-rule="nonzero"/></clipPath><clipPath id="cc230bfd12"><path d="M 27 129 L 28 129 L 28 130 L 27 130 Z M 27 129 " clip-rule="nonzero"/></clipPath><clipPath id="13edc401c6"><path d="M 141.738281 202.773438 L -3.84375 185.007812 L 22.53125 -31.136719 L 168.113281 -13.375 Z M 141.738281 202.773438 " clip-rule="nonzero"/></clipPath><clipPath id="405831c418"><path d="M 141.738281 202.773438 L -3.84375 185.007812 L 22.53125 -31.136719 L 168.113281 -13.375 Z M 141.738281 202.773438 " clip-rule="nonzero"/></clipPath><clipPath id="40a0dab444"><path d="M 141.738281 202.773438 L -3.84375 185.007812 L 22.53125 -31.136719 L 168.113281 -13.375 Z M 141.738281 202.773438 " clip-rule="nonzero"/></clipPath><clipPath id="f05d687917"><path d="M 26 129 L 27 129 L 27 130 L 26 130 Z M 26 129 " clip-rule="nonzero"/></clipPath><clipPath id="feb781b2c6"><path d="M 141.738281 202.773438 L -3.84375 185.007812 L 22.53125 -31.136719 L 168.113281 -13.375 Z M 141.738281 202.773438 " clip-rule="nonzero"/></clipPath><clipPath id="f075fe9c40"><path d="M 141.738281 202.773438 L -3.84375 185.007812 L 22.53125 -31.136719 L 168.113281 -13.375 Z M 141.738281 202.773438 " clip-rule="nonzero"/></clipPath><clipPath id="a76e7d89da"><path d="M 141.738281 202.773438 L -3.84375 185.007812 L 22.53125 -31.136719 L 168.113281 -13.375 Z M 141.738281 202.773438 " clip-rule="nonzero"/></clipPath><clipPath id="115996ef9e"><path d="M 15 136 L 16 136 L 16 138 L 15 138 Z M 15 136 " clip-rule="nonzero"/></clipPath><clipPath id="915357e31c"><path d="M 141.738281 202.773438 L -3.84375 185.007812 L 22.53125 -31.136719 L 168.113281 -13.375 Z M 141.738281 202.773438 " clip-rule="nonzero"/></clipPath><clipPath id="e543f8ecc4"><path d="M 141.738281 202.773438 L -3.84375 185.007812 L 22.53125 -31.136719 L 168.113281 -13.375 Z M 141.738281 202.773438 " clip-rule="nonzero"/></clipPath><clipPath id="96b033d8c4"><path d="M 141.738281 202.773438 L -3.84375 185.007812 L 22.53125 -31.136719 L 168.113281 -13.375 Z M 141.738281 202.773438 " clip-rule="nonzero"/></clipPath><clipPath id="af088eebd7"><path d="M 14 137 L 16 137 L 16 138 L 14 138 Z M 14 137 " clip-rule="nonzero"/></clipPath><clipPath id="1d23c39527"><path d="M 141.738281 202.773438 L -3.84375 185.007812 L 22.53125 -31.136719 L 168.113281 -13.375 Z M 141.738281 202.773438 " clip-rule="nonzero"/></clipPath><clipPath id="48292cb9f9"><path d="M 141.738281 202.773438 L -3.84375 185.007812 L 22.53125 -31.136719 L 168.113281 -13.375 Z M 141.738281 202.773438 " clip-rule="nonzero"/></clipPath><clipPath id="9eddb84258"><path d="M 141.738281 202.773438 L -3.84375 185.007812 L 22.53125 -31.136719 L 168.113281 -13.375 Z M 141.738281 202.773438 " clip-rule="nonzero"/></clipPath><clipPath id="d5f8003296"><path d="M 14 137 L 15 137 L 15 138 L 14 138 Z M 14 137 " clip-rule="nonzero"/></clipPath><clipPath id="80c4436685"><path d="M 141.738281 202.773438 L -3.84375 185.007812 L 22.53125 -31.136719 L 168.113281 -13.375 Z M 141.738281 202.773438 " clip-rule="nonzero"/></clipPath><clipPath id="9c7a0aba9e"><path d="M 141.738281 202.773438 L -3.84375 185.007812 L 22.53125 -31.136719 L 168.113281 -13.375 Z M 141.738281 202.773438 " clip-rule="nonzero"/></clipPath><clipPath id="27749a9aa4"><path d="M 141.738281 202.773438 L -3.84375 185.007812 L 22.53125 -31.136719 L 168.113281 -13.375 Z M 141.738281 202.773438 " clip-rule="nonzero"/></clipPath><clipPath id="1f65b8fab2"><path d="M 33 125 L 34 125 L 34 126 L 33 126 Z M 33 125 " clip-rule="nonzero"/></clipPath><clipPath id="f44360051d"><path d="M 141.738281 202.773438 L -3.84375 185.007812 L 22.53125 -31.136719 L 168.113281 -13.375 Z M 141.738281 202.773438 " clip-rule="nonzero"/></clipPath><clipPath id="85daf5421e"><path d="M 141.738281 202.773438 L -3.84375 185.007812 L 22.53125 -31.136719 L 168.113281 -13.375 Z M 141.738281 202.773438 " clip-rule="nonzero"/></clipPath><clipPath id="13fdb7c68d"><path d="M 141.738281 202.773438 L -3.84375 185.007812 L 22.53125 -31.136719 L 168.113281 -13.375 Z M 141.738281 202.773438 " clip-rule="nonzero"/></clipPath><clipPath id="1bddb00b6e"><path d="M 24 173 L 29 173 L 29 181 L 24 181 Z M 24 173 " clip-rule="nonzero"/></clipPath><clipPath id="6951212994"><path d="M 141.738281 202.773438 L -3.84375 185.007812 L 22.53125 -31.136719 L 168.113281 -13.375 Z M 141.738281 202.773438 " clip-rule="nonzero"/></clipPath><clipPath id="5cfd09e04f"><path d="M 141.738281 202.773438 L -3.84375 185.007812 L 22.53125 -31.136719 L 168.113281 -13.375 Z M 141.738281 202.773438 " clip-rule="nonzero"/></clipPath><clipPath id="fed816349a"><path d="M 141.738281 202.773438 L -3.84375 185.007812 L 22.53125 -31.136719 L 168.113281 -13.375 Z M 141.738281 202.773438 " clip-rule="nonzero"/></clipPath><clipPath id="9ce8165c4e"><path d="M 22 181 L 24 181 L 24 184 L 22 184 Z M 22 181 " clip-rule="nonzero"/></clipPath><clipPath id="f5bfdba38c"><path d="M 141.738281 202.773438 L -3.84375 185.007812 L 22.53125 -31.136719 L 168.113281 -13.375 Z M 141.738281 202.773438 " clip-rule="nonzero"/></clipPath><clipPath id="513d9a5990"><path d="M 141.738281 202.773438 L -3.84375 185.007812 L 22.53125 -31.136719 L 168.113281 -13.375 Z M 141.738281 202.773438 " clip-rule="nonzero"/></clipPath><clipPath id="56613a1cd7"><path d="M 141.738281 202.773438 L -3.84375 185.007812 L 22.53125 -31.136719 L 168.113281 -13.375 Z M 141.738281 202.773438 " clip-rule="nonzero"/></clipPath><clipPath id="df2dac78ba"><path d="M 23 180 L 25 180 L 25 181 L 23 181 Z M 23 180 " clip-rule="nonzero"/></clipPath><clipPath id="8fe75a178c"><path d="M 141.738281 202.773438 L -3.84375 185.007812 L 22.53125 -31.136719 L 168.113281 -13.375 Z M 141.738281 202.773438 " clip-rule="nonzero"/></clipPath><clipPath id="6b3198a6da"><path d="M 141.738281 202.773438 L -3.84375 185.007812 L 22.53125 -31.136719 L 168.113281 -13.375 Z M 141.738281 202.773438 " clip-rule="nonzero"/></clipPath><clipPath id="4d4c43e64e"><path d="M 141.738281 202.773438 L -3.84375 185.007812 L 22.53125 -31.136719 L 168.113281 -13.375 Z M 141.738281 202.773438 " clip-rule="nonzero"/></clipPath><clipPath id="7ab7294179"><path d="M 23 180 L 24 180 L 24 182 L 23 182 Z M 23 180 " clip-rule="nonzero"/></clipPath><clipPath id="11ea8e6007"><path d="M 141.738281 202.773438 L -3.84375 185.007812 L 22.53125 -31.136719 L 168.113281 -13.375 Z M 141.738281 202.773438 " clip-rule="nonzero"/></clipPath><clipPath id="59aa651780"><path d="M 141.738281 202.773438 L -3.84375 185.007812 L 22.53125 -31.136719 L 168.113281 -13.375 Z M 141.738281 202.773438 " clip-rule="nonzero"/></clipPath><clipPath id="85f3a95927"><path d="M 141.738281 202.773438 L -3.84375 185.007812 L 22.53125 -31.136719 L 168.113281 -13.375 Z M 141.738281 202.773438 " clip-rule="nonzero"/></clipPath><clipPath id="913f400d55"><rect x="0" width="169" y="0" height="203"/></clipPath><clipPath id="33294b35e5"><path d="M 69 17 L 180.292969 17 L 180.292969 199 L 69 199 Z M 69 17 " clip-rule="nonzero"/></clipPath><mask id="3d1fa68823"><g filter="url(#6a9a383139)"><rect x="-18.075" width="216.9" fill="#000000" y="-20.324999" height="243.899991" fill-opacity="0.3882"/></g></mask><clipPath id="3d61ed07a6"><path d="M 61 1 L 111 1 L 111 174 L 61 174 Z M 61 1 " clip-rule="nonzero"/></clipPath><clipPath id="e9d2cf4681"><path d="M 166.191406 127.503906 L 80.777344 181.4375 L 0.871094 54.902344 L 86.285156 0.964844 Z M 166.191406 127.503906 " clip-rule="nonzero"/></clipPath><clipPath id="6aca54d431"><path d="M 166.191406 127.503906 L 80.777344 181.4375 L 0.871094 54.902344 L 86.285156 0.964844 Z M 166.191406 127.503906 " clip-rule="nonzero"/></clipPath><clipPath id="f1fc1558ec"><path d="M 166.191406 127.503906 L 80.777344 181.4375 L 0.871094 54.902344 L 86.285156 0.964844 Z M 166.191406 127.503906 " clip-rule="nonzero"/></clipPath><clipPath id="affe2a1cfd"><path d="M 74 84 L 79 84 L 79 89 L 74 89 Z M 74 84 " clip-rule="nonzero"/></clipPath><clipPath id="c53d6fa496"><path d="M 166.191406 127.503906 L 80.777344 181.4375 L 0.871094 54.902344 L 86.285156 0.964844 Z M 166.191406 127.503906 " clip-rule="nonzero"/></clipPath><clipPath id="df4b333781"><path d="M 166.191406 127.503906 L 80.777344 181.4375 L 0.871094 54.902344 L 86.285156 0.964844 Z M 166.191406 127.503906 " clip-rule="nonzero"/></clipPath><clipPath id="a0295acfc3"><path d="M 166.191406 127.503906 L 80.777344 181.4375 L 0.871094 54.902344 L 86.285156 0.964844 Z M 166.191406 127.503906 " clip-rule="nonzero"/></clipPath><clipPath id="6bd5dab448"><path d="M 63 74 L 73 74 L 73 84 L 63 84 Z M 63 74 " clip-rule="nonzero"/></clipPath><clipPath id="fc31d2434f"><path d="M 166.191406 127.503906 L 80.777344 181.4375 L 0.871094 54.902344 L 86.285156 0.964844 Z M 166.191406 127.503906 " clip-rule="nonzero"/></clipPath><clipPath id="d792f2cf73"><path d="M 166.191406 127.503906 L 80.777344 181.4375 L 0.871094 54.902344 L 86.285156 0.964844 Z M 166.191406 127.503906 " clip-rule="nonzero"/></clipPath><clipPath id="462c0e371a"><path d="M 166.191406 127.503906 L 80.777344 181.4375 L 0.871094 54.902344 L 86.285156 0.964844 Z M 166.191406 127.503906 " clip-rule="nonzero"/></clipPath><clipPath id="4e6bdbc852"><path d="M 75 65 L 82 65 L 82 72 L 75 72 Z M 75 65 " clip-rule="nonzero"/></clipPath><clipPath id="6569f80ac8"><path d="M 166.191406 127.503906 L 80.777344 181.4375 L 0.871094 54.902344 L 86.285156 0.964844 Z M 166.191406 127.503906 " clip-rule="nonzero"/></clipPath><clipPath id="be2f37e02f"><path d="M 166.191406 127.503906 L 80.777344 181.4375 L 0.871094 54.902344 L 86.285156 0.964844 Z M 166.191406 127.503906 " clip-rule="nonzero"/></clipPath><clipPath id="54a5f50112"><path d="M 166.191406 127.503906 L 80.777344 181.4375 L 0.871094 54.902344 L 86.285156 0.964844 Z M 166.191406 127.503906 " clip-rule="nonzero"/></clipPath><clipPath id="e0fe3df4be"><path d="M 74 71 L 76 71 L 76 72 L 74 72 Z M 74 71 " clip-rule="nonzero"/></clipPath><clipPath id="03d7dcc667"><path d="M 166.191406 127.503906 L 80.777344 181.4375 L 0.871094 54.902344 L 86.285156 0.964844 Z M 166.191406 127.503906 " clip-rule="nonzero"/></clipPath><clipPath id="fccb0f7a99"><path d="M 166.191406 127.503906 L 80.777344 181.4375 L 0.871094 54.902344 L 86.285156 0.964844 Z M 166.191406 127.503906 " clip-rule="nonzero"/></clipPath><clipPath id="650ecc4608"><path d="M 166.191406 127.503906 L 80.777344 181.4375 L 0.871094 54.902344 L 86.285156 0.964844 Z M 166.191406 127.503906 " clip-rule="nonzero"/></clipPath><clipPath id="e49fcd31f6"><path d="M 85 112 L 91 112 L 91 123 L 85 123 Z M 85 112 " clip-rule="nonzero"/></clipPath><clipPath id="689e64b6fc"><path d="M 166.191406 127.503906 L 80.777344 181.4375 L 0.871094 54.902344 L 86.285156 0.964844 Z M 166.191406 127.503906 " clip-rule="nonzero"/></clipPath><clipPath id="28d9ed2508"><path d="M 166.191406 127.503906 L 80.777344 181.4375 L 0.871094 54.902344 L 86.285156 0.964844 Z M 166.191406 127.503906 " clip-rule="nonzero"/></clipPath><clipPath id="ccdb49e60d"><path d="M 166.191406 127.503906 L 80.777344 181.4375 L 0.871094 54.902344 L 86.285156 0.964844 Z M 166.191406 127.503906 " clip-rule="nonzero"/></clipPath><clipPath id="4553d182a9"><path d="M 100 54 L 105 54 L 105 65 L 100 65 Z M 100 54 " clip-rule="nonzero"/></clipPath><clipPath id="7071acbaae"><path d="M 166.191406 127.503906 L 80.777344 181.4375 L 0.871094 54.902344 L 86.285156 0.964844 Z M 166.191406 127.503906 " clip-rule="nonzero"/></clipPath><clipPath id="4df6d97970"><path d="M 166.191406 127.503906 L 80.777344 181.4375 L 0.871094 54.902344 L 86.285156 0.964844 Z M 166.191406 127.503906 " clip-rule="nonzero"/></clipPath><clipPath id="3cfcc71cb6"><path d="M 166.191406 127.503906 L 80.777344 181.4375 L 0.871094 54.902344 L 86.285156 0.964844 Z M 166.191406 127.503906 " clip-rule="nonzero"/></clipPath><clipPath id="ede4dc763b"><path d="M 98 51 L 100 51 L 100 53 L 98 53 Z M 98 51 " clip-rule="nonzero"/></clipPath><clipPath id="d2a991ed3b"><path d="M 166.191406 127.503906 L 80.777344 181.4375 L 0.871094 54.902344 L 86.285156 0.964844 Z M 166.191406 127.503906 " clip-rule="nonzero"/></clipPath><clipPath id="30c685db7c"><path d="M 166.191406 127.503906 L 80.777344 181.4375 L 0.871094 54.902344 L 86.285156 0.964844 Z M 166.191406 127.503906 " clip-rule="nonzero"/></clipPath><clipPath id="90a25799d6"><path d="M 166.191406 127.503906 L 80.777344 181.4375 L 0.871094 54.902344 L 86.285156 0.964844 Z M 166.191406 127.503906 " clip-rule="nonzero"/></clipPath><clipPath id="74f75d6322"><path d="M 70 138 L 73 138 L 73 148 L 70 148 Z M 70 138 " clip-rule="nonzero"/></clipPath><clipPath id="5a053a05da"><path d="M 166.191406 127.503906 L 80.777344 181.4375 L 0.871094 54.902344 L 86.285156 0.964844 Z M 166.191406 127.503906 " clip-rule="nonzero"/></clipPath><clipPath id="b43fce34e1"><path d="M 166.191406 127.503906 L 80.777344 181.4375 L 0.871094 54.902344 L 86.285156 0.964844 Z M 166.191406 127.503906 " clip-rule="nonzero"/></clipPath><clipPath id="52fd4181c1"><path d="M 166.191406 127.503906 L 80.777344 181.4375 L 0.871094 54.902344 L 86.285156 0.964844 Z M 166.191406 127.503906 " clip-rule="nonzero"/></clipPath><clipPath id="a72ed23908"><path d="M 74 128 L 77 128 L 77 134 L 74 134 Z M 74 128 " clip-rule="nonzero"/></clipPath><clipPath id="98bd95efeb"><path d="M 166.191406 127.503906 L 80.777344 181.4375 L 0.871094 54.902344 L 86.285156 0.964844 Z M 166.191406 127.503906 " clip-rule="nonzero"/></clipPath><clipPath id="30a9069223"><path d="M 166.191406 127.503906 L 80.777344 181.4375 L 0.871094 54.902344 L 86.285156 0.964844 Z M 166.191406 127.503906 " clip-rule="nonzero"/></clipPath><clipPath id="6d9595d753"><path d="M 166.191406 127.503906 L 80.777344 181.4375 L 0.871094 54.902344 L 86.285156 0.964844 Z M 166.191406 127.503906 " clip-rule="nonzero"/></clipPath><clipPath id="94ba9cc167"><path d="M 73 133 L 75 133 L 75 137 L 73 137 Z M 73 133 " clip-rule="nonzero"/></clipPath><clipPath id="98d2afe815"><path d="M 166.191406 127.503906 L 80.777344 181.4375 L 0.871094 54.902344 L 86.285156 0.964844 Z M 166.191406 127.503906 " clip-rule="nonzero"/></clipPath><clipPath id="82326e1ee3"><path d="M 166.191406 127.503906 L 80.777344 181.4375 L 0.871094 54.902344 L 86.285156 0.964844 Z M 166.191406 127.503906 " clip-rule="nonzero"/></clipPath><clipPath id="ccae8c0796"><path d="M 166.191406 127.503906 L 80.777344 181.4375 L 0.871094 54.902344 L 86.285156 0.964844 Z M 166.191406 127.503906 " clip-rule="nonzero"/></clipPath><clipPath id="6ba6c09cd6"><path d="M 73 136 L 74 136 L 74 138 L 73 138 Z M 73 136 " clip-rule="nonzero"/></clipPath><clipPath id="36ed8281c8"><path d="M 166.191406 127.503906 L 80.777344 181.4375 L 0.871094 54.902344 L 86.285156 0.964844 Z M 166.191406 127.503906 " clip-rule="nonzero"/></clipPath><clipPath id="e891daae3b"><path d="M 166.191406 127.503906 L 80.777344 181.4375 L 0.871094 54.902344 L 86.285156 0.964844 Z M 166.191406 127.503906 " clip-rule="nonzero"/></clipPath><clipPath id="eae457aa17"><path d="M 166.191406 127.503906 L 80.777344 181.4375 L 0.871094 54.902344 L 86.285156 0.964844 Z M 166.191406 127.503906 " clip-rule="nonzero"/></clipPath><clipPath id="a12c75623f"><path d="M 73 137 L 74 137 L 74 138 L 73 138 Z M 73 137 " clip-rule="nonzero"/></clipPath><clipPath id="8ce57af643"><path d="M 166.191406 127.503906 L 80.777344 181.4375 L 0.871094 54.902344 L 86.285156 0.964844 Z M 166.191406 127.503906 " clip-rule="nonzero"/></clipPath><clipPath id="6a5a857e73"><path d="M 166.191406 127.503906 L 80.777344 181.4375 L 0.871094 54.902344 L 86.285156 0.964844 Z M 166.191406 127.503906 " clip-rule="nonzero"/></clipPath><clipPath id="1b039aba67"><path d="M 166.191406 127.503906 L 80.777344 181.4375 L 0.871094 54.902344 L 86.285156 0.964844 Z M 166.191406 127.503906 " clip-rule="nonzero"/></clipPath><clipPath id="2028283ca4"><path d="M 72 138 L 74 138 L 74 139 L 72 139 Z M 72 138 " clip-rule="nonzero"/></clipPath><clipPath id="2f2190575c"><path d="M 166.191406 127.503906 L 80.777344 181.4375 L 0.871094 54.902344 L 86.285156 0.964844 Z M 166.191406 127.503906 " clip-rule="nonzero"/></clipPath><clipPath id="df896ab2d9"><path d="M 166.191406 127.503906 L 80.777344 181.4375 L 0.871094 54.902344 L 86.285156 0.964844 Z M 166.191406 127.503906 " clip-rule="nonzero"/></clipPath><clipPath id="8b4b2ab020"><path d="M 166.191406 127.503906 L 80.777344 181.4375 L 0.871094 54.902344 L 86.285156 0.964844 Z M 166.191406 127.503906 " clip-rule="nonzero"/></clipPath><clipPath id="b441db3758"><path d="M 73 137 L 74 137 L 74 139 L 73 139 Z M 73 137 " clip-rule="nonzero"/></clipPath><clipPath id="f8e2679061"><path d="M 166.191406 127.503906 L 80.777344 181.4375 L 0.871094 54.902344 L 86.285156 0.964844 Z M 166.191406 127.503906 " clip-rule="nonzero"/></clipPath><clipPath id="b33ab6d7b7"><path d="M 166.191406 127.503906 L 80.777344 181.4375 L 0.871094 54.902344 L 86.285156 0.964844 Z M 166.191406 127.503906 " clip-rule="nonzero"/></clipPath><clipPath id="b030ea2f45"><path d="M 166.191406 127.503906 L 80.777344 181.4375 L 0.871094 54.902344 L 86.285156 0.964844 Z M 166.191406 127.503906 " clip-rule="nonzero"/></clipPath><clipPath id="a1e28366ef"><path d="M 76 128 L 77 128 L 77 129 L 76 129 Z M 76 128 " clip-rule="nonzero"/></clipPath><clipPath id="1c3eca7959"><path d="M 166.191406 127.503906 L 80.777344 181.4375 L 0.871094 54.902344 L 86.285156 0.964844 Z M 166.191406 127.503906 " clip-rule="nonzero"/></clipPath><clipPath id="8a499e0828"><path d="M 166.191406 127.503906 L 80.777344 181.4375 L 0.871094 54.902344 L 86.285156 0.964844 Z M 166.191406 127.503906 " clip-rule="nonzero"/></clipPath><clipPath id="039bac4342"><path d="M 166.191406 127.503906 L 80.777344 181.4375 L 0.871094 54.902344 L 86.285156 0.964844 Z M 166.191406 127.503906 " clip-rule="nonzero"/></clipPath><clipPath id="f39ca3c671"><path d="M 73 138 L 74 138 L 74 139 L 73 139 Z M 73 138 " clip-rule="nonzero"/></clipPath><clipPath id="9610c8c182"><path d="M 166.191406 127.503906 L 80.777344 181.4375 L 0.871094 54.902344 L 86.285156 0.964844 Z M 166.191406 127.503906 " clip-rule="nonzero"/></clipPath><clipPath id="8c125452d4"><path d="M 166.191406 127.503906 L 80.777344 181.4375 L 0.871094 54.902344 L 86.285156 0.964844 Z M 166.191406 127.503906 " clip-rule="nonzero"/></clipPath><clipPath id="e991687d19"><path d="M 166.191406 127.503906 L 80.777344 181.4375 L 0.871094 54.902344 L 86.285156 0.964844 Z M 166.191406 127.503906 " clip-rule="nonzero"/></clipPath><clipPath id="865d04a10d"><path d="M 72 138 L 73 138 L 73 139 L 72 139 Z M 72 138 " clip-rule="nonzero"/></clipPath><clipPath id="a1f83a4315"><path d="M 166.191406 127.503906 L 80.777344 181.4375 L 0.871094 54.902344 L 86.285156 0.964844 Z M 166.191406 127.503906 " clip-rule="nonzero"/></clipPath><clipPath id="4017e38995"><path d="M 166.191406 127.503906 L 80.777344 181.4375 L 0.871094 54.902344 L 86.285156 0.964844 Z M 166.191406 127.503906 " clip-rule="nonzero"/></clipPath><clipPath id="0cf0d92dd9"><path d="M 166.191406 127.503906 L 80.777344 181.4375 L 0.871094 54.902344 L 86.285156 0.964844 Z M 166.191406 127.503906 " clip-rule="nonzero"/></clipPath><clipPath id="6c3108f1fe"><path d="M 70 147 L 71 147 L 71 148 L 70 148 Z M 70 147 " clip-rule="nonzero"/></clipPath><clipPath id="dc6bad43c5"><path d="M 166.191406 127.503906 L 80.777344 181.4375 L 0.871094 54.902344 L 86.285156 0.964844 Z M 166.191406 127.503906 " clip-rule="nonzero"/></clipPath><clipPath id="f4b04cfcec"><path d="M 166.191406 127.503906 L 80.777344 181.4375 L 0.871094 54.902344 L 86.285156 0.964844 Z M 166.191406 127.503906 " clip-rule="nonzero"/></clipPath><clipPath id="057f2f3426"><path d="M 166.191406 127.503906 L 80.777344 181.4375 L 0.871094 54.902344 L 86.285156 0.964844 Z M 166.191406 127.503906 " clip-rule="nonzero"/></clipPath><clipPath id="f784c262ee"><path d="M 70 147 L 71 147 L 71 149 L 70 149 Z M 70 147 " clip-rule="nonzero"/></clipPath><clipPath id="ebf97e97ae"><path d="M 166.191406 127.503906 L 80.777344 181.4375 L 0.871094 54.902344 L 86.285156 0.964844 Z M 166.191406 127.503906 " clip-rule="nonzero"/></clipPath><clipPath id="e0394a55ec"><path d="M 166.191406 127.503906 L 80.777344 181.4375 L 0.871094 54.902344 L 86.285156 0.964844 Z M 166.191406 127.503906 " clip-rule="nonzero"/></clipPath><clipPath id="ae0a9a6412"><path d="M 166.191406 127.503906 L 80.777344 181.4375 L 0.871094 54.902344 L 86.285156 0.964844 Z M 166.191406 127.503906 " clip-rule="nonzero"/></clipPath><clipPath id="b8f21077cc"><path d="M 74 133 L 75 133 L 75 134 L 74 134 Z M 74 133 " clip-rule="nonzero"/></clipPath><clipPath id="5b17245b14"><path d="M 166.191406 127.503906 L 80.777344 181.4375 L 0.871094 54.902344 L 86.285156 0.964844 Z M 166.191406 127.503906 " clip-rule="nonzero"/></clipPath><clipPath id="49413a69f7"><path d="M 166.191406 127.503906 L 80.777344 181.4375 L 0.871094 54.902344 L 86.285156 0.964844 Z M 166.191406 127.503906 " clip-rule="nonzero"/></clipPath><clipPath id="df2d2e561e"><path d="M 166.191406 127.503906 L 80.777344 181.4375 L 0.871094 54.902344 L 86.285156 0.964844 Z M 166.191406 127.503906 " clip-rule="nonzero"/></clipPath><clipPath id="ccb4c0e9ea"><path d="M 93 161 L 94 161 L 94 167 L 93 167 Z M 93 161 " clip-rule="nonzero"/></clipPath><clipPath id="2a7f795c0a"><path d="M 166.191406 127.503906 L 80.777344 181.4375 L 0.871094 54.902344 L 86.285156 0.964844 Z M 166.191406 127.503906 " clip-rule="nonzero"/></clipPath><clipPath id="987abf2235"><path d="M 166.191406 127.503906 L 80.777344 181.4375 L 0.871094 54.902344 L 86.285156 0.964844 Z M 166.191406 127.503906 " clip-rule="nonzero"/></clipPath><clipPath id="a07e0ff9a0"><path d="M 166.191406 127.503906 L 80.777344 181.4375 L 0.871094 54.902344 L 86.285156 0.964844 Z M 166.191406 127.503906 " clip-rule="nonzero"/></clipPath><clipPath id="cafba6bf89"><path d="M 93 167 L 95 167 L 95 170 L 93 170 Z M 93 167 " clip-rule="nonzero"/></clipPath><clipPath id="d5b574ad6b"><path d="M 166.191406 127.503906 L 80.777344 181.4375 L 0.871094 54.902344 L 86.285156 0.964844 Z M 166.191406 127.503906 " clip-rule="nonzero"/></clipPath><clipPath id="0230c7cdd9"><path d="M 166.191406 127.503906 L 80.777344 181.4375 L 0.871094 54.902344 L 86.285156 0.964844 Z M 166.191406 127.503906 " clip-rule="nonzero"/></clipPath><clipPath id="6b839b78f9"><path d="M 166.191406 127.503906 L 80.777344 181.4375 L 0.871094 54.902344 L 86.285156 0.964844 Z M 166.191406 127.503906 " clip-rule="nonzero"/></clipPath><clipPath id="1a286ab3a5"><path d="M 93 166 L 94 166 L 94 168 L 93 168 Z M 93 166 " clip-rule="nonzero"/></clipPath><clipPath id="69b4311e92"><path d="M 166.191406 127.503906 L 80.777344 181.4375 L 0.871094 54.902344 L 86.285156 0.964844 Z M 166.191406 127.503906 " clip-rule="nonzero"/></clipPath><clipPath id="c654298b67"><path d="M 166.191406 127.503906 L 80.777344 181.4375 L 0.871094 54.902344 L 86.285156 0.964844 Z M 166.191406 127.503906 " clip-rule="nonzero"/></clipPath><clipPath id="08d3ea84ac"><path d="M 166.191406 127.503906 L 80.777344 181.4375 L 0.871094 54.902344 L 86.285156 0.964844 Z M 166.191406 127.503906 " clip-rule="nonzero"/></clipPath><clipPath id="888874e03a"><path d="M 93 167 L 94 167 L 94 168 L 93 168 Z M 93 167 " clip-rule="nonzero"/></clipPath><clipPath id="512137b5d4"><path d="M 166.191406 127.503906 L 80.777344 181.4375 L 0.871094 54.902344 L 86.285156 0.964844 Z M 166.191406 127.503906 " clip-rule="nonzero"/></clipPath><clipPath id="b3909cabf4"><path d="M 166.191406 127.503906 L 80.777344 181.4375 L 0.871094 54.902344 L 86.285156 0.964844 Z M 166.191406 127.503906 " clip-rule="nonzero"/></clipPath><clipPath id="69d1280e3f"><path d="M 166.191406 127.503906 L 80.777344 181.4375 L 0.871094 54.902344 L 86.285156 0.964844 Z M 166.191406 127.503906 " clip-rule="nonzero"/></clipPath><clipPath id="07e78a385e"><rect x="0" width="112" y="0" height="182"/></clipPath></defs><g clip-path="url(#644a3adc53)"><g mask="url(#eab0ceaa91)"><g transform="matrix(1, 0, 0, 1, 0.000000000000000028, 0)"><g clip-path="url(#913f400d55)"><g clip-path="url(#416457aa3d)"><g clip-path="url(#d33e51351c)"><g clip-path="url(#224c6415c0)"><g clip-path="url(#d5d7b7cdf6)"><path fill="#000000" d="M 102.164062 66.664062 C 98.238281 68.199219 94.332031 69.800781 90.367188 71.25 C 88.53125 71.921875 86.582031 72.292969 84.683594 72.800781 C 84.652344 72.714844 84.621094 72.632812 84.589844 72.550781 C 85.601562 72.175781 86.589844 71.761719 87.617188 71.4375 C 93.320312 69.628906 99.066406 67.933594 104.164062 64.652344 C 105.945312 63.507812 107.691406 62.308594 109.4375 61.113281 C 109.785156 60.875 110.066406 60.546875 110.511719 60.144531 C 108.34375 60.691406 106.390625 61.203125 104.429688 61.679688 C 99.261719 62.9375 94.03125 63.546875 88.707031 63.183594 C 85.472656 62.964844 82.242188 62.695312 79.003906 62.472656 C 73.875 62.121094 68.746094 61.773438 63.609375 61.457031 C 62.890625 61.414062 62.15625 61.605469 61.429688 61.558594 C 61.03125 61.535156 60.644531 61.238281 60.25 61.066406 C 60.5 60.753906 60.6875 60.3125 61.011719 60.140625 C 64.714844 58.167969 68.445312 56.25 72.15625 54.289062 C 73.449219 53.605469 74.664062 52.789062 75.972656 52.148438 C 78.453125 50.933594 80.910156 49.621094 83.496094 48.671875 C 87.734375 47.117188 92.035156 45.726562 96.363281 44.425781 C 101.964844 42.746094 107.546875 42.621094 113.054688 45 C 116.433594 46.457031 119.871094 47.777344 123.3125 49.089844 C 123.769531 49.265625 124.449219 49.199219 124.894531 48.976562 C 130.132812 46.429688 134.238281 42.417969 138.28125 38.347656 C 140.542969 36.070312 142.886719 33.84375 144.9375 31.382812 C 147.242188 28.621094 149.300781 25.648438 151.386719 22.703125 C 152.691406 20.859375 153.839844 18.90625 155.066406 17.011719 C 157.761719 12.851562 159.253906 8.21875 160.648438 3.507812 C 161.773438 -0.28125 162.722656 -4.082031 163.367188 -7.980469 C 163.628906 -9.558594 164.441406 -11.070312 165.15625 -12.535156 C 165.390625 -13.007812 166.144531 -13.570312 166.601562 -13.523438 C 167.449219 -13.433594 167.386719 -12.535156 167.398438 -11.839844 C 167.460938 -8.585938 166.859375 -5.464844 165.804688 -2.390625 C 164.832031 0.4375 164.21875 3.394531 163.128906 6.171875 C 162.050781 8.914062 160.761719 11.613281 159.246094 14.128906 C 156.460938 18.75 153.597656 23.339844 150.460938 27.722656 C 148.308594 30.730469 145.644531 33.371094 143.203125 36.171875 C 142.964844 36.445312 142.683594 36.675781 142.441406 36.914062 C 143.714844 40.703125 143.605469 44.566406 143.539062 48.433594 C 143.390625 56.671875 140.664062 64.246094 137.695312 71.773438 C 136.253906 75.429688 134.355469 78.804688 132.183594 82.078125 C 129.476562 86.167969 126.660156 90.144531 123.308594 93.730469 C 123.136719 93.917969 122.996094 94.167969 122.785156 94.28125 C 122.554688 94.40625 122.148438 94.539062 122.023438 94.4375 C 121.824219 94.265625 121.632812 93.847656 121.710938 93.621094 C 123.183594 89.320312 123.175781 84.773438 123.851562 80.34375 C 124.3125 77.3125 124.660156 74.265625 124.976562 71.214844 C 125.640625 64.816406 127.679688 58.832031 130.226562 52.976562 C 130.976562 51.246094 131.648438 49.480469 132.152344 47.546875 C 130.570312 48.84375 128.921875 50.078125 127.414062 51.464844 C 122.558594 55.925781 119.117188 61.46875 116.171875 67.253906 C 114.320312 70.898438 113.074219 74.875 111.820312 78.789062 C 111.339844 80.296875 111.625 82.039062 111.496094 83.667969 C 111.425781 84.558594 111.382812 85.515625 111.027344 86.308594 C 110.835938 86.738281 109.925781 87.1875 109.488281 87.070312 C 109.050781 86.957031 108.53125 86.15625 108.511719 85.636719 C 108.457031 84.179688 109.335938 83.046875 110.21875 81.964844 C 110.371094 81.78125 110.605469 81.625 110.675781 81.414062 C 111.835938 77.929688 113.292969 74.5 114.050781 70.925781 C 115.148438 65.699219 117.929688 61.367188 120.480469 56.867188 C 120.667969 56.53125 120.785156 56.152344 120.9375 55.792969 C 120.984375 55.78125 121.03125 55.769531 121.074219 55.757812 C 121.046875 55.75 121.015625 55.730469 121.003906 55.738281 C 120.984375 55.761719 120.96875 55.792969 120.957031 55.820312 C 116.945312 58.726562 112.929688 61.628906 108.929688 64.542969 C 106.65625 66.195312 104.394531 67.859375 102.148438 69.550781 C 99.410156 71.617188 96.710938 73.726562 93.976562 75.789062 C 91.648438 77.550781 89.285156 79.265625 86.957031 81.023438 C 82.445312 84.425781 77.894531 87.789062 73.46875 91.296875 C 71.644531 92.742188 70.078125 94.507812 68.457031 96.183594 C 68.1875 96.460938 68.113281 97.0625 68.171875 97.484375 C 68.617188 100.734375 69.125 103.980469 69.589844 107.234375 C 70.847656 116.035156 70.054688 124.707031 67.144531 133.050781 C 65.808594 136.890625 63.472656 140.410156 61.453125 143.992188 C 60.367188 145.925781 59.023438 147.722656 57.726562 149.523438 C 56.984375 150.550781 56.105469 151.492188 55.234375 152.417969 C 55.027344 152.636719 54.535156 152.804688 54.292969 152.710938 C 54.050781 152.613281 53.824219 152.15625 53.804688 151.847656 C 53.472656 146.019531 53.011719 140.195312 52.925781 134.363281 C 52.871094 130.921875 53.003906 127.363281 53.792969 124.03125 C 55.050781 118.722656 56.863281 113.542969 58.585938 108.351562 C 59.058594 106.933594 60.035156 105.679688 60.785156 104.347656 C 60.851562 104.167969 60.917969 103.984375 60.984375 103.804688 C 61.007812 103.824219 61.03125 103.839844 61.054688 103.859375 C 61.035156 103.859375 61.007812 103.863281 60.988281 103.863281 C 61 103.839844 61.015625 103.8125 61.03125 103.789062 C 60.960938 103.980469 60.878906 104.175781 60.808594 104.367188 C 59.636719 105.433594 58.441406 106.476562 57.300781 107.574219 C 56.410156 108.4375 55.601562 109.382812 54.734375 110.265625 C 52.992188 112.054688 52.65625 114.484375 51.8125 116.679688 C 49.921875 121.648438 49.964844 126.914062 49.476562 132.097656 C 49.425781 132.640625 49.402344 133.199219 49.253906 133.71875 C 48.964844 134.703125 48.816406 135.589844 49.175781 136.667969 C 49.40625 137.347656 48.925781 138.308594 48.640625 139.097656 C 48.566406 139.296875 48.003906 139.457031 47.714844 139.402344 C 47.480469 139.359375 47.167969 138.960938 47.152344 138.707031 C 47.125 138.066406 47.070312 137.332031 47.335938 136.792969 C 48.769531 133.894531 49.023438 130.789062 49.113281 127.636719 C 49.234375 123.550781 49.425781 119.464844 50.804688 115.503906 C 49.777344 117.234375 48.699219 118.933594 47.742188 120.699219 C 44.714844 126.269531 42.613281 132.195312 40.726562 138.246094 C 39.296875 142.832031 38.199219 147.460938 37.480469 152.1875 C 37.347656 153.074219 37.316406 154.050781 37.550781 154.898438 C 38.285156 157.53125 39.003906 160.195312 40.820312 162.351562 C 41.121094 162.707031 41.597656 162.925781 42.003906 163.183594 C 42.273438 163.355469 42.667969 163.429688 42.828125 163.671875 C 43.070312 164.039062 43.207031 164.503906 43.285156 164.945312 C 43.304688 165.066406 42.867188 165.417969 42.789062 165.378906 C 42.421875 165.191406 42.023438 164.957031 41.796875 164.636719 C 40.625 162.984375 39.5 161.300781 38.179688 159.367188 C 38.207031 159.921875 38.195312 160.1875 38.238281 160.441406 C 38.78125 163.421875 39.285156 166.410156 39.898438 169.375 C 40.480469 172.191406 40.972656 175.054688 41.890625 177.761719 C 42.722656 180.222656 43.996094 182.554688 45.269531 184.835938 C 45.664062 185.546875 46.714844 185.882812 47.441406 186.421875 C 47.964844 186.808594 48.511719 187.1875 48.921875 187.679688 C 49.121094 187.917969 49.179688 188.546875 49.003906 188.75 C 48.777344 189.019531 48.136719 189.265625 47.898438 189.132812 C 47.261719 188.769531 46.574219 188.300781 46.210938 187.6875 C 43.808594 183.644531 41.496094 179.574219 40.355469 174.914062 C 39.570312 171.671875 38.347656 168.539062 37.363281 165.488281 C 37.257812 165.863281 37.082031 166.492188 36.890625 167.125 C 34.484375 174.988281 30.117188 181.390625 23.003906 185.710938 C 21.828125 186.429688 20.523438 186.953125 19.242188 187.476562 C 18.574219 187.75 18.152344 187.414062 18.324219 186.648438 C 19.574219 181.058594 20.789062 175.460938 22.109375 169.890625 C 23.515625 163.953125 26.640625 159.035156 31.167969 154.96875 C 32.355469 153.902344 33.519531 152.765625 34.464844 151.488281 C 35.175781 150.527344 35.664062 149.335938 35.996094 148.171875 C 37.515625 142.84375 38.945312 137.492188 40.414062 132.148438 C 40.484375 131.871094 40.582031 131.605469 40.523438 131.25 C 40.078125 131.90625 39.617188 132.550781 39.191406 133.21875 C 36.394531 137.617188 33.125 141.605469 29.039062 144.898438 C 26.773438 146.722656 24.503906 148.554688 22.359375 150.523438 C 21.589844 151.230469 21.191406 152.335938 20.625 153.261719 C 20.265625 153.847656 19.984375 154.5 19.542969 155.019531 C 19.007812 155.640625 18.15625 155.820312 17.59375 155.253906 C 17.242188 154.898438 17.117188 154.03125 17.277344 153.515625 C 17.730469 152.046875 19.195312 151.636719 20.355469 150.910156 C 22.226562 149.746094 24.152344 148.625 25.839844 147.21875 C 31.023438 142.902344 35.035156 137.585938 38.578125 131.882812 C 39.558594 130.3125 40.714844 128.855469 41.789062 127.339844 C 41.875 127.136719 41.964844 126.9375 42.046875 126.738281 C 42.039062 126.726562 42.03125 126.71875 42.027344 126.703125 C 42.023438 126.722656 42.023438 126.734375 42.015625 126.753906 C 41.941406 126.953125 41.867188 127.160156 41.792969 127.359375 C 41.496094 127.476562 41.148438 127.53125 40.914062 127.71875 C 38.34375 129.769531 35.925781 132.03125 33.207031 133.851562 C 30.433594 135.707031 27.460938 137.347656 24.410156 138.691406 C 19.183594 140.984375 13.738281 142.613281 8.019531 143.214844 C 6.066406 143.417969 4.121094 143.773438 2.167969 144.007812 C 1.875 144.042969 1.550781 143.808594 1.242188 143.703125 C 1.375 143.429688 1.429688 143.042969 1.648438 142.90625 C 5.859375 140.183594 9.136719 136.40625 12.800781 133.070312 C 14.496094 131.527344 16.050781 129.820312 17.648438 128.171875 C 22.535156 123.121094 28.25 119.355469 34.96875 117.28125 C 38.445312 116.214844 42.023438 115.445312 45.574219 114.636719 C 48.378906 113.992188 50.488281 112.421875 52.25 110.207031 C 53.386719 108.785156 54.632812 107.449219 55.890625 106.132812 C 59.042969 102.835938 62.222656 99.574219 65.40625 96.304688 C 66.628906 95.050781 67.777344 93.703125 69.125 92.605469 C 75.003906 87.804688 80.886719 83.003906 86.878906 78.347656 C 91.675781 74.613281 96.632812 71.082031 101.5 67.449219 C 101.757812 67.253906 101.914062 66.925781 102.113281 66.667969 C 102.132812 66.679688 102.152344 66.691406 102.175781 66.703125 C 102.160156 66.707031 102.144531 66.710938 102.128906 66.707031 C 102.144531 66.707031 102.152344 66.6875 102.164062 66.664062 Z M 18.867188 153.183594 C 18.886719 153.148438 18.898438 153.109375 18.917969 153.066406 C 18.914062 153.101562 18.910156 153.132812 18.914062 153.160156 C 18.90625 153.152344 18.902344 153.136719 18.894531 153.125 C 18.878906 153.148438 18.871094 153.167969 18.867188 153.183594 Z M 48.050781 116.230469 C 47.457031 116.757812 46.917969 117.363281 46.261719 117.789062 C 44.410156 119.003906 42.507812 120.136719 40.625 121.308594 L 40.644531 121.328125 C 41.035156 120.96875 41.417969 120.597656 41.824219 120.253906 C 43.429688 118.878906 45.042969 117.511719 46.652344 116.144531 C 43.90625 116.558594 41.351562 117.289062 38.75 117.804688 C 31.671875 119.195312 25.597656 122.578125 20.316406 127.320312 C 15.347656 131.78125 10.640625 136.523438 5.832031 141.152344 C 5.722656 141.257812 5.691406 141.441406 5.621094 141.589844 L 5.539062 141.582031 C 5.539062 141.582031 5.605469 141.605469 5.605469 141.605469 C 8.054688 140.621094 10.496094 139.632812 12.917969 138.660156 C 10.800781 140.160156 8.546875 141.484375 5.988281 142.207031 C 6.003906 142.222656 6.015625 142.238281 6.027344 142.253906 C 6.023438 142.230469 6.019531 142.199219 6.015625 142.175781 C 6.296875 142.214844 6.589844 142.320312 6.867188 142.289062 C 13.566406 141.574219 19.882812 139.59375 25.964844 136.699219 C 30.15625 134.703125 33.800781 131.957031 37.460938 129.160156 C 41.832031 125.816406 45.222656 121.699219 47.855469 116.910156 C 47.972656 116.707031 47.988281 116.445312 48.050781 116.210938 C 48.085938 116.210938 48.121094 116.210938 48.15625 116.210938 C 48.109375 116.214844 48.082031 116.222656 48.050781 116.230469 Z M 136.140625 55.070312 L 136.144531 55.082031 C 136.210938 54.996094 136.308594 54.917969 136.332031 54.828125 C 136.832031 52.628906 137.3125 50.429688 137.832031 48.238281 C 138.035156 47.390625 138.320312 46.5625 138.574219 45.726562 C 139.316406 43.320312 140.0625 40.914062 140.804688 38.511719 C 139.058594 40.097656 137.242188 41.703125 135.996094 43.671875 C 134.332031 46.304688 133.046875 49.183594 131.71875 52.015625 C 128.398438 59.089844 126.507812 66.539062 125.800781 74.328125 C 125.367188 79.085938 124.632812 83.820312 124.03125 88.5625 C 123.949219 89.21875 123.875 89.871094 123.792969 90.527344 C 124.136719 90.210938 124.386719 89.855469 124.542969 89.464844 C 126.070312 85.679688 127.578125 81.894531 129.09375 78.109375 C 129.558594 76.945312 130.039062 75.796875 130.511719 74.636719 C 130.511719 74.636719 130.511719 74.628906 130.511719 74.628906 C 130.429688 74.824219 130.335938 75.015625 130.265625 75.222656 C 129.464844 77.550781 128.71875 79.902344 127.847656 82.207031 C 126.824219 84.886719 125.6875 87.519531 124.597656 90.171875 C 125.003906 89.984375 125.257812 89.726562 125.480469 89.445312 C 131.1875 82.253906 135.757812 74.480469 138.804688 65.734375 C 141.4375 58.175781 142.785156 50.519531 142.410156 42.546875 C 142.351562 41.320312 142.171875 40.101562 142.046875 38.875 C 141.507812 39.425781 141.203125 39.96875 141 40.542969 C 140.632812 41.574219 140.5 42.71875 139.96875 43.648438 C 138.367188 46.46875 138.195312 49.695312 137.195312 52.679688 C 136.925781 53.5 136.5 54.273438 136.140625 55.070312 Z M 65.136719 59.609375 C 65.804688 59.460938 66.472656 59.316406 67.136719 59.171875 L 67.117188 59.148438 C 66.460938 59.457031 65.800781 59.765625 64.890625 60.195312 C 65.441406 60.261719 65.710938 60.304688 65.980469 60.328125 C 71.464844 60.71875 76.949219 61.117188 82.433594 61.5 C 85.621094 61.71875 88.820312 62.085938 92.011719 62.070312 C 96.050781 62.050781 100.042969 61.382812 104.007812 60.53125 C 109.558594 59.335938 114.679688 57.15625 119.53125 54.269531 C 119.839844 54.089844 120.058594 53.746094 120.320312 53.488281 C 120.367188 53.519531 120.417969 53.550781 120.460938 53.582031 C 120.472656 53.539062 120.488281 53.496094 120.496094 53.457031 C 120.441406 53.476562 120.386719 53.5 120.332031 53.519531 C 115.226562 54.785156 109.945312 53.921875 107.289062 54.542969 C 111.277344 54.355469 117.515625 52.859375 123.992188 50.878906 C 120.730469 49.523438 117.761719 48.398438 114.882812 47.085938 C 108.730469 44.285156 102.507812 44.085938 96 45.804688 C 91.789062 46.917969 87.699219 48.320312 83.628906 49.808594 C 81.589844 50.558594 79.617188 51.539062 77.699219 52.566406 C 74.871094 54.082031 72.117188 55.738281 69.328125 57.324219 C 67.945312 58.109375 66.542969 58.875 65.148438 59.648438 C 65.066406 59.675781 64.984375 59.699219 64.90625 59.722656 C 64.929688 59.746094 64.949219 59.769531 64.972656 59.792969 C 65.027344 59.71875 65.082031 59.660156 65.136719 59.609375 Z M 55.390625 150.671875 C 60.457031 143.558594 65.507812 136.488281 67.390625 127.664062 C 69.25 118.933594 69.144531 110.261719 67.4375 101.558594 C 66.863281 104.496094 66.445312 107.472656 64.859375 110.144531 C 65.277344 106.691406 65.699219 103.246094 66.152344 99.542969 C 65.835938 99.84375 65.679688 99.941406 65.59375 100.074219 C 63.464844 103.460938 61.191406 106.773438 59.273438 110.28125 C 58.261719 112.140625 57.898438 114.347656 57.203125 116.382812 C 55.691406 120.8125 54.1875 125.246094 54.203125 130.003906 C 54.21875 133.980469 54.273438 137.957031 54.398438 141.929688 C 54.472656 144.246094 54.722656 146.558594 54.898438 148.875 C 55.015625 148.894531 55.132812 148.910156 55.25 148.929688 C 57.136719 142.644531 59.023438 136.363281 60.910156 130.074219 C 61 130.101562 61.089844 130.132812 61.175781 130.15625 C 59.75 137.128906 57.0625 143.746094 55.390625 150.671875 Z M 19.703125 186.257812 C 26.898438 182.742188 31.757812 177.351562 34.695312 170.152344 C 36.425781 165.90625 37.378906 161.550781 36.453125 156.949219 C 35.148438 162.554688 32.359375 167.449219 29.59375 172.355469 C 30.984375 169.207031 32.703125 166.167969 33.71875 162.902344 C 34.746094 159.597656 35.328125 156.109375 35.339844 152.484375 C 33.875 153.925781 32.496094 155.257812 31.144531 156.613281 C 28.082031 159.695312 25.347656 163.011719 24.183594 167.308594 C 23.042969 171.527344 21.992188 175.773438 20.96875 180.019531 C 20.488281 182 20.152344 184.015625 19.703125 186.257812 Z M 19.703125 186.257812 " fill-opacity="1" fill-rule="nonzero"/></g></g></g></g><g clip-path="url(#628d1de48e)"><g clip-path="url(#c96d604ec4)"><g clip-path="url(#9b8824f6a1)"><g clip-path="url(#ba92dc940a)"><path fill="#000000" d="M 82.378906 73.382812 C 82.210938 73.441406 82.050781 73.546875 81.878906 73.558594 C 80.578125 73.632812 79.46875 74.027344 78.496094 75.003906 C 77.71875 75.78125 76.597656 76.046875 75.5625 75.484375 C 75.121094 75.238281 74.65625 74.640625 74.625 74.175781 C 74.589844 73.71875 74.972656 73.050781 75.375 72.773438 C 76.429688 72.035156 77.664062 72.136719 78.667969 72.820312 C 79.316406 73.265625 79.855469 73.351562 80.566406 73.226562 C 81.15625 73.125 81.765625 73.15625 82.363281 73.125 C 82.371094 73.207031 82.375 73.292969 82.378906 73.382812 Z M 82.378906 73.382812 " fill-opacity="1" fill-rule="nonzero"/></g></g></g></g><g clip-path="url(#7f4cc0a4e5)"><g clip-path="url(#097ae53945)"><g clip-path="url(#4145b47783)"><g clip-path="url(#9bca58edb3)"><path fill="#000000" d="M 67.136719 59.164062 C 72.203125 57.804688 79.671875 56.402344 84.785156 56.640625 C 83.640625 56.875 82.511719 57.171875 81.359375 57.332031 C 76.9375 57.953125 72.503906 58.53125 68.074219 59.121094 C 67.761719 59.160156 67.433594 59.140625 67.117188 59.148438 C 67.121094 59.144531 67.136719 59.164062 67.136719 59.164062 Z M 67.136719 59.164062 " fill-opacity="1" fill-rule="nonzero"/></g></g></g></g><g clip-path="url(#ec0f684e7c)"><g clip-path="url(#d7ccbcfc6e)"><g clip-path="url(#ea4164636e)"><g clip-path="url(#c987501d47)"><path fill="#000000" d="M 90.886719 56.042969 C 91.222656 55.894531 91.554688 55.652344 91.902344 55.621094 C 95.054688 55.335938 98.210938 55.085938 101.363281 54.832031 C 101.867188 54.796875 102.371094 54.789062 102.882812 54.863281 C 98.953125 56.003906 94.839844 55.277344 90.871094 56.03125 C 90.871094 56.035156 90.886719 56.042969 90.886719 56.042969 Z M 90.886719 56.042969 " fill-opacity="1" fill-rule="nonzero"/></g></g></g></g><g clip-path="url(#cb73f7afac)"><g clip-path="url(#7c4757ecff)"><g clip-path="url(#f308d8d422)"><g clip-path="url(#a2d4f6b214)"><path fill="#000000" d="M 90.871094 56.035156 C 90.699219 56.015625 90.53125 55.996094 90.359375 55.972656 C 90.359375 55.953125 90.363281 55.9375 90.363281 55.917969 C 90.535156 55.960938 90.707031 55.996094 90.882812 56.042969 C 90.886719 56.042969 90.871094 56.035156 90.871094 56.035156 Z M 90.871094 56.035156 " fill-opacity="1" fill-rule="nonzero"/></g></g></g></g><g clip-path="url(#8ff37a7a06)"><g clip-path="url(#8244a5feb3)"><g clip-path="url(#a5e12605ad)"><g clip-path="url(#e6de44a7bf)"><path fill="#000000" d="M 61.714844 127.039062 C 62.566406 122.148438 63.421875 117.277344 64.269531 112.410156 C 64.433594 112.441406 64.59375 112.46875 64.757812 112.503906 C 64.035156 117.402344 63.304688 122.292969 61.714844 127.039062 Z M 61.714844 127.039062 " fill-opacity="1" fill-rule="nonzero"/></g></g></g></g><g clip-path="url(#b84cfe25ca)"><g clip-path="url(#32a1888191)"><g clip-path="url(#ac9c2ee425)"><g clip-path="url(#1bbfbc63da)"><path fill="#000000" d="M 130.515625 74.636719 C 130.554688 74.09375 130.496094 73.527344 130.644531 73.019531 C 131.703125 69.347656 132.796875 65.691406 133.898438 62.03125 C 134.109375 61.34375 134.421875 60.683594 134.761719 59.816406 C 134.824219 60.152344 134.914062 60.320312 134.875 60.449219 C 133.5 64.859375 132.113281 69.261719 130.730469 73.667969 C 130.632812 73.976562 130.578125 74.300781 130.507812 74.625 C 130.511719 74.625 130.515625 74.636719 130.515625 74.636719 Z M 130.515625 74.636719 " fill-opacity="1" fill-rule="nonzero"/></g></g></g></g><g clip-path="url(#6be6369e43)"><g clip-path="url(#41355353b9)"><g clip-path="url(#c8bb2f3484)"><g clip-path="url(#8134776d1c)"><path fill="#000000" d="M 136.140625 55.070312 C 136.050781 55.816406 135.960938 56.566406 135.867188 57.3125 C 135.730469 57.289062 135.589844 57.265625 135.453125 57.242188 C 135.6875 56.523438 135.921875 55.8125 136.148438 55.089844 C 136.144531 55.082031 136.140625 55.070312 136.140625 55.070312 Z M 136.140625 55.070312 " fill-opacity="1" fill-rule="nonzero"/></g></g></g></g><g clip-path="url(#6b85067493)"><g clip-path="url(#ce5257c5d1)"><g clip-path="url(#e20f06ea6d)"><g clip-path="url(#c9a07c87de)"><path fill="#000000" d="M 15.34375 136.972656 C 18.742188 134.628906 22.140625 132.28125 25.550781 129.941406 C 25.71875 129.820312 25.949219 129.785156 26.144531 129.714844 L 26.125 129.691406 C 25.570312 130.152344 25.054688 130.65625 24.464844 131.058594 C 21.628906 132.972656 18.78125 134.871094 15.929688 136.761719 C 15.761719 136.875 15.527344 136.886719 15.320312 136.941406 Z M 15.34375 136.972656 " fill-opacity="1" fill-rule="nonzero"/></g></g></g></g><g clip-path="url(#4a71014f70)"><g clip-path="url(#e9f8197724)"><g clip-path="url(#1617ae19cd)"><g clip-path="url(#4c97467ba8)"><path fill="#000000" d="M 33.707031 125.269531 C 35.738281 124.113281 37.765625 122.953125 39.800781 121.808594 C 39.902344 121.75 40.0625 121.796875 40.195312 121.792969 C 40.195312 121.792969 40.171875 121.757812 40.171875 121.757812 C 38.214844 122.898438 36.253906 124.042969 34.285156 125.164062 C 34.125 125.261719 33.886719 125.214844 33.679688 125.234375 Z M 33.707031 125.269531 " fill-opacity="1" fill-rule="nonzero"/></g></g></g></g><g clip-path="url(#2f8479aa81)"><g clip-path="url(#76584dbe58)"><g clip-path="url(#02fc0ce4f8)"><g clip-path="url(#6482b210b1)"><path fill="#000000" d="M 33.535156 125.585938 C 32.339844 126.230469 31.148438 126.875 29.953125 127.523438 L 29.972656 127.542969 C 31.167969 126.90625 32.367188 126.265625 33.558594 125.625 C 33.554688 125.617188 33.535156 125.585938 33.535156 125.585938 Z M 33.535156 125.585938 " fill-opacity="1" fill-rule="nonzero"/></g></g></g></g><g clip-path="url(#cf09974391)"><g clip-path="url(#791eea8865)"><g clip-path="url(#293f6cffc8)"><g clip-path="url(#766e0a8a7e)"><path fill="#000000" d="M 29.953125 127.523438 C 29.492188 127.765625 29.027344 128.007812 28.5625 128.25 C 28.5625 128.25 28.585938 128.277344 28.585938 128.277344 C 29.046875 128.035156 29.511719 127.785156 29.972656 127.542969 C 29.972656 127.542969 29.953125 127.523438 29.953125 127.523438 Z M 29.953125 127.523438 " fill-opacity="1" fill-rule="nonzero"/></g></g></g></g><g clip-path="url(#5319841f16)"><g clip-path="url(#74ecaa6efe)"><g clip-path="url(#a60045eb0e)"><g clip-path="url(#21d0b48a60)"><path fill="#000000" d="M 27.558594 128.738281 C 27.898438 128.585938 28.238281 128.425781 28.578125 128.273438 C 28.578125 128.273438 28.558594 128.246094 28.558594 128.246094 C 28.214844 128.398438 27.875 128.558594 27.53125 128.710938 C 27.535156 128.710938 27.558594 128.738281 27.558594 128.738281 Z M 27.558594 128.738281 " fill-opacity="1" fill-rule="nonzero"/></g></g></g></g><g clip-path="url(#aeffb1af5f)"><g clip-path="url(#5247f7babe)"><g clip-path="url(#99c4d68d70)"><g clip-path="url(#bbdf34744e)"><path fill="#000000" d="M 26.335938 129.417969 C 26.625 129.390625 26.910156 129.355469 27.195312 129.320312 C 27.195312 129.316406 27.1875 129.300781 27.1875 129.300781 C 26.894531 129.328125 26.609375 129.351562 26.320312 129.386719 C 26.320312 129.390625 26.335938 129.417969 26.335938 129.417969 Z M 26.335938 129.417969 " fill-opacity="1" fill-rule="nonzero"/></g></g></g></g><g clip-path="url(#7873231c4a)"><g clip-path="url(#e870493092)"><g clip-path="url(#466baeb796)"><g clip-path="url(#583d003b3a)"><path fill="#000000" d="M 27.535156 128.710938 C 27.484375 128.808594 27.4375 128.90625 27.386719 129.003906 L 27.414062 129.027344 C 27.464844 128.929688 27.511719 128.835938 27.558594 128.738281 C 27.558594 128.738281 27.535156 128.710938 27.535156 128.710938 Z M 27.535156 128.710938 " fill-opacity="1" fill-rule="nonzero"/></g></g></g></g><g clip-path="url(#fda331669a)"><g clip-path="url(#884c02bff8)"><g clip-path="url(#b9004210fb)"><g clip-path="url(#14547d6e00)"><path fill="#000000" d="M 40.199219 121.792969 C 40.273438 121.714844 40.347656 121.636719 40.421875 121.558594 C 40.421875 121.558594 40.398438 121.53125 40.398438 121.53125 C 40.324219 121.609375 40.25 121.683594 40.179688 121.757812 C 40.179688 121.757812 40.199219 121.792969 40.199219 121.792969 Z M 40.199219 121.792969 " fill-opacity="1" fill-rule="nonzero"/><path fill="#000000" d="M 40.625 121.308594 C 40.546875 121.382812 40.472656 121.457031 40.398438 121.53125 C 40.398438 121.53125 40.421875 121.558594 40.425781 121.5625 C 40.5 121.484375 40.574219 121.40625 40.648438 121.328125 C 40.644531 121.328125 40.625 121.308594 40.625 121.308594 Z M 40.625 121.308594 " fill-opacity="1" fill-rule="nonzero"/></g></g></g></g><g clip-path="url(#cc230bfd12)"><g clip-path="url(#13edc401c6)"><g clip-path="url(#405831c418)"><g clip-path="url(#40a0dab444)"><path fill="#000000" d="M 27.386719 129.003906 C 27.316406 129.101562 27.246094 129.191406 27.175781 129.292969 C 27.179688 129.296875 27.1875 129.320312 27.1875 129.320312 C 27.265625 129.222656 27.335938 129.125 27.410156 129.027344 C 27.414062 129.027344 27.386719 129.003906 27.386719 129.003906 Z M 27.386719 129.003906 " fill-opacity="1" fill-rule="nonzero"/></g></g></g></g><g clip-path="url(#f05d687917)"><g clip-path="url(#feb781b2c6)"><g clip-path="url(#f075fe9c40)"><g clip-path="url(#a76e7d89da)"><path fill="#000000" d="M 26.144531 129.714844 C 26.210938 129.617188 26.273438 129.527344 26.335938 129.425781 C 26.332031 129.417969 26.316406 129.390625 26.316406 129.386719 C 26.25 129.484375 26.1875 129.589844 26.125 129.691406 C 26.125 129.691406 26.144531 129.714844 26.144531 129.714844 Z M 26.144531 129.714844 " fill-opacity="1" fill-rule="nonzero"/></g></g></g></g><g clip-path="url(#115996ef9e)"><g clip-path="url(#915357e31c)"><g clip-path="url(#e543f8ecc4)"><g clip-path="url(#96b033d8c4)"><path fill="#000000" d="M 15.320312 136.941406 C 15.253906 137.011719 15.179688 137.082031 15.113281 137.15625 C 15.113281 137.15625 15.132812 137.175781 15.132812 137.175781 C 15.207031 137.113281 15.273438 137.039062 15.347656 136.972656 C 15.34375 136.972656 15.320312 136.941406 15.320312 136.941406 Z M 15.320312 136.941406 " fill-opacity="1" fill-rule="nonzero"/></g></g></g></g><g clip-path="url(#af088eebd7)"><g clip-path="url(#1d23c39527)"><g clip-path="url(#48292cb9f9)"><g clip-path="url(#9eddb84258)"><path fill="#000000" d="M 15.113281 137.15625 C 15.019531 137.261719 14.925781 137.371094 14.832031 137.484375 L 14.882812 137.480469 C 14.964844 137.378906 15.050781 137.28125 15.132812 137.183594 C 15.128906 137.179688 15.113281 137.15625 15.113281 137.15625 Z M 15.113281 137.15625 " fill-opacity="1" fill-rule="nonzero"/></g></g></g></g><g clip-path="url(#d5f8003296)"><g clip-path="url(#80c4436685)"><g clip-path="url(#9c7a0aba9e)"><g clip-path="url(#27749a9aa4)"><path fill="#000000" d="M 14.828125 137.484375 C 14.84375 137.464844 14.859375 137.441406 14.875 137.425781 C 14.855469 137.425781 14.835938 137.429688 14.816406 137.425781 C 14.835938 137.445312 14.859375 137.457031 14.878906 137.472656 C 14.878906 137.480469 14.828125 137.484375 14.828125 137.484375 Z M 14.828125 137.484375 " fill-opacity="1" fill-rule="nonzero"/></g></g></g></g><g clip-path="url(#1f65b8fab2)"><g clip-path="url(#f44360051d)"><g clip-path="url(#85daf5421e)"><g clip-path="url(#13fdb7c68d)"><path fill="#000000" d="M 33.691406 125.238281 C 33.636719 125.351562 33.582031 125.460938 33.535156 125.582031 C 33.535156 125.585938 33.558594 125.613281 33.558594 125.617188 C 33.613281 125.507812 33.664062 125.386719 33.710938 125.269531 C 33.707031 125.269531 33.691406 125.238281 33.691406 125.238281 Z M 33.691406 125.238281 " fill-opacity="1" fill-rule="nonzero"/></g></g></g></g><g clip-path="url(#1bddb00b6e)"><g clip-path="url(#6951212994)"><g clip-path="url(#5cfd09e04f)"><g clip-path="url(#fed816349a)"><path fill="#000000" d="M 24.167969 180.464844 C 25.089844 178.917969 26 177.351562 26.953125 175.820312 C 27.476562 174.976562 28.085938 174.191406 28.6875 173.335938 C 28.785156 173.515625 28.859375 173.589844 28.84375 173.628906 C 27.726562 176.207031 26.292969 178.570312 24.148438 180.441406 C 24.144531 180.441406 24.167969 180.464844 24.167969 180.464844 Z M 24.167969 180.464844 " fill-opacity="1" fill-rule="nonzero"/></g></g></g></g><g clip-path="url(#9ce8165c4e)"><g clip-path="url(#f5bfdba38c)"><g clip-path="url(#513d9a5990)"><g clip-path="url(#56613a1cd7)"><path fill="#000000" d="M 23.304688 181.449219 C 23.125 182.066406 22.941406 182.683594 22.761719 183.300781 C 22.632812 183.25 22.511719 183.199219 22.382812 183.148438 C 22.699219 182.589844 23.015625 182.035156 23.332031 181.476562 C 23.335938 181.480469 23.304688 181.449219 23.304688 181.449219 Z M 23.304688 181.449219 " fill-opacity="1" fill-rule="nonzero"/></g></g></g></g><g clip-path="url(#df2dac78ba)"><g clip-path="url(#8fe75a178c)"><g clip-path="url(#6b3198a6da)"><g clip-path="url(#4d4c43e64e)"><path fill="#000000" d="M 23.542969 180.890625 C 23.75 180.746094 23.953125 180.609375 24.160156 180.464844 C 24.160156 180.464844 24.140625 180.441406 24.140625 180.441406 C 23.945312 180.59375 23.746094 180.742188 23.542969 180.890625 C 23.546875 180.890625 23.542969 180.890625 23.542969 180.890625 Z M 23.542969 180.890625 " fill-opacity="1" fill-rule="nonzero"/></g></g></g></g><g clip-path="url(#7ab7294179)"><g clip-path="url(#11ea8e6007)"><g clip-path="url(#59aa651780)"><g clip-path="url(#85f3a95927)"><path fill="#000000" d="M 23.546875 180.890625 C 23.464844 181.078125 23.386719 181.265625 23.304688 181.449219 C 23.304688 181.449219 23.332031 181.476562 23.332031 181.476562 C 23.40625 181.28125 23.472656 181.085938 23.546875 180.890625 C 23.542969 180.890625 23.546875 180.890625 23.546875 180.890625 Z M 23.546875 180.890625 " fill-opacity="1" fill-rule="nonzero"/></g></g></g></g></g></g></g></g><g clip-path="url(#33294b35e5)"><g mask="url(#3d1fa68823)"><g transform="matrix(1, 0, 0, 1, 69, 17)"><g clip-path="url(#07e78a385e)"><g clip-path="url(#3d61ed07a6)"><g clip-path="url(#e9d2cf4681)"><g clip-path="url(#6aca54d431)"><g clip-path="url(#f1fc1558ec)"><path fill="#000000" d="M 85.890625 72.285156 C 84.464844 74.8125 83.074219 77.367188 81.589844 79.863281 C 80.902344 81.019531 80.023438 82.066406 79.230469 83.164062 C 79.179688 83.132812 79.125 83.101562 79.070312 83.070312 C 79.449219 82.429688 79.796875 81.78125 80.203125 81.160156 C 82.460938 77.714844 84.789062 74.308594 86.085938 70.34375 C 86.539062 68.957031 86.945312 67.558594 87.359375 66.164062 C 87.441406 65.886719 87.449219 65.589844 87.511719 65.179688 C 86.59375 66.414062 85.773438 67.539062 84.933594 68.648438 C 82.722656 71.566406 80.195312 74.167969 77.199219 76.292969 C 75.375 77.585938 73.535156 78.847656 71.710938 80.140625 C 68.820312 82.1875 65.929688 84.234375 63.054688 86.300781 C 62.648438 86.59375 62.339844 87.015625 61.933594 87.304688 C 61.710938 87.464844 61.375 87.476562 61.089844 87.554688 C 61.085938 87.28125 60.996094 86.964844 61.09375 86.730469 C 62.210938 84.070312 63.367188 81.425781 64.496094 78.765625 C 64.890625 77.839844 65.183594 76.875 65.601562 75.964844 C 66.398438 74.238281 67.140625 72.46875 68.105469 70.839844 C 69.691406 68.164062 71.382812 65.550781 73.128906 62.976562 C 75.386719 59.640625 78.308594 57.144531 82.285156 56.011719 C 84.722656 55.316406 87.128906 54.523438 89.535156 53.71875 C 89.855469 53.613281 90.191406 53.285156 90.332031 52.972656 C 92.019531 49.335938 92.464844 45.410156 92.855469 41.484375 C 93.074219 39.289062 93.351562 37.082031 93.378906 34.878906 C 93.40625 32.40625 93.214844 29.925781 93.046875 27.449219 C 92.941406 25.902344 92.703125 24.363281 92.535156 22.820312 C 92.164062 19.433594 90.945312 16.316406 89.640625 13.199219 C 88.59375 10.695312 87.449219 8.257812 86.097656 5.902344 C 85.554688 4.949219 85.328125 3.789062 85.074219 2.699219 C 84.992188 2.34375 85.148438 1.71875 85.414062 1.542969 C 85.90625 1.21875 86.261719 1.726562 86.574219 2.09375 C 88.019531 3.796875 89.054688 5.71875 89.828125 7.816406 C 90.539062 9.742188 91.5 11.585938 92.125 13.539062 C 92.742188 15.464844 93.226562 17.464844 93.511719 19.464844 C 94.035156 23.136719 94.503906 26.828125 94.734375 30.527344 C 94.894531 33.0625 94.621094 35.628906 94.535156 38.183594 C 94.527344 38.433594 94.476562 38.679688 94.453125 38.910156 C 96.777344 40.371094 98.398438 42.476562 100.042969 44.566406 C 103.550781 49.015625 105.386719 54.234375 107.074219 59.535156 C 107.894531 62.105469 108.351562 64.730469 108.613281 67.417969 C 108.949219 70.773438 109.175781 74.117188 108.945312 77.488281 C 108.933594 77.660156 108.96875 77.855469 108.902344 78.007812 C 108.835938 78.171875 108.679688 78.421875 108.566406 78.421875 C 108.386719 78.417969 108.101562 78.277344 108.042969 78.125 C 106.960938 75.191406 104.980469 72.777344 103.414062 70.125 C 102.339844 68.308594 101.199219 66.535156 100.042969 64.773438 C 97.617188 61.078125 96.101562 57.003906 94.914062 52.78125 C 94.566406 51.53125 94.152344 50.300781 93.582031 49.050781 C 93.304688 50.429688 92.960938 51.804688 92.757812 53.199219 C 92.105469 57.691406 92.679688 62.136719 93.625 66.5 C 94.21875 69.246094 95.285156 71.90625 96.316406 74.535156 C 96.714844 75.546875 97.625 76.347656 98.265625 77.273438 C 98.617188 77.777344 99.007812 78.304688 99.164062 78.882812 C 99.246094 79.195312 98.957031 79.832031 98.671875 79.957031 C 98.390625 80.089844 97.765625 79.890625 97.53125 79.621094 C 96.867188 78.867188 96.84375 77.882812 96.84375 76.921875 C 96.84375 76.757812 96.902344 76.574219 96.847656 76.429688 C 95.953125 74.070312 95.238281 71.609375 94.085938 69.378906 C 92.402344 66.117188 92.003906 62.601562 91.40625 59.09375 C 91.363281 58.835938 91.257812 58.582031 91.183594 58.324219 C 91.203125 58.296875 91.222656 58.269531 91.238281 58.246094 C 91.222656 58.25 91.199219 58.253906 91.195312 58.265625 C 91.195312 58.285156 91.199219 58.308594 91.207031 58.332031 C 90.328125 61.625 89.449219 64.917969 88.578125 68.210938 C 88.085938 70.078125 87.601562 71.949219 87.140625 73.828125 C 86.574219 76.121094 86.050781 78.417969 85.492188 80.707031 C 85.011719 82.660156 84.5 84.601562 84.019531 86.550781 C 83.089844 90.328125 82.125 94.097656 81.289062 97.894531 C 80.945312 99.457031 80.875 101.078125 80.738281 102.675781 C 80.714844 102.941406 80.9375 103.292969 81.152344 103.492188 C 82.804688 105.03125 84.484375 106.535156 86.148438 108.066406 C 90.644531 112.199219 93.992188 117.164062 96.070312 122.871094 C 97.023438 125.5 97.308594 128.386719 97.789062 131.175781 C 98.050781 132.675781 98.113281 134.21875 98.203125 135.742188 C 98.253906 136.613281 98.195312 137.492188 98.132812 138.367188 C 98.117188 138.574219 97.925781 138.878906 97.757812 138.933594 C 97.585938 138.988281 97.265625 138.84375 97.121094 138.683594 C 94.410156 135.730469 91.632812 132.828125 89.050781 129.765625 C 87.523438 127.953125 86.046875 126.003906 85.019531 123.886719 C 83.386719 120.511719 82.097656 116.964844 80.761719 113.453125 C 80.394531 112.492188 80.371094 111.398438 80.195312 110.363281 C 80.152344 110.238281 80.109375 110.113281 80.066406 109.988281 C 80.085938 109.984375 80.105469 109.984375 80.125 109.984375 C 80.113281 109.996094 80.101562 110.007812 80.09375 110.015625 C 80.089844 110 80.085938 109.976562 80.082031 109.957031 C 80.128906 110.089844 80.171875 110.230469 80.214844 110.363281 C 80.054688 111.4375 79.867188 112.515625 79.738281 113.597656 C 79.636719 114.445312 79.617188 115.300781 79.539062 116.148438 C 79.386719 117.859375 80.261719 119.300781 80.769531 120.835938 C 81.917969 124.304688 84.230469 127.085938 86.222656 130.058594 C 86.433594 130.371094 86.664062 130.675781 86.808594 131.019531 C 87.082031 131.667969 87.390625 132.203125 88.050781 132.621094 C 88.472656 132.882812 88.632812 133.605469 88.820312 134.148438 C 88.871094 134.285156 88.640625 134.617188 88.460938 134.714844 C 88.316406 134.792969 87.976562 134.71875 87.859375 134.585938 C 87.566406 134.257812 87.21875 133.890625 87.125 133.488281 C 86.628906 131.320312 85.414062 129.558594 84.09375 127.839844 C 82.378906 125.613281 80.703125 123.355469 79.71875 120.648438 C 79.921875 122.015625 80.085938 123.390625 80.34375 124.746094 C 81.148438 129.027344 82.605469 133.097656 84.230469 137.140625 C 85.460938 140.203125 86.886719 143.144531 88.558594 145.976562 C 88.871094 146.503906 89.28125 147.039062 89.773438 147.386719 C 91.308594 148.46875 92.851562 149.574219 94.757812 149.933594 C 95.074219 149.992188 95.421875 149.898438 95.75 149.859375 C 95.972656 149.832031 96.214844 149.699219 96.40625 149.761719 C 96.695312 149.851562 96.96875 150.039062 97.203125 150.238281 C 97.265625 150.296875 97.1875 150.671875 97.125 150.6875 C 96.847656 150.746094 96.535156 150.792969 96.273438 150.722656 C 94.929688 150.355469 93.597656 149.945312 92.054688 149.492188 C 92.308594 149.777344 92.417969 149.921875 92.550781 150.039062 C 94.136719 151.390625 95.703125 152.757812 97.320312 154.070312 C 98.855469 155.316406 100.363281 156.625 102.03125 157.667969 C 103.546875 158.617188 105.238281 159.304688 106.910156 159.964844 C 107.429688 160.167969 108.136719 159.890625 108.757812 159.859375 C 109.203125 159.839844 109.664062 159.800781 110.09375 159.886719 C 110.304688 159.925781 110.609375 160.234375 110.605469 160.417969 C 110.601562 160.664062 110.367188 161.074219 110.179688 161.105469 C 109.683594 161.191406 109.109375 161.238281 108.652344 161.070312 C 105.613281 159.964844 102.609375 158.804688 99.972656 156.820312 C 98.144531 155.4375 96.132812 154.300781 94.277344 153.105469 C 94.386719 153.351562 94.566406 153.765625 94.738281 154.183594 C 96.871094 159.417969 97.324219 164.726562 95.410156 170.125 C 95.09375 171.019531 94.625 171.863281 94.167969 172.703125 C 93.929688 173.136719 93.558594 173.144531 93.316406 172.660156 C 91.554688 169.140625 89.769531 165.632812 88.050781 162.09375 C 86.21875 158.320312 85.75 154.339844 86.398438 150.207031 C 86.570312 149.117188 86.695312 148.007812 86.644531 146.914062 C 86.605469 146.097656 86.347656 145.246094 86.019531 144.484375 C 84.515625 140.988281 82.949219 137.515625 81.410156 134.03125 C 81.328125 133.851562 81.265625 133.667969 81.078125 133.507812 C 81.125 134.050781 81.160156 134.59375 81.222656 135.132812 C 81.640625 138.691406 81.632812 142.238281 80.882812 145.773438 C 80.464844 147.730469 80.054688 149.691406 79.761719 151.671875 C 79.660156 152.382812 79.929688 153.148438 80.03125 153.886719 C 80.09375 154.355469 80.226562 154.828125 80.214844 155.292969 C 80.203125 155.855469 79.824219 156.324219 79.277344 156.269531 C 78.9375 156.230469 78.492188 155.824219 78.351562 155.480469 C 77.957031 154.5 78.558594 153.644531 78.863281 152.75 C 79.355469 151.316406 79.894531 149.882812 80.1875 148.398438 C 81.074219 143.84375 80.902344 139.269531 80.316406 134.6875 C 80.152344 133.425781 80.140625 132.148438 80.054688 130.871094 C 80.011719 130.726562 79.972656 130.582031 79.929688 130.441406 C 79.921875 130.4375 79.910156 130.4375 79.902344 130.429688 C 79.910156 130.441406 79.914062 130.449219 79.917969 130.464844 C 79.96875 130.601562 80.015625 130.742188 80.0625 130.882812 C 79.957031 131.074219 79.796875 131.253906 79.75 131.457031 C 79.273438 133.667969 78.964844 135.925781 78.304688 138.074219 C 77.628906 140.269531 76.757812 142.4375 75.714844 144.484375 C 73.921875 147.980469 71.726562 151.21875 68.933594 154.027344 C 67.980469 154.988281 67.097656 156.023438 66.15625 157 C 66.015625 157.144531 65.742188 157.160156 65.527344 157.238281 C 65.480469 157.035156 65.34375 156.804688 65.398438 156.636719 C 66.464844 153.355469 66.570312 149.917969 67.074219 146.546875 C 67.308594 144.988281 67.398438 143.402344 67.53125 141.828125 C 67.941406 137.011719 69.355469 132.515625 72.042969 128.488281 C 73.433594 126.40625 75.007812 124.441406 76.550781 122.464844 C 77.765625 120.898438 78.210938 119.144531 78.1875 117.199219 C 78.171875 115.945312 78.257812 114.691406 78.359375 113.445312 C 78.609375 110.316406 78.886719 107.195312 79.164062 104.070312 C 79.269531 102.867188 79.296875 101.652344 79.539062 100.480469 C 80.589844 95.363281 81.640625 90.246094 82.8125 85.160156 C 83.75 81.085938 84.859375 77.046875 85.878906 72.992188 C 85.933594 72.777344 85.871094 72.535156 85.867188 72.308594 C 85.882812 72.308594 85.898438 72.304688 85.914062 72.300781 C 85.90625 72.3125 85.902344 72.320312 85.890625 72.324219 C 85.898438 72.316406 85.894531 72.304688 85.890625 72.285156 Z M 79.058594 154.613281 C 79.050781 154.585938 79.042969 154.558594 79.035156 154.527344 C 79.046875 154.546875 79.058594 154.5625 79.074219 154.578125 C 79.0625 154.578125 79.054688 154.570312 79.046875 154.566406 C 79.046875 154.585938 79.054688 154.597656 79.058594 154.613281 Z M 78.566406 122.234375 C 78.476562 122.769531 78.453125 123.328125 78.289062 123.84375 C 77.824219 125.292969 77.304688 126.726562 76.808594 128.167969 L 76.828125 128.171875 C 76.882812 127.808594 76.925781 127.445312 76.992188 127.085938 C 77.25 125.65625 77.515625 124.226562 77.78125 122.796875 C 76.496094 124.210938 75.449219 125.714844 74.285156 127.121094 C 71.113281 130.941406 69.34375 135.386719 68.585938 140.214844 C 67.875 144.75 67.425781 149.324219 66.867188 153.882812 C 66.859375 153.988281 66.921875 154.097656 66.949219 154.207031 L 66.902344 154.238281 C 66.902344 154.238281 66.945312 154.222656 66.945312 154.222656 C 67.824219 152.632812 68.699219 151.042969 69.566406 149.46875 C 69.089844 151.191406 68.460938 152.878906 67.414062 154.375 C 67.425781 154.378906 67.441406 154.382812 67.453125 154.382812 C 67.441406 154.375 67.425781 154.359375 67.410156 154.347656 C 67.578125 154.246094 67.78125 154.175781 67.914062 154.039062 C 71.179688 150.738281 73.691406 146.933594 75.675781 142.746094 C 77.046875 139.855469 77.796875 136.808594 78.535156 133.726562 C 79.414062 130.042969 79.433594 126.375 78.757812 122.679688 C 78.730469 122.519531 78.625 122.375 78.558594 122.222656 C 78.574219 122.207031 78.59375 122.191406 78.613281 122.175781 C 78.589844 122.199219 78.578125 122.214844 78.566406 122.234375 Z M 98.984375 51.320312 L 98.992188 51.324219 C 98.988281 51.25 99.007812 51.164062 98.980469 51.105469 C 98.292969 49.71875 97.589844 48.339844 96.914062 46.945312 C 96.65625 46.40625 96.445312 45.839844 96.21875 45.285156 C 95.570312 43.679688 94.921875 42.074219 94.273438 40.472656 C 94.03125 42.078125 93.757812 43.722656 93.949219 45.3125 C 94.207031 47.441406 94.769531 49.53125 95.296875 51.617188 C 96.597656 56.828125 98.828125 61.617188 101.835938 66.074219 C 103.675781 68.792969 105.339844 71.632812 107.082031 74.417969 C 107.324219 74.804688 107.566406 75.183594 107.808594 75.570312 C 107.855469 75.253906 107.835938 74.953125 107.75 74.675781 C 106.917969 71.996094 106.074219 69.328125 105.238281 66.652344 C 104.980469 65.828125 104.738281 65.007812 104.484375 64.183594 C 104.484375 64.183594 104.484375 64.179688 104.484375 64.179688 C 104.523438 64.320312 104.558594 64.464844 104.609375 64.605469 C 105.195312 66.191406 105.820312 67.769531 106.355469 69.375 C 106.976562 71.246094 107.511719 73.144531 108.085938 75.03125 C 108.21875 74.753906 108.242188 74.503906 108.242188 74.257812 C 108.160156 67.945312 107.21875 61.816406 105.042969 55.835938 C 103.160156 50.664062 100.550781 46.003906 96.882812 41.921875 C 96.320312 41.296875 95.691406 40.726562 95.09375 40.128906 C 95.046875 40.65625 95.117188 41.074219 95.257812 41.472656 C 95.511719 42.179688 95.9375 42.847656 96.058594 43.574219 C 96.429688 45.769531 97.742188 47.5625 98.503906 49.585938 C 98.71875 50.140625 98.828125 50.738281 98.984375 51.320312 Z M 63.0625 84.652344 C 63.355469 84.285156 63.652344 83.917969 63.941406 83.546875 L 63.917969 83.546875 C 63.703125 83.996094 63.488281 84.445312 63.1875 85.074219 C 63.511719 84.867188 63.671875 84.773438 63.828125 84.667969 C 66.921875 82.488281 70.023438 80.3125 73.117188 78.128906 C 74.914062 76.855469 76.78125 75.65625 78.476562 74.261719 C 80.625 72.492188 82.464844 70.398438 84.207031 68.21875 C 86.652344 65.164062 88.4375 61.773438 89.773438 58.125 C 89.855469 57.894531 89.824219 57.617188 89.851562 57.367188 C 89.890625 57.363281 89.929688 57.359375 89.96875 57.355469 C 89.957031 57.324219 89.945312 57.296875 89.933594 57.273438 C 89.910156 57.304688 89.894531 57.339844 89.871094 57.378906 C 87.699219 60.273438 84.503906 62.113281 83.355469 63.601562 C 85.402344 61.765625 88.082031 58.25 90.675781 54.378906 C 88.347656 55.078125 86.273438 55.769531 84.167969 56.324219 C 79.664062 57.511719 76.257812 60.117188 73.53125 63.867188 C 71.769531 66.292969 70.199219 68.820312 68.671875 71.382812 C 67.910156 72.671875 67.285156 74.050781 66.707031 75.4375 C 65.855469 77.472656 65.105469 79.554688 64.308594 81.613281 C 63.910156 82.632812 63.496094 83.648438 63.089844 84.667969 C 63.054688 84.71875 63.023438 84.765625 62.992188 84.816406 C 63.011719 84.816406 63.035156 84.820312 63.054688 84.820312 C 63.054688 84.757812 63.058594 84.703125 63.0625 84.652344 Z M 97.457031 137.371094 C 97.066406 131.378906 96.6875 125.414062 93.855469 119.898438 C 91.054688 114.441406 87.226562 109.871094 82.53125 105.980469 C 83.503906 107.796875 84.574219 109.558594 84.886719 111.675781 C 83.613281 109.652344 82.335938 107.636719 80.96875 105.46875 C 80.929688 105.765625 80.890625 105.886719 80.902344 105.992188 C 81.238281 108.722656 81.464844 111.476562 81.96875 114.179688 C 82.234375 115.609375 83.003906 116.945312 83.515625 118.328125 C 84.632812 121.34375 85.757812 124.359375 87.835938 126.886719 C 89.574219 128.996094 91.332031 131.089844 93.125 133.148438 C 94.175781 134.347656 95.3125 135.472656 96.414062 136.628906 C 96.484375 136.585938 96.554688 136.542969 96.625 136.503906 C 94.898438 132.335938 93.171875 128.171875 91.445312 124.003906 C 91.507812 123.976562 91.566406 123.953125 91.625 123.929688 C 93.894531 128.261719 95.335938 132.957031 97.457031 137.371094 Z M 93.886719 171.851562 C 96.195312 166.847656 96.445312 161.863281 94.882812 156.75 C 93.960938 153.738281 92.574219 151.003906 90.078125 148.957031 C 91.824219 152.507812 92.460938 156.328125 93.117188 160.144531 C 92.492188 157.863281 92.089844 155.496094 91.210938 153.316406 C 90.320312 151.109375 89.117188 149 87.542969 147.066406 C 87.390625 148.472656 87.230469 149.78125 87.101562 151.089844 C 86.804688 154.0625 86.789062 157.019531 88.035156 159.8125 C 89.261719 162.554688 90.546875 165.273438 91.847656 167.980469 C 92.453125 169.246094 93.148438 170.464844 93.886719 171.851562 Z M 93.886719 171.851562 " fill-opacity="1" fill-rule="nonzero"/></g></g></g></g><g clip-path="url(#affe2a1cfd)"><g clip-path="url(#c53d6fa496)"><g clip-path="url(#df4b333781)"><g clip-path="url(#a0295acfc3)"><path fill="#000000" d="M 78.253906 84.476562 C 78.191406 84.582031 78.152344 84.707031 78.0625 84.785156 C 77.402344 85.394531 76.984375 86.085938 76.886719 87.03125 C 76.8125 87.78125 76.328125 88.414062 75.53125 88.5625 C 75.1875 88.625 74.679688 88.507812 74.460938 88.277344 C 74.242188 88.046875 74.160156 87.527344 74.253906 87.203125 C 74.496094 86.351562 75.195312 85.867188 76.03125 85.792969 C 76.566406 85.746094 76.894531 85.558594 77.21875 85.183594 C 77.492188 84.871094 77.828125 84.621094 78.132812 84.347656 C 78.175781 84.386719 78.214844 84.429688 78.253906 84.476562 Z M 78.253906 84.476562 " fill-opacity="1" fill-rule="nonzero"/></g></g></g></g><g clip-path="url(#6bd5dab448)"><g clip-path="url(#fc31d2434f)"><g clip-path="url(#d792f2cf73)"><g clip-path="url(#462c0e371a)"><path fill="#000000" d="M 63.9375 83.546875 C 66.050781 80.613281 69.425781 76.617188 72.257812 74.519531 C 71.75 75.140625 71.277344 75.789062 70.730469 76.378906 C 68.640625 78.632812 66.527344 80.871094 64.417969 83.113281 C 64.269531 83.273438 64.085938 83.402344 63.917969 83.546875 C 63.921875 83.542969 63.9375 83.546875 63.9375 83.546875 Z M 63.9375 83.546875 " fill-opacity="1" fill-rule="nonzero"/></g></g></g></g><g clip-path="url(#4e6bdbc852)"><g clip-path="url(#6569f80ac8)"><g clip-path="url(#be2f37e02f)"><g clip-path="url(#54a5f50112)"><path fill="#000000" d="M 75.253906 71.542969 C 75.371094 71.316406 75.441406 71.042969 75.613281 70.875 C 77.171875 69.351562 78.746094 67.84375 80.320312 66.335938 C 80.574219 66.097656 80.835938 65.875 81.144531 65.691406 C 79.542969 68.007812 77.03125 69.414062 75.242188 71.542969 C 75.246094 71.546875 75.253906 71.542969 75.253906 71.542969 Z M 75.253906 71.542969 " fill-opacity="1" fill-rule="nonzero"/></g></g></g></g><g clip-path="url(#e0fe3df4be)"><g clip-path="url(#03d7dcc667)"><g clip-path="url(#fccb0f7a99)"><g clip-path="url(#650ecc4608)"><path fill="#000000" d="M 75.246094 71.546875 C 75.144531 71.609375 75.042969 71.671875 74.941406 71.734375 C 74.9375 71.722656 74.929688 71.714844 74.921875 71.703125 C 75.03125 71.652344 75.140625 71.59375 75.253906 71.542969 C 75.253906 71.542969 75.246094 71.546875 75.246094 71.546875 Z M 75.246094 71.546875 " fill-opacity="1" fill-rule="nonzero"/></g></g></g></g><g clip-path="url(#e49fcd31f6)"><g clip-path="url(#689e64b6fc)"><g clip-path="url(#28d9ed2508)"><g clip-path="url(#ccdb49e60d)"><path fill="#000000" d="M 90.558594 122.035156 C 88.882812 119.0625 87.222656 116.097656 85.558594 113.136719 C 85.660156 113.082031 85.757812 113.027344 85.859375 112.972656 C 87.605469 115.894531 89.339844 118.816406 90.558594 122.035156 Z M 90.558594 122.035156 " fill-opacity="1" fill-rule="nonzero"/></g></g></g></g><g clip-path="url(#4553d182a9)"><g clip-path="url(#7071acbaae)"><g clip-path="url(#4df6d97970)"><g clip-path="url(#3cfcc71cb6)"><path fill="#000000" d="M 104.488281 64.183594 C 104.273438 63.878906 103.996094 63.601562 103.855469 63.265625 C 102.824219 60.851562 101.816406 58.425781 100.816406 56 C 100.625 55.542969 100.507812 55.054688 100.308594 54.445312 C 100.492188 54.597656 100.613281 54.648438 100.644531 54.734375 C 101.832031 57.679688 103.003906 60.628906 104.179688 63.574219 C 104.265625 63.78125 104.375 63.976562 104.480469 64.179688 C 104.480469 64.179688 104.488281 64.183594 104.488281 64.183594 Z M 104.488281 64.183594 " fill-opacity="1" fill-rule="nonzero"/></g></g></g></g><g clip-path="url(#ede4dc763b)"><g clip-path="url(#d2a991ed3b)"><g clip-path="url(#30c685db7c)"><g clip-path="url(#90a25799d6)"><path fill="#000000" d="M 98.984375 51.320312 C 99.261719 51.753906 99.539062 52.195312 99.8125 52.632812 C 99.730469 52.679688 99.644531 52.726562 99.5625 52.773438 C 99.371094 52.289062 99.1875 51.808594 98.996094 51.324219 C 98.992188 51.324219 98.984375 51.320312 98.984375 51.320312 Z M 98.984375 51.320312 " fill-opacity="1" fill-rule="nonzero"/></g></g></g></g><g clip-path="url(#74f75d6322)"><g clip-path="url(#5a053a05da)"><g clip-path="url(#b43fce34e1)"><g clip-path="url(#52fd4181c1)"><path fill="#000000" d="M 70.128906 147.515625 C 70.921875 144.789062 71.71875 142.058594 72.519531 139.328125 C 72.558594 139.191406 72.664062 139.074219 72.738281 138.949219 L 72.714844 138.945312 C 72.621094 139.433594 72.566406 139.925781 72.425781 140.394531 C 71.746094 142.652344 71.050781 144.898438 70.351562 147.148438 C 70.308594 147.28125 70.1875 147.390625 70.101562 147.507812 Z M 70.128906 147.515625 " fill-opacity="1" fill-rule="nonzero"/></g></g></g></g><g clip-path="url(#a72ed23908)"><g clip-path="url(#98bd95efeb)"><g clip-path="url(#30a9069223)"><g clip-path="url(#6d9595d753)"><path fill="#000000" d="M 74.839844 133.289062 C 75.421875 131.789062 75.996094 130.289062 76.585938 128.796875 C 76.613281 128.71875 76.722656 128.671875 76.789062 128.613281 C 76.789062 128.613281 76.765625 128.605469 76.765625 128.605469 C 76.214844 130.066406 75.664062 131.527344 75.105469 132.984375 C 75.058594 133.101562 74.914062 133.183594 74.8125 133.285156 Z M 74.839844 133.289062 " fill-opacity="1" fill-rule="nonzero"/></g></g></g></g><g clip-path="url(#94ba9cc167)"><g clip-path="url(#98d2afe815)"><g clip-path="url(#82326e1ee3)"><g clip-path="url(#ccae8c0796)"><path fill="#000000" d="M 74.886719 133.535156 C 74.527344 134.398438 74.171875 135.261719 73.816406 136.125 L 73.835938 136.128906 C 74.195312 135.265625 74.558594 134.402344 74.914062 133.542969 C 74.910156 133.542969 74.886719 133.535156 74.886719 133.535156 Z M 74.886719 133.535156 " fill-opacity="1" fill-rule="nonzero"/></g></g></g></g><g clip-path="url(#6ba6c09cd6)"><g clip-path="url(#36ed8281c8)"><g clip-path="url(#e891daae3b)"><g clip-path="url(#eae457aa17)"><path fill="#000000" d="M 73.816406 136.125 C 73.675781 136.453125 73.53125 136.785156 73.390625 137.117188 C 73.390625 137.117188 73.414062 137.121094 73.414062 137.121094 C 73.554688 136.789062 73.695312 136.457031 73.835938 136.128906 C 73.835938 136.128906 73.816406 136.125 73.816406 136.125 Z M 73.816406 136.125 " fill-opacity="1" fill-rule="nonzero"/></g></g></g></g><g clip-path="url(#a12c75623f)"><g clip-path="url(#8ce57af643)"><g clip-path="url(#6a5a857e73)"><g clip-path="url(#1b039aba67)"><path fill="#000000" d="M 73.066406 137.8125 C 73.183594 137.582031 73.292969 137.351562 73.410156 137.121094 C 73.410156 137.121094 73.386719 137.117188 73.386719 137.117188 C 73.269531 137.347656 73.15625 137.582031 73.039062 137.808594 C 73.042969 137.808594 73.066406 137.8125 73.066406 137.8125 Z M 73.066406 137.8125 " fill-opacity="1" fill-rule="nonzero"/></g></g></g></g><g clip-path="url(#2028283ca4)"><g clip-path="url(#2f2190575c)"><g clip-path="url(#df896ab2d9)"><g clip-path="url(#8b4b2ab020)"><path fill="#000000" d="M 72.710938 138.707031 C 72.851562 138.566406 72.988281 138.425781 73.125 138.28125 C 73.125 138.28125 73.113281 138.273438 73.113281 138.273438 C 72.96875 138.417969 72.828125 138.554688 72.6875 138.699219 C 72.691406 138.703125 72.710938 138.707031 72.710938 138.707031 Z M 72.710938 138.707031 " fill-opacity="1" fill-rule="nonzero"/></g></g></g></g><g clip-path="url(#b441db3758)"><g clip-path="url(#f8e2679061)"><g clip-path="url(#b33ab6d7b7)"><g clip-path="url(#b030ea2f45)"><path fill="#000000" d="M 73.042969 137.808594 C 73.058594 137.882812 73.074219 137.957031 73.089844 138.03125 L 73.117188 138.03125 C 73.101562 137.957031 73.085938 137.886719 73.066406 137.8125 C 73.066406 137.8125 73.042969 137.808594 73.042969 137.808594 Z M 73.042969 137.808594 " fill-opacity="1" fill-rule="nonzero"/></g></g></g></g><g clip-path="url(#a1e28366ef)"><g clip-path="url(#1c3eca7959)"><g clip-path="url(#8a499e0828)"><g clip-path="url(#039bac4342)"><path fill="#000000" d="M 76.792969 128.613281 C 76.800781 128.539062 76.804688 128.464844 76.808594 128.390625 C 76.808594 128.390625 76.785156 128.386719 76.785156 128.386719 C 76.78125 128.460938 76.773438 128.53125 76.765625 128.605469 C 76.765625 128.605469 76.792969 128.613281 76.792969 128.613281 Z M 76.792969 128.613281 " fill-opacity="1" fill-rule="nonzero"/><path fill="#000000" d="M 76.808594 128.167969 C 76.800781 128.242188 76.792969 128.316406 76.785156 128.386719 C 76.785156 128.386719 76.808594 128.390625 76.8125 128.390625 C 76.820312 128.316406 76.824219 128.242188 76.832031 128.171875 C 76.828125 128.171875 76.808594 128.167969 76.808594 128.167969 Z M 76.808594 128.167969 " fill-opacity="1" fill-rule="nonzero"/></g></g></g></g><g clip-path="url(#f39ca3c671)"><g clip-path="url(#9610c8c182)"><g clip-path="url(#8c125452d4)"><g clip-path="url(#e991687d19)"><path fill="#000000" d="M 73.089844 138.03125 C 73.09375 138.113281 73.097656 138.191406 73.105469 138.277344 C 73.109375 138.277344 73.121094 138.285156 73.121094 138.285156 C 73.121094 138.199219 73.117188 138.117188 73.113281 138.035156 C 73.117188 138.03125 73.089844 138.03125 73.089844 138.03125 Z M 73.089844 138.03125 " fill-opacity="1" fill-rule="nonzero"/></g></g></g></g><g clip-path="url(#865d04a10d)"><g clip-path="url(#a1f83a4315)"><g clip-path="url(#4017e38995)"><g clip-path="url(#0cf0d92dd9)"><path fill="#000000" d="M 72.738281 138.949219 C 72.730469 138.867188 72.722656 138.792969 72.710938 138.710938 C 72.707031 138.710938 72.6875 138.703125 72.6875 138.699219 C 72.691406 138.78125 72.703125 138.863281 72.714844 138.945312 C 72.714844 138.945312 72.738281 138.949219 72.738281 138.949219 Z M 72.738281 138.949219 " fill-opacity="1" fill-rule="nonzero"/></g></g></g></g><g clip-path="url(#6c3108f1fe)"><g clip-path="url(#dc6bad43c5)"><g clip-path="url(#f4b04cfcec)"><g clip-path="url(#057f2f3426)"><path fill="#000000" d="M 70.101562 147.507812 C 70.097656 147.578125 70.089844 147.644531 70.082031 147.714844 C 70.082031 147.714844 70.105469 147.714844 70.105469 147.714844 C 70.117188 147.648438 70.121094 147.582031 70.132812 147.515625 C 70.128906 147.515625 70.101562 147.507812 70.101562 147.507812 Z M 70.101562 147.507812 " fill-opacity="1" fill-rule="nonzero"/></g></g></g></g><g clip-path="url(#f784c262ee)"><g clip-path="url(#ebf97e97ae)"><g clip-path="url(#e0394a55ec)"><g clip-path="url(#ae0a9a6412)"><path fill="#000000" d="M 70.082031 147.714844 C 70.082031 147.8125 70.078125 147.910156 70.078125 148.011719 L 70.101562 147.988281 C 70.105469 147.898438 70.105469 147.808594 70.105469 147.71875 C 70.105469 147.722656 70.082031 147.714844 70.082031 147.714844 Z M 70.082031 147.714844 " fill-opacity="1" fill-rule="nonzero"/><path fill="#000000" d="M 70.074219 148.011719 C 70.078125 147.996094 70.074219 147.976562 70.074219 147.960938 C 70.066406 147.972656 70.054688 147.980469 70.042969 147.988281 C 70.0625 147.988281 70.082031 147.984375 70.097656 147.984375 C 70.101562 147.988281 70.074219 148.011719 70.074219 148.011719 Z M 70.074219 148.011719 " fill-opacity="1" fill-rule="nonzero"/></g></g></g></g><g clip-path="url(#b8f21077cc)"><g clip-path="url(#5b17245b14)"><g clip-path="url(#49413a69f7)"><g clip-path="url(#df2d2e561e)"><path fill="#000000" d="M 74.816406 133.28125 C 74.835938 133.363281 74.859375 133.445312 74.882812 133.53125 C 74.886719 133.535156 74.910156 133.539062 74.914062 133.539062 C 74.894531 133.457031 74.867188 133.371094 74.84375 133.289062 C 74.839844 133.289062 74.816406 133.28125 74.816406 133.28125 Z M 74.816406 133.28125 " fill-opacity="1" fill-rule="nonzero"/></g></g></g></g><g clip-path="url(#ccb4c0e9ea)"><g clip-path="url(#2a7f795c0a)"><g clip-path="url(#987abf2235)"><g clip-path="url(#a07e0ff9a0)"><path fill="#000000" d="M 93.746094 166.824219 C 93.566406 165.597656 93.371094 164.371094 93.214844 163.140625 C 93.128906 162.464844 93.109375 161.78125 93.058594 161.0625 C 93.191406 161.117188 93.261719 161.121094 93.273438 161.148438 C 93.796875 163.007812 94.058594 164.890625 93.730469 166.820312 C 93.726562 166.824219 93.746094 166.824219 93.746094 166.824219 Z M 93.746094 166.824219 " fill-opacity="1" fill-rule="nonzero"/></g></g></g></g><g clip-path="url(#cafba6bf89)"><g clip-path="url(#d5b574ad6b)"><g clip-path="url(#0230c7cdd9)"><g clip-path="url(#6b839b78f9)"><path fill="#000000" d="M 93.714844 167.722656 C 93.886719 168.128906 94.058594 168.539062 94.230469 168.945312 C 94.140625 168.976562 94.050781 169 93.960938 169.03125 C 93.886719 168.59375 93.816406 168.164062 93.742188 167.726562 C 93.746094 167.726562 93.714844 167.722656 93.714844 167.722656 Z M 93.714844 167.722656 " fill-opacity="1" fill-rule="nonzero"/></g></g></g></g><g clip-path="url(#1a286ab3a5)"><g clip-path="url(#69b4311e92)"><g clip-path="url(#c654298b67)"><g clip-path="url(#08d3ea84ac)"><path fill="#000000" d="M 93.601562 167.324219 C 93.648438 167.15625 93.695312 166.992188 93.746094 166.828125 C 93.746094 166.828125 93.722656 166.824219 93.722656 166.824219 C 93.6875 166.988281 93.644531 167.15625 93.601562 167.324219 Z M 93.601562 167.324219 " fill-opacity="1" fill-rule="nonzero"/></g></g></g></g><g clip-path="url(#888874e03a)"><g clip-path="url(#512137b5d4)"><g clip-path="url(#b3909cabf4)"><g clip-path="url(#69d1280e3f)"><path fill="#000000" d="M 93.601562 167.324219 C 93.640625 167.457031 93.679688 167.589844 93.714844 167.722656 C 93.714844 167.722656 93.742188 167.726562 93.742188 167.726562 C 93.695312 167.59375 93.648438 167.457031 93.601562 167.324219 Z M 93.601562 167.324219 " fill-opacity="1" fill-rule="nonzero"/></g></g></g></g></g></g></g></g></svg>