<svg width="241" height="271" viewBox="0 0 241 271" fill="none" xmlns="http://www.w3.org/2000/svg">
<path fill-rule="evenodd" clip-rule="evenodd" d="M126.592 14.8707C126.905 14.1896 126.303 13.4615 126.091 12.8509C125.48 10.7961 124.75 8.77809 123.907 6.80698C124.392 6.32941 124.525 8.1144 124.917 8.31795C125.621 10.2987 126.631 11.9819 127.266 14.033C127.406 11.8723 126.224 9.58623 125.927 7.30803C126.424 7.97382 126.82 8.70997 127.101 9.49229C128.025 11.5669 129.043 13.9078 129.959 16.2173C129.871 15.1282 129.645 14.0548 129.285 13.0231C128.503 9.66452 127.767 6.23547 127.101 2.61069C128.033 5.00633 128.73 7.59769 129.45 10.1656C129.716 11.1129 129.998 11.8723 130.288 13.0231C130.577 14.174 131.07 16.2173 131.634 17.7205C131.705 14.1192 131.141 8.81117 131.634 4.77929C131.994 5.20988 131.916 6.07106 132.143 6.63474C132.503 5.53087 132.339 3.76154 132.472 2.09398C132.472 1.62425 132.393 0.723928 132.981 0.583008C132.995 1.88831 133.121 3.19001 133.356 4.47397C133.661 3.9121 133.779 3.26764 133.693 2.63418C134.313 6.46631 134.648 10.3392 134.695 14.2209C134.805 16.5696 134.969 18.8713 134.867 21.2669C135.29 21.2669 135.337 20.2727 135.368 19.9282C135.502 18.6677 135.462 17.5795 135.705 16.3974C136.034 14.8316 136.425 12.9761 136.879 11.3556C137.334 9.73498 137.827 8.22401 138.39 6.65823C138.555 6.19632 138.5 5.47607 139.064 5.31166C139.064 6.41553 138.774 7.14362 138.899 8.33361C138.821 8.69374 139.134 8.6546 139.4 8.67025C139.103 10.236 139.283 12.2481 139.064 13.8765C139.682 13.7512 139.667 12.9996 139.909 12.5377C140.152 12.0758 140.559 11.7079 140.582 11.1912C140.802 10.9876 140.841 11.1285 141.084 11.1912C142.133 8.84249 143.51 6.79132 144.614 4.46614C144.74 4.58357 145.147 5.17857 145.115 4.46614C145.797 4.41916 145.202 4.81844 145.28 5.13942C144.685 7.12013 144.246 9.26525 143.769 11.3556C143.918 11.6765 143.871 11.1755 144.105 11.1912C144.218 11.0461 144.277 10.8659 144.27 10.6823C144.669 10.6353 144.646 10.1656 144.943 10.0168C145.287 9.47563 145.683 8.96954 146.125 8.50585C146.908 7.41763 147.691 6.33724 148.474 5.31166C148.678 5.68745 148.286 6.09455 148.137 6.48599C147.691 7.6525 147.143 9.1165 146.626 10.3535C147.104 10.5022 147.276 9.78196 147.636 9.34354C147.996 8.90512 148.364 8.34927 148.811 8.1692C147.809 10.4709 146.963 12.9213 145.789 15.0508C145.789 15.6458 146.345 14.6985 146.29 15.223C145.663 16.8358 144.99 18.4016 144.27 19.9204C145.288 19.4193 145.836 18.4329 146.454 17.5717C147.29 16.8964 148.025 16.1056 148.638 15.223C150.428 13.7784 152.113 12.2087 153.68 10.5257C154.064 10.7841 153.477 11.1755 153.344 11.3634C152.897 12.0523 152.138 12.9292 151.668 13.7121C152.31 13.8452 153.038 12.616 153.68 12.2011C154.126 12.4986 153.289 12.9057 153.179 13.2032C152.396 14.2209 151.676 15.2857 150.831 16.233C150.948 16.6009 151.394 15.912 151.504 15.7241C151.903 15.6771 151.817 15.1447 152.341 15.223C153.192 14.1761 154.198 13.2652 155.324 12.5221C155.575 11.8801 156.358 11.7392 156.663 11.1755C156.835 11.52 155.88 12.1698 155.489 12.5221C155.004 13.0096 154.556 13.533 154.15 14.0878C155.155 13.4349 156.108 12.7046 157 11.9036C157.195 12.0836 156.647 12.5847 156.326 12.9057C154.299 14.9882 151.629 17.3368 149.609 19.6307C150.001 19.6855 150.345 19.3332 150.619 19.1218C150.893 18.9104 151.245 18.5738 151.629 18.2841C152.098 17.9589 152.545 17.6032 152.968 17.2194C153.117 17.0863 153.336 17.0237 153.477 16.8828C153.618 16.7418 154.44 16.3113 154.815 16.0451C155.861 15.3683 156.873 14.6392 157.845 13.8608C158.166 14.033 157.399 14.5263 157.172 14.7063C154.878 16.6636 152.388 18.4329 150.282 20.5858C148.937 21.635 147.699 22.8152 146.587 24.1088C145.325 25.2668 144.198 26.5643 143.229 27.9763C143.659 28.2112 144.012 27.6005 144.403 27.303C144.794 27.0055 145.319 26.7628 145.75 26.4653C145.89 26.3636 145.961 26.2148 146.086 26.1287C146.211 26.0426 146.431 26.0661 146.587 25.9564C146.744 25.8468 146.783 25.5493 146.924 25.4554C147.065 25.3615 147.276 25.3928 147.425 25.2832C150.181 23.232 153.751 21.1338 156.82 19.2393C156.828 19.2008 156.849 19.1664 156.88 19.1417C156.91 19.117 156.949 19.1035 156.988 19.1035C157.027 19.1035 157.065 19.117 157.096 19.1417C157.127 19.1664 157.148 19.2008 157.156 19.2393C156.882 19.1923 156.867 19.3958 156.647 19.4037C156.385 19.6488 156.105 19.8738 155.81 20.0769C155.207 20.4762 154.635 20.8207 153.962 21.2513C153.289 21.6819 152.788 21.9715 152.114 22.4334C150.236 23.7174 147.887 25.2049 145.898 26.6297C144.755 27.4518 143.432 28.0859 142.704 29.315C143.473 29.0049 144.206 28.6111 144.888 28.1407C146.893 27.0368 149.398 26.2383 151.613 25.1188C154.338 23.4825 157.618 22.3865 160.515 20.9146C160.718 21.3296 160.1 21.3609 159.677 21.5879C157.148 22.9736 153.712 24.5003 151.441 26.2853C152.176 26.1866 152.872 25.8978 153.461 25.4476C155.951 24.7978 158.025 23.7409 160.507 23.0989C157.712 24.5629 154.674 25.7764 151.942 27.303C152.114 27.5222 153.03 27.0603 153.453 26.9664C155.191 26.6924 156.522 26.0034 158.323 25.792C155.645 27.1386 152.843 28.2268 149.922 29.4873C149.484 29.6752 149.014 29.9727 148.576 30.1606C148.137 30.3485 147.542 30.4502 147.065 30.6616C146.164 31.0609 145.272 31.6167 144.38 32.0082C143.487 32.3996 142.469 32.7363 141.522 33.1825C140.575 33.6288 139.698 34.0672 138.837 34.5291C137.986 34.9182 137.195 35.427 136.488 36.0401C137.386 35.8786 138.241 35.5349 139.001 35.0301C139.76 34.6998 140.491 34.307 141.185 33.8558C144.043 33.1277 146.72 32.2196 150.095 32.0082C149.915 32.4388 149.092 32.243 148.912 32.6815C152.49 32.3292 155.481 31.4054 159.333 31.3349C154.988 32.0786 150.721 32.7519 146.728 33.6836C142.735 34.6152 139.244 36.2045 135.815 37.551C138.21 37.7154 140.637 36.9482 143.033 36.7055C143.534 36.6585 143.91 36.7681 144.38 36.7055C145.671 36.5489 146.924 36.1418 148.239 36.0401C148.662 36.0401 149.147 36.0401 149.586 36.0401C152.254 35.6416 154.952 35.4714 157.649 35.5312H158.323C158.511 35.5312 158.417 35.7034 158.323 35.7034C157.54 35.6173 157.916 36.0009 158.487 35.8678C158.487 36.4706 157.469 36.1888 156.812 36.2045C154.98 36.2593 153.171 36.3924 151.097 36.3767C151.097 36.8464 151.88 36.8073 152.271 36.8778C152.835 36.9717 153.406 36.8151 153.79 37.0422H154.628C155.042 37.0422 154.909 37.2535 154.628 37.2144C148.38 36.9171 142.12 37.3665 135.979 38.5531C138.602 38.7645 141.843 38.2322 145.217 38.3887C146.744 38.4592 148.31 38.6314 149.758 38.7254C151.501 38.7942 153.24 38.9615 154.964 39.2264C153.25 39.8919 149.687 38.9289 146.564 39.062C147.371 39.3646 148.223 39.5338 149.085 39.5631C145.953 39.7353 141.209 39.3125 137.827 39.7353C138.424 39.933 139.046 40.0463 139.674 40.0719C140.152 40.0719 140.066 40.573 140.52 40.573C140.974 40.573 141.029 40.9488 141.522 40.9096C141.052 41.1523 139.956 40.5965 139.51 40.2363C139.276 40.3598 139.015 40.4243 138.751 40.4243C138.486 40.4243 138.225 40.3598 137.991 40.2363C138.132 41.0192 139.557 40.5886 139.51 41.5829C138.981 41.4125 138.472 41.1869 137.991 40.9096C137.949 40.8639 137.897 40.8274 137.84 40.8024C137.783 40.7774 137.721 40.7645 137.658 40.7645C137.596 40.7645 137.534 40.7774 137.477 40.8024C137.42 40.8274 137.368 40.8639 137.326 40.9096C137.443 40.4556 136.973 40.5808 136.817 40.4086H135.306C134.914 40.573 135.157 41.3715 134.805 41.5829C135.47 42.264 136.574 42.4128 137.49 42.7572C138.369 43.143 139.268 43.4801 140.183 43.7672C140.042 42.9843 139.048 42.9843 138.5 42.5928C137.906 42.2657 137.288 41.9831 136.652 41.7473C137.02 41.4968 137.435 41.8021 137.827 41.9196C138.407 42.0935 138.97 42.3188 139.51 42.5928C139.98 42.8277 140.629 42.9999 141.185 43.2583C141.898 43.5949 142.532 44.0412 143.205 44.4405C143.878 44.8397 144.693 44.9728 145.053 45.6148C149.069 46.9144 152.428 48.8794 155.974 50.6488C155.089 50.7662 154.408 50.0303 153.625 49.6467C151.449 48.5506 148.756 47.4233 146.399 46.2881C146.086 46.5621 147.026 47.0005 147.245 47.2902C147.517 47.3236 147.778 47.4168 148.009 47.563C148.24 47.7091 148.437 47.9047 148.584 48.1357C149.46 48.6375 150.302 49.1972 151.105 49.8111C150.682 49.952 149.68 49.2239 149.257 48.8012C148.364 48.6915 148.051 48.0183 147.245 47.7991C143.27 45.5452 139.111 43.6333 134.813 42.084C134.312 42.632 135.415 42.5928 135.65 42.9217C136.245 42.9217 136.433 43.407 136.997 43.4305C137.866 43.8936 138.769 44.2914 139.698 44.6205C144.752 47.0729 149.588 49.954 154.15 53.2323C153.837 53.5298 153.226 52.7078 152.803 52.5669C152.326 52.3122 151.875 52.0107 151.457 51.6665C150.447 51.1655 149.539 50.5627 148.599 49.9911C149.046 50.9463 150.259 51.1342 150.784 52.0032C151.604 52.5106 152.388 53.0729 153.132 53.6864C152.717 53.8899 152.435 53.3811 152.122 53.1775C151.136 52.559 149.774 51.7135 148.764 50.9932C147.198 50.0694 145.695 49.1378 144.223 48.1435C141.17 46.3272 138.022 44.597 134.828 42.9295C134.257 43.1487 134.507 44.1821 134.155 44.6127C129.794 63.1045 125.308 81.4633 119.875 98.8747C113.878 116.464 109.791 135.958 107.615 157.357C108.21 156.879 108.077 155.705 108.288 154.671C108.468 153.763 108.774 152.902 108.954 151.986C109.337 150.084 109.455 148.072 110.128 146.443C110.942 146.399 111.752 146.572 112.477 146.944C112.594 149.418 111.216 152.55 111.639 155.345C112.195 156.261 113.651 156.527 114.998 156.182C113.628 161.138 111.984 165.827 110.457 170.634C111.021 176.263 111.506 182.229 112.305 187.936C112.469 189.103 112.508 190.285 112.649 191.459C112.79 192.634 113.072 193.706 113.15 194.826C113.508 200.277 113.169 205.752 112.14 211.118C110.888 217.334 109.791 224.427 108.946 230.94C109.541 233.148 110.974 234.51 111.803 236.483C113.205 235.144 113.988 233.179 114.998 231.441C115.616 230.721 115.835 229.594 116.336 228.756C116.579 227.652 117.229 226.963 117.346 225.734C118.247 224.059 118.591 222.188 119.194 220.356C120.893 215.236 122.803 209.826 124.572 204.4C125.355 202.099 126.044 199.797 126.757 197.511C127.978 193.596 129.16 189.392 130.28 185.079C132.425 176.882 134.711 167.941 136.331 159.04C137.427 153.012 138.398 146.983 139.189 140.564C139.494 138.074 139.612 135.984 139.862 133.165C140.645 124.178 141.827 115.535 143.221 106.79C142.72 106.868 142.61 107.432 142.375 107.8C142.116 108.171 141.893 108.567 141.71 108.982C141.432 108.165 141.432 107.278 141.71 106.461C141.076 106.461 141.224 107.322 140.7 107.463C140.622 108.066 140.089 108.199 139.862 108.645C138.653 110.321 137.304 111.893 135.83 113.343C135.392 113.82 135.047 114.493 134.319 114.689C135.462 112.231 136.801 109.859 138.179 107.463C139.745 105.404 141.538 103.549 143.221 101.584C143.166 101.231 142.696 101.826 142.548 101.92C141.365 102.335 140.637 103.369 139.69 104.104C139.549 104.222 139.322 104.167 139.189 104.277C139.056 104.386 138.555 104.848 138.179 105.114C137.944 105.279 137.756 105.443 137.506 105.615C137.38 105.709 137.146 105.686 137.005 105.788C136.864 105.889 136.363 106.383 135.995 106.625C135.869 106.711 135.627 106.688 135.494 106.79C135.177 107.095 134.84 107.378 134.484 107.635C134.265 107.761 133.857 107.839 133.646 107.972C132.694 108.678 131.68 109.296 130.616 109.82C132.346 107.584 134.383 105.604 136.668 103.94C136.363 103.697 135.572 104.402 134.985 104.441C135.586 103.805 136.148 103.133 136.668 102.429C136.245 102.21 135.885 102.633 135.494 102.766C134.319 103.149 132.863 103.549 131.626 103.94C129.99 104.543 128.299 105.091 126.584 105.615C127.579 104.59 129.137 104.136 130.115 103.095C130.593 102.899 131.227 102.867 131.462 102.429C130.73 102.421 130 102.476 129.278 102.593C127.14 102.907 124.58 103.462 122.232 103.603C123.014 102.993 124.111 102.914 125.081 102.593C126.052 102.272 126.952 101.811 127.939 101.584C129.99 101.098 132.127 100.762 134.327 100.409C134.703 100.174 134.977 99.8299 135.329 99.5715C132.417 99.5167 128.557 99.963 125.254 100.073C127.731 99.1012 130.332 98.4793 132.981 98.2249C131.415 97.6691 129.559 97.6456 127.774 97.3873C125.989 97.1289 124.236 96.7923 122.56 96.5496C126.307 96.1858 130.083 96.241 133.818 96.714C135.384 96.9019 137.169 97.2698 139.025 97.5517C139.753 97.6613 140.348 98.1153 141.373 97.7239C140.576 97.2455 139.731 96.8519 138.852 96.5496C135.674 96.4713 132.949 95.9546 129.951 95.704C130.82 95.4201 131.723 95.2516 132.636 95.203C131.956 94.8465 131.215 94.6183 130.452 94.5297C128.432 94.0365 126.138 93.4415 123.899 93.0187C125.465 92.549 127.242 93.2614 129.105 93.0187C127.597 92.2661 126.025 91.6479 124.408 91.1711C125.191 90.8423 126.115 91.3512 126.929 91.5078C127.743 91.6643 128.761 91.6408 129.622 91.8444C131.25 92.228 132.754 93.0109 134.155 93.3554C134.045 92.9326 133.521 92.6977 133.145 92.5177C132.769 92.3376 132.237 92.1967 131.806 92.0088C130.937 91.604 130.036 91.269 129.113 91.0067C127.673 90.0359 125.77 89.527 124.244 88.658C124.699 88.6211 125.157 88.6771 125.59 88.8224C126.905 89.1356 128.667 89.6053 129.959 90.0046C131.783 90.5839 133.536 91.2416 135.329 91.8522C135.65 91.7035 135.149 91.7505 135.165 91.5156C132.816 89.8559 130.687 88.0396 128.44 86.3094C128.745 85.9571 129.481 86.599 129.786 86.8104C130.1 86.4816 130.405 86.7556 130.796 86.8104C131.078 86.6225 130.107 86.2702 129.959 85.9727C129.52 85.73 129.176 85.4012 128.777 85.135C128.095 84.5244 127.32 84.0155 126.592 83.4518C127.234 83.3187 128.158 84.313 129.113 84.4618C129.926 84.9093 130.768 85.3017 131.634 85.6361C132.996 86.7948 134.766 87.5698 136.175 88.658C136.629 88.5093 135.791 88.2823 135.838 87.9848C135.689 87.6959 135.454 87.4606 135.165 87.3115C134.012 85.7906 132.778 84.3323 131.47 82.9429C131.9 82.622 132.253 83.3657 132.644 83.6162C133.129 83.9607 133.615 84.1408 133.983 84.4618C134.28 84.1564 133.497 83.5066 133.145 83.2796C133.067 82.575 132.362 82.4967 132.143 81.9408C131.36 81.158 130.789 80.1559 129.959 79.4199C130.115 78.8798 130.334 79.4982 130.46 79.5844C131.803 80.5238 133.094 81.5352 134.327 82.6141C135.736 83.7728 136.832 85.2525 138.351 86.3094C139.604 88.1533 141.071 89.843 142.72 91.3434C141.804 89.7776 140.731 88.4075 139.698 86.9827C138.664 85.5578 137.96 83.7885 136.676 82.6141C136.527 81.3693 135.682 80.4847 135.165 79.5844C134.612 78.6563 134.107 77.6999 133.654 76.719C136.132 79.3278 138.389 82.1375 140.402 85.1194C140.739 84.3365 139.753 83.4127 139.901 82.2618C139.447 81.2519 138.946 80.2968 138.555 79.2321C139.032 79.2321 138.766 80.0149 139.393 79.9053C138.995 77.8656 138.491 75.8482 137.882 73.8614C138.481 74.5479 138.938 75.3461 139.228 76.2101C139.698 75.5681 139.118 74.5347 139.056 73.8614C140.019 74.9731 140.324 76.7425 141.24 77.8933C141.326 76.5154 140.857 74.2529 140.739 72.5149C141.271 72.7106 141.091 73.6187 141.577 73.8614C142.086 73.4465 141.452 72.7654 141.577 72.1782C142.25 73.1333 142.43 74.3468 142.923 75.7091C143.049 76.0535 143.307 76.351 143.424 76.7112C143.949 78.3239 143.965 80.1324 144.771 81.5886C145.554 78.457 145.554 74.3938 146.282 71.1683C146.871 74.0036 147.209 76.8854 147.292 79.7801C147.801 79.8427 147.636 79.2321 147.793 78.9346C147.715 78.41 148.098 78.3474 147.965 77.7602C148.435 76.2727 148.826 74.5739 149.304 73.0629C149.437 72.648 149.445 71.8651 149.977 71.7163C149.86 74.9575 149.852 78.3161 149.476 81.2911C150.079 81.2206 149.985 80.4612 150.314 80.1167C150.838 79.1303 151.253 78.136 151.825 77.0869C151.989 76.7894 152.052 76.2414 152.498 76.2493C152.239 77.3532 152.072 78.4765 151.997 79.6078C153.132 77.5567 154.557 75.7873 155.692 73.7283C155.982 74.8635 154.839 76.0144 154.847 77.4236C155.019 77.815 155.63 76.6877 155.857 76.4215C155.991 76.1742 156.159 75.9475 156.358 75.7482C156.569 75.3959 156.827 75.0906 157.031 74.7383C157.43 74.5739 157.313 73.9006 157.877 73.9006C157.211 75.529 156.506 77.1261 155.857 78.7702C156.561 78.6919 156.64 77.9873 157.203 77.7602C157.25 77.4236 157.657 77.4314 157.704 77.0869C157.853 76.993 158.44 76.5859 158.041 76.9225C158.464 77.5958 157.618 78.23 157.368 78.7702C156.71 80.8526 155.575 82.4654 154.682 84.313C155.144 84.4774 155.144 83.8668 155.356 83.6397C156.005 83.1125 156.57 82.4895 157.031 81.7921C158.573 80.6064 160.033 79.3169 161.4 77.9325C161.627 78.2613 161.227 78.7153 161.063 78.9346C160.898 79.1538 160.593 79.4904 160.39 79.7801L159.724 80.79C159.479 81.2067 159.196 81.5998 158.879 81.9643C158.714 82.1366 158.323 82.7942 158.041 83.1387C157.947 83.2483 157.775 83.3735 157.704 83.4753C157.485 83.7806 157.399 84.1956 157.203 84.4852C157.008 84.7749 156.632 84.9863 156.53 85.3229C159.027 83.6162 161.368 81.7608 164.257 80.4534C163.474 81.659 162.026 82.1366 161.4 83.4753C162.381 83.0282 163.335 82.5237 164.257 81.9643C164.414 82.5202 162.973 82.9195 162.746 83.6397C162.997 83.444 163.435 83.4362 163.584 83.1387C163.999 83.444 163.263 83.6554 163.083 83.812C162.903 83.9685 162.621 84.3208 162.409 84.4852C162.198 84.6497 161.674 84.7827 161.4 84.9863C161.126 85.1898 160.961 85.5578 160.726 85.6596C161.149 85.9023 161.877 85.0176 162.574 84.9863C159.689 87.8891 156.602 90.5838 153.336 93.05C154.33 92.7428 155.248 92.2277 156.029 91.5391C159.568 90.3491 162.942 88.9399 167.115 88.1805C166.794 88.6972 165.901 88.6502 165.604 89.1826C164.868 89.2374 164.539 89.6915 163.92 89.8559C165.392 90.263 166.919 89.2765 168.618 89.3548C165.946 90.5992 163.194 91.6662 160.382 92.549C163.192 92.7526 165.455 92.001 168.782 92.2124C166.88 92.8778 164.609 93.191 162.566 93.7233C163.952 94.0756 165.76 93.9973 167.263 94.2244C161.572 95.3126 154.886 95.3987 149.46 96.7453C148.85 96.9802 148.521 97.4812 147.777 97.583C148.153 98.6164 149.703 98.5772 150.635 98.5929C152.944 98.6399 156.068 98.131 158.863 98.2563C160.891 98.3705 162.911 98.5953 164.915 98.9296C165.431 99.0235 165.972 99.0078 166.426 99.094C166.637 99.1409 166.856 99.3915 167.099 99.4306C167.342 99.4697 167.67 99.3758 167.937 99.4306C168.203 99.4854 169.025 99.4306 169.111 99.9395C167.858 100.073 167.107 99.7046 165.925 99.7672C165.862 100.276 166.473 100.12 166.762 100.276C167.749 100.519 168.743 100.754 169.784 100.942C169.001 101.443 167.866 100.855 166.927 100.942C166.982 101.396 167.647 101.466 168.109 101.615C168.571 101.764 169.283 101.576 169.283 102.124C165.611 101.701 162.065 101.169 158.323 100.777C159.571 101.381 160.864 101.886 162.19 102.288C163.237 103.028 164.364 103.648 165.549 104.136C164.367 104.386 163.2 103.643 162.018 103.298C161.728 103.212 161.298 103.204 161.008 103.126C160.135 102.822 159.236 102.599 158.323 102.46C159.889 103.369 161.157 104.551 162.691 105.482C161.955 105.662 161.126 105.13 160.343 104.809C159.587 104.536 158.856 104.199 158.158 103.799C157.845 103.799 158.268 104.457 158.495 104.472C157.899 104.474 157.316 104.3 156.82 103.971C155.426 103.29 153.735 102.226 152.279 101.45C152.185 101.944 152.929 103.016 153.124 103.799C153.054 104.418 152.388 103.517 152.114 103.298C151.653 102.922 151.238 102.515 150.94 102.288C150.143 101.632 149.412 100.901 148.756 100.104C148.505 100.245 148.513 100.644 148.419 100.942C147.995 100.575 147.545 100.24 147.073 99.9395C147.589 100.649 148.218 101.268 148.936 101.771C151.098 103.514 153.121 105.422 154.988 107.479C155.027 107.526 155.301 107.604 155.324 107.651C155.81 108.731 157.062 109.788 157.845 110.837C158.338 111.511 158.722 112.333 159.184 113.029C159.762 113.667 160.218 114.404 160.531 115.206C156.724 111.849 153.185 108.2 149.946 104.292C149.727 104.692 150.729 105.294 150.784 105.968C152.138 107.369 152.553 109.694 153.641 111.346C153.865 112.625 154.26 113.868 154.815 115.041C154.307 115.488 154.213 114.086 153.641 114.031C153.444 113.447 153.096 112.926 152.631 112.521C152.177 112.677 152.866 113.045 152.631 113.53C151.065 111.659 150.102 109.225 148.772 107.142C148.701 108.113 148.818 110.336 148.772 111.839C147.816 111.01 147.722 109.303 146.924 108.316C146.979 107.361 146.431 107.017 146.415 106.132C145.812 106.25 146.243 107.408 145.914 107.808C144.998 115.425 144.184 121.641 143.73 129.65C143.597 131.999 143.377 134.026 143.229 136.696C143.119 138.661 142.704 140.611 142.555 142.576C142.454 143.922 142.383 145.378 142.219 146.78C142.117 147.633 141.851 148.432 141.718 149.293C141.42 151.187 141.334 153.152 141.044 155.008C140.755 156.863 140.363 158.797 140.034 160.723C135.916 184.719 128.338 207.094 121.386 228.255C121.762 228.474 122.318 226.979 122.733 226.572C123.061 225.789 123.68 225.28 123.907 224.388C124.572 223.933 124.619 222.861 125.254 222.376C127.923 216.989 130.194 211.329 132.644 205.575C134.304 201.66 135.862 197.84 137.341 193.643C137.764 192.453 138.375 190.637 138.852 189.111C138.852 189.024 139.173 188.672 139.189 188.609C139.236 188.398 139.126 188.14 139.189 187.936C139.416 187.153 139.8 186.527 140.027 185.752C140.254 184.977 140.324 184.053 140.536 183.231C143.33 172.153 145.46 160.198 147.754 148.118C148.881 148.118 149.977 148.118 150.611 148.627C150.118 153.215 149.343 157.709 148.591 162.234C147.112 171.151 145.734 179.998 143.557 188.273C142.477 192.344 141.099 196.227 139.862 200.016C139.462 200.713 139.124 201.444 138.852 202.2C138.751 202.42 138.641 202.756 138.516 203.038C138.304 203.5 137.952 204.526 137.678 205.222C137.052 206.788 136.371 208.683 135.658 210.429C135.431 210.984 135.055 211.548 134.82 212.112C134.703 212.402 134.758 212.84 134.648 213.114C134.452 213.631 134.124 214.061 133.811 214.797C133.028 216.574 132.159 218.829 131.29 220.677C130.256 222.884 129.137 224.92 128.103 227.057C127.438 227.684 127.164 228.701 126.584 229.406C126.154 230.259 125.567 230.972 125.073 231.755C123.093 234.933 120.658 237.642 119.03 241.149C120.822 240.194 121.903 238.534 123.398 237.282C123.915 236.46 124.854 236.06 125.246 235.105C126.148 234.319 126.938 233.413 127.594 232.412C128.072 231.817 128.565 231.277 129.105 230.565C129.646 229.852 130.123 229.398 130.616 228.717C130.718 228.576 130.882 228.333 130.953 228.216C131.454 227.37 132.292 226.306 132.973 225.358C132.973 225.296 133.286 225.241 133.309 225.194C133.333 225.147 133.255 224.928 133.309 224.857C133.615 224.435 134.163 223.988 134.484 223.511C134.601 223.331 134.523 223.307 134.648 223.174C135.193 222.473 135.7 221.744 136.167 220.99C136.406 220.571 136.687 220.178 137.005 219.815C137.427 219.277 137.82 218.715 138.179 218.132C138.708 217.129 139.327 216.175 140.027 215.283C140.168 215.134 140.23 214.915 140.363 214.774C140.496 214.633 140.567 214.414 140.7 214.273C140.833 214.132 141.107 213.333 141.373 212.926C141.639 212.519 141.859 212.386 142.047 212.088C143.683 209.387 145.241 206.538 146.744 203.688C148.944 199.727 150.964 195.679 152.96 191.42C153.68 189.901 154.408 188.234 155.144 186.723C155.254 186.496 155.144 186.535 155.316 186.378C155.511 185.943 155.678 185.496 155.818 185.04C156.968 182.487 158.401 179.559 159.513 176.639C159.646 176.287 159.724 175.856 159.849 175.465C160.437 173.899 161.321 171.887 162.034 170.086C166.371 159.189 170.168 147.727 173.777 135.984C173.894 135.6 174.004 135.201 174.114 134.809C174.161 134.653 174.419 134.402 174.45 134.308C174.482 134.214 174.388 133.839 174.45 133.635C174.693 132.852 175.045 132.069 175.288 131.286C176.854 126.018 178.302 120.122 179.985 114.658C180.486 113.045 180.893 111.432 181.332 109.788C181.77 108.144 182.232 106.657 182.678 105.091C182.905 104.308 182.96 103.361 183.179 102.57C183.179 102.484 183.5 102.132 183.516 102.069C183.563 101.858 183.454 101.599 183.516 101.396C183.516 101.31 183.837 100.957 183.853 100.887C183.9 100.683 183.79 100.425 183.853 100.221C184.127 99.2662 184.557 98.3815 184.855 97.3638C184.972 96.9723 185.066 96.5809 185.192 96.1894C185.536 95.0308 185.92 93.3397 186.374 91.9853C186.695 91.0145 187.157 89.8637 187.548 88.6267C190.797 78.9424 194.657 69.2267 198.461 59.9025C197.714 60.3612 197.036 60.9255 196.449 61.5779C196.316 61.7032 196.183 62.2512 195.948 61.9145C196.089 60.4897 196.434 59.2684 196.622 57.8827C197.267 57.013 197.774 56.0492 198.125 55.0251C199.432 54.2422 200.262 53.0209 201.656 52.3398C201.804 51.643 202.18 51.189 202.329 50.4922C193.874 48.4175 184.229 47.5407 174.928 46.2959C172.321 46.2176 176.04 45.9279 176.439 46.2959C176.987 46.4995 176.572 45.7479 177.112 45.9593C186.507 45.5991 193.803 47.298 201.139 48.9812C197.068 46.5543 191.541 45.5835 186.358 44.2839C187.321 43.9394 188.636 44.691 189.881 44.6205C190.186 44.4091 189.153 44.1273 188.707 44.1195C189.764 43.8846 190.75 44.4718 191.729 44.7849C192.707 45.0981 193.639 45.4347 194.586 45.7949C196.512 46.5308 198.501 46.9222 200.301 47.8147C200.943 47.8147 200.356 47.9478 200.466 48.3158C201.358 48.4645 202.274 49.3648 202.987 49.1535C202.626 48.5037 201.421 48.7307 200.967 48.1514C200.325 48.1514 200.912 48.0104 200.802 47.6425C199.659 47.3293 199.041 46.4916 197.444 46.6325C197.35 46.2646 197.765 46.3977 197.78 46.1315C192.212 43.1311 186.429 40.5483 180.479 38.4044C180.126 38.3104 179.993 37.9895 179.469 38.0677C179.132 37.919 179.132 37.5041 179.469 37.9033C182.78 38.6862 185.434 40.1033 188.534 41.0897C187.973 40.6633 187.35 40.3254 186.687 40.0876C183.355 38.4885 179.934 37.0848 176.439 35.8835C176.345 35.7269 175.977 35.633 176.274 35.5468C178.85 36.5568 181.676 37.3162 184.002 38.5688C190.922 41.2306 196.802 44.9259 203.488 47.8147C203.347 47.1179 203.073 47.0318 202.65 46.977C202.689 46.7891 202.987 46.8596 202.987 46.6325C199.714 43.1878 195.98 40.1972 192.402 37.0578C193.06 36.8543 193.968 37.8407 194.586 38.24C194.813 37.7389 194.171 37.7702 193.913 37.5667C193.655 37.3631 193.381 36.956 193.075 36.7212C192.652 36.408 192.065 36.134 191.564 35.7191C191.509 35.6721 191.439 35.4059 191.392 35.3824C190.077 34.7874 188.66 33.2295 187.196 32.5249C187.924 32.4309 188.495 33.2217 189.208 33.6992C189.38 33.8167 189.411 33.6992 189.544 33.8715C189.677 34.0437 189.912 34.0672 190.053 34.2081C190.464 34.4597 190.856 34.7396 191.228 35.0458C192.576 35.9111 193.866 36.8657 195.087 37.9033C195.549 37.7468 194.704 37.5275 194.751 37.2301C193.099 35.8052 191.502 34.3255 189.881 32.8615C188.049 31.1705 186.233 29.456 184.338 27.8197C184.62 27.7493 184.98 28.0154 185.176 28.1564C185.372 28.2973 185.74 28.6183 186.021 28.8297C186.71 29.362 187.313 29.9257 188.033 30.5129L188.871 31.1783C189.137 31.3975 189.38 31.5463 189.717 31.8516C190.053 32.1569 190.5 32.3292 190.891 32.6971C189.998 30.7869 188.088 29.8944 186.859 28.3286C185.207 27.1778 184.017 25.565 182.326 24.4611C182.765 24.2732 183.242 24.97 183.665 25.2988C184.088 25.6276 184.8 25.9643 185.011 26.481C185.816 26.9627 186.564 27.5325 187.243 28.1799C187.939 28.7357 188.605 29.2602 189.255 29.8631C190.515 31.1297 191.862 32.3069 193.287 33.3861C196.564 36.7681 199.868 40.1293 203.198 43.4697C202.078 41.2463 200.121 39.6805 198.501 37.9268C198.07 37.4571 197.765 36.8778 197.326 36.4158C196.199 35.2102 194.743 33.9967 193.467 32.7206C190.077 29.3307 186.859 25.7686 183.219 22.637C183.782 22.3552 184.581 23.6861 185.066 24.148C185.99 24.3985 186.17 25.4006 187.078 25.6589C190.711 29.1976 194.32 32.7519 197.835 36.4158C197.968 36.1183 197.577 35.7817 197.326 35.4059C196.543 34.2159 195.205 32.4857 194.304 31.2018C194.751 31.0765 195.197 31.9299 195.651 32.384C196.105 32.838 196.739 33.2217 196.99 33.7227C197.773 34.075 197.874 34.3255 198.501 34.5682C199.409 36.134 200.685 37.4884 201.695 38.9368C202.639 40.4752 203.707 41.9336 204.889 43.2974C205.124 42.2171 203.816 41.2384 203.542 40.1111C202.886 39.2784 202.324 38.3751 201.867 37.4179C201.084 36.1497 200.215 34.9127 199.346 33.5583C199.229 33.3782 199.135 33.0729 199.01 32.885C198.743 32.4936 198.532 32.1021 198.164 31.5384C198.015 31.3114 197.804 31.2644 197.663 31.0374C197.412 30.6303 197.256 30.0901 196.99 29.6908C196.723 29.2916 196.269 28.9079 195.988 28.5165C195.823 28.2816 195.807 27.9137 195.651 27.6788C195.494 27.4439 195.275 27.3578 195.142 27.1699L193.467 24.6569C192.339 22.9815 191.345 21.2121 190.108 19.615C190.155 19.2158 190.562 19.8029 190.609 19.9517C190.81 20.1486 190.979 20.3757 191.11 20.625C191.361 21.0947 191.893 21.3374 191.956 21.9637C192.986 23.19 193.935 24.4819 194.798 25.8312C195.784 27.114 196.683 28.4609 197.491 29.8631C198.763 31.5871 199.939 33.38 201.014 35.2337C201.593 36.1966 202.149 37.1674 202.697 38.0912C203.161 39.0417 203.723 39.9416 204.372 40.7765C204.083 39.1168 203.284 37.9581 203.198 36.0792C199.918 28.5008 196.935 20.5858 193.96 12.7256C194.876 14.0487 195.4 15.7711 196.309 17.0941C196.543 17.008 196.16 16.1312 195.972 15.9198C195.862 15.3796 196.575 15.6849 196.136 15.2465C195.815 14.1192 195.244 13.2267 194.962 12.0523C196.024 14.1872 196.978 16.3742 197.82 18.6051C197.82 19.2314 198.469 18.6051 198.485 18.9418C199.103 20.0613 199.55 21.3531 200.168 22.4726C200.442 19.9047 199.19 17.3995 198.657 15.0743C198.994 15.3013 199.033 15.8572 199.158 16.2564C199.775 16.9997 200.236 17.8597 200.513 18.7852C200.881 19.7012 201.139 20.7111 201.523 21.6427C201.71 22.1125 202.031 22.5352 202.196 22.9893C202.673 24.3672 203.018 25.9408 203.535 27.3578C204.662 24.6334 203.95 21.5018 203.535 18.1197C203.159 15.0586 202.861 12.2481 202.697 8.8738C203.315 11.2225 203.746 13.7199 204.208 16.2721C204.67 18.8243 204.819 21.4627 205.554 23.827C205.554 21.7836 205.492 19.3567 205.382 16.9376C205.218 13.3284 205.132 9.55492 205.218 6.36073C205.938 9.89156 206.173 13.9078 206.893 17.4464C207.449 13.5711 207.175 8.8738 207.567 4.84193C207.958 6.61908 207.621 8.18486 207.903 9.88373C208.051 9.69706 208.157 9.48122 208.215 9.25046C208.273 9.0197 208.281 8.77925 208.24 8.54499C208.492 9.30131 208.606 10.0969 208.576 10.8937C208.968 10.7293 208.811 9.97768 208.913 9.54709C209.015 9.1165 208.96 8.52933 209.414 8.54499V15.591C210.142 15.364 210.04 14.3071 210.26 13.5711C210.69 13.1092 210.604 12.1306 210.925 11.5591C211.317 13.2971 210.988 15.7554 211.097 17.7753C211.516 16.9878 211.799 16.1356 211.935 15.2544C212.835 12.9057 213.798 10.6118 214.62 8.20835C214.8 12.8039 213.728 17.603 213.282 22.1516C213.986 21.8933 214.127 21.0164 214.456 20.4684C214.526 20.3588 214.73 20.2335 214.793 20.1318C215.647 18.5609 216.601 17.0468 217.65 15.5988C218.871 13.2502 220.515 11.2929 221.682 8.8738C222.371 9.06953 221.549 9.60189 221.682 10.2204C220.531 13.7199 219.592 17.4308 218.323 20.805C218.738 20.805 218.84 20.4919 219.161 20.805C219.161 20.3823 219.419 20.2805 219.662 20.1318C220.031 19.7079 220.368 19.2579 220.672 18.7852C221.118 18.4527 221.514 18.0572 221.846 17.6108C222.191 17.2429 222.449 16.6322 222.856 16.7732C222.567 17.6578 222.152 18.4251 221.846 19.2941C222.496 19.161 222.629 18.472 223.021 18.1197C223.818 17.4638 224.549 16.7323 225.205 15.9355C225.816 15.8102 225.69 14.9569 226.387 14.9255C226.035 15.8661 225.584 16.7663 225.041 17.6108C225.487 17.7518 225.769 17.0472 226.215 16.6087C227.303 15.5362 228.822 14.2601 229.91 13.0779C230.145 13.5946 229.503 14.0096 229.237 14.4245C229.166 14.5419 229.174 14.7924 229.072 14.9255C228.971 15.0586 228.783 15.0195 228.736 15.0899C228.587 15.3248 228.571 15.6771 228.399 15.9355C228.313 16.0607 228.164 16.1077 228.063 16.2721C227.576 17.104 227.015 17.8901 226.387 18.6208C225.346 20.6641 223.772 22.1673 222.684 24.1636C223.929 23.6704 224.305 22.3082 225.542 21.815C226.318 20.8958 227.169 20.0422 228.086 19.2627C229.918 17.697 231.852 16.1938 233.629 14.5654C234.044 14.7768 233.128 15.0508 233.128 15.4031C232.705 15.544 232.595 15.9903 232.282 16.2486C231.797 16.8755 231.234 17.4385 230.607 17.924C229.824 19.3019 228.399 20.0926 227.585 21.4548C228.977 20.5723 230.323 19.6186 231.617 18.5973C231.82 19.2549 230.983 19.5446 230.607 19.9439C229.487 21.1104 228.211 22.6761 227.076 23.9757C229.837 21.7262 232.629 19.4741 235.453 17.2194C235.868 17.5326 235.202 17.4778 235.116 17.556C235.03 17.6343 235.077 17.7909 234.952 17.8927C234.686 18.1041 234.31 18.5738 233.942 18.9026C233.754 19.067 233.472 19.0514 233.269 19.2393C232.948 19.5446 232.486 20.2022 231.93 20.4136C230.936 21.721 229.409 22.4882 228.399 23.7722C225.886 25.8547 223.506 28.0702 221.173 30.325C223.397 29.1271 225.275 27.5927 227.389 26.2931C229.033 25.3301 230.67 24.5629 232.431 23.6078C232.971 23.3103 233.433 22.8249 234.114 22.7623C233.668 22.9971 233.535 23.5451 232.932 23.6078C232.885 23.9053 233.097 23.9523 233.104 23.7722C233.316 24.054 232.321 24.5551 231.93 24.7821C230.427 25.6903 229.135 26.8098 227.726 27.8041C227.553 28.4485 227.203 29.0316 226.716 29.4873C227.154 29.6439 228.016 28.8297 228.571 28.4774C228.814 28.3208 229.033 28.2581 229.237 28.1407C230.904 27.1621 232.783 26.207 234.615 25.2832C235.562 24.9499 236.464 24.5002 237.301 23.9444C237.755 24.1401 236.862 24.3828 236.8 24.6177C236.369 24.6177 236.212 24.923 235.962 25.1188C233.973 25.9016 232.486 27.1308 230.583 27.9763C231.452 28.2738 232.455 27.2717 233.441 27.1308C234.356 26.6537 235.312 26.2606 236.299 25.9564C234.529 27.0995 232.642 28.1329 230.748 29.1506C231.476 29.362 232.517 28.4539 233.441 28.3129C232.838 29.0567 231.766 29.3229 231.092 29.9883C231.343 30.2232 232.243 29.6908 232.611 29.4873C234.427 29.0175 235.837 28.125 237.645 27.6397C233.66 29.8709 229.448 31.8673 225.549 34.1924C225.855 34.4821 226.575 33.7697 227.233 33.8558C228.883 33.2648 230.563 32.7605 232.267 32.3448C230.098 33.754 227.663 34.9049 225.385 36.2045C225.683 36.4158 225.988 36.0949 226.223 36.0401C230.489 34.9205 235.328 33.1355 240.166 32.3448C235.664 33.8245 231.03 35.2259 226.52 36.729C222.168 38.0795 217.97 39.8822 213.994 42.1075C214.516 42.1074 215.032 41.9924 215.505 41.7708C216.875 41.2932 218.496 40.6121 219.874 40.0954C222.085 39.6483 224.273 39.0864 226.426 38.4122C228.96 38.2061 231.482 37.869 233.981 37.4023C232.361 38.2791 230.45 38.5375 228.611 39.0855C226.771 39.6335 225.033 40.3616 223.232 40.7609C225.103 40.847 227.092 40.2677 229.112 39.9232C231.131 39.5787 233.081 39.2812 234.991 38.9211C235.398 39.5161 234.271 39.2656 234.318 39.2499C229.401 40.3381 223.256 41.1288 218.527 42.4441C217.602 42.9491 216.648 43.3988 215.669 43.7907C217.533 44.096 219.529 43.1644 221.721 42.9451C223.78 42.7494 225.98 42.8747 228.102 42.7807C229.112 42.7338 230.161 42.3658 231.124 42.7807H234.819C235.062 42.7807 235.296 42.7807 235.328 42.9451H234.819C232.157 42.7259 229.636 43.1644 227.092 43.2818C223.737 43.3192 220.396 43.7155 217.126 44.4639C218.871 44.6362 220.696 44.0882 222.668 43.9551C227.718 43.6106 233.175 43.9551 237.958 44.1273H238.632C238.89 44.2134 238.632 44.2995 238.467 44.2917C233.895 44.2917 230.568 44.4953 226.199 44.6284C224.719 45.0081 223.193 45.1768 221.666 45.1294C223.483 45.9123 226.418 45.5287 228.384 46.1393C227.076 46.6012 225.495 45.8966 223.851 46.1393C223.851 46.5699 224.845 46.6091 225.189 46.6404C227.013 46.8283 229.151 46.7813 231.069 46.9849C232.987 47.1884 234.709 47.5877 236.447 47.6503C233.128 47.8147 229.401 47.3215 225.698 47.1493C220.312 46.8987 214.91 46.4995 210.408 47.6503C210.565 48.2844 211.755 47.8695 212.42 47.9869C220.647 48.5238 228.837 49.5328 236.948 51.0089C234.49 51.1342 232.134 50.3591 229.393 50.0068L224.172 49.3179C219.474 48.715 213.994 48.3314 208.71 47.9713C209.148 48.1514 209.109 48.809 209.892 48.6446C216.175 48.7818 222.403 49.8585 228.368 51.8388C227.358 52.0267 226.176 51.3925 225.009 51.1655C223.843 50.9384 222.551 50.8367 221.314 50.6566C225.792 51.8388 230.192 53.0992 234.584 54.3597C233.662 54.388 232.746 54.2143 231.899 53.8508C229.409 53.1227 226.317 52.285 223.663 51.5021C219.983 50.8132 215.889 49.6075 211.739 49.3179C211.309 49.3179 210.8 49.3179 210.393 49.3179C209.344 49.2396 207.88 48.8403 207.034 49.3179C207.175 49.905 208.24 49.5684 208.545 49.9911C210.471 50.0616 212.233 51.0715 213.924 50.8288C216.523 51.6117 219.044 52.2067 221.478 53.0131C225.283 54.2735 229.393 55.8472 233.41 57.2172C232.055 57.4756 230.897 56.7318 229.542 56.2073C228.955 55.9802 228.109 55.8237 227.194 55.534C226.113 55.1895 225.095 54.6885 223.999 54.3597C223.71 54.2736 223.279 54.2735 222.989 54.1874C217.768 52.442 212.438 51.0402 207.034 49.9911C209.187 51.0877 211.436 51.9865 213.751 52.6765C220.463 54.9603 227.028 57.6533 233.41 60.7402C233.41 60.9281 233.237 60.8342 233.237 60.7402C231.218 59.9573 229.323 59.057 227.358 58.2193C223.608 56.8806 220.155 55.2287 216.272 54.023C219.497 55.8054 222.585 57.8256 225.51 60.0669C224.829 60.2 224.352 59.5581 223.835 59.2292C219.921 56.7553 215.388 54.2501 211.066 52.0032C209.602 51.7292 208.42 51.1733 206.862 50.9932C206.948 51.7761 207.872 51.7761 208.373 52.1754C217.071 56.4578 225.502 60.9673 232.783 66.6354C232.635 67.1286 232.533 66.2439 232.11 66.4631C232.165 66.0795 231.625 66.2831 231.609 65.9621C228.759 64.0518 225.878 62.1729 222.872 60.4192C219.466 58.3915 215.959 56.5048 212.452 54.5397C212.319 55.0251 212.874 54.8764 213.125 55.0408C213.376 55.2052 213.407 55.4166 213.634 55.5497C214.08 55.808 214.691 55.9489 215.145 56.2229C217.83 57.8503 220.411 59.644 222.872 61.5936C222.723 62.0946 222.621 61.2099 222.199 61.4292C218.844 58.877 215.306 56.5744 211.614 54.5397C211.661 54.1405 212.06 54.7355 212.287 54.712C212.287 54.0778 211.45 54.3205 211.277 53.8664C211.043 53.9291 211.277 54.1639 211.45 54.2031C211.105 54.6415 210.62 53.8116 210.44 53.5298C210.072 53.2871 209.532 53.201 209.265 52.8643C209.117 53.0914 209.743 53.6472 210.103 54.0387C210.463 54.4301 211.082 54.7511 211.277 55.213C214.728 57.2904 218.039 59.5919 221.189 62.1024C221.776 62.5409 222.41 62.9793 223.036 63.4412C223.248 63.5978 223.53 63.6369 223.71 63.7778C223.89 63.9187 224.007 64.2867 224.219 64.4511C224.43 64.6155 224.68 64.6312 224.884 64.7878C225.252 65.0696 225.667 65.3201 226.066 65.6254C226.262 65.7898 226.371 66.1422 226.567 66.2987C226.763 66.4553 227.037 66.4631 227.241 66.6354C227.585 66.925 227.89 67.3478 228.25 67.6453C229.033 68.2873 229.887 68.7961 230.599 69.4929C230.505 69.9783 230.341 69.2346 230.098 69.3207C229.982 69.2794 229.876 69.2131 229.788 69.1265C229.7 69.04 229.632 68.9352 229.589 68.8196C228.422 68.107 227.3 67.3226 226.231 66.471C224.79 65.3984 223.24 64.4276 221.862 63.2846C218.824 61.2256 215.99 58.9709 212.961 56.8962C213.21 57.5439 213.613 58.1214 214.135 58.5794C214.378 59.7929 215.012 60.615 215.309 61.7736C213.986 60.521 212.961 59.0022 211.614 57.7417C211.078 56.9998 210.458 56.322 209.766 55.7219C209.336 54.8685 208.459 54.4614 208.091 53.5376C207.387 53.2024 206.711 52.8096 206.071 52.3633C205.39 53.3811 206.283 55.1269 206.572 56.2308C206.33 57.2796 206.162 58.3444 206.071 59.4171C205.664 59.6285 205.735 60.3096 205.398 60.5993C205.194 61.0064 205.257 61.6875 204.725 61.7736C204.552 60.5523 204.036 59.6598 203.887 58.415C203.174 58.415 203.503 59.4798 203.049 59.7538C202.931 60.2984 202.702 60.8128 202.376 61.2648C201.405 64.3963 200.027 67.4183 198.845 70.5107C197.663 73.6031 196.598 76.6329 195.487 79.7488C194.375 82.8647 193.138 85.9492 192.128 89.1434C187.008 105.075 183.516 122.432 178.521 138.873C176.564 145.324 174.427 151.712 172.305 158.022C166.115 176.297 158.359 194.004 149.124 210.945C148.043 212.769 146.877 214.515 145.93 216.488C145.256 217.365 144.536 218.344 143.918 219.338C143.299 220.332 142.352 221.859 141.569 223.033C139.925 225.421 138.296 227.73 136.535 230.079C136.097 230.651 135.533 231.253 135.016 231.927C134.766 232.248 134.523 232.71 134.178 233.101C134.077 233.226 133.928 233.328 133.842 233.438C133.607 233.743 133.325 234.221 133.004 234.612C132.902 234.737 132.754 234.839 132.667 234.949C132.581 235.058 132.605 235.317 132.495 235.45C132.119 235.919 131.54 236.327 131.157 236.796C130.953 237.047 130.859 237.376 130.648 237.634C129.794 238.738 128.596 240.077 127.626 241.329C125.214 244.633 122.725 247.851 120.58 251.413C121.12 253.762 122.098 256.11 122.263 259.304C122.38 262.44 122.268 265.58 121.926 268.699C118.795 270.265 114.277 270.398 109.831 270.719C104.965 271.027 100.086 271.082 95.2141 270.883C94.2355 270.836 93.3273 270.617 92.3565 270.547C88.9823 270.312 85.6863 270.116 83.2828 268.863C82.8711 264.433 82.9289 259.972 83.4551 255.554C84.4337 253.401 84.9269 250.763 85.976 248.673C83.6273 240.28 79.7129 233.453 76.7301 225.656C73.5437 218.093 69.9268 210.961 68.6663 201.465C68.5535 201.319 68.4953 201.139 68.5019 200.956C67.4685 199.053 66.4742 197.213 65.3077 195.248C65.2451 195.131 65.2373 194.873 65.1433 194.747C65.0494 194.622 64.838 194.638 64.8067 194.575C64.5092 194.051 64.2665 193.448 63.969 192.9C63.2722 191.624 62.4815 190.191 61.7847 188.868C61.6438 188.602 61.5812 188.273 61.4481 188.022C60.8687 186.934 60.1641 185.956 59.6004 184.828C59.0368 183.701 58.5984 182.573 58.0895 181.47C57.0482 179.254 55.8504 177.054 54.8953 174.752C54.3942 173.562 54.0341 172.278 53.5487 171.057C53.3921 170.65 53.1103 170.212 52.8754 169.711C52.6406 169.21 52.484 168.27 52.21 167.526C52.0769 167.182 51.8264 167.033 51.7011 166.689C51.3958 165.82 51.2 164.794 50.8634 163.831C48.9297 158.351 46.9959 152.009 45.1483 146.028C43.5356 140.783 42.0168 135.029 40.2787 129.728C38.2276 123.465 36.239 117.202 34.3992 110.743C34.1252 109.796 33.7964 108.833 33.5616 107.894C33.1623 106.328 32.6064 104.668 32.215 103.016C32.0428 102.312 32.0428 101.521 31.8783 100.832C31.7139 100.143 31.5104 99.6107 31.3773 98.9844C30.1108 93.4009 29.2681 87.7296 28.8564 82.0191C27.823 82.1601 27.5725 83.0839 26.6721 83.3657C24.9263 85.0881 22.7577 86.419 20.957 88.063C20.7613 87.8752 21.3172 87.3819 21.6303 87.0531C22.6491 86.1106 23.6038 85.1011 24.4879 84.0312C26.0283 82.9638 27.3892 81.6583 28.5198 80.1637V78.6527C26.3981 79.2242 25.1612 80.6726 23.1413 81.338C21.693 82.528 19.7905 83.2561 18.2717 84.3678C17.8646 84.0077 19.0546 83.8433 19.1094 83.3579C20.4496 82.5711 21.7387 81.7003 22.9691 80.7509C24.8245 79.7488 26.3825 78.4492 28.3397 77.5567V75.8735C24.4252 76.4606 21.7321 78.3396 18.4283 79.5687C19.3208 78.6684 20.6674 78.23 21.6225 77.3844C21.1763 77.2357 20.7613 77.5802 20.2838 77.7211C18.898 78.1282 17.2853 78.6057 15.9152 79.0676C18.7655 77.5246 21.7437 76.2306 24.8167 75.2002C25.8523 74.8858 26.8625 74.4932 27.8386 74.0258C27.455 73.5483 26.8522 74.2607 26.1554 74.0258C26.6173 73.5874 27.6194 73.697 28.0109 73.1881C27.0557 72.8515 25.9362 73.7988 24.6444 73.6892C21.4737 74.7148 18.0604 75.5055 14.7331 76.3823C18.3455 74.7164 22.1174 73.4207 25.991 72.5149C23.3527 72.0608 20.5499 72.8985 17.7629 72.8515C20.4951 71.8337 23.8694 71.458 27.0009 70.8395C25.1298 70.6907 22.9534 71.0665 20.7848 71.1683C18.2561 71.2936 15.6412 71.3092 13.2221 71.5049C17.4679 70.5227 21.7683 69.7933 26.1006 69.3207H27.7838C28.0109 68.256 27.2515 68.2325 26.2729 67.9819C24.1591 67.4417 20.3307 67.5983 17.5358 67.4731C18.3347 67.1516 19.2015 67.0358 20.0567 67.1364C19.2738 66.6041 18.3657 66.7919 17.5358 66.6354C16.775 66.3779 15.9868 66.2097 15.1871 66.1343C14.1366 66.3299 13.1174 66.667 12.1574 67.1364L9.98094 67.9819C8.18812 68.663 5.83945 69.7199 3.7648 70.3306C6.97681 68.6745 10.2867 67.2156 13.6762 65.9621C13.6762 65.7664 13.363 65.8212 13.1673 65.7977C13.1673 65.0148 13.6762 65.8681 14.1772 65.6254C15.5147 65.3423 16.8114 64.8926 18.0369 64.2867C17.254 63.6917 16.4711 64.2397 15.6882 64.4511C13.3395 65.0696 10.709 66.0169 8.29772 66.6354C10.529 65.3671 13.5744 64.9052 15.9231 63.7778C15.9935 63.3159 15.0071 63.9109 15.0775 63.4412C11.5154 64.0831 7.84365 64.9208 4.32848 65.7898C3.77262 65.9308 3.18546 66.15 2.64526 66.2909C2.15849 66.45 1.6439 66.506 1.13429 66.4553C6.95334 64.6373 12.9096 63.2915 18.945 62.4313C18.9059 62.0398 18.2717 61.8676 17.9351 61.758C17.5984 61.6484 17.3323 61.6092 17.2618 61.5857C16.3615 61.3352 14.9131 61.1238 13.9032 60.748C9.85567 61.1786 5.44801 61.2569 1.80757 62.0946C2.1129 61.6249 2.83316 61.6797 3.31855 61.5857C4.95479 61.2804 7.11556 61.1395 9.37028 60.9124C10.1532 60.8342 10.9361 60.6384 11.7189 60.5836C12.1652 60.5445 12.6114 60.6463 13.0655 60.5836C14.4434 60.3801 15.7743 59.8712 17.0974 59.7381C17.884 59.775 18.6723 59.7198 19.4461 59.5737C19.0233 59.1588 18.3578 58.9787 17.9351 58.5638C13.0181 57.9978 8.07222 57.7207 3.12283 57.7339C2.55132 57.6243 1.55705 57.9531 1.27521 57.5617H3.12283C6.96681 57.5617 12.4314 57.3112 16.0562 58.0706C16.3537 58.0314 16.9017 58.235 16.7294 57.7339C17.6846 58.2898 19.1877 58.2976 20.4247 58.5716C20.1428 57.6478 18.718 57.7887 17.4027 57.5617C16.9252 57.4834 16.1423 57.5617 16.0562 57.0606C16.6355 57.3816 17.7785 57.1311 18.4048 57.3973C18.4048 56.7631 17.5671 57.0058 17.4027 56.5596C17.0817 56.3169 16.5259 56.3091 16.3928 55.8863C14.921 55.6201 13.3082 55.4949 12.3609 54.712C12.0243 54.6493 11.8364 54.712 11.8599 55.0408C11.354 54.5643 10.704 54.2696 10.0122 54.2031C7.96891 53.6707 5.67504 53.4202 3.45947 53.0288C4.79821 52.6451 6.17609 53.1775 7.49135 53.3654C8.8066 53.5533 10.2236 53.6081 11.5232 53.8664C12.1495 53.9995 12.7602 54.2422 13.3708 54.3753C15.1944 54.6753 16.9905 55.123 18.7415 55.7141C19.2425 55.5731 18.35 55.4635 18.5771 55.0408C19.6682 55.4838 20.7321 55.991 21.7634 56.5596C22.2175 56.3639 21.3328 56.1212 21.2624 55.8863C20.8318 55.8863 20.6752 55.5731 20.4247 55.3774C19.8221 55.1187 19.2562 54.7817 18.7415 54.3753C15.0353 52.3524 11.158 50.66 7.15471 49.3179C8.48562 49.1065 10.0357 50.1007 11.6876 50.1556C8.09417 48.4645 4.17973 47.1493 0.429688 45.6383C1.21258 45.5365 1.83889 46.0532 2.61395 46.3116C4.96262 47.0945 7.67141 47.7051 9.65995 48.8246C13.0264 49.7171 15.7195 51.2829 18.7258 52.5277C19.0468 52.1441 17.9429 51.784 17.7237 51.3455C17.2608 51.0301 16.8601 50.632 16.5415 50.1712C11.7972 47.6033 7.25648 44.8084 2.44954 42.2719C2.9885 42.3031 3.5097 42.4759 3.96052 42.7729C5.4914 43.5223 7.05918 44.1938 8.65785 44.7849C10.528 45.9602 12.4949 46.9738 14.5373 47.8147C14.9288 47.8147 14.4747 47.3528 14.2007 47.4781C14.1729 47.3703 14.1066 47.2765 14.0142 47.2144C13.9219 47.1524 13.8099 47.1264 13.6997 47.1414C13.5901 46.6325 12.7915 46.8126 12.6897 46.3037C10.3019 45.0981 8.23509 43.5949 5.80031 42.4363C6.37182 42.2171 6.88069 42.8277 7.48352 43.1095C8.12015 43.3405 8.73787 43.6206 9.33114 43.9472C13.0342 45.56 16.1892 47.7286 19.5792 49.6623C19.9863 49.451 19.0703 49.1691 19.0703 48.8168C18.4753 48.9108 18.6553 48.2218 18.0604 48.3158C16.3983 46.8797 14.6604 45.5338 12.8541 44.2839C10.5055 42.4676 8.09417 40.7531 5.6359 39.0777C6.14478 38.8115 6.70846 39.9232 7.49135 39.9232C7.97668 40.4098 8.54377 40.8073 9.16673 41.0975C10.3176 41.8804 11.398 42.6633 12.5253 43.4462C14.7487 45.012 16.9017 46.6874 19.0781 48.3158C18.7293 47.7335 18.2753 47.2212 17.7394 46.8048C17.4654 46.5699 17.1679 46.3664 16.8938 46.1315C15.7743 45.1685 14.4904 43.8298 13.1986 42.7729C11.2257 41.0036 9.34679 39.1403 7.31128 37.4023C7.66358 37.2066 7.90628 37.5902 8.14897 37.7389C8.93186 38.2165 9.81653 38.8506 10.6699 39.4221C11.8255 40.0733 12.898 40.8619 13.8641 41.7708C14.7142 42.2961 15.5021 42.9159 16.2127 43.6184C16.338 43.7202 16.4398 43.869 16.5494 43.9551C16.659 44.0412 16.9252 44.0177 17.0583 44.1273C17.1913 44.2369 17.254 44.5266 17.3949 44.6284C17.5358 44.7301 17.755 44.6753 17.8959 44.7928C18.5144 45.333 19.2112 46.1393 19.9158 46.8126C19.933 46.2642 19.7524 45.7279 19.4069 45.3016C18.624 44.1116 17.1131 42.953 15.8839 41.6064C15.5708 41.2698 15.3516 40.9409 15.0384 40.5965C14.2947 39.7588 13.4022 38.8271 12.5175 37.9112C11.6328 36.9952 10.3646 35.4137 9.1589 34.2159C8.80425 33.9563 8.46689 33.6739 8.14897 33.3704C7.83582 33.0181 7.72621 32.6423 7.48352 32.3683C7.24082 32.0943 5.96471 30.9983 6.81023 31.695C6.9633 31.8267 7.1315 31.9397 7.31128 32.0317C7.86713 32.6971 8.54042 33.2686 9.1589 33.8793C9.77738 34.4899 10.4115 34.9832 11.0065 35.5547C12.2043 36.7133 13.1908 38.0756 14.3729 39.2499C15.5551 40.4242 16.8077 41.5125 17.8959 42.7807C18.9197 44.0962 20.0425 45.3316 21.2545 46.476C19.1226 43.6278 17.1619 40.6554 15.3829 37.5745C13.7034 34.4314 11.7351 31.4514 9.50337 28.6731C9.84784 28.2816 10.1062 29.4012 10.5133 29.5108C10.7482 30.004 11.2962 30.1919 11.5232 30.6851C12.4705 31.8516 13.5744 32.8772 14.5452 34.0437C15.4108 35.2884 16.3659 36.4684 17.4027 37.5745C15.469 34.5134 13.7936 31.2096 11.8599 28.1799C12.3453 27.992 12.4705 28.7357 12.6976 29.0175C13.4256 29.9257 14.4512 31.2175 15.2185 32.2117C15.5786 32.0004 14.7957 31.5228 14.8818 31.0374C15.6647 31.7811 16.2049 32.8459 17.0661 33.5583C15.9544 30.7947 15.0071 27.8902 13.7075 25.3223C14.1302 24.8604 14.4434 25.9251 14.5452 26.3322C15.5394 27.35 15.9857 28.9236 17.0661 29.8631C16.4398 28.1329 15.6412 26.5749 15.0462 24.8213C16.7928 27.98 18.361 31.2341 19.7436 34.5682C20.0411 33.1434 19.0468 31.5698 18.9059 30.0275C19.8923 30.9983 20.3777 32.4701 21.2545 33.5583C21.1985 32.6997 21.0301 31.8522 20.7535 31.0374C20.2524 28.6026 19.9706 25.3066 19.4069 22.637C19.9001 22.2377 19.8767 23.3181 20.0802 23.8113C20.4325 24.6569 20.8239 25.5885 21.2545 26.6689C22.2821 29.1416 23.181 31.6659 23.9477 34.2316C24.3313 32.1569 24.0025 29.3542 24.1121 27.0055C25.0202 28.7279 25.3569 31.0217 26.2963 32.7206C26.6874 30.5521 26.967 28.365 27.134 26.1678C27.6038 26.2539 27.4472 26.9507 27.6429 27.3422C27.8755 26.7544 27.9899 26.1266 27.9796 25.4945C28.5041 25.7842 28.3632 26.6219 28.4806 27.1699C28.6875 27.7647 28.8011 28.388 28.8172 29.0175C29.5062 27.0838 29.6393 24.5864 29.9916 22.3004C30.6101 22.6292 30.2734 23.4669 30.3282 23.9836C30.4848 25.3536 31.1111 28.5165 31.0015 30.3641C31.0123 31.3259 31.1251 32.2837 31.3382 33.2217C31.4947 36.3532 31.0876 39.6179 31.3382 42.2953C32.0506 42.1701 31.8627 41.1367 32.3403 40.7765C33.389 38.9491 34.2896 37.0406 35.0334 35.0693C35.8633 33.1355 36.8575 31.2253 37.7187 29.3542C38.0397 29.91 37.2881 30.8182 37.3821 31.7029C37.8126 31.9377 37.844 31.1 38.0553 30.6929C38.3415 30.2777 38.5682 29.8244 38.7286 29.3464C39.0105 29.7143 38.5329 30.184 38.392 30.5285C37.9309 31.8034 37.368 33.0391 36.7088 34.2238C36.4676 35.5326 36.1327 36.8225 35.7067 38.0834C36.3095 38.0208 36.2155 37.2535 36.5444 36.9091C36.6853 36.4315 37.0846 36.2201 37.0454 35.5625C37.5468 34.7513 37.9965 33.9093 38.392 33.0416C39.2375 30.8652 40.4353 29.041 41.4139 26.9977C41.4139 26.8098 41.5862 26.9037 41.5862 26.9977C40.1378 29.9179 38.8226 32.979 37.3821 35.8991C37.5543 36.228 38.0475 35.4607 38.2276 35.2259C38.4155 34.8579 38.7834 34.67 38.893 34.2238C38.9362 34.1778 38.9884 34.1411 39.0463 34.1161C39.1042 34.091 39.1666 34.0781 39.2297 34.0781C39.2928 34.0781 39.3552 34.091 39.4131 34.1161C39.471 34.1411 39.5231 34.1778 39.5663 34.2238C39.7307 33.6601 40.2396 33.4409 40.404 32.8772C40.9364 32.7363 40.7798 31.9064 41.4139 31.8673C41.3278 32.1178 41.1634 32.29 41.0773 32.5405C41.5314 32.6658 41.6958 31.9925 41.9228 31.7029C42.7057 30.7086 43.6921 29.4716 44.4359 28.3443C44.5611 28.9941 43.8409 29.5186 43.4338 30.1919C43.2459 30.4894 43.0971 30.9043 42.9249 31.194C42.7527 31.4836 42.416 31.7733 42.4239 32.2039C41.4452 33.2451 40.8581 34.7091 40.0752 35.8991C40.7485 35.6095 40.9833 34.9284 41.4218 34.3882C41.6958 34.0515 42.1264 33.7775 42.4317 33.3782C42.8466 32.838 43.4103 32.0317 43.9427 31.3662C44.3419 30.8652 44.7256 30.3719 45.117 29.8552C45.2188 30.4033 44.6394 30.9591 44.2793 31.5306C43.853 32.0931 43.5126 32.7157 43.2694 33.3782C42.2986 34.3099 41.8915 35.813 40.9207 36.7368C39.6211 39.2499 37.9614 41.395 36.5522 43.7828C36.7061 44.2112 36.7623 44.6687 36.7166 45.1216C37.2568 45.4112 37.7813 44.4561 38.0632 43.9472C39.5282 42.6701 40.8774 41.2659 42.095 39.751C43.1676 38.9681 43.9583 37.919 45.117 37.2301C45.5129 36.6732 46.0294 36.2129 46.628 35.8835C46.7771 35.5946 47.0124 35.3593 47.3013 35.2102C47.45 34.6543 47.8649 35.0693 47.3013 35.2102C45.3675 37.4571 43.3164 39.5239 41.2574 41.763C40.5563 42.4174 39.9361 43.1534 39.4097 43.9551C38.8347 44.3303 38.3699 44.8518 38.0632 45.466C37.6717 45.8183 36.7244 46.2489 37.2255 46.9849C37.4212 47.1649 37.6952 46.8283 37.8988 46.6404C38.568 45.962 39.1856 45.2345 39.7464 44.4639C42.416 41.8178 45.2266 39.2812 47.8101 36.5646C48.272 37.0422 47.1134 37.3475 46.9646 37.7389C46.2802 38.5094 45.5509 39.2388 44.7804 39.9232C43.0893 41.8726 41.1008 43.5245 39.4097 45.466C39.5272 45.8418 39.9108 45.0981 40.2474 45.1294C40.5415 44.9269 40.8214 44.7046 41.0851 44.4639C41.6997 44.1523 42.2666 43.7542 42.7683 43.2818C42.8936 43.7515 42.4004 44.1351 42.095 44.4639C41.3302 45.1515 40.6011 45.878 39.9108 46.6404C39.6289 47.0083 39.0653 47.4233 39.2375 47.9869C39.9264 48.2844 40.5136 47.251 41.0851 46.8126C41.5003 46.5645 41.8956 46.2844 42.2673 45.9749C42.1264 45.3878 42.51 45.3251 42.4317 44.7928C42.6587 44.8476 42.5726 45.2155 42.5961 45.466C42.9249 45.834 43.4964 45.0355 43.7783 44.7928C44.2245 44.9102 44.0992 44.4483 44.2793 44.2917C44.6629 44.3387 44.9134 44.2917 44.9526 43.9551C45.9234 43.5323 46.5575 42.7651 47.4735 42.2797C49.0393 41.1054 50.9104 40.2285 52.5075 39.0855C52.805 39.2186 51.5289 40.025 51.1687 40.2598C50.6021 40.6796 49.9804 41.0194 49.3211 41.2698C48.3582 42.1544 47.1447 42.7886 46.1269 43.6184C46.0243 44.4866 45.7975 45.3356 45.4536 46.1393C45.986 46.2333 46.5967 45.7009 47.3013 45.3016C49.2596 44.1781 51.2801 43.1666 53.353 42.2719C53.0477 42.8042 52.2413 42.8434 51.842 43.274C51.247 43.274 52.1943 43.8298 51.6698 43.7828C50.4876 44.5031 49.2428 45.1607 48.1468 45.9671C47.5104 46.2669 46.891 46.6015 46.2913 46.9692C45.9077 47.4781 45.0465 47.5016 44.9526 48.3079C46.6906 47.9165 47.8728 46.977 49.4855 46.4603C48.775 47.025 47.9831 47.479 47.1369 47.8069C46.3855 48.2585 45.6003 48.6511 44.7882 48.9812C44.7334 50.0459 43.8096 51.1342 44.1149 52.0032C43.5512 52.4494 43.5747 53.475 43.2772 54.1874C43.8487 54.4066 44.4046 53.8116 44.9604 53.6864C45.1718 53.6394 45.4223 53.749 45.6337 53.6864C45.7198 53.6864 46.0721 53.3654 46.1348 53.3497C46.3461 53.3028 46.5967 53.4045 46.808 53.3497C46.8942 53.3497 47.2465 53.0288 47.3091 53.0131C49.0549 52.6217 50.9652 52.1206 52.6875 51.6665C53.1808 51.6665 53.3138 51.2829 53.5252 50.9932C53.721 50.9463 54.222 50.2573 54.1985 50.9932C54.0028 51.0559 53.7758 51.2907 54.0263 51.3299C54.864 51.4238 53.4626 51.6274 53.3608 51.8388C53.3692 51.8772 53.3904 51.9116 53.421 51.9363C53.4517 51.961 53.4898 51.9745 53.5291 51.9745C53.5685 51.9745 53.6066 51.961 53.6373 51.9363C53.6679 51.9116 53.6891 51.8772 53.6975 51.8388C53.7914 52.2615 53.2042 52.7234 52.8519 53.1775C52.4996 53.6316 52.1395 54.1248 51.8498 54.5241C52.8363 54.6024 53.3373 53.7412 53.8619 53.3497C54.4532 52.9401 55.0156 52.4902 55.5451 52.0032C55.686 52.2302 55.0597 52.7861 54.6996 53.1775C54.3394 53.5689 53.7288 53.8978 53.5252 54.3597C54.175 54.5476 55.0049 54.0543 55.2084 54.3597C54.9266 54.8059 53.6427 54.2657 53.3608 54.6963C52.6163 55.0936 51.9796 55.6659 51.5054 56.3639C50.9339 56.9823 50.3624 57.5695 49.8222 58.2115C50.8869 58.3211 52.3979 57.9923 53.1808 58.3837C51.4193 58.462 49.0549 57.9453 48.6478 59.3858C50.2136 59.7459 52.3118 59.6442 54.0185 59.8947C52.4527 60.1922 50.1823 59.7068 48.1468 59.8947C47.8806 59.9808 48.1468 60.0669 48.3112 60.0591C48.3112 60.2548 48.0059 60.2 47.8101 60.2313C47.0133 60.8872 46.2818 61.6187 45.6259 62.4156C47.3398 62.8148 49.0794 63.0947 50.8321 63.2533C53.3345 61.8226 55.9142 60.5315 58.5592 59.3858C57.6354 60.3096 56.2967 60.8263 55.365 61.7345C55.5921 61.9459 56.4532 61.3744 56.876 61.2256C58.4418 60.6463 59.9293 59.9182 61.5733 59.378C61.4167 59.8947 60.6417 59.7929 60.399 60.2235C60.3285 60.4975 61.0253 60.2235 61.0723 60.0513C61.3463 60.4819 60.6025 60.4427 60.399 60.5602C59.4341 61.1292 58.4383 61.6441 57.4162 62.1024C57.8546 62.5878 58.3713 61.7267 59.0916 61.9302C57.6902 62.7679 55.96 63.2611 54.5586 64.1145C54.8013 64.4824 55.6547 64.2476 55.9052 64.6155C56.1962 64.5607 56.4971 64.6225 56.7429 64.7878C57.0639 64.7173 57.3457 64.9052 57.0795 64.9522C55.9913 64.9522 54.9266 64.3728 53.8854 64.4511C53.1025 64.5137 52.5936 65.0461 51.8733 65.1244C51.9908 65.5002 52.5779 65.5472 52.8754 65.6254C53.8775 65.9151 55.138 66.1813 56.4063 66.4631C55.5523 66.527 54.6943 66.4151 53.8854 66.1343C53.0163 65.9151 52.163 65.6176 51.3645 65.461C48.0702 66.7024 45.0879 68.6505 42.6274 71.1683C44.8978 71.6067 47.3247 70.8238 49.6734 70.6672C54.543 70.3541 59.9919 70.9726 64.6188 71.5049C61.4872 71.9199 57.9172 71.8572 54.543 72.0138C54.6839 72.6558 55.4903 72.6323 56.054 72.8515C56.5355 73.1227 57.0413 73.3481 57.5649 73.5248C55.3885 73.6814 52.6484 72.9533 50.1745 72.8515C49.8378 73.0316 50.8556 73.2743 50.8477 73.6892C51.2314 73.6892 51.8264 74.2607 51.521 74.3625C48.5617 73.8458 46.0878 72.8515 42.784 72.6871C43.0635 73.4933 43.401 74.2783 43.7939 75.0358C43.8565 75.9518 43.9427 76.8599 43.9583 77.3844C44.9056 79.7331 46.1426 82.0818 47.1525 84.4304C47.2386 84.634 47.4109 84.908 47.4892 85.1037C48.272 87.194 49.282 89.3548 50.1745 91.6487C50.5581 92.6351 50.8164 93.6842 51.1844 94.6785C51.5523 95.6727 52.0377 96.5417 52.3587 97.5282C53.0085 99.5637 53.6192 101.779 54.2063 103.917C55.8817 110.007 57.2753 116.959 58.7393 123.567C60.8766 133.212 63.601 143.139 66.1376 152.636C68.3644 160.902 71.0486 169.038 74.1778 177.007C77.8574 185.909 82.3199 194.865 85.9212 204.22C87.7375 208.918 89.4911 213.709 91.1274 218.5C91.9103 220.919 92.6932 223.401 93.6483 225.726C94.6024 227.884 95.7254 229.962 97.0069 231.942C97.8759 230.377 98.4474 228.568 99.3556 227.065C99.4808 225.186 100.193 223.323 100.365 221.358C100.914 215.095 99.7 208.315 99.6922 202.373C99.6922 201.269 99.8096 200.11 99.8644 199.014C100.256 190.261 99.9192 182.049 100.365 173.648C100.483 171.449 100.702 169.21 100.867 167.096C101.015 165.287 101.195 163.494 101.375 161.717C101.931 156.041 102.785 150.545 103.56 145.277C104.343 139.836 105.188 134.606 106.245 129.486C107.302 124.366 108.492 119.457 109.776 114.54C110.731 110.853 111.819 107.377 112.962 103.783C114.003 100.511 115.217 96.667 116.321 93.1988C118.529 86.3172 120.744 79.2007 122.709 71.8651C125.261 62.3608 127.782 52.7313 130.436 42.6398C127.908 43.6889 125.113 44.4874 122.709 45.6618C122.341 45.1764 123.445 44.7223 123.547 44.1508C121.668 44.6205 119.899 45.2077 118.004 45.6618C120.161 43.8849 122.789 42.7749 125.567 42.4676C125.731 42.3345 126.201 41.6847 125.903 41.6299C126.866 40.9723 128.377 40.847 130.1 40.9566C126.968 40.2363 122.529 40.8 118.842 40.62C118.54 40.7989 118.182 40.8576 117.84 40.7844C119.28 41.2463 121.511 40.9175 123.046 41.2932C117.276 41.0819 111.381 41.121 107.255 40.9566C110.38 40.6791 113.524 40.6791 116.65 40.9566C117.245 40.1737 118.904 40.4086 119.844 39.9467C123.044 39.776 126.254 39.9466 129.419 40.4556C130.076 40.4086 130.804 40.9409 131.102 40.2833C131.149 39.6805 130.366 39.8997 130.092 39.61C128.949 39.1873 127.772 38.7958 126.561 38.4357C128.197 37.9816 129.826 39.8762 131.258 39.61C131.321 38.8271 130.969 39.4691 130.757 38.9446C130.522 39.43 130.178 38.6393 129.747 38.7723C129.794 38.5923 130.084 38.6549 130.084 38.4357C126.256 36.382 122.269 34.6409 118.161 33.2295C119.155 33.0807 120.674 33.848 121.684 34.2394C125.12 35.3096 128.398 36.8341 131.431 38.7723C131.431 37.7859 130.483 37.8172 130.084 37.2614C126.17 34.5447 122.255 31.7811 118.161 29.1976C118.685 29.1428 119.437 29.6752 120.173 30.0353C120.891 30.4123 121.634 30.7418 122.396 31.0217C122.341 30.5755 121.958 30.4581 121.558 30.3485C121.089 29.6595 120.196 29.409 119.538 29.0019C119.476 29.0019 119.429 28.6966 119.374 28.6731C117.432 27.7962 115.46 26.2853 113.322 25.3067C113.221 24.9074 111.404 24.2889 112.312 24.469C118.477 27.8482 124.426 31.6081 130.123 35.7269C129.653 34.7405 128.761 34.1611 128.275 33.206C123.179 29.088 118.145 24.8526 112.657 21.1338C112.939 20.9616 113.189 21.3844 113.322 21.4705C113.455 21.5566 113.667 21.5331 113.831 21.6349C113.996 21.7367 114.559 22.1986 115.006 22.4804C115.123 22.5509 115.381 22.5509 115.507 22.6448C115.827 22.9432 116.164 23.2229 116.516 23.4825C116.697 23.5921 116.861 23.553 117.018 23.6548C117.495 23.9444 118.247 24.5472 118.865 24.9935C120.904 26.3312 122.867 27.7818 124.745 29.3385C125.144 29.2916 124.565 28.8845 124.408 28.8375C124.533 28.3756 124.079 28.5008 124.079 28.1642C123.867 28.0347 123.683 27.8641 123.538 27.6625C123.393 27.4608 123.289 27.2321 123.234 26.9899C119.985 24.0305 116.845 20.9538 113.495 18.0884C113.886 18.0414 114.191 18.3468 114.497 18.5895C115.326 19.2314 116.266 20.1552 117.19 20.9381C118.486 21.9255 119.72 22.9923 120.885 24.1323C121.737 24.721 122.524 25.3981 123.234 26.1522C124.737 27.4048 126.365 29.2837 128.111 30.5207C128.581 30.3015 127.579 30.1684 127.774 29.6752C127.482 29.5311 127.245 29.2944 127.101 29.0019C125.676 27.624 124.635 25.8703 123.234 24.469C121.926 22.1203 119.82 20.4919 118.701 17.9162C118.411 17.3682 117.816 17.1333 117.526 16.5774C117.182 16.5226 117.198 16.1155 116.853 16.0686C116.775 15.9198 116.704 15.7711 116.516 15.7319C116.516 15.544 116.681 15.638 116.681 15.7319C118.368 17.2365 119.938 18.867 121.378 20.6093C122.02 21.5331 123.061 22.0577 123.562 23.1224C126.851 26.2539 129.223 30.231 132.135 33.7071C131.201 31.611 130.016 29.6367 128.604 27.8276C127.344 26.0191 125.997 24.2967 124.737 22.4569C123.476 20.6171 122.13 18.9026 120.877 17.0785L118.857 14.3932C118.184 13.552 117.569 12.6652 117.018 11.7392C121.848 17.0472 125.997 23.0284 130.123 29.041C129.967 27.9685 129.34 27.3891 129.113 26.3557C128.581 25.6589 128.643 24.3672 128.111 23.6704C125.762 18.746 123.492 13.6964 121.065 8.71723C121.394 8.19269 121.566 9.21045 121.738 9.39051C122.114 9.5236 121.958 10.1734 122.412 10.2282C123.476 12.3577 124.721 14.2992 125.942 16.2799C125.909 15.6345 125.735 15.0041 125.434 14.4323C125.308 14.1035 125.238 13.7669 125.097 13.4224C124.604 12.1619 123.711 10.1969 123.249 8.55282C123.038 8.50585 123.085 8.21618 123.249 8.21618C123.202 8.48236 123.414 8.50585 123.422 8.71723C124.001 9.71933 124.565 10.7371 125.097 11.7392C125.674 12.7439 126.173 13.7907 126.592 14.8707ZM129.113 35.3668C129.421 35.8954 129.894 36.308 130.46 36.5411C130.749 36.8778 131.431 37.692 131.806 37.3788C131.11 36.5333 130.006 36.0635 129.113 35.3903V35.3668ZM205.891 25.1188C205.492 25.1188 205.962 23.3807 205.382 24.1088C205.782 24.1401 205.312 25.8703 205.891 25.1422V25.1188ZM205.891 26.6297C205.938 26.4262 205.891 25.5885 205.719 26.1287C205.664 26.3557 205.75 27.1856 205.891 26.6532V26.6297ZM206.056 27.9763C206.056 27.7962 205.93 27.5379 205.891 27.8041C205.852 28.0702 206.016 28.266 206.056 27.9998V27.9763ZM123.743 31.695C123.382 31.4836 123.085 31.2253 122.733 31.0217C122.764 31.4445 123.672 31.8594 123.743 31.695ZM128.949 35.218C128.62 35.1476 128.111 34.396 127.939 34.717C128.26 34.8031 128.714 35.6016 128.949 35.2259V35.218ZM130.796 40.9331C130.663 40.9723 130.468 40.9331 130.46 41.0975C130.593 41.0662 130.789 41.0975 130.796 40.9331ZM205.046 44.1273C205.046 43.7437 204.482 43.1487 204.372 43.454C204.67 43.6028 204.654 44.0725 205.046 44.1273ZM44.4437 46.9692C45.117 46.3507 45.164 45.1059 45.7903 44.4483C45.7903 44.2447 45.7903 43.9707 45.6259 43.9394C44.7882 44.4091 44.3733 46.1863 44.4437 46.9692ZM194.633 43.9394C194.492 44.0568 194.954 44.096 194.97 44.1116C196.058 44.871 194.931 43.7124 194.633 43.9551V43.9394ZM190.766 44.6127C189.983 44.143 190.359 45.1607 190.766 44.6127V44.6127ZM197.491 45.286C197.248 45.1764 196.16 44.5501 196.481 44.9493C196.77 44.9963 197.358 45.6383 197.491 45.3016V45.286ZM35.7145 45.787C35.7615 45.5835 35.7145 44.7536 35.5423 45.286C35.4953 45.5052 35.5736 46.3351 35.7145 45.8027V45.787ZM199.002 45.9593C198.61 46.1002 198.274 45.3721 198.156 45.787C198.336 45.8575 198.798 46.4838 199.002 45.9749V45.9593ZM42.7683 46.4603C42.9171 46.1628 43.3868 46.1863 43.4416 45.787C43.1206 45.8418 42.3299 46.2411 42.7683 46.476V46.4603ZM42.7683 47.9713C42.8545 47.7051 43.4181 47.071 42.9327 46.797C42.7527 46.9692 42.3064 47.7521 42.7683 47.9869V47.9713ZM203.198 48.535C203.268 47.94 202.415 47.8695 202.024 47.6894C201.632 47.5094 201.053 46.9066 200.677 47.3528C201.703 47.5329 202.165 48.3001 203.198 48.535ZM190.601 47.8617C190.867 47.392 189.873 47.392 189.928 47.6894C190.161 47.6496 190.401 47.697 190.601 47.8225V47.8617ZM191.611 47.6894C191.466 47.7201 191.317 47.7214 191.172 47.6931C191.027 47.6649 190.888 47.6077 190.766 47.525C190.507 47.9948 191.643 47.9243 191.611 47.6503V47.6894ZM192.613 48.1983C192.778 47.5877 191.893 48.0261 191.776 47.6894C191.619 48.261 192.504 47.8225 192.613 48.1592V48.1983ZM37.7265 49.6702C37.9457 49.0438 38.8695 49.13 38.9009 48.3236C38.9009 48.1279 38.9009 47.846 38.7365 47.8225C38.4938 48.4254 37.2255 48.8794 37.7265 49.6702ZM193.287 48.3236C194.928 48.4832 196.556 48.7631 198.156 49.1613C199.456 49.4275 200.677 49.6232 201.859 49.8346C202.071 49.8737 202.595 50.4296 202.697 49.8346C199.43 48.9926 196.122 48.3211 192.786 47.8225C192.527 48.4175 193.357 47.9243 193.287 48.3236ZM19.2503 48.3236C19.6888 49.31 20.2759 48.8481 19.2503 48.3236V48.3236ZM33.6946 49.4979C33.5772 49.083 34.4384 48.809 33.8669 48.4958C33.9843 48.9108 33.1466 49.1848 33.6946 49.4979ZM148.435 50.1712C148.435 49.8189 147.347 49.0673 147.425 49.6702C147.926 49.6702 147.996 50.1007 148.435 50.1712ZM34.0313 50.6723C34.1252 50.5783 34.4227 49.8894 34.0313 49.8346C33.9295 49.9363 33.6398 50.6331 34.0313 50.6723ZM206.729 52.3555C206.502 51.5256 205.946 52.0971 206.729 52.3555V52.3555ZM46.4557 55.3774H47.2934C47.8728 55.2208 48.2329 53.976 48.64 54.2031C48.7887 54.6102 47.8571 55.0721 48.64 55.0408C49.9787 55.0408 50.2919 54.0074 50.9887 53.3654C51.7246 53.1462 52.0456 52.512 52.4996 52.0188C49.2663 52.7078 46.4244 53.7803 43.2616 54.5397C42.9791 54.9975 42.8075 55.5149 42.7605 56.0507C43.974 55.9646 44.89 55.581 46.1269 55.581C46.2287 55.4322 46.4792 54.618 46.628 55.0721C46.5027 55.0799 46.4557 55.1817 46.4557 55.3774ZM31.346 53.5298C31.9331 53.3889 32.1289 52.8643 32.3481 52.3555C31.7139 52.4494 31.5808 53.0131 31.346 53.5298ZM37.8988 52.8643C38.0475 53.3263 37.9457 54.0387 38.2354 54.3753C38.7365 54.2579 38.6034 52.6295 38.5642 52.5277C38.49 52.6347 38.3903 52.7216 38.2741 52.7804C38.158 52.8391 38.0289 52.868 37.8988 52.8643ZM51.3331 55.581C51.3801 55.2365 51.7872 55.2522 51.842 54.9077C51.4662 54.7981 50.9104 55.3774 51.3331 55.581ZM22.4367 56.082C22.4915 55.5262 20.3464 54.9703 20.7613 55.2443C21.2873 55.576 21.8494 55.8465 22.4367 56.0507V56.082ZM47.6379 56.9197C47.7945 56.3482 49.0393 55.9802 48.6478 55.4087C48.6478 55.6593 48.2407 55.5653 47.9745 55.581C48.0215 56.0272 47.3091 56.6614 47.6379 56.8884V56.9197ZM45.9625 55.9176C45.5476 56.7005 45.0935 57.3973 44.616 58.1019C45.5867 58.2271 45.6572 57.4677 46.1269 57.0919C46.1817 56.6927 46.7141 56.7788 46.628 56.2543C46.8237 56.1995 47.4892 55.6671 46.8002 55.7454C46.6772 55.8238 46.5396 55.8767 46.3957 55.901C46.2518 55.9252 46.1045 55.9202 45.9625 55.8863V55.9176ZM42.7683 56.5909V58.2663H44.1071C44.3574 57.8531 44.6401 57.4604 44.9526 57.0919C45.0231 56.7083 45.8764 56.2464 45.4536 55.9176C44.5738 56.1911 43.6767 56.4056 42.7683 56.5596V56.5909ZM23.6189 57.0919C24.1982 57.0215 24.5505 58.0471 24.9576 57.593C24.1277 57.1389 23.6815 56.2934 22.6089 56.082C22.5385 56.7945 23.5171 56.4891 23.6189 57.0606V57.0919ZM20.5891 57.0919C20.456 57.2016 20.9022 57.2485 20.9257 57.2642C21.4033 57.4677 20.7613 56.9275 20.6204 57.0606L20.5891 57.0919ZM42.5961 59.6129C43.379 59.7459 43.5356 59.3154 43.606 58.7673H42.7683C42.9093 59.2136 42.5413 59.1744 42.5961 59.5815V59.6129ZM43.7783 59.6129C44.5142 59.7303 44.6473 59.2527 44.7804 58.7673C44.0444 58.6186 43.9114 59.104 43.7783 59.5815V59.6129ZM22.1001 59.6129C22.0531 59.0413 20.9022 58.6969 20.4247 59.104C21.0039 59.1785 21.5686 59.3395 22.1001 59.5815V59.6129ZM18.2717 60.0826C18.029 60.0826 16.8938 60.02 17.434 60.2548C18.443 60.3945 19.4695 60.336 20.456 60.0826C19.7495 59.8318 18.9782 59.8318 18.2717 60.0826ZM42.2986 62.1024C43.3868 61.9615 43.3868 60.7324 43.974 60.0826C43.793 60.0874 43.6159 60.0293 43.4729 59.9182C43.1754 60.7715 42.5413 61.2256 42.2673 62.1024H42.2986ZM16.4633 60.4192C16.7608 60.3801 17.3009 60.5915 17.1365 60.0826C16.706 60.0356 16.4319 60.1217 16.3928 60.4192H16.4633ZM42.9327 60.2783C42.9327 60.1061 42.6431 60.0669 42.5961 60.2783C42.5491 60.4897 42.784 60.3566 42.9327 60.2783ZM15.3829 60.9438C16.3544 60.9802 17.3161 61.1514 18.2404 61.4526C18.6632 61.5074 19.0233 61.3744 19.4147 61.4526C20.5813 61.6875 21.7634 62.4234 22.9456 61.617C21.6773 60.2 17.528 60.3879 15.3829 60.9203V60.9438ZM22.9691 62.1024H22.4602C21.4659 62.1024 22.9691 62.5487 22.9691 62.1024ZM19.6105 62.4391C18.7415 63.0184 16.9173 62.6583 16.244 63.4412C16.7921 63.3472 17.0269 63.5586 17.4262 63.6134C17.7002 63.2141 18.624 63.4647 18.9372 63.1045C19.5478 62.9871 20.3855 63.1045 20.6126 62.6035C20.0802 62.7288 20.0959 62.3138 19.587 62.4391H19.6105ZM20.2838 63.2768C19.7592 63.3707 18.9998 63.2298 18.9372 63.7778C20.182 63.8483 21.098 63.5899 21.6225 62.9401C21.1441 62.904 20.6668 63.022 20.2603 63.2768H20.2838ZM42.2908 63.1045C42.2908 63.0106 42.1498 62.9166 42.1185 63.1045C42.0872 63.2924 42.2281 63.3003 42.2673 63.1045H42.2908ZM46.1504 63.6134C45.4615 63.7465 45.2892 63.3551 44.6394 63.4412C44.569 63.8561 45.0465 63.8639 45.3127 63.9501C46.5105 64.3102 47.724 64.2084 48.6713 64.6155C49.1019 64.271 49.83 64.2084 50.0179 63.6134C48.3112 63.6134 46.5732 62.7914 45.1405 63.1045C45.3832 63.3472 45.8999 63.3316 46.1269 63.6134H46.1504ZM25.9675 64.4511C25.2473 63.8874 24.026 63.817 23.11 63.4412C22.8047 63.8639 22.0687 63.8639 21.7634 64.2867C23.8224 64.412 25.8814 65.4297 27.6507 65.2888C27.2202 64.8817 26.9227 64.3415 25.9675 64.4511ZM42.5961 66.2987C42.2125 66.5336 42.2047 67.1364 41.7584 67.3087C41.8289 67.841 40.8346 68.162 41.2574 68.483C42.6979 67.3478 44.5455 66.6197 46.1269 65.6254C46.8224 65.5733 47.477 65.2765 47.9745 64.7878C46.6593 64.6468 45.6963 64.1536 44.2793 64.1145C43.6209 64.762 43.0545 65.497 42.5961 66.2987ZM26.3042 65.9621C25.7483 65.8055 25.0281 65.7585 24.4566 65.6254C22.9691 65.281 21.2624 64.6547 20.088 64.9522C20.5108 64.5451 19.7514 64.5842 19.4147 64.4511C18.5692 64.9522 17.3871 65.1166 16.5572 65.6254C20.2793 65.8129 23.9882 66.2076 27.6664 66.8076C27.6194 66.2283 26.7817 66.0952 26.3042 65.9621ZM40.7485 69.1563C41.0538 69.2111 41.4531 68.8431 41.7584 68.6552C42.0637 68.4673 42.9014 68.3186 42.4317 67.9819C41.9541 68.4595 41.1008 68.5534 40.7485 69.1563ZM31.5104 69.8296H33.0214C33.1466 69.2894 31.3616 69.2894 31.5104 69.8296ZM36.2077 70.5028C35.3857 70.3854 35.096 70.7925 34.5245 70.5028C34.4306 71.043 36.3252 71.043 36.2155 70.5028H36.2077ZM34.3601 71.8416H33.6946C33.4989 71.8416 33.2171 71.8416 33.1936 72.0138C33.5381 71.912 34.2975 72.2174 34.3679 71.8416H34.3601ZM32.857 72.0216C31.7766 71.8259 32.489 72.5305 32.857 72.0216V72.0216ZM32.0114 72.1861C31.8862 72.1861 31.6826 72.1861 31.6826 72.3583C31.8079 72.3113 32.0114 72.3426 32.0114 72.1782V72.1861ZM35.5423 73.196C35.8633 73.1177 36.5522 73.423 36.38 72.8593C36.0825 72.9455 35.6832 72.9376 35.5423 73.1881V73.196ZM36.38 74.2059C36.2704 74.5974 35.8241 74.6522 35.7145 75.0436C35.5266 75.1532 34.8377 75.5994 35.2056 75.7169C35.4562 75.2941 35.9885 75.1219 36.38 74.8714C36.607 74.4251 37.3899 74.5425 37.3899 73.8693C36.7636 73.6814 36.9123 74.2764 36.38 74.1981V74.2059ZM38.5642 74.3703C37.7813 74.9575 37.6639 75.8891 37.2255 76.719C36.7871 77.5488 36.0511 78.6605 35.7145 79.4121C35.7145 79.4669 35.417 79.5139 35.3779 79.5765C35.2604 79.7566 35.19 80.0149 35.0412 80.2498C34.7266 80.733 34.4466 81.2379 34.2035 81.7608C34.2035 81.8156 33.906 81.8704 33.8669 81.933C33.7416 82.1209 33.6712 82.3871 33.5302 82.6063C33.1978 82.9895 32.9664 83.4497 32.857 83.9451C32.7317 84.8375 33.1623 86.2937 33.358 87.6403C33.452 88.2666 33.4206 88.8538 33.5302 89.4879C33.6398 90.122 33.9373 90.6309 34.0313 91.1711C34.2662 92.502 34.2975 93.7468 34.5323 94.8664C37.0924 106.79 40.7955 117.147 44.2793 127.622C48.1938 139.428 51.615 151.892 55.5373 163.072C58.3925 171.187 61.9336 179.044 66.1219 186.558C65.6757 182.526 64.8301 178.886 64.4387 174.815C65.5739 175.05 66.5212 174.22 66.9596 174.314C68.1731 181.36 69.6214 188.116 70.8193 195.139C76.4639 204.533 81.6075 214.476 86.9468 224.207C87.4974 225.253 88.1145 226.263 88.7944 227.229C88.9431 227.441 89.0449 228.278 89.4677 227.903C85.3497 215.447 81.2317 202.999 75.8611 191.804C70.8506 180.24 65.7618 168.755 62.5519 155.352C61.4089 151.767 60.6104 147.954 59.6944 144.267C58.1678 138.113 56.5628 131.74 55.1615 125.477C52.9224 115.19 51.3801 104.778 47.9354 95.4065C46.3993 90.8707 44.6035 86.427 42.557 82.0974C42.0256 81.0137 41.578 79.8909 41.2182 78.7388C41.0695 78.3709 40.9755 77.815 40.5449 77.7289C40.8346 78.9659 40.1613 80.2576 40.2083 81.7608C39.6524 82.8334 39.7072 84.5087 39.034 85.456C37.8283 82.1444 38.5172 77.541 39.034 74.0337C39.034 73.9319 39.034 73.838 38.8617 73.8693C38.6895 73.9006 38.713 74.2294 38.5642 74.3703ZM33.0214 74.707C32.3951 74.707 31.667 74.707 31.847 75.5446C32.7208 75.2294 33.5645 74.8364 34.3679 74.3703C33.8978 74.3576 33.4328 74.4711 33.0214 74.6991V74.707ZM32.1837 76.719C32.0897 76.4841 32.8413 76.3119 32.3481 76.2179C32.3637 76.3823 31.6278 76.5546 32.1837 76.719ZM32.3481 78.9032C32.3388 79.7442 32.3964 80.5845 32.5203 81.4163C33.1466 81.3693 32.857 80.4142 33.358 80.242C33.5299 79.7165 33.7555 79.2102 34.0313 78.731C34.3819 78.3307 34.6648 77.8759 34.869 77.3844C35.1665 77.1731 35.8006 76.4293 35.5423 76.2101C34.5323 77.1652 33.4363 78.0186 32.3637 78.8954L32.3481 78.9032ZM140.708 95.8763C140.567 95.2891 139.878 95.25 139.361 95.0308C138.837 94.86 138.33 94.6371 137.85 94.3653C136.699 94.2792 135.603 93.2536 134.656 93.5198C136.84 94.1304 138.398 95.3752 140.708 95.8684V95.8763ZM140.708 99.0626C140.16 99.5245 139.048 99.4228 138.523 99.9082C139.878 100.033 140.504 99.4228 141.718 99.3993C141.874 98.7886 141.052 99.1566 140.708 99.0548V99.0626ZM106.77 167.957C107.184 166.916 106.245 167.401 106.77 167.957V167.957ZM107.615 182.746C107.396 183.99 107.059 185.4 106.77 186.942C106.511 188.359 106.057 189.901 105.932 191.31C105.587 195.327 106.096 199.766 106.096 204.079C106.096 206.178 106.214 208.244 106.268 210.296C106.323 212.347 106.01 214.578 106.605 216.512C107.388 211.994 108.829 207.023 109.126 201.723C109.486 195.217 108.218 188.68 107.952 182.409C107.952 182.307 107.952 182.205 107.779 182.237C107.607 182.268 107.654 182.487 107.615 182.722V182.746ZM79.7285 222.704C82.3042 228.85 84.9582 234.636 87.4556 240.711C87.8627 241.924 88.1524 243.255 88.9666 244.069C89.4129 243.396 89.8669 242.723 90.3054 242.05C88.0428 237.932 86.2657 233.328 83.9248 229.281C82.8209 227.19 81.8032 225.03 80.5662 223.064C79.9947 222.07 79.6424 220.849 78.883 220.043C78.4842 218.904 77.9196 217.83 77.2076 216.856C77.9496 218.846 78.791 220.798 79.7285 222.704Z" fill="#2B1105"/>
</svg>
