<svg xmlns="http://www.w3.org/2000/svg" xmlns:xlink="http://www.w3.org/1999/xlink" width="241" zoomAndPan="magnify" viewBox="0 0 180.75 203.249992" height="271" preserveAspectRatio="xMidYMid meet" version="1.0"><defs><filter x="0%" y="0%" width="100%" height="100%" id="c037599e19"><feColorMatrix values="0 0 0 0 1 0 0 0 0 1 0 0 0 0 1 0 0 0 1 0" color-interpolation-filters="sRGB"/></filter><clipPath id="87ba634cfc"><path d="M 0.207031 0 L 96 0 L 96 130 L 0.207031 130 Z M 0.207031 0 " clip-rule="nonzero"/></clipPath><mask id="6a67b9de49"><g filter="url(#c037599e19)"><rect x="-18.075" width="216.9" fill="#000000" y="-20.324999" height="243.899991" fill-opacity="0.3882"/></g></mask><clipPath id="854cb70962"><path d="M 11 0 L 62 0 L 62 121 L 11 121 Z M 11 0 " clip-rule="nonzero"/></clipPath><clipPath id="e8552a61d9"><path d="M 95.128906 73.234375 L 44.605469 129.4375 L -38.3125 54.902344 L 12.214844 -1.300781 Z M 95.128906 73.234375 " clip-rule="nonzero"/></clipPath><clipPath id="2d91a2f4fb"><path d="M 95.128906 73.234375 L 44.605469 129.4375 L -38.3125 54.902344 L 12.214844 -1.300781 Z M 95.128906 73.234375 " clip-rule="nonzero"/></clipPath><clipPath id="f6d52c392e"><path d="M 95.128906 73.234375 L 44.605469 129.4375 L -38.3125 54.902344 L 12.214844 -1.300781 Z M 95.128906 73.234375 " clip-rule="nonzero"/></clipPath><clipPath id="e3a60859fd"><path d="M 20 60 L 24 60 L 24 64 L 20 64 Z M 20 60 " clip-rule="nonzero"/></clipPath><clipPath id="1bbf943204"><path d="M 95.128906 73.234375 L 44.605469 129.4375 L -38.3125 54.902344 L 12.214844 -1.300781 Z M 95.128906 73.234375 " clip-rule="nonzero"/></clipPath><clipPath id="c0cde871a4"><path d="M 95.128906 73.234375 L 44.605469 129.4375 L -38.3125 54.902344 L 12.214844 -1.300781 Z M 95.128906 73.234375 " clip-rule="nonzero"/></clipPath><clipPath id="ae4cde6a81"><path d="M 95.128906 73.234375 L 44.605469 129.4375 L -38.3125 54.902344 L 12.214844 -1.300781 Z M 95.128906 73.234375 " clip-rule="nonzero"/></clipPath><clipPath id="337acce3f6"><path d="M 12 54 L 17 54 L 17 63 L 12 63 Z M 12 54 " clip-rule="nonzero"/></clipPath><clipPath id="a13955199e"><path d="M 95.128906 73.234375 L 44.605469 129.4375 L -38.3125 54.902344 L 12.214844 -1.300781 Z M 95.128906 73.234375 " clip-rule="nonzero"/></clipPath><clipPath id="e37f4756fe"><path d="M 95.128906 73.234375 L 44.605469 129.4375 L -38.3125 54.902344 L 12.214844 -1.300781 Z M 95.128906 73.234375 " clip-rule="nonzero"/></clipPath><clipPath id="a32dfd9d63"><path d="M 95.128906 73.234375 L 44.605469 129.4375 L -38.3125 54.902344 L 12.214844 -1.300781 Z M 95.128906 73.234375 " clip-rule="nonzero"/></clipPath><clipPath id="7c932d1bfc"><path d="M 18 46 L 22 46 L 22 52 L 18 52 Z M 18 46 " clip-rule="nonzero"/></clipPath><clipPath id="9d8a898903"><path d="M 95.128906 73.234375 L 44.605469 129.4375 L -38.3125 54.902344 L 12.214844 -1.300781 Z M 95.128906 73.234375 " clip-rule="nonzero"/></clipPath><clipPath id="c00ad73141"><path d="M 95.128906 73.234375 L 44.605469 129.4375 L -38.3125 54.902344 L 12.214844 -1.300781 Z M 95.128906 73.234375 " clip-rule="nonzero"/></clipPath><clipPath id="6109a85018"><path d="M 95.128906 73.234375 L 44.605469 129.4375 L -38.3125 54.902344 L 12.214844 -1.300781 Z M 95.128906 73.234375 " clip-rule="nonzero"/></clipPath><clipPath id="eaece8ec9c"><path d="M 18 51 L 19 51 L 19 52 L 18 52 Z M 18 51 " clip-rule="nonzero"/></clipPath><clipPath id="753724ce2b"><path d="M 95.128906 73.234375 L 44.605469 129.4375 L -38.3125 54.902344 L 12.214844 -1.300781 Z M 95.128906 73.234375 " clip-rule="nonzero"/></clipPath><clipPath id="502eca9b80"><path d="M 95.128906 73.234375 L 44.605469 129.4375 L -38.3125 54.902344 L 12.214844 -1.300781 Z M 95.128906 73.234375 " clip-rule="nonzero"/></clipPath><clipPath id="247c620dfc"><path d="M 95.128906 73.234375 L 44.605469 129.4375 L -38.3125 54.902344 L 12.214844 -1.300781 Z M 95.128906 73.234375 " clip-rule="nonzero"/></clipPath><clipPath id="490c046146"><path d="M 34 79 L 40 79 L 40 85 L 34 85 Z M 34 79 " clip-rule="nonzero"/></clipPath><clipPath id="f9db817e14"><path d="M 95.128906 73.234375 L 44.605469 129.4375 L -38.3125 54.902344 L 12.214844 -1.300781 Z M 95.128906 73.234375 " clip-rule="nonzero"/></clipPath><clipPath id="bd85c3c017"><path d="M 95.128906 73.234375 L 44.605469 129.4375 L -38.3125 54.902344 L 12.214844 -1.300781 Z M 95.128906 73.234375 " clip-rule="nonzero"/></clipPath><clipPath id="1ad13e95be"><path d="M 95.128906 73.234375 L 44.605469 129.4375 L -38.3125 54.902344 L 12.214844 -1.300781 Z M 95.128906 73.234375 " clip-rule="nonzero"/></clipPath><clipPath id="c00cfabb84"><path d="M 33 34 L 39 34 L 39 41 L 33 41 Z M 33 34 " clip-rule="nonzero"/></clipPath><clipPath id="318b70684b"><path d="M 95.128906 73.234375 L 44.605469 129.4375 L -38.3125 54.902344 L 12.214844 -1.300781 Z M 95.128906 73.234375 " clip-rule="nonzero"/></clipPath><clipPath id="040312d30a"><path d="M 95.128906 73.234375 L 44.605469 129.4375 L -38.3125 54.902344 L 12.214844 -1.300781 Z M 95.128906 73.234375 " clip-rule="nonzero"/></clipPath><clipPath id="976f5cdea3"><path d="M 95.128906 73.234375 L 44.605469 129.4375 L -38.3125 54.902344 L 12.214844 -1.300781 Z M 95.128906 73.234375 " clip-rule="nonzero"/></clipPath><clipPath id="9da427d51a"><path d="M 31 32 L 33 32 L 33 34 L 31 34 Z M 31 32 " clip-rule="nonzero"/></clipPath><clipPath id="45ccff768a"><path d="M 95.128906 73.234375 L 44.605469 129.4375 L -38.3125 54.902344 L 12.214844 -1.300781 Z M 95.128906 73.234375 " clip-rule="nonzero"/></clipPath><clipPath id="0e6f1bac82"><path d="M 95.128906 73.234375 L 44.605469 129.4375 L -38.3125 54.902344 L 12.214844 -1.300781 Z M 95.128906 73.234375 " clip-rule="nonzero"/></clipPath><clipPath id="417c12a977"><path d="M 95.128906 73.234375 L 44.605469 129.4375 L -38.3125 54.902344 L 12.214844 -1.300781 Z M 95.128906 73.234375 " clip-rule="nonzero"/></clipPath><clipPath id="22571d2ea3"><path d="M 30 100 L 31 100 L 31 108 L 30 108 Z M 30 100 " clip-rule="nonzero"/></clipPath><clipPath id="f5b0346364"><path d="M 95.128906 73.234375 L 44.605469 129.4375 L -38.3125 54.902344 L 12.214844 -1.300781 Z M 95.128906 73.234375 " clip-rule="nonzero"/></clipPath><clipPath id="63dbcc06cb"><path d="M 95.128906 73.234375 L 44.605469 129.4375 L -38.3125 54.902344 L 12.214844 -1.300781 Z M 95.128906 73.234375 " clip-rule="nonzero"/></clipPath><clipPath id="826cc70975"><path d="M 95.128906 73.234375 L 44.605469 129.4375 L -38.3125 54.902344 L 12.214844 -1.300781 Z M 95.128906 73.234375 " clip-rule="nonzero"/></clipPath><clipPath id="340a3ebdcc"><path d="M 30 92 L 32 92 L 32 97 L 30 97 Z M 30 92 " clip-rule="nonzero"/></clipPath><clipPath id="ef0e8f6cfb"><path d="M 95.128906 73.234375 L 44.605469 129.4375 L -38.3125 54.902344 L 12.214844 -1.300781 Z M 95.128906 73.234375 " clip-rule="nonzero"/></clipPath><clipPath id="5b65aced8b"><path d="M 95.128906 73.234375 L 44.605469 129.4375 L -38.3125 54.902344 L 12.214844 -1.300781 Z M 95.128906 73.234375 " clip-rule="nonzero"/></clipPath><clipPath id="165b5aa0a4"><path d="M 95.128906 73.234375 L 44.605469 129.4375 L -38.3125 54.902344 L 12.214844 -1.300781 Z M 95.128906 73.234375 " clip-rule="nonzero"/></clipPath><clipPath id="7d52be2dc0"><path d="M 30 96 L 31 96 L 31 99 L 30 99 Z M 30 96 " clip-rule="nonzero"/></clipPath><clipPath id="c645b72277"><path d="M 95.128906 73.234375 L 44.605469 129.4375 L -38.3125 54.902344 L 12.214844 -1.300781 Z M 95.128906 73.234375 " clip-rule="nonzero"/></clipPath><clipPath id="a4b7a03581"><path d="M 95.128906 73.234375 L 44.605469 129.4375 L -38.3125 54.902344 L 12.214844 -1.300781 Z M 95.128906 73.234375 " clip-rule="nonzero"/></clipPath><clipPath id="e47653b18e"><path d="M 95.128906 73.234375 L 44.605469 129.4375 L -38.3125 54.902344 L 12.214844 -1.300781 Z M 95.128906 73.234375 " clip-rule="nonzero"/></clipPath><clipPath id="e67892ddeb"><path d="M 30 98 L 31 98 L 31 100 L 30 100 Z M 30 98 " clip-rule="nonzero"/></clipPath><clipPath id="566ed3f319"><path d="M 95.128906 73.234375 L 44.605469 129.4375 L -38.3125 54.902344 L 12.214844 -1.300781 Z M 95.128906 73.234375 " clip-rule="nonzero"/></clipPath><clipPath id="dd087999ad"><path d="M 95.128906 73.234375 L 44.605469 129.4375 L -38.3125 54.902344 L 12.214844 -1.300781 Z M 95.128906 73.234375 " clip-rule="nonzero"/></clipPath><clipPath id="2c5e258e1b"><path d="M 95.128906 73.234375 L 44.605469 129.4375 L -38.3125 54.902344 L 12.214844 -1.300781 Z M 95.128906 73.234375 " clip-rule="nonzero"/></clipPath><clipPath id="0a3192f36e"><path d="M 30 99 L 31 99 L 31 100 L 30 100 Z M 30 99 " clip-rule="nonzero"/></clipPath><clipPath id="2b4853ebf1"><path d="M 95.128906 73.234375 L 44.605469 129.4375 L -38.3125 54.902344 L 12.214844 -1.300781 Z M 95.128906 73.234375 " clip-rule="nonzero"/></clipPath><clipPath id="dda757a890"><path d="M 95.128906 73.234375 L 44.605469 129.4375 L -38.3125 54.902344 L 12.214844 -1.300781 Z M 95.128906 73.234375 " clip-rule="nonzero"/></clipPath><clipPath id="9f6d56f684"><path d="M 95.128906 73.234375 L 44.605469 129.4375 L -38.3125 54.902344 L 12.214844 -1.300781 Z M 95.128906 73.234375 " clip-rule="nonzero"/></clipPath><clipPath id="275d81df5c"><path d="M 30 100 L 31 100 L 31 101 L 30 101 Z M 30 100 " clip-rule="nonzero"/></clipPath><clipPath id="8a49e1d3ca"><path d="M 95.128906 73.234375 L 44.605469 129.4375 L -38.3125 54.902344 L 12.214844 -1.300781 Z M 95.128906 73.234375 " clip-rule="nonzero"/></clipPath><clipPath id="11501e06f0"><path d="M 95.128906 73.234375 L 44.605469 129.4375 L -38.3125 54.902344 L 12.214844 -1.300781 Z M 95.128906 73.234375 " clip-rule="nonzero"/></clipPath><clipPath id="3c054a32b7"><path d="M 95.128906 73.234375 L 44.605469 129.4375 L -38.3125 54.902344 L 12.214844 -1.300781 Z M 95.128906 73.234375 " clip-rule="nonzero"/></clipPath><clipPath id="f85b718c05"><path d="M 30 99 L 31 99 L 31 100 L 30 100 Z M 30 99 " clip-rule="nonzero"/></clipPath><clipPath id="cedf426ab0"><path d="M 95.128906 73.234375 L 44.605469 129.4375 L -38.3125 54.902344 L 12.214844 -1.300781 Z M 95.128906 73.234375 " clip-rule="nonzero"/></clipPath><clipPath id="d858295ec7"><path d="M 95.128906 73.234375 L 44.605469 129.4375 L -38.3125 54.902344 L 12.214844 -1.300781 Z M 95.128906 73.234375 " clip-rule="nonzero"/></clipPath><clipPath id="4f417b7700"><path d="M 95.128906 73.234375 L 44.605469 129.4375 L -38.3125 54.902344 L 12.214844 -1.300781 Z M 95.128906 73.234375 " clip-rule="nonzero"/></clipPath><clipPath id="e01d48db16"><path d="M 31 92 L 32 92 L 32 93 L 31 93 Z M 31 92 " clip-rule="nonzero"/></clipPath><clipPath id="724a47854d"><path d="M 95.128906 73.234375 L 44.605469 129.4375 L -38.3125 54.902344 L 12.214844 -1.300781 Z M 95.128906 73.234375 " clip-rule="nonzero"/></clipPath><clipPath id="3e44645f96"><path d="M 95.128906 73.234375 L 44.605469 129.4375 L -38.3125 54.902344 L 12.214844 -1.300781 Z M 95.128906 73.234375 " clip-rule="nonzero"/></clipPath><clipPath id="7ffc886e5a"><path d="M 95.128906 73.234375 L 44.605469 129.4375 L -38.3125 54.902344 L 12.214844 -1.300781 Z M 95.128906 73.234375 " clip-rule="nonzero"/></clipPath><clipPath id="2d59524057"><path d="M 31 91 L 32 91 L 32 93 L 31 93 Z M 31 91 " clip-rule="nonzero"/></clipPath><clipPath id="4382475f3e"><path d="M 95.128906 73.234375 L 44.605469 129.4375 L -38.3125 54.902344 L 12.214844 -1.300781 Z M 95.128906 73.234375 " clip-rule="nonzero"/></clipPath><clipPath id="11970fa83d"><path d="M 95.128906 73.234375 L 44.605469 129.4375 L -38.3125 54.902344 L 12.214844 -1.300781 Z M 95.128906 73.234375 " clip-rule="nonzero"/></clipPath><clipPath id="803459e853"><path d="M 95.128906 73.234375 L 44.605469 129.4375 L -38.3125 54.902344 L 12.214844 -1.300781 Z M 95.128906 73.234375 " clip-rule="nonzero"/></clipPath><clipPath id="69eeb70834"><path d="M 30 99 L 31 99 L 31 101 L 30 101 Z M 30 99 " clip-rule="nonzero"/></clipPath><clipPath id="19c130dcf0"><path d="M 95.128906 73.234375 L 44.605469 129.4375 L -38.3125 54.902344 L 12.214844 -1.300781 Z M 95.128906 73.234375 " clip-rule="nonzero"/></clipPath><clipPath id="92f1deb2c7"><path d="M 95.128906 73.234375 L 44.605469 129.4375 L -38.3125 54.902344 L 12.214844 -1.300781 Z M 95.128906 73.234375 " clip-rule="nonzero"/></clipPath><clipPath id="42da562920"><path d="M 95.128906 73.234375 L 44.605469 129.4375 L -38.3125 54.902344 L 12.214844 -1.300781 Z M 95.128906 73.234375 " clip-rule="nonzero"/></clipPath><clipPath id="04ef93d911"><path d="M 30 100 L 31 100 L 31 101 L 30 101 Z M 30 100 " clip-rule="nonzero"/></clipPath><clipPath id="d223f4c069"><path d="M 95.128906 73.234375 L 44.605469 129.4375 L -38.3125 54.902344 L 12.214844 -1.300781 Z M 95.128906 73.234375 " clip-rule="nonzero"/></clipPath><clipPath id="626c2527fc"><path d="M 95.128906 73.234375 L 44.605469 129.4375 L -38.3125 54.902344 L 12.214844 -1.300781 Z M 95.128906 73.234375 " clip-rule="nonzero"/></clipPath><clipPath id="0918c5f174"><path d="M 95.128906 73.234375 L 44.605469 129.4375 L -38.3125 54.902344 L 12.214844 -1.300781 Z M 95.128906 73.234375 " clip-rule="nonzero"/></clipPath><clipPath id="9338c87296"><path d="M 30 107 L 31 107 L 31 108 L 30 108 Z M 30 107 " clip-rule="nonzero"/></clipPath><clipPath id="06bbb018cc"><path d="M 95.128906 73.234375 L 44.605469 129.4375 L -38.3125 54.902344 L 12.214844 -1.300781 Z M 95.128906 73.234375 " clip-rule="nonzero"/></clipPath><clipPath id="3cc9052e86"><path d="M 95.128906 73.234375 L 44.605469 129.4375 L -38.3125 54.902344 L 12.214844 -1.300781 Z M 95.128906 73.234375 " clip-rule="nonzero"/></clipPath><clipPath id="cbe2e7fd0a"><path d="M 95.128906 73.234375 L 44.605469 129.4375 L -38.3125 54.902344 L 12.214844 -1.300781 Z M 95.128906 73.234375 " clip-rule="nonzero"/></clipPath><clipPath id="9ce9744963"><path d="M 30 96 L 31 96 L 31 97 L 30 97 Z M 30 96 " clip-rule="nonzero"/></clipPath><clipPath id="501686fe5e"><path d="M 95.128906 73.234375 L 44.605469 129.4375 L -38.3125 54.902344 L 12.214844 -1.300781 Z M 95.128906 73.234375 " clip-rule="nonzero"/></clipPath><clipPath id="c2abe41902"><path d="M 95.128906 73.234375 L 44.605469 129.4375 L -38.3125 54.902344 L 12.214844 -1.300781 Z M 95.128906 73.234375 " clip-rule="nonzero"/></clipPath><clipPath id="5649eea8ee"><path d="M 95.128906 73.234375 L 44.605469 129.4375 L -38.3125 54.902344 L 12.214844 -1.300781 Z M 95.128906 73.234375 " clip-rule="nonzero"/></clipPath><clipPath id="bf63d18398"><path d="M 49 112 L 51 112 L 51 117 L 49 117 Z M 49 112 " clip-rule="nonzero"/></clipPath><clipPath id="8e16e95593"><path d="M 95.128906 73.234375 L 44.605469 129.4375 L -38.3125 54.902344 L 12.214844 -1.300781 Z M 95.128906 73.234375 " clip-rule="nonzero"/></clipPath><clipPath id="778ee73e15"><path d="M 95.128906 73.234375 L 44.605469 129.4375 L -38.3125 54.902344 L 12.214844 -1.300781 Z M 95.128906 73.234375 " clip-rule="nonzero"/></clipPath><clipPath id="46419b09f4"><path d="M 95.128906 73.234375 L 44.605469 129.4375 L -38.3125 54.902344 L 12.214844 -1.300781 Z M 95.128906 73.234375 " clip-rule="nonzero"/></clipPath><clipPath id="6cb0041036"><path d="M 51 116 L 52 116 L 52 118 L 51 118 Z M 51 116 " clip-rule="nonzero"/></clipPath><clipPath id="237ea4935e"><path d="M 95.128906 73.234375 L 44.605469 129.4375 L -38.3125 54.902344 L 12.214844 -1.300781 Z M 95.128906 73.234375 " clip-rule="nonzero"/></clipPath><clipPath id="cce1ee20eb"><path d="M 95.128906 73.234375 L 44.605469 129.4375 L -38.3125 54.902344 L 12.214844 -1.300781 Z M 95.128906 73.234375 " clip-rule="nonzero"/></clipPath><clipPath id="eb35600dc8"><path d="M 95.128906 73.234375 L 44.605469 129.4375 L -38.3125 54.902344 L 12.214844 -1.300781 Z M 95.128906 73.234375 " clip-rule="nonzero"/></clipPath><clipPath id="7d0b1b2f4e"><path d="M 50 116 L 51 116 L 51 117 L 50 117 Z M 50 116 " clip-rule="nonzero"/></clipPath><clipPath id="552ae8859d"><path d="M 95.128906 73.234375 L 44.605469 129.4375 L -38.3125 54.902344 L 12.214844 -1.300781 Z M 95.128906 73.234375 " clip-rule="nonzero"/></clipPath><clipPath id="b6209b4384"><path d="M 95.128906 73.234375 L 44.605469 129.4375 L -38.3125 54.902344 L 12.214844 -1.300781 Z M 95.128906 73.234375 " clip-rule="nonzero"/></clipPath><clipPath id="2dda201558"><path d="M 95.128906 73.234375 L 44.605469 129.4375 L -38.3125 54.902344 L 12.214844 -1.300781 Z M 95.128906 73.234375 " clip-rule="nonzero"/></clipPath><clipPath id="c2d200c030"><path d="M 50 116 L 52 116 L 52 117 L 50 117 Z M 50 116 " clip-rule="nonzero"/></clipPath><clipPath id="7fc26911d7"><path d="M 95.128906 73.234375 L 44.605469 129.4375 L -38.3125 54.902344 L 12.214844 -1.300781 Z M 95.128906 73.234375 " clip-rule="nonzero"/></clipPath><clipPath id="b6ef90fda5"><path d="M 95.128906 73.234375 L 44.605469 129.4375 L -38.3125 54.902344 L 12.214844 -1.300781 Z M 95.128906 73.234375 " clip-rule="nonzero"/></clipPath><clipPath id="794a2af06e"><path d="M 95.128906 73.234375 L 44.605469 129.4375 L -38.3125 54.902344 L 12.214844 -1.300781 Z M 95.128906 73.234375 " clip-rule="nonzero"/></clipPath><clipPath id="094552b521"><rect x="0" width="96" y="0" height="130"/></clipPath><mask id="a682c7733e"><g filter="url(#c037599e19)"><rect x="-18.075" width="216.9" fill="#000000" y="-20.324999" height="243.899991" fill-opacity="0.3882"/></g></mask><clipPath id="b00b7a1ef9"><path d="M 0.402344 0 L 110 0 L 110 67 L 0.402344 67 Z M 0.402344 0 " clip-rule="nonzero"/></clipPath><clipPath id="692655195f"><path d="M 106.71875 -5.257812 L 110.109375 65.746094 L 3.972656 70.816406 L 0.582031 -0.191406 Z M 106.71875 -5.257812 " clip-rule="nonzero"/></clipPath><clipPath id="6348e2ae54"><path d="M 106.71875 -5.257812 L 110.109375 65.746094 L 3.972656 70.816406 L 0.582031 -0.191406 Z M 106.71875 -5.257812 " clip-rule="nonzero"/></clipPath><clipPath id="a491260b30"><path d="M 106.71875 -5.257812 L 110.109375 65.746094 L 3.972656 70.816406 L 0.582031 -0.191406 Z M 106.71875 -5.257812 " clip-rule="nonzero"/></clipPath><clipPath id="ae5af2c7b5"><path d="M 49 33 L 51 33 L 51 38 L 49 38 Z M 49 33 " clip-rule="nonzero"/></clipPath><clipPath id="c4a68bdf10"><path d="M 106.71875 -5.257812 L 110.109375 65.746094 L 3.972656 70.816406 L 0.582031 -0.191406 Z M 106.71875 -5.257812 " clip-rule="nonzero"/></clipPath><clipPath id="2257f9983d"><path d="M 106.71875 -5.257812 L 110.109375 65.746094 L 3.972656 70.816406 L 0.582031 -0.191406 Z M 106.71875 -5.257812 " clip-rule="nonzero"/></clipPath><clipPath id="55296fa2c1"><path d="M 106.71875 -5.257812 L 110.109375 65.746094 L 3.972656 70.816406 L 0.582031 -0.191406 Z M 106.71875 -5.257812 " clip-rule="nonzero"/></clipPath><clipPath id="2901445526"><path d="M 41 33 L 44 33 L 44 43 L 41 43 Z M 41 33 " clip-rule="nonzero"/></clipPath><clipPath id="dd3166aabc"><path d="M 106.71875 -5.257812 L 110.109375 65.746094 L 3.972656 70.816406 L 0.582031 -0.191406 Z M 106.71875 -5.257812 " clip-rule="nonzero"/></clipPath><clipPath id="37bcffb207"><path d="M 106.71875 -5.257812 L 110.109375 65.746094 L 3.972656 70.816406 L 0.582031 -0.191406 Z M 106.71875 -5.257812 " clip-rule="nonzero"/></clipPath><clipPath id="8ac7cdb357"><path d="M 106.71875 -5.257812 L 110.109375 65.746094 L 3.972656 70.816406 L 0.582031 -0.191406 Z M 106.71875 -5.257812 " clip-rule="nonzero"/></clipPath><clipPath id="0aa3697155"><path d="M 38 25 L 41 25 L 41 32 L 38 32 Z M 38 25 " clip-rule="nonzero"/></clipPath><clipPath id="1fe4a175b0"><path d="M 106.71875 -5.257812 L 110.109375 65.746094 L 3.972656 70.816406 L 0.582031 -0.191406 Z M 106.71875 -5.257812 " clip-rule="nonzero"/></clipPath><clipPath id="0bfa34f67e"><path d="M 106.71875 -5.257812 L 110.109375 65.746094 L 3.972656 70.816406 L 0.582031 -0.191406 Z M 106.71875 -5.257812 " clip-rule="nonzero"/></clipPath><clipPath id="120597e12a"><path d="M 106.71875 -5.257812 L 110.109375 65.746094 L 3.972656 70.816406 L 0.582031 -0.191406 Z M 106.71875 -5.257812 " clip-rule="nonzero"/></clipPath><clipPath id="8eaa0d7778"><path d="M 40 31 L 41 31 L 41 32 L 40 32 Z M 40 31 " clip-rule="nonzero"/></clipPath><clipPath id="6b68b690a6"><path d="M 106.71875 -5.257812 L 110.109375 65.746094 L 3.972656 70.816406 L 0.582031 -0.191406 Z M 106.71875 -5.257812 " clip-rule="nonzero"/></clipPath><clipPath id="6dd63779dd"><path d="M 106.71875 -5.257812 L 110.109375 65.746094 L 3.972656 70.816406 L 0.582031 -0.191406 Z M 106.71875 -5.257812 " clip-rule="nonzero"/></clipPath><clipPath id="e04c25ee5f"><path d="M 106.71875 -5.257812 L 110.109375 65.746094 L 3.972656 70.816406 L 0.582031 -0.191406 Z M 106.71875 -5.257812 " clip-rule="nonzero"/></clipPath><clipPath id="31ebb21d54"><path d="M 69 38 L 77 38 L 77 40 L 69 40 Z M 69 38 " clip-rule="nonzero"/></clipPath><clipPath id="d6438657d2"><path d="M 106.71875 -5.257812 L 110.109375 65.746094 L 3.972656 70.816406 L 0.582031 -0.191406 Z M 106.71875 -5.257812 " clip-rule="nonzero"/></clipPath><clipPath id="0e24a13aff"><path d="M 106.71875 -5.257812 L 110.109375 65.746094 L 3.972656 70.816406 L 0.582031 -0.191406 Z M 106.71875 -5.257812 " clip-rule="nonzero"/></clipPath><clipPath id="613df7a737"><path d="M 106.71875 -5.257812 L 110.109375 65.746094 L 3.972656 70.816406 L 0.582031 -0.191406 Z M 106.71875 -5.257812 " clip-rule="nonzero"/></clipPath><clipPath id="eb5286b4c9"><path d="M 38 9 L 46 9 L 46 11 L 38 11 Z M 38 9 " clip-rule="nonzero"/></clipPath><clipPath id="3a042f8215"><path d="M 106.71875 -5.257812 L 110.109375 65.746094 L 3.972656 70.816406 L 0.582031 -0.191406 Z M 106.71875 -5.257812 " clip-rule="nonzero"/></clipPath><clipPath id="371faf29c4"><path d="M 106.71875 -5.257812 L 110.109375 65.746094 L 3.972656 70.816406 L 0.582031 -0.191406 Z M 106.71875 -5.257812 " clip-rule="nonzero"/></clipPath><clipPath id="64a9fd6f45"><path d="M 106.71875 -5.257812 L 110.109375 65.746094 L 3.972656 70.816406 L 0.582031 -0.191406 Z M 106.71875 -5.257812 " clip-rule="nonzero"/></clipPath><clipPath id="888d0bba91"><path d="M 36 9 L 38 9 L 38 10 L 36 10 Z M 36 9 " clip-rule="nonzero"/></clipPath><clipPath id="dec3ecd96d"><path d="M 106.71875 -5.257812 L 110.109375 65.746094 L 3.972656 70.816406 L 0.582031 -0.191406 Z M 106.71875 -5.257812 " clip-rule="nonzero"/></clipPath><clipPath id="68d70d503e"><path d="M 106.71875 -5.257812 L 110.109375 65.746094 L 3.972656 70.816406 L 0.582031 -0.191406 Z M 106.71875 -5.257812 " clip-rule="nonzero"/></clipPath><clipPath id="3fcb16e28f"><path d="M 106.71875 -5.257812 L 110.109375 65.746094 L 3.972656 70.816406 L 0.582031 -0.191406 Z M 106.71875 -5.257812 " clip-rule="nonzero"/></clipPath><clipPath id="e18ae13b07"><path d="M 81 55 L 86 55 L 86 61 L 81 61 Z M 81 55 " clip-rule="nonzero"/></clipPath><clipPath id="c90fb281cf"><path d="M 106.71875 -5.257812 L 110.109375 65.746094 L 3.972656 70.816406 L 0.582031 -0.191406 Z M 106.71875 -5.257812 " clip-rule="nonzero"/></clipPath><clipPath id="cae9ea6d60"><path d="M 106.71875 -5.257812 L 110.109375 65.746094 L 3.972656 70.816406 L 0.582031 -0.191406 Z M 106.71875 -5.257812 " clip-rule="nonzero"/></clipPath><clipPath id="fc0ea54952"><path d="M 106.71875 -5.257812 L 110.109375 65.746094 L 3.972656 70.816406 L 0.582031 -0.191406 Z M 106.71875 -5.257812 " clip-rule="nonzero"/></clipPath><clipPath id="b44085c203"><path d="M 76 49 L 79 49 L 79 53 L 76 53 Z M 76 49 " clip-rule="nonzero"/></clipPath><clipPath id="f7af022f02"><path d="M 106.71875 -5.257812 L 110.109375 65.746094 L 3.972656 70.816406 L 0.582031 -0.191406 Z M 106.71875 -5.257812 " clip-rule="nonzero"/></clipPath><clipPath id="d5bc2696a6"><path d="M 106.71875 -5.257812 L 110.109375 65.746094 L 3.972656 70.816406 L 0.582031 -0.191406 Z M 106.71875 -5.257812 " clip-rule="nonzero"/></clipPath><clipPath id="8661c13bfe"><path d="M 106.71875 -5.257812 L 110.109375 65.746094 L 3.972656 70.816406 L 0.582031 -0.191406 Z M 106.71875 -5.257812 " clip-rule="nonzero"/></clipPath><clipPath id="3d20e5bae5"><path d="M 78 52 L 80 52 L 80 55 L 78 55 Z M 78 52 " clip-rule="nonzero"/></clipPath><clipPath id="d31f96707e"><path d="M 106.71875 -5.257812 L 110.109375 65.746094 L 3.972656 70.816406 L 0.582031 -0.191406 Z M 106.71875 -5.257812 " clip-rule="nonzero"/></clipPath><clipPath id="fd3fe5d3d3"><path d="M 106.71875 -5.257812 L 110.109375 65.746094 L 3.972656 70.816406 L 0.582031 -0.191406 Z M 106.71875 -5.257812 " clip-rule="nonzero"/></clipPath><clipPath id="a967d48b1e"><path d="M 106.71875 -5.257812 L 110.109375 65.746094 L 3.972656 70.816406 L 0.582031 -0.191406 Z M 106.71875 -5.257812 " clip-rule="nonzero"/></clipPath><clipPath id="894d7f7237"><path d="M 79 54 L 81 54 L 81 55 L 79 55 Z M 79 54 " clip-rule="nonzero"/></clipPath><clipPath id="a85713be5b"><path d="M 106.71875 -5.257812 L 110.109375 65.746094 L 3.972656 70.816406 L 0.582031 -0.191406 Z M 106.71875 -5.257812 " clip-rule="nonzero"/></clipPath><clipPath id="206bcb6a4b"><path d="M 106.71875 -5.257812 L 110.109375 65.746094 L 3.972656 70.816406 L 0.582031 -0.191406 Z M 106.71875 -5.257812 " clip-rule="nonzero"/></clipPath><clipPath id="d790e6cc0c"><path d="M 106.71875 -5.257812 L 110.109375 65.746094 L 3.972656 70.816406 L 0.582031 -0.191406 Z M 106.71875 -5.257812 " clip-rule="nonzero"/></clipPath><clipPath id="49d08f67b3"><path d="M 80 54 L 81 54 L 81 56 L 80 56 Z M 80 54 " clip-rule="nonzero"/></clipPath><clipPath id="6343124290"><path d="M 106.71875 -5.257812 L 110.109375 65.746094 L 3.972656 70.816406 L 0.582031 -0.191406 Z M 106.71875 -5.257812 " clip-rule="nonzero"/></clipPath><clipPath id="2f6014fcb4"><path d="M 106.71875 -5.257812 L 110.109375 65.746094 L 3.972656 70.816406 L 0.582031 -0.191406 Z M 106.71875 -5.257812 " clip-rule="nonzero"/></clipPath><clipPath id="242e5313b7"><path d="M 106.71875 -5.257812 L 110.109375 65.746094 L 3.972656 70.816406 L 0.582031 -0.191406 Z M 106.71875 -5.257812 " clip-rule="nonzero"/></clipPath><clipPath id="842d5bcb3e"><path d="M 80 55 L 81 55 L 81 56 L 80 56 Z M 80 55 " clip-rule="nonzero"/></clipPath><clipPath id="09432fea7e"><path d="M 106.71875 -5.257812 L 110.109375 65.746094 L 3.972656 70.816406 L 0.582031 -0.191406 Z M 106.71875 -5.257812 " clip-rule="nonzero"/></clipPath><clipPath id="8ef4054218"><path d="M 106.71875 -5.257812 L 110.109375 65.746094 L 3.972656 70.816406 L 0.582031 -0.191406 Z M 106.71875 -5.257812 " clip-rule="nonzero"/></clipPath><clipPath id="9a6d5c41ad"><path d="M 106.71875 -5.257812 L 110.109375 65.746094 L 3.972656 70.816406 L 0.582031 -0.191406 Z M 106.71875 -5.257812 " clip-rule="nonzero"/></clipPath><clipPath id="e01193780c"><path d="M 75 49 L 77 49 L 77 50 L 75 50 Z M 75 49 " clip-rule="nonzero"/></clipPath><clipPath id="b0c8e82e6a"><path d="M 106.71875 -5.257812 L 110.109375 65.746094 L 3.972656 70.816406 L 0.582031 -0.191406 Z M 106.71875 -5.257812 " clip-rule="nonzero"/></clipPath><clipPath id="11a68cee2a"><path d="M 106.71875 -5.257812 L 110.109375 65.746094 L 3.972656 70.816406 L 0.582031 -0.191406 Z M 106.71875 -5.257812 " clip-rule="nonzero"/></clipPath><clipPath id="e083df7780"><path d="M 106.71875 -5.257812 L 110.109375 65.746094 L 3.972656 70.816406 L 0.582031 -0.191406 Z M 106.71875 -5.257812 " clip-rule="nonzero"/></clipPath><clipPath id="9ce95959e8"><path d="M 75 49 L 76 49 L 76 50 L 75 50 Z M 75 49 " clip-rule="nonzero"/></clipPath><clipPath id="ab036c4651"><path d="M 106.71875 -5.257812 L 110.109375 65.746094 L 3.972656 70.816406 L 0.582031 -0.191406 Z M 106.71875 -5.257812 " clip-rule="nonzero"/></clipPath><clipPath id="6c251fc94a"><path d="M 106.71875 -5.257812 L 110.109375 65.746094 L 3.972656 70.816406 L 0.582031 -0.191406 Z M 106.71875 -5.257812 " clip-rule="nonzero"/></clipPath><clipPath id="92d59ad52c"><path d="M 106.71875 -5.257812 L 110.109375 65.746094 L 3.972656 70.816406 L 0.582031 -0.191406 Z M 106.71875 -5.257812 " clip-rule="nonzero"/></clipPath><clipPath id="ddb4b53135"><path d="M 80 55 L 81 55 L 81 56 L 80 56 Z M 80 55 " clip-rule="nonzero"/></clipPath><clipPath id="f295f9cf35"><path d="M 106.71875 -5.257812 L 110.109375 65.746094 L 3.972656 70.816406 L 0.582031 -0.191406 Z M 106.71875 -5.257812 " clip-rule="nonzero"/></clipPath><clipPath id="c7ddbce1ac"><path d="M 106.71875 -5.257812 L 110.109375 65.746094 L 3.972656 70.816406 L 0.582031 -0.191406 Z M 106.71875 -5.257812 " clip-rule="nonzero"/></clipPath><clipPath id="91680b27ee"><path d="M 106.71875 -5.257812 L 110.109375 65.746094 L 3.972656 70.816406 L 0.582031 -0.191406 Z M 106.71875 -5.257812 " clip-rule="nonzero"/></clipPath><clipPath id="81c86d03f9"><path d="M 80 55 L 82 55 L 82 56 L 80 56 Z M 80 55 " clip-rule="nonzero"/></clipPath><clipPath id="1d244d93ab"><path d="M 106.71875 -5.257812 L 110.109375 65.746094 L 3.972656 70.816406 L 0.582031 -0.191406 Z M 106.71875 -5.257812 " clip-rule="nonzero"/></clipPath><clipPath id="0e146606ea"><path d="M 106.71875 -5.257812 L 110.109375 65.746094 L 3.972656 70.816406 L 0.582031 -0.191406 Z M 106.71875 -5.257812 " clip-rule="nonzero"/></clipPath><clipPath id="44d356f85e"><path d="M 106.71875 -5.257812 L 110.109375 65.746094 L 3.972656 70.816406 L 0.582031 -0.191406 Z M 106.71875 -5.257812 " clip-rule="nonzero"/></clipPath><clipPath id="eaecb5c906"><path d="M 85 60 L 86 60 L 86 61 L 85 61 Z M 85 60 " clip-rule="nonzero"/></clipPath><clipPath id="01ee1a234d"><path d="M 106.71875 -5.257812 L 110.109375 65.746094 L 3.972656 70.816406 L 0.582031 -0.191406 Z M 106.71875 -5.257812 " clip-rule="nonzero"/></clipPath><clipPath id="d687e7a680"><path d="M 106.71875 -5.257812 L 110.109375 65.746094 L 3.972656 70.816406 L 0.582031 -0.191406 Z M 106.71875 -5.257812 " clip-rule="nonzero"/></clipPath><clipPath id="3d156cd5f5"><path d="M 106.71875 -5.257812 L 110.109375 65.746094 L 3.972656 70.816406 L 0.582031 -0.191406 Z M 106.71875 -5.257812 " clip-rule="nonzero"/></clipPath><clipPath id="4f231ae69d"><path d="M 78 52 L 79 52 L 79 53 L 78 53 Z M 78 52 " clip-rule="nonzero"/></clipPath><clipPath id="bbc65c5f12"><path d="M 106.71875 -5.257812 L 110.109375 65.746094 L 3.972656 70.816406 L 0.582031 -0.191406 Z M 106.71875 -5.257812 " clip-rule="nonzero"/></clipPath><clipPath id="b32de39e16"><path d="M 106.71875 -5.257812 L 110.109375 65.746094 L 3.972656 70.816406 L 0.582031 -0.191406 Z M 106.71875 -5.257812 " clip-rule="nonzero"/></clipPath><clipPath id="b5136f1c91"><path d="M 106.71875 -5.257812 L 110.109375 65.746094 L 3.972656 70.816406 L 0.582031 -0.191406 Z M 106.71875 -5.257812 " clip-rule="nonzero"/></clipPath><clipPath id="b0a2e40e1d"><path d="M 101 51 L 106 51 L 106 53 L 101 53 Z M 101 51 " clip-rule="nonzero"/></clipPath><clipPath id="cc49dc02dd"><path d="M 106.71875 -5.257812 L 110.109375 65.746094 L 3.972656 70.816406 L 0.582031 -0.191406 Z M 106.71875 -5.257812 " clip-rule="nonzero"/></clipPath><clipPath id="f724f01379"><path d="M 106.71875 -5.257812 L 110.109375 65.746094 L 3.972656 70.816406 L 0.582031 -0.191406 Z M 106.71875 -5.257812 " clip-rule="nonzero"/></clipPath><clipPath id="7bad18874d"><path d="M 106.71875 -5.257812 L 110.109375 65.746094 L 3.972656 70.816406 L 0.582031 -0.191406 Z M 106.71875 -5.257812 " clip-rule="nonzero"/></clipPath><clipPath id="9ff898360c"><path d="M 106 53 L 108 53 L 108 54 L 106 54 Z M 106 53 " clip-rule="nonzero"/></clipPath><clipPath id="90719e49cd"><path d="M 106.71875 -5.257812 L 110.109375 65.746094 L 3.972656 70.816406 L 0.582031 -0.191406 Z M 106.71875 -5.257812 " clip-rule="nonzero"/></clipPath><clipPath id="c64eb5b702"><path d="M 106.71875 -5.257812 L 110.109375 65.746094 L 3.972656 70.816406 L 0.582031 -0.191406 Z M 106.71875 -5.257812 " clip-rule="nonzero"/></clipPath><clipPath id="fe333b4761"><path d="M 106.71875 -5.257812 L 110.109375 65.746094 L 3.972656 70.816406 L 0.582031 -0.191406 Z M 106.71875 -5.257812 " clip-rule="nonzero"/></clipPath><clipPath id="1d99635106"><path d="M 105 52 L 106 52 L 106 54 L 105 54 Z M 105 52 " clip-rule="nonzero"/></clipPath><clipPath id="d43dbea005"><path d="M 106.71875 -5.257812 L 110.109375 65.746094 L 3.972656 70.816406 L 0.582031 -0.191406 Z M 106.71875 -5.257812 " clip-rule="nonzero"/></clipPath><clipPath id="a49c468895"><path d="M 106.71875 -5.257812 L 110.109375 65.746094 L 3.972656 70.816406 L 0.582031 -0.191406 Z M 106.71875 -5.257812 " clip-rule="nonzero"/></clipPath><clipPath id="0910c23c1d"><path d="M 106.71875 -5.257812 L 110.109375 65.746094 L 3.972656 70.816406 L 0.582031 -0.191406 Z M 106.71875 -5.257812 " clip-rule="nonzero"/></clipPath><clipPath id="ec3ba15ffe"><path d="M 105 53 L 107 53 L 107 54 L 105 54 Z M 105 53 " clip-rule="nonzero"/></clipPath><clipPath id="4b5c010121"><path d="M 106.71875 -5.257812 L 110.109375 65.746094 L 3.972656 70.816406 L 0.582031 -0.191406 Z M 106.71875 -5.257812 " clip-rule="nonzero"/></clipPath><clipPath id="50fc202239"><path d="M 106.71875 -5.257812 L 110.109375 65.746094 L 3.972656 70.816406 L 0.582031 -0.191406 Z M 106.71875 -5.257812 " clip-rule="nonzero"/></clipPath><clipPath id="7f1cb8253c"><path d="M 106.71875 -5.257812 L 110.109375 65.746094 L 3.972656 70.816406 L 0.582031 -0.191406 Z M 106.71875 -5.257812 " clip-rule="nonzero"/></clipPath><clipPath id="160098ae31"><rect x="0" width="111" y="0" height="72"/></clipPath></defs><g clip-path="url(#87ba634cfc)"><g mask="url(#6a67b9de49)"><g transform="matrix(1, 0, 0, 1, 0.000000000000000028, 0)"><g clip-path="url(#094552b521)"><g clip-path="url(#854cb70962)"><g clip-path="url(#e8552a61d9)"><g clip-path="url(#2d91a2f4fb)"><g clip-path="url(#f6d52c392e)"><path fill="#000000" d="M 26.296875 50 C 25.777344 52.109375 25.292969 54.226562 24.730469 56.320312 C 24.46875 57.292969 24.046875 58.226562 23.699219 59.175781 C 23.65625 59.164062 23.609375 59.152344 23.566406 59.140625 C 23.707031 58.605469 23.828125 58.066406 23.992188 57.539062 C 24.925781 54.601562 25.910156 51.679688 26.042969 48.566406 C 26.089844 47.480469 26.101562 46.390625 26.117188 45.304688 C 26.121094 45.089844 26.066406 44.871094 26.027344 44.566406 C 25.617188 45.640625 25.253906 46.613281 24.875 47.582031 C 23.871094 50.132812 22.582031 52.515625 20.855469 54.65625 C 19.804688 55.957031 18.734375 57.242188 17.6875 58.539062 C 16.019531 60.601562 14.355469 62.664062 12.703125 64.734375 C 12.472656 65.027344 12.335938 65.394531 12.101562 65.6875 C 11.972656 65.847656 11.734375 65.925781 11.546875 66.039062 C 11.488281 65.84375 11.359375 65.632812 11.382812 65.445312 C 11.652344 63.304688 11.949219 61.167969 12.222656 59.027344 C 12.320312 58.285156 12.335938 57.53125 12.453125 56.789062 C 12.679688 55.386719 12.855469 53.964844 13.222656 52.597656 C 13.820312 50.351562 14.511719 48.128906 15.246094 45.925781 C 16.199219 43.066406 17.796875 40.675781 20.425781 39.050781 C 22.035156 38.054688 23.609375 36.988281 25.175781 35.921875 C 25.382812 35.78125 25.558594 35.476562 25.597656 35.222656 C 26.078125 32.265625 25.605469 29.355469 25.09375 26.457031 C 24.808594 24.835938 24.566406 23.195312 24.140625 21.605469 C 23.664062 19.824219 23.023438 18.082031 22.40625 16.339844 C 22.019531 15.25 21.539062 14.191406 21.105469 13.117188 C 20.15625 10.757812 18.652344 8.769531 17.089844 6.800781 C 15.832031 5.214844 14.519531 3.699219 13.070312 2.28125 C 12.488281 1.710938 12.09375 0.925781 11.691406 0.191406 C 11.558594 -0.0429688 11.546875 -0.527344 11.703125 -0.707031 C 11.992188 -1.039062 12.347656 -0.75 12.644531 -0.550781 C 14.027344 0.378906 15.160156 1.546875 16.140625 2.894531 C 17.039062 4.132812 18.097656 5.261719 18.941406 6.535156 C 19.773438 7.792969 20.523438 9.128906 21.132812 10.507812 C 22.246094 13.039062 23.328125 15.59375 24.238281 18.203125 C 24.863281 19.992188 25.183594 21.890625 25.636719 23.742188 C 25.683594 23.921875 25.695312 24.109375 25.722656 24.28125 C 27.691406 24.855469 29.28125 26.035156 30.882812 27.199219 C 34.296875 29.675781 36.667969 33.050781 38.953125 36.511719 C 40.058594 38.191406 40.914062 39.984375 41.644531 41.859375 C 42.5625 44.199219 43.398438 46.554688 43.910156 49.023438 C 43.9375 49.148438 44 49.28125 43.984375 49.402344 C 43.96875 49.539062 43.90625 49.75 43.824219 49.769531 C 43.695312 49.804688 43.460938 49.761719 43.390625 49.664062 C 42.023438 47.78125 40.113281 46.449219 38.453125 44.863281 C 37.316406 43.78125 36.140625 42.742188 34.953125 41.710938 C 32.464844 39.554688 30.554688 36.9375 28.851562 34.148438 C 28.347656 33.324219 27.804688 32.519531 27.140625 31.742188 C 27.21875 32.789062 27.25 33.847656 27.386719 34.890625 C 27.824219 38.246094 29.128906 41.324219 30.6875 44.261719 C 31.667969 46.113281 32.96875 47.808594 34.242188 49.484375 C 34.730469 50.128906 35.546875 50.519531 36.191406 51.054688 C 36.546875 51.34375 36.933594 51.640625 37.160156 52.023438 C 37.285156 52.230469 37.207031 52.746094 37.027344 52.898438 C 36.847656 53.050781 36.359375 53.035156 36.136719 52.886719 C 35.507812 52.484375 35.292969 51.78125 35.101562 51.089844 C 35.066406 50.972656 35.070312 50.828125 35.003906 50.738281 C 33.882812 49.226562 32.875 47.605469 31.597656 46.238281 C 29.730469 44.238281 28.738281 41.796875 27.601562 39.398438 C 27.515625 39.222656 27.394531 39.0625 27.289062 38.890625 C 27.296875 38.867188 27.304688 38.84375 27.3125 38.824219 C 27.300781 38.832031 27.28125 38.839844 27.28125 38.847656 C 27.285156 38.863281 27.296875 38.878906 27.304688 38.890625 C 27.335938 41.4375 27.367188 43.980469 27.40625 46.523438 C 27.429688 47.96875 27.457031 49.410156 27.503906 50.855469 C 27.558594 52.613281 27.644531 54.371094 27.703125 56.128906 C 27.753906 57.628906 27.773438 59.128906 27.824219 60.628906 C 27.917969 63.53125 27.980469 66.433594 28.144531 69.332031 C 28.210938 70.523438 28.488281 71.703125 28.710938 72.878906 C 28.75 73.074219 28.980469 73.28125 29.175781 73.378906 C 30.671875 74.148438 32.183594 74.886719 33.6875 75.644531 C 37.75 77.695312 41.15625 80.574219 43.796875 84.25 C 45.015625 85.941406 45.800781 87.957031 46.707031 89.859375 C 47.195312 90.886719 47.554688 91.980469 47.925781 93.054688 C 48.136719 93.671875 48.273438 94.316406 48.402344 94.957031 C 48.433594 95.105469 48.359375 95.363281 48.246094 95.4375 C 48.132812 95.511719 47.875 95.476562 47.742188 95.390625 C 45.195312 93.820312 42.617188 92.308594 40.144531 90.632812 C 38.683594 89.644531 37.226562 88.546875 36.0625 87.238281 C 34.207031 85.148438 32.566406 82.863281 30.898438 80.613281 C 30.445312 80 30.207031 79.21875 29.871094 78.511719 C 29.8125 78.429688 29.757812 78.347656 29.703125 78.265625 C 29.714844 78.261719 29.730469 78.257812 29.742188 78.253906 C 29.738281 78.261719 29.730469 78.273438 29.726562 78.285156 C 29.722656 78.273438 29.714844 78.257812 29.710938 78.242188 C 29.765625 78.332031 29.824219 78.421875 29.882812 78.507812 C 29.984375 79.3125 30.070312 80.125 30.195312 80.925781 C 30.292969 81.554688 30.449219 82.175781 30.566406 82.800781 C 30.796875 84.058594 31.71875 84.914062 32.394531 85.914062 C 33.917969 88.171875 36.140625 89.695312 38.171875 91.421875 C 38.382812 91.605469 38.609375 91.777344 38.785156 91.992188 C 39.113281 92.402344 39.441406 92.726562 40 92.890625 C 40.355469 92.992188 40.617188 93.476562 40.863281 93.828125 C 40.921875 93.917969 40.824219 94.203125 40.714844 94.308594 C 40.628906 94.394531 40.367188 94.410156 40.257812 94.34375 C 39.980469 94.164062 39.65625 93.972656 39.507812 93.703125 C 38.714844 92.246094 37.488281 91.230469 36.191406 90.265625 C 34.511719 89.015625 32.855469 87.738281 31.597656 85.996094 C 32.023438 86.933594 32.417969 87.886719 32.875 88.808594 C 34.316406 91.722656 36.183594 94.347656 38.164062 96.917969 C 39.664062 98.867188 41.28125 100.6875 43.054688 102.378906 C 43.386719 102.691406 43.789062 102.992188 44.214844 103.140625 C 45.535156 103.605469 46.867188 104.082031 48.308594 103.949219 C 48.546875 103.929688 48.777344 103.792969 49.007812 103.695312 C 49.160156 103.632812 49.308594 103.488281 49.457031 103.492188 C 49.683594 103.496094 49.917969 103.574219 50.125 103.671875 C 50.183594 103.699219 50.203125 103.984375 50.160156 104.007812 C 49.972656 104.105469 49.757812 104.207031 49.554688 104.210938 C 48.515625 104.21875 47.476562 104.199219 46.273438 104.1875 C 46.515625 104.339844 46.621094 104.421875 46.742188 104.480469 C 48.152344 105.125 49.558594 105.789062 50.984375 106.398438 C 52.335938 106.980469 53.683594 107.613281 55.09375 108.019531 C 56.371094 108.390625 57.726562 108.539062 59.0625 108.671875 C 59.476562 108.710938 59.929688 108.367188 60.371094 108.21875 C 60.683594 108.113281 61.007812 107.992188 61.335938 107.964844 C 61.496094 107.949219 61.773438 108.109375 61.808594 108.242188 C 61.855469 108.417969 61.769531 108.761719 61.640625 108.820312 C 61.300781 108.984375 60.898438 109.136719 60.535156 109.109375 C 58.128906 108.9375 55.734375 108.71875 53.441406 107.832031 C 51.851562 107.214844 50.175781 106.808594 48.601562 106.328125 C 48.726562 106.484375 48.941406 106.742188 49.148438 107.007812 C 51.738281 110.332031 53.132812 114.050781 52.84375 118.320312 C 52.792969 119.027344 52.628906 119.730469 52.46875 120.425781 C 52.386719 120.785156 52.121094 120.867188 51.851562 120.570312 C 49.875 118.402344 47.882812 116.246094 45.9375 114.054688 C 43.859375 111.71875 42.722656 108.957031 42.355469 105.855469 C 42.257812 105.042969 42.125 104.21875 41.867188 103.441406 C 41.675781 102.863281 41.320312 102.304688 40.929688 101.824219 C 39.144531 99.621094 37.320312 97.449219 35.511719 95.261719 C 35.417969 95.148438 35.332031 95.03125 35.167969 94.953125 C 35.3125 95.332031 35.445312 95.714844 35.597656 96.089844 C 36.617188 98.5625 37.324219 101.109375 37.496094 103.800781 C 37.59375 105.292969 37.691406 106.785156 37.882812 108.269531 C 37.953125 108.800781 38.296875 109.292969 38.519531 109.800781 C 38.660156 110.125 38.847656 110.4375 38.9375 110.773438 C 39.039062 111.183594 38.863281 111.59375 38.457031 111.667969 C 38.207031 111.710938 37.804688 111.507812 37.636719 111.289062 C 37.152344 110.667969 37.414062 109.929688 37.453125 109.226562 C 37.515625 108.097656 37.617188 106.957031 37.527344 105.832031 C 37.246094 102.378906 36.203125 99.125 34.859375 95.957031 C 34.488281 95.082031 34.21875 94.167969 33.902344 93.269531 C 33.839844 93.175781 33.78125 93.078125 33.722656 92.984375 C 33.71875 92.984375 33.710938 92.984375 33.703125 92.984375 C 33.710938 92.988281 33.714844 92.996094 33.722656 93.003906 C 33.785156 93.09375 33.847656 93.183594 33.910156 93.273438 C 33.871094 93.433594 33.792969 93.59375 33.800781 93.75 C 33.902344 95.4375 34.136719 97.121094 34.09375 98.800781 C 34.050781 100.515625 33.863281 102.25 33.523438 103.933594 C 32.941406 106.808594 32.011719 109.582031 30.574219 112.171875 C 30.082031 113.058594 29.65625 113.980469 29.175781 114.875 C 29.101562 115.007812 28.910156 115.074219 28.773438 115.175781 C 28.695312 115.039062 28.550781 114.902344 28.558594 114.769531 C 28.660156 112.195312 28.046875 109.703125 27.730469 107.179688 C 27.582031 106.011719 27.328125 104.855469 27.109375 103.695312 C 26.433594 100.15625 26.542969 96.636719 27.660156 93.195312 C 28.242188 91.414062 28.976562 89.683594 29.6875 87.945312 C 30.246094 86.574219 30.210938 85.222656 29.804688 83.832031 C 29.542969 82.933594 29.351562 82.015625 29.171875 81.097656 C 28.722656 78.800781 28.292969 76.503906 27.863281 74.203125 C 27.695312 73.316406 27.472656 72.4375 27.410156 71.546875 C 27.132812 67.660156 26.859375 63.769531 26.675781 59.875 C 26.527344 56.757812 26.511719 53.628906 26.429688 50.511719 C 26.421875 50.34375 26.332031 50.183594 26.28125 50.023438 C 26.292969 50.019531 26.304688 50.015625 26.316406 50.007812 C 26.3125 50.015625 26.308594 50.023438 26.304688 50.027344 C 26.308594 50.019531 26.300781 50.011719 26.296875 50 Z M 37.964844 110.523438 C 37.957031 110.503906 37.945312 110.484375 37.933594 110.464844 C 37.945312 110.476562 37.957031 110.488281 37.96875 110.496094 C 37.964844 110.496094 37.957031 110.492188 37.949219 110.492188 C 37.953125 110.503906 37.960938 110.515625 37.964844 110.523438 Z M 31.089844 87.371094 C 31.136719 87.773438 31.230469 88.179688 31.214844 88.582031 C 31.175781 89.71875 31.089844 90.851562 31.023438 91.992188 L 31.039062 91.988281 C 31.003906 91.71875 30.960938 91.449219 30.9375 91.175781 C 30.832031 90.09375 30.738281 89.015625 30.640625 87.933594 C 30 89.214844 29.550781 90.507812 29 91.753906 C 27.488281 95.148438 27.113281 98.703125 27.539062 102.324219 C 27.941406 105.726562 28.539062 109.105469 29.058594 112.492188 C 29.070312 112.566406 29.140625 112.636719 29.179688 112.707031 L 29.15625 112.742188 C 29.15625 112.742188 29.183594 112.71875 29.183594 112.71875 C 29.496094 111.398438 29.800781 110.078125 30.109375 108.769531 C 30.113281 110.105469 30 111.441406 29.550781 112.734375 C 29.558594 112.734375 29.570312 112.730469 29.582031 112.730469 C 29.570312 112.726562 29.554688 112.71875 29.542969 112.714844 C 29.644531 112.605469 29.773438 112.515625 29.84375 112.386719 C 31.523438 109.351562 32.5625 106.105469 33.148438 102.691406 C 33.550781 100.335938 33.476562 97.996094 33.382812 95.628906 C 33.273438 92.804688 32.546875 90.167969 31.316406 87.652344 C 31.265625 87.542969 31.160156 87.457031 31.082031 87.363281 C 31.09375 87.347656 31.101562 87.332031 31.113281 87.320312 C 31.101562 87.339844 31.09375 87.355469 31.089844 87.371094 Z M 31.480469 32.265625 L 31.488281 32.269531 C 31.46875 32.214844 31.46875 32.148438 31.433594 32.113281 C 30.660156 31.257812 29.878906 30.410156 29.113281 29.546875 C 28.816406 29.214844 28.554688 28.851562 28.28125 28.496094 C 27.488281 27.480469 26.699219 26.457031 25.910156 25.441406 C 26.058594 26.644531 26.195312 27.878906 26.652344 28.984375 C 27.265625 30.457031 28.09375 31.84375 28.890625 33.234375 C 30.875 36.710938 33.445312 39.695312 36.503906 42.277344 C 38.375 43.855469 40.140625 45.554688 41.957031 47.199219 C 42.207031 47.425781 42.457031 47.652344 42.710938 47.878906 C 42.675781 47.640625 42.601562 47.429688 42.484375 47.25 C 41.347656 45.496094 40.207031 43.75 39.066406 41.996094 C 38.714844 41.460938 38.375 40.921875 38.027344 40.378906 C 38.027344 40.378906 38.023438 40.378906 38.023438 40.378906 C 38.082031 40.472656 38.136719 40.566406 38.199219 40.65625 C 38.941406 41.679688 39.707031 42.683594 40.414062 43.726562 C 41.238281 44.945312 42.007812 46.195312 42.796875 47.433594 C 42.839844 47.207031 42.804688 47.023438 42.753906 46.847656 C 41.425781 42.332031 39.511719 38.121094 36.746094 34.269531 C 34.351562 30.941406 31.535156 28.128906 28.078125 25.949219 C 27.546875 25.613281 26.980469 25.332031 26.429688 25.023438 C 26.503906 25.414062 26.640625 25.699219 26.820312 25.957031 C 27.144531 26.410156 27.585938 26.804688 27.820312 27.300781 C 28.527344 28.804688 29.832031 29.824219 30.789062 31.121094 C 31.054688 31.476562 31.253906 31.882812 31.480469 32.265625 Z M 12.378906 63.550781 C 12.515625 63.226562 12.652344 62.902344 12.789062 62.578125 L 12.773438 62.582031 C 12.707031 62.945312 12.640625 63.316406 12.554688 63.828125 C 12.746094 63.613281 12.84375 63.511719 12.933594 63.40625 C 14.71875 61.207031 16.507812 59.011719 18.289062 56.808594 C 19.328125 55.527344 20.425781 54.285156 21.363281 52.9375 C 22.550781 51.226562 23.453125 49.347656 24.265625 47.421875 C 25.40625 44.730469 26.007812 41.929688 26.230469 39.039062 C 26.246094 38.855469 26.167969 38.660156 26.136719 38.476562 C 26.164062 38.464844 26.191406 38.453125 26.21875 38.441406 C 26.203125 38.425781 26.1875 38.40625 26.175781 38.390625 C 26.167969 38.421875 26.160156 38.449219 26.152344 38.480469 C 25.171875 41.003906 23.25 42.980469 22.722656 44.28125 C 23.824219 42.546875 25.042969 39.472656 26.125 36.160156 C 24.59375 37.140625 23.242188 38.0625 21.839844 38.890625 C 18.84375 40.664062 16.921875 43.230469 15.71875 46.480469 C 14.9375 48.582031 14.316406 50.71875 13.738281 52.875 C 13.449219 53.957031 13.277344 55.074219 13.140625 56.1875 C 12.941406 57.824219 12.820312 59.46875 12.660156 61.113281 C 12.582031 61.925781 12.488281 62.742188 12.402344 63.558594 C 12.386719 63.597656 12.371094 63.640625 12.359375 63.679688 C 12.375 63.679688 12.394531 63.675781 12.410156 63.671875 C 12.394531 63.628906 12.386719 63.589844 12.378906 63.550781 Z M 47.714844 94.378906 C 46.230469 90.152344 44.757812 85.949219 41.609375 82.566406 C 38.496094 79.21875 34.824219 76.71875 30.667969 74.886719 C 31.730469 75.992188 32.855469 77.039062 33.507812 78.492188 C 32.183594 77.304688 30.859375 76.113281 29.441406 74.839844 C 29.472656 75.058594 29.46875 75.152344 29.5 75.230469 C 30.289062 77.121094 31.007812 79.050781 31.914062 80.890625 C 32.394531 81.863281 33.214844 82.664062 33.863281 83.554688 C 35.273438 85.488281 36.6875 87.425781 38.691406 88.816406 C 40.363281 89.972656 42.050781 91.121094 43.753906 92.230469 C 44.75 92.878906 45.792969 93.453125 46.816406 94.058594 C 46.859375 94.015625 46.902344 93.96875 46.945312 93.925781 C 44.863281 91.285156 42.785156 88.648438 40.703125 86.007812 C 40.742188 85.976562 40.78125 85.945312 40.820312 85.917969 C 43.320312 88.566406 45.304688 91.640625 47.714844 94.378906 Z M 52.09375 119.871094 C 52.75 115.804688 51.921875 112.171875 49.769531 108.824219 C 48.5 106.847656 46.953125 105.167969 44.746094 104.207031 C 46.714844 106.402344 47.945312 109.015625 49.183594 111.621094 C 48.277344 110.109375 47.507812 108.492188 46.441406 107.109375 C 45.355469 105.703125 44.0625 104.433594 42.546875 103.367188 C 42.71875 104.410156 42.867188 105.382812 43.039062 106.347656 C 43.425781 108.542969 44.007812 110.671875 45.46875 112.421875 C 46.898438 114.140625 48.371094 115.828125 49.851562 117.507812 C 50.539062 118.292969 51.285156 119.023438 52.09375 119.871094 Z M 52.09375 119.871094 " fill-opacity="1" fill-rule="nonzero"/></g></g></g></g><g clip-path="url(#e3a60859fd)"><g clip-path="url(#1bbf943204)"><g clip-path="url(#c0cde871a4)"><g clip-path="url(#ae4cde6a81)"><path fill="#000000" d="M 23.261719 60.316406 C 23.238281 60.40625 23.234375 60.503906 23.1875 60.578125 C 22.832031 61.152344 22.671875 61.734375 22.792969 62.429688 C 22.890625 62.988281 22.671875 63.539062 22.125 63.808594 C 21.894531 63.925781 21.503906 63.945312 21.300781 63.820312 C 21.097656 63.703125 20.933594 63.34375 20.933594 63.09375 C 20.9375 62.433594 21.34375 61.941406 21.929688 61.71875 C 22.304688 61.574219 22.503906 61.371094 22.660156 61.035156 C 22.792969 60.757812 22.984375 60.507812 23.148438 60.25 C 23.1875 60.269531 23.222656 60.292969 23.261719 60.316406 Z M 23.261719 60.316406 " fill-opacity="1" fill-rule="nonzero"/></g></g></g></g><g clip-path="url(#337acce3f6)"><g clip-path="url(#a13955199e)"><g clip-path="url(#e37f4756fe)"><g clip-path="url(#a32dfd9d63)"><path fill="#000000" d="M 12.785156 62.574219 C 13.714844 60.039062 15.332031 56.476562 16.949219 54.390625 C 16.707031 54.941406 16.496094 55.503906 16.222656 56.039062 C 15.175781 58.085938 14.105469 60.125 13.042969 62.167969 C 12.96875 62.3125 12.863281 62.445312 12.773438 62.582031 C 12.773438 62.578125 12.785156 62.574219 12.785156 62.574219 Z M 12.785156 62.574219 " fill-opacity="1" fill-rule="nonzero"/></g></g></g></g><g clip-path="url(#7c932d1bfc)"><g clip-path="url(#9d8a898903)"><g clip-path="url(#c00ad73141)"><g clip-path="url(#6109a85018)"><path fill="#000000" d="M 18.5 51.640625 C 18.539062 51.457031 18.535156 51.246094 18.625 51.089844 C 19.4375 49.675781 20.265625 48.273438 21.09375 46.867188 C 21.226562 46.644531 21.371094 46.429688 21.554688 46.234375 C 20.871094 48.226562 19.347656 49.75 18.492188 51.644531 C 18.496094 51.644531 18.5 51.640625 18.5 51.640625 Z M 18.5 51.640625 " fill-opacity="1" fill-rule="nonzero"/></g></g></g></g><g clip-path="url(#eaece8ec9c)"><g clip-path="url(#753724ce2b)"><g clip-path="url(#502eca9b80)"><g clip-path="url(#247c620dfc)"><path fill="#000000" d="M 18.496094 51.644531 C 18.433594 51.710938 18.375 51.777344 18.316406 51.84375 C 18.308594 51.835938 18.300781 51.832031 18.296875 51.824219 C 18.363281 51.765625 18.429688 51.703125 18.5 51.644531 C 18.5 51.640625 18.496094 51.644531 18.496094 51.644531 Z M 18.496094 51.644531 " fill-opacity="1" fill-rule="nonzero"/></g></g></g></g><g clip-path="url(#490c046146)"><g clip-path="url(#f9db817e14)"><g clip-path="url(#bd85c3c017)"><g clip-path="url(#1ad13e95be)"><path fill="#000000" d="M 39.667969 84.777344 C 37.867188 82.980469 36.074219 81.191406 34.285156 79.40625 C 34.34375 79.347656 34.40625 79.289062 34.46875 79.226562 C 36.3125 80.96875 38.148438 82.710938 39.667969 84.777344 Z M 39.667969 84.777344 " fill-opacity="1" fill-rule="nonzero"/></g></g></g></g><g clip-path="url(#c00cfabb84)"><g clip-path="url(#318b70684b)"><g clip-path="url(#040312d30a)"><g clip-path="url(#976f5cdea3)"><path fill="#000000" d="M 38.027344 40.378906 C 37.8125 40.203125 37.558594 40.0625 37.386719 39.851562 C 36.160156 38.324219 34.949219 36.792969 33.738281 35.253906 C 33.511719 34.964844 33.328125 34.636719 33.0625 34.238281 C 33.222656 34.3125 33.320312 34.324219 33.363281 34.378906 C 34.808594 36.253906 36.246094 38.128906 37.683594 40.003906 C 37.785156 40.136719 37.90625 40.253906 38.019531 40.378906 C 38.023438 40.378906 38.027344 40.378906 38.027344 40.378906 Z M 38.027344 40.378906 " fill-opacity="1" fill-rule="nonzero"/></g></g></g></g><g clip-path="url(#9da427d51a)"><g clip-path="url(#45ccff768a)"><g clip-path="url(#0e6f1bac82)"><g clip-path="url(#417c12a977)"><path fill="#000000" d="M 31.480469 32.265625 C 31.769531 32.523438 32.054688 32.78125 32.339844 33.039062 C 32.292969 33.089844 32.238281 33.140625 32.1875 33.191406 C 31.957031 32.882812 31.726562 32.574219 31.492188 32.265625 C 31.488281 32.269531 31.480469 32.265625 31.480469 32.265625 Z M 31.480469 32.265625 " fill-opacity="1" fill-rule="nonzero"/></g></g></g></g><g clip-path="url(#22571d2ea3)"><g clip-path="url(#f5b0346364)"><g clip-path="url(#63dbcc06cb)"><g clip-path="url(#826cc70975)"><path fill="#000000" d="M 30.121094 107.253906 C 30.140625 105.128906 30.160156 103.007812 30.1875 100.882812 C 30.1875 100.777344 30.242188 100.667969 30.269531 100.566406 L 30.253906 100.566406 C 30.28125 100.9375 30.34375 101.300781 30.335938 101.667969 C 30.300781 103.425781 30.253906 105.183594 30.203125 106.941406 C 30.203125 107.046875 30.136719 107.148438 30.101562 107.253906 Z M 30.121094 107.253906 " fill-opacity="1" fill-rule="nonzero"/></g></g></g></g><g clip-path="url(#340a3ebdcc)"><g clip-path="url(#ef0e8f6cfb)"><g clip-path="url(#5b65aced8b)"><g clip-path="url(#165b5aa0a4)"><path fill="#000000" d="M 30.640625 96.070312 C 30.753906 94.875 30.867188 93.679688 30.988281 92.488281 C 30.996094 92.425781 31.0625 92.371094 31.097656 92.316406 C 31.097656 92.316406 31.078125 92.316406 31.078125 92.316406 C 30.976562 93.476562 30.878906 94.636719 30.769531 95.796875 C 30.761719 95.894531 30.671875 95.980469 30.617188 96.074219 Z M 30.640625 96.070312 " fill-opacity="1" fill-rule="nonzero"/></g></g></g></g><g clip-path="url(#7d52be2dc0)"><g clip-path="url(#c645b72277)"><g clip-path="url(#a4b7a03581)"><g clip-path="url(#e47653b18e)"><path fill="#000000" d="M 30.722656 96.238281 C 30.640625 96.929688 30.558594 97.625 30.476562 98.316406 L 30.492188 98.316406 C 30.574219 97.621094 30.660156 96.929688 30.746094 96.238281 C 30.742188 96.238281 30.722656 96.238281 30.722656 96.238281 Z M 30.722656 96.238281 " fill-opacity="1" fill-rule="nonzero"/></g></g></g></g><g clip-path="url(#e67892ddeb)"><g clip-path="url(#566ed3f319)"><g clip-path="url(#dd087999ad)"><g clip-path="url(#2c5e258e1b)"><path fill="#000000" d="M 30.476562 98.316406 C 30.441406 98.582031 30.402344 98.851562 30.367188 99.117188 C 30.367188 99.117188 30.386719 99.113281 30.386719 99.113281 C 30.421875 98.847656 30.457031 98.582031 30.492188 98.316406 C 30.492188 98.316406 30.476562 98.316406 30.476562 98.316406 Z M 30.476562 98.316406 " fill-opacity="1" fill-rule="nonzero"/></g></g></g></g><g clip-path="url(#0a3192f36e)"><g clip-path="url(#2b4853ebf1)"><g clip-path="url(#dda757a890)"><g clip-path="url(#9f6d56f684)"><path fill="#000000" d="M 30.277344 99.683594 C 30.3125 99.496094 30.347656 99.304688 30.386719 99.117188 C 30.386719 99.117188 30.367188 99.117188 30.367188 99.117188 C 30.328125 99.304688 30.292969 99.496094 30.257812 99.6875 C 30.257812 99.683594 30.277344 99.683594 30.277344 99.683594 Z M 30.277344 99.683594 " fill-opacity="1" fill-rule="nonzero"/></g></g></g></g><g clip-path="url(#275d81df5c)"><g clip-path="url(#8a49e1d3ca)"><g clip-path="url(#11501e06f0)"><g clip-path="url(#3c054a32b7)"><path fill="#000000" d="M 30.203125 100.398438 C 30.273438 100.269531 30.34375 100.136719 30.414062 100.007812 C 30.410156 100.007812 30.402344 100.003906 30.402344 100.003906 C 30.328125 100.136719 30.253906 100.265625 30.183594 100.394531 C 30.183594 100.398438 30.203125 100.398438 30.203125 100.398438 Z M 30.203125 100.398438 " fill-opacity="1" fill-rule="nonzero"/></g></g></g></g><g clip-path="url(#f85b718c05)"><g clip-path="url(#cedf426ab0)"><g clip-path="url(#d858295ec7)"><g clip-path="url(#4f417b7700)"><path fill="#000000" d="M 30.257812 99.683594 C 30.285156 99.734375 30.3125 99.785156 30.339844 99.835938 L 30.355469 99.828125 C 30.332031 99.777344 30.304688 99.730469 30.277344 99.683594 C 30.277344 99.683594 30.257812 99.683594 30.257812 99.683594 Z M 30.257812 99.683594 " fill-opacity="1" fill-rule="nonzero"/></g></g></g></g><g clip-path="url(#e01d48db16)"><g clip-path="url(#724a47854d)"><g clip-path="url(#3e44645f96)"><g clip-path="url(#7ffc886e5a)"><path fill="#000000" d="M 31.101562 92.3125 C 31.089844 92.261719 31.078125 92.203125 31.070312 92.152344 C 31.070312 92.152344 31.050781 92.152344 31.050781 92.152344 C 31.0625 92.207031 31.070312 92.257812 31.082031 92.3125 C 31.082031 92.3125 31.101562 92.3125 31.101562 92.3125 Z M 31.101562 92.3125 " fill-opacity="1" fill-rule="nonzero"/></g></g></g></g><g clip-path="url(#2d59524057)"><g clip-path="url(#4382475f3e)"><g clip-path="url(#11970fa83d)"><g clip-path="url(#803459e853)"><path fill="#000000" d="M 31.023438 91.992188 C 31.03125 92.046875 31.042969 92.097656 31.050781 92.152344 C 31.050781 92.152344 31.070312 92.152344 31.070312 92.148438 C 31.0625 92.097656 31.050781 92.042969 31.039062 91.988281 C 31.039062 91.988281 31.023438 91.992188 31.023438 91.992188 Z M 31.023438 91.992188 " fill-opacity="1" fill-rule="nonzero"/></g></g></g></g><g clip-path="url(#69eeb70834)"><g clip-path="url(#19c130dcf0)"><g clip-path="url(#92f1deb2c7)"><g clip-path="url(#42da562920)"><path fill="#000000" d="M 30.339844 99.835938 C 30.359375 99.890625 30.375 99.949219 30.398438 100.007812 C 30.402344 100.007812 30.410156 100.007812 30.410156 100.007812 C 30.394531 99.949219 30.375 99.890625 30.355469 99.832031 C 30.355469 99.828125 30.339844 99.835938 30.339844 99.835938 Z M 30.339844 99.835938 " fill-opacity="1" fill-rule="nonzero"/></g></g></g></g><g clip-path="url(#04ef93d911)"><g clip-path="url(#d223f4c069)"><g clip-path="url(#626c2527fc)"><g clip-path="url(#0918c5f174)"><path fill="#000000" d="M 30.269531 100.566406 C 30.25 100.507812 30.226562 100.457031 30.203125 100.402344 C 30.199219 100.402344 30.183594 100.398438 30.183594 100.398438 C 30.203125 100.453125 30.230469 100.511719 30.253906 100.566406 C 30.253906 100.566406 30.269531 100.566406 30.269531 100.566406 Z M 30.269531 100.566406 " fill-opacity="1" fill-rule="nonzero"/></g></g></g></g><g clip-path="url(#9338c87296)"><g clip-path="url(#06bbb018cc)"><g clip-path="url(#3cc9052e86)"><g clip-path="url(#cbe2e7fd0a)"><path fill="#000000" d="M 30.101562 107.253906 C 30.109375 107.300781 30.117188 107.351562 30.128906 107.402344 C 30.128906 107.402344 30.144531 107.402344 30.144531 107.402344 C 30.136719 107.351562 30.128906 107.300781 30.121094 107.25 C 30.121094 107.253906 30.101562 107.253906 30.101562 107.253906 Z M 30.101562 107.253906 " fill-opacity="1" fill-rule="nonzero"/><path fill="#000000" d="M 30.128906 107.402344 C 30.144531 107.472656 30.164062 107.542969 30.183594 107.617188 L 30.195312 107.59375 C 30.179688 107.53125 30.164062 107.464844 30.144531 107.402344 C 30.144531 107.402344 30.128906 107.402344 30.128906 107.402344 Z M 30.128906 107.402344 " fill-opacity="1" fill-rule="nonzero"/><path fill="#000000" d="M 30.179688 107.621094 C 30.179688 107.605469 30.171875 107.59375 30.171875 107.582031 C 30.164062 107.589844 30.160156 107.601562 30.152344 107.609375 C 30.167969 107.605469 30.179688 107.597656 30.191406 107.59375 C 30.195312 107.597656 30.179688 107.621094 30.179688 107.621094 Z M 30.179688 107.621094 " fill-opacity="1" fill-rule="nonzero"/></g></g></g></g><g clip-path="url(#9ce9744963)"><g clip-path="url(#501686fe5e)"><g clip-path="url(#c2abe41902)"><g clip-path="url(#5649eea8ee)"><path fill="#000000" d="M 30.621094 96.070312 C 30.652344 96.125 30.683594 96.179688 30.71875 96.234375 C 30.722656 96.238281 30.742188 96.234375 30.742188 96.238281 C 30.710938 96.179688 30.675781 96.125 30.640625 96.070312 C 30.640625 96.070312 30.621094 96.070312 30.621094 96.070312 Z M 30.621094 96.070312 " fill-opacity="1" fill-rule="nonzero"/></g></g></g></g><g clip-path="url(#bf63d18398)"><g clip-path="url(#8e16e95593)"><g clip-path="url(#778ee73e15)"><g clip-path="url(#46419b09f4)"><path fill="#000000" d="M 50.984375 116.289062 C 50.609375 115.445312 50.21875 114.601562 49.859375 113.753906 C 49.660156 113.285156 49.511719 112.796875 49.328125 112.289062 C 49.433594 112.304688 49.488281 112.292969 49.5 112.308594 C 50.25 113.539062 50.816406 114.835938 50.96875 116.289062 C 50.96875 116.292969 50.984375 116.289062 50.984375 116.289062 Z M 50.984375 116.289062 " fill-opacity="1" fill-rule="nonzero"/></g></g></g></g><g clip-path="url(#6cb0041036)"><g clip-path="url(#237ea4935e)"><g clip-path="url(#cce1ee20eb)"><g clip-path="url(#eb35600dc8)"><path fill="#000000" d="M 51.140625 116.941406 C 51.347656 117.199219 51.550781 117.457031 51.757812 117.714844 C 51.699219 117.753906 51.640625 117.789062 51.582031 117.828125 C 51.441406 117.53125 51.300781 117.238281 51.160156 116.9375 C 51.164062 116.9375 51.140625 116.941406 51.140625 116.941406 Z M 51.140625 116.941406 " fill-opacity="1" fill-rule="nonzero"/></g></g></g></g><g clip-path="url(#7d0b1b2f4e)"><g clip-path="url(#552ae8859d)"><g clip-path="url(#b6209b4384)"><g clip-path="url(#2dda201558)"><path fill="#000000" d="M 50.976562 116.679688 C 50.980469 116.546875 50.980469 116.421875 50.980469 116.292969 C 50.980469 116.292969 50.964844 116.292969 50.964844 116.292969 C 50.972656 116.417969 50.976562 116.550781 50.976562 116.679688 C 50.980469 116.675781 50.976562 116.679688 50.976562 116.679688 Z M 50.976562 116.679688 " fill-opacity="1" fill-rule="nonzero"/></g></g></g></g><g clip-path="url(#c2d200c030)"><g clip-path="url(#7fc26911d7)"><g clip-path="url(#b6ef90fda5)"><g clip-path="url(#794a2af06e)"><path fill="#000000" d="M 50.980469 116.675781 C 51.03125 116.765625 51.089844 116.851562 51.140625 116.941406 C 51.140625 116.941406 51.160156 116.9375 51.160156 116.9375 C 51.101562 116.851562 51.039062 116.765625 50.980469 116.675781 C 50.976562 116.679688 50.980469 116.675781 50.980469 116.675781 Z M 50.980469 116.675781 " fill-opacity="1" fill-rule="nonzero"/></g></g></g></g></g></g></g></g><g mask="url(#a682c7733e)"><g transform="matrix(1, 0, 0, 1, 12, 0)"><g clip-path="url(#160098ae31)"><g clip-path="url(#b00b7a1ef9)"><g clip-path="url(#692655195f)"><g clip-path="url(#6348e2ae54)"><g clip-path="url(#a491260b30)"><path fill="#000000" d="M 44.492188 24.773438 C 45.550781 26.523438 46.640625 28.261719 47.664062 30.035156 C 48.136719 30.859375 48.476562 31.757812 48.875 32.625 C 48.835938 32.644531 48.800781 32.667969 48.761719 32.691406 C 48.5 32.238281 48.21875 31.796875 47.980469 31.335938 C 46.640625 28.757812 45.355469 26.152344 43.359375 23.980469 C 42.664062 23.222656 41.941406 22.488281 41.222656 21.753906 C 41.082031 21.605469 40.902344 21.496094 40.671875 21.320312 C 41.109375 22.308594 41.515625 23.199219 41.90625 24.097656 C 42.933594 26.464844 43.65625 28.914062 43.921875 31.488281 C 44.078125 33.050781 44.214844 34.617188 44.375 36.183594 C 44.625 38.664062 44.878906 41.140625 45.144531 43.621094 C 45.183594 43.96875 45.339844 44.304688 45.375 44.65625 C 45.394531 44.847656 45.285156 45.058594 45.234375 45.257812 C 45.0625 45.164062 44.835938 45.113281 44.726562 44.972656 C 43.472656 43.363281 42.246094 41.738281 41 40.125 C 40.5625 39.5625 40.070312 39.046875 39.65625 38.476562 C 38.867188 37.390625 38.035156 36.320312 37.367188 35.164062 C 36.269531 33.265625 35.25 31.324219 34.269531 29.363281 C 33.003906 26.824219 32.484375 24.167969 33.175781 21.339844 C 33.601562 19.609375 33.953125 17.855469 34.300781 16.105469 C 34.347656 15.871094 34.261719 15.554688 34.121094 15.359375 C 32.464844 13.0625 30.195312 11.429688 27.910156 9.832031 C 26.628906 8.933594 25.363281 8 24.011719 7.21875 C 22.496094 6.34375 20.894531 5.601562 19.308594 4.847656 C 18.316406 4.375 17.28125 3.984375 16.269531 3.554688 C 14.046875 2.605469 11.695312 2.273438 9.316406 1.992188 C 7.402344 1.765625 5.496094 1.621094 3.566406 1.632812 C 2.785156 1.632812 1.992188 1.371094 1.230469 1.148438 C 0.980469 1.078125 0.652344 0.761719 0.636719 0.539062 C 0.609375 0.125 1.046875 0.0820312 1.378906 0.0195312 C 2.9375 -0.273438 4.488281 -0.242188 6.054688 0.0117188 C 7.496094 0.242188 8.96875 0.292969 10.394531 0.589844 C 11.800781 0.878906 13.203125 1.273438 14.539062 1.792969 C 16.992188 2.746094 19.433594 3.738281 21.800781 4.878906 C 23.421875 5.660156 24.910156 6.71875 26.457031 7.65625 C 26.609375 7.746094 26.742188 7.863281 26.878906 7.960938 C 28.59375 7.042969 30.460938 6.777344 32.328125 6.496094 C 36.304688 5.890625 40.171875 6.574219 44.035156 7.378906 C 45.914062 7.769531 47.691406 8.398438 49.445312 9.167969 C 51.632812 10.128906 53.777344 11.148438 55.777344 12.457031 C 55.882812 12.523438 56.011719 12.570312 56.085938 12.664062 C 56.164062 12.761719 56.261719 12.945312 56.222656 13.015625 C 56.15625 13.121094 55.96875 13.25 55.855469 13.230469 C 53.664062 12.878906 51.480469 13.253906 49.292969 13.292969 C 47.796875 13.320312 46.300781 13.402344 44.808594 13.5 C 41.675781 13.707031 38.628906 13.222656 35.605469 12.484375 C 34.710938 12.265625 33.808594 12.089844 32.835938 12.007812 C 33.589844 12.65625 34.316406 13.34375 35.109375 13.949219 C 37.652344 15.90625 40.601562 17.097656 43.625 18.03125 C 45.53125 18.617188 47.546875 18.890625 49.53125 19.167969 C 50.296875 19.277344 51.109375 18.996094 51.90625 18.925781 C 52.339844 18.886719 52.804688 18.828125 53.214844 18.933594 C 53.433594 18.988281 53.726562 19.386719 53.707031 19.605469 C 53.6875 19.824219 53.34375 20.136719 53.097656 20.1875 C 52.398438 20.335938 51.78125 20.007812 51.191406 19.671875 C 51.089844 19.617188 50.996094 19.519531 50.886719 19.5 C 49.117188 19.230469 47.347656 18.816406 45.566406 18.746094 C 42.960938 18.648438 40.652344 17.671875 38.277344 16.824219 C 38.101562 16.757812 37.910156 16.734375 37.722656 16.691406 C 37.710938 16.671875 37.703125 16.648438 37.691406 16.628906 C 37.691406 16.640625 37.683594 16.660156 37.691406 16.664062 C 37.703125 16.671875 37.71875 16.675781 37.734375 16.679688 C 39.460938 18.359375 41.1875 20.042969 42.914062 21.714844 C 43.898438 22.664062 44.882812 23.609375 45.882812 24.542969 C 47.097656 25.683594 48.335938 26.800781 49.550781 27.9375 C 50.589844 28.90625 51.609375 29.898438 52.644531 30.867188 C 54.652344 32.746094 56.640625 34.644531 58.691406 36.472656 C 59.535156 37.222656 60.515625 37.828125 61.453125 38.46875 C 61.609375 38.574219 61.90625 38.558594 62.101562 38.496094 C 63.628906 38.019531 65.148438 37.507812 66.675781 37.023438 C 70.804688 35.703125 75.042969 35.371094 79.296875 36.078125 C 81.253906 36.40625 83.136719 37.234375 85.027344 37.90625 C 86.042969 38.265625 87.019531 38.761719 87.992188 39.234375 C 88.546875 39.503906 89.070312 39.847656 89.589844 40.1875 C 89.710938 40.269531 89.832031 40.492188 89.808594 40.613281 C 89.777344 40.738281 89.578125 40.882812 89.429688 40.917969 C 86.65625 41.554688 83.890625 42.25 81.09375 42.765625 C 79.441406 43.074219 77.71875 43.300781 76.050781 43.199219 C 73.394531 43.03125 70.753906 42.585938 68.117188 42.1875 C 67.394531 42.078125 66.710938 41.714844 66.011719 41.464844 C 65.917969 41.449219 65.824219 41.429688 65.730469 41.414062 C 65.738281 41.402344 65.746094 41.390625 65.753906 41.378906 C 65.753906 41.386719 65.757812 41.398438 65.761719 41.40625 C 65.75 41.402344 65.734375 41.398438 65.722656 41.394531 C 65.820312 41.414062 65.917969 41.433594 66.015625 41.453125 C 66.625 41.925781 67.226562 42.410156 67.847656 42.867188 C 68.335938 43.222656 68.855469 43.53125 69.351562 43.871094 C 70.355469 44.558594 71.554688 44.523438 72.679688 44.742188 C 75.222656 45.242188 77.753906 44.792969 80.285156 44.601562 C 80.550781 44.582031 80.820312 44.546875 81.082031 44.574219 C 81.582031 44.632812 82.019531 44.628906 82.507812 44.371094 C 82.816406 44.203125 83.320312 44.355469 83.71875 44.425781 C 83.824219 44.445312 83.945312 44.703125 83.941406 44.84375 C 83.941406 44.960938 83.777344 45.144531 83.65625 45.171875 C 83.347656 45.234375 83 45.320312 82.71875 45.238281 C 81.207031 44.792969 79.695312 44.921875 78.167969 45.136719 C 76.195312 45.414062 74.214844 45.65625 72.195312 45.324219 C 73.109375 45.671875 74.015625 46.046875 74.945312 46.359375 C 77.871094 47.351562 80.894531 47.871094 83.960938 48.277344 C 86.285156 48.585938 88.597656 48.730469 90.933594 48.691406 C 91.371094 48.679688 91.839844 48.617188 92.230469 48.433594 C 93.4375 47.867188 94.660156 47.308594 95.546875 46.261719 C 95.695312 46.089844 95.761719 45.847656 95.851562 45.628906 C 95.910156 45.488281 95.914062 45.292969 96.019531 45.195312 C 96.175781 45.050781 96.386719 44.945312 96.59375 44.875 C 96.652344 44.855469 96.855469 45.035156 96.84375 45.074219 C 96.78125 45.265625 96.703125 45.476562 96.566406 45.609375 C 95.867188 46.304688 95.152344 46.980469 94.328125 47.769531 C 94.59375 47.710938 94.722656 47.695312 94.839844 47.652344 C 96.230469 47.152344 97.625 46.664062 99.003906 46.128906 C 100.308594 45.621094 101.644531 45.152344 102.875 44.492188 C 103.988281 43.894531 105.007812 43.09375 106 42.300781 C 106.308594 42.050781 106.382812 41.523438 106.582031 41.132812 C 106.726562 40.851562 106.863281 40.558594 107.066406 40.320312 C 107.167969 40.207031 107.464844 40.128906 107.574219 40.195312 C 107.722656 40.28125 107.894531 40.566406 107.851562 40.691406 C 107.730469 41.027344 107.558594 41.394531 107.292969 41.617188 C 105.546875 43.09375 103.777344 44.535156 101.628906 45.457031 C 100.132812 46.097656 98.726562 46.9375 97.339844 47.660156 C 97.53125 47.679688 97.847656 47.710938 98.167969 47.75 C 102.144531 48.257812 105.582031 49.820312 108.246094 52.867188 C 108.6875 53.371094 109.046875 53.949219 109.402344 54.519531 C 109.589844 54.816406 109.460938 55.046875 109.078125 55.027344 C 106.289062 54.886719 103.496094 54.765625 100.707031 54.585938 C 97.738281 54.402344 95.117188 53.308594 92.789062 51.480469 C 92.175781 51 91.535156 50.535156 90.84375 50.1875 C 90.324219 49.925781 89.710938 49.792969 89.121094 49.726562 C 86.433594 49.4375 83.742188 49.191406 81.050781 48.925781 C 80.914062 48.914062 80.777344 48.890625 80.613281 48.949219 C 80.964844 49.105469 81.3125 49.273438 81.667969 49.421875 C 84.011719 50.402344 86.199219 51.636719 88.117188 53.320312 C 89.183594 54.253906 90.25 55.1875 91.371094 56.050781 C 91.773438 56.359375 92.339844 56.460938 92.832031 56.65625 C 93.144531 56.78125 93.480469 56.863281 93.765625 57.03125 C 94.109375 57.234375 94.265625 57.625 94.039062 57.941406 C 93.894531 58.136719 93.488281 58.269531 93.226562 58.234375 C 92.484375 58.136719 92.167969 57.472656 91.722656 56.976562 C 91.007812 56.179688 90.3125 55.351562 89.496094 54.65625 C 86.996094 52.535156 84.109375 51.054688 81.074219 49.824219 C 80.238281 49.484375 79.445312 49.050781 78.625 48.664062 C 78.523438 48.636719 78.417969 48.613281 78.316406 48.589844 C 78.3125 48.59375 78.308594 48.597656 78.300781 48.601562 C 78.308594 48.601562 78.316406 48.601562 78.328125 48.601562 C 78.429688 48.621094 78.535156 48.640625 78.636719 48.660156 C 78.71875 48.792969 78.769531 48.953125 78.882812 49.050781 C 80.078125 50.109375 81.363281 51.082031 82.460938 52.230469 C 83.582031 53.40625 84.617188 54.691406 85.511719 56.039062 C 87.042969 58.347656 88.273438 60.816406 89.03125 63.5 C 89.289062 64.417969 89.621094 65.316406 89.894531 66.230469 C 89.933594 66.367188 89.847656 66.542969 89.820312 66.699219 C 89.679688 66.660156 89.488281 66.664062 89.40625 66.570312 C 87.75 64.78125 85.664062 63.523438 83.761719 62.046875 C 82.878906 61.363281 81.929688 60.757812 81.003906 60.128906 C 78.175781 58.207031 75.894531 55.785156 74.347656 52.742188 C 73.550781 51.167969 72.886719 49.523438 72.207031 47.894531 C 71.667969 46.605469 70.738281 45.726562 69.527344 45.0625 C 68.75 44.636719 68.003906 44.152344 67.269531 43.65625 C 65.425781 42.421875 63.59375 41.167969 61.761719 39.914062 C 61.058594 39.433594 60.316406 38.992188 59.675781 38.441406 C 56.886719 36.023438 54.09375 33.605469 51.363281 31.125 C 49.175781 29.136719 47.070312 27.054688 44.921875 25.027344 C 44.808594 24.917969 44.636719 24.871094 44.496094 24.796875 C 44.5 24.789062 44.503906 24.777344 44.507812 24.765625 C 44.511719 24.773438 44.515625 24.78125 44.515625 24.785156 C 44.511719 24.78125 44.503906 24.777344 44.492188 24.773438 Z M 92.9375 57.503906 C 92.917969 57.496094 92.898438 57.492188 92.878906 57.488281 C 92.894531 57.484375 92.910156 57.484375 92.921875 57.484375 C 92.917969 57.488281 92.910156 57.492188 92.90625 57.496094 C 92.917969 57.5 92.929688 57.5 92.9375 57.503906 Z M 72.769531 46.578125 C 73.070312 46.820312 73.40625 47.027344 73.667969 47.304688 C 74.402344 48.09375 75.105469 48.90625 75.820312 49.710938 L 75.828125 49.703125 C 75.625 49.542969 75.414062 49.390625 75.214844 49.226562 C 74.421875 48.570312 73.632812 47.910156 72.84375 47.253906 C 73.265625 48.53125 73.828125 49.695312 74.289062 50.894531 C 75.539062 54.164062 77.664062 56.789062 80.378906 58.925781 C 82.929688 60.933594 85.597656 62.792969 88.21875 64.714844 C 88.277344 64.757812 88.371094 64.757812 88.445312 64.777344 L 88.449219 64.820312 C 88.449219 64.820312 88.457031 64.785156 88.457031 64.785156 C 87.78125 63.695312 87.105469 62.609375 86.4375 61.53125 C 87.335938 62.421875 88.15625 63.390625 88.714844 64.554688 C 88.71875 64.546875 88.726562 64.539062 88.734375 64.53125 C 88.722656 64.535156 88.707031 64.539062 88.695312 64.542969 C 88.691406 64.40625 88.71875 64.257812 88.679688 64.128906 C 87.789062 60.984375 86.316406 58.128906 84.425781 55.457031 C 83.121094 53.617188 81.503906 52.101562 79.855469 50.582031 C 77.890625 48.765625 75.632812 47.484375 73.113281 46.617188 C 73.003906 46.578125 72.878906 46.589844 72.761719 46.578125 C 72.757812 46.5625 72.753906 46.546875 72.75 46.53125 C 72.757812 46.550781 72.761719 46.566406 72.769531 46.578125 Z M 36.128906 9.484375 L 36.132812 9.484375 C 36.085938 9.460938 36.042969 9.417969 35.996094 9.414062 C 34.898438 9.355469 33.800781 9.308594 32.703125 9.238281 C 32.28125 9.210938 31.855469 9.140625 31.433594 9.085938 C 30.214844 8.929688 28.996094 8.769531 27.78125 8.613281 C 28.6875 9.316406 29.609375 10.054688 30.65625 10.488281 C 32.058594 11.066406 33.550781 11.445312 35.019531 11.847656 C 38.695312 12.855469 42.433594 13.152344 46.238281 12.855469 C 48.5625 12.671875 50.898438 12.636719 53.230469 12.535156 C 53.554688 12.519531 53.875 12.503906 54.195312 12.488281 C 54.015625 12.351562 53.824219 12.257812 53.625 12.214844 C 51.679688 11.796875 49.734375 11.386719 47.789062 10.96875 C 47.191406 10.84375 46.597656 10.707031 46 10.578125 C 46.097656 10.601562 46.199219 10.628906 46.304688 10.644531 C 47.488281 10.839844 48.683594 11.003906 49.859375 11.230469 C 51.234375 11.5 52.59375 11.828125 53.960938 12.132812 C 53.835938 11.953125 53.691406 11.851562 53.535156 11.769531 C 49.609375 9.628906 45.496094 8.082031 41.039062 7.339844 C 37.1875 6.703125 33.394531 6.683594 29.589844 7.515625 C 29.003906 7.644531 28.433594 7.828125 27.855469 7.988281 C 28.164062 8.199219 28.449219 8.300781 28.742188 8.351562 C 29.269531 8.441406 29.828125 8.414062 30.320312 8.589844 C 31.808594 9.125 33.375 8.945312 34.890625 9.179688 C 35.308594 9.238281 35.714844 9.382812 36.128906 9.484375 Z M 44.132812 43.042969 C 44.007812 42.734375 43.882812 42.429688 43.757812 42.121094 L 43.75 42.136719 C 43.949219 42.421875 44.152344 42.710938 44.433594 43.113281 C 44.421875 42.84375 44.421875 42.710938 44.410156 42.582031 C 44.148438 39.929688 43.890625 37.277344 43.625 34.625 C 43.46875 33.082031 43.382812 31.523438 43.113281 30 C 42.773438 28.070312 42.125 26.21875 41.390625 24.394531 C 40.359375 21.839844 38.890625 19.570312 37.105469 17.488281 C 36.992188 17.355469 36.808594 17.277344 36.664062 17.175781 C 36.675781 17.152344 36.6875 17.125 36.699219 17.101562 C 36.675781 17.097656 36.652344 17.09375 36.632812 17.09375 C 36.648438 17.117188 36.664062 17.140625 36.679688 17.167969 C 37.703125 19.503906 37.722656 22.097656 38.238281 23.316406 C 37.824219 21.425781 36.589844 18.566406 35.109375 15.636719 C 34.722656 17.304688 34.425781 18.8125 34.03125 20.296875 C 33.1875 23.464844 33.601562 26.457031 34.960938 29.425781 C 35.84375 31.34375 36.851562 33.183594 37.902344 35.007812 C 38.429688 35.921875 39.0625 36.78125 39.714844 37.617188 C 40.675781 38.84375 41.699219 40.023438 42.6875 41.226562 C 43.179688 41.824219 43.664062 42.429688 44.152344 43.035156 C 44.167969 43.070312 44.1875 43.109375 44.207031 43.144531 C 44.214844 43.132812 44.226562 43.117188 44.234375 43.105469 C 44.195312 43.085938 44.160156 43.0625 44.132812 43.042969 Z M 88.734375 40.253906 C 84.898438 38.417969 81.082031 36.582031 76.683594 36.402344 C 72.332031 36.226562 68.171875 36.988281 64.121094 38.515625 C 65.582031 38.546875 67.046875 38.503906 68.464844 39.046875 C 66.769531 39.125 65.078125 39.207031 63.257812 39.292969 C 63.429688 39.421875 63.488281 39.488281 63.558594 39.515625 C 65.363281 40.257812 67.144531 41.074219 68.988281 41.703125 C 69.964844 42.035156 71.058594 42.027344 72.09375 42.191406 C 74.347656 42.554688 76.601562 42.910156 78.890625 42.511719 C 80.800781 42.179688 82.710938 41.828125 84.609375 41.445312 C 85.71875 41.21875 86.8125 40.910156 87.910156 40.636719 C 87.910156 40.582031 87.910156 40.523438 87.90625 40.464844 C 84.730469 40.078125 81.554688 39.691406 78.375 39.304688 C 78.378906 39.257812 78.386719 39.210938 78.394531 39.167969 C 81.863281 39.28125 85.265625 40.023438 88.734375 40.253906 Z M 108.78125 54.398438 C 106.5 51.25 103.507812 49.367188 99.804688 48.550781 C 97.617188 48.070312 95.445312 47.972656 93.308594 48.792969 C 96.113281 48.957031 98.695312 49.890625 101.28125 50.808594 C 99.652344 50.402344 98.050781 49.828125 96.394531 49.609375 C 94.722656 49.390625 92.996094 49.398438 91.25 49.6875 C 92.066406 50.269531 92.816406 50.820312 93.582031 51.355469 C 95.3125 52.566406 97.132812 53.601562 99.296875 53.808594 C 101.417969 54.007812 103.546875 54.164062 105.675781 54.304688 C 106.667969 54.371094 107.664062 54.367188 108.78125 54.398438 Z M 108.78125 54.398438 " fill-opacity="1" fill-rule="nonzero"/></g></g></g></g><g clip-path="url(#ae5af2c7b5)"><g clip-path="url(#c4a68bdf10)"><g clip-path="url(#2257f9983d)"><g clip-path="url(#55296fa2c1)"><path fill="#000000" d="M 49.34375 33.679688 C 49.386719 33.753906 49.449219 33.820312 49.46875 33.902344 C 49.613281 34.519531 49.894531 35.015625 50.441406 35.402344 C 50.878906 35.707031 51.101562 36.222656 50.914062 36.765625 C 50.832031 36.996094 50.582031 37.265625 50.359375 37.320312 C 50.144531 37.375 49.792969 37.242188 49.625 37.074219 C 49.183594 36.628906 49.132812 36.035156 49.378906 35.496094 C 49.539062 35.152344 49.535156 34.886719 49.417969 34.554688 C 49.320312 34.28125 49.285156 33.988281 49.222656 33.707031 C 49.261719 33.695312 49.300781 33.6875 49.34375 33.679688 Z M 49.34375 33.679688 " fill-opacity="1" fill-rule="nonzero"/></g></g></g></g><g clip-path="url(#2901445526)"><g clip-path="url(#dd3166aabc)"><g clip-path="url(#37bcffb207)"><g clip-path="url(#8ac7cdb357)"><path fill="#000000" d="M 43.753906 42.121094 C 42.683594 39.8125 41.398438 36.359375 41.09375 33.898438 C 41.300781 34.425781 41.535156 34.941406 41.707031 35.476562 C 42.367188 37.539062 43.011719 39.613281 43.65625 41.679688 C 43.703125 41.824219 43.71875 41.984375 43.75 42.136719 C 43.746094 42.132812 43.753906 42.121094 43.753906 42.121094 Z M 43.753906 42.121094 " fill-opacity="1" fill-rule="nonzero"/></g></g></g></g><g clip-path="url(#0aa3697155)"><g clip-path="url(#1fe4a175b0)"><g clip-path="url(#0bfa34f67e)"><g clip-path="url(#120597e12a)"><path fill="#000000" d="M 40.304688 31.03125 C 40.207031 30.882812 40.0625 30.742188 40.019531 30.578125 C 39.625 29.097656 39.246094 27.609375 38.867188 26.121094 C 38.804688 25.886719 38.761719 25.644531 38.757812 25.394531 C 39.625 27.179688 39.613281 29.203125 40.300781 31.039062 C 40.304688 31.039062 40.304688 31.03125 40.304688 31.03125 Z M 40.304688 31.03125 " fill-opacity="1" fill-rule="nonzero"/></g></g></g></g><g clip-path="url(#8eaa0d7778)"><g clip-path="url(#6b68b690a6)"><g clip-path="url(#6dd63779dd)"><g clip-path="url(#e04c25ee5f)"><path fill="#000000" d="M 40.304688 31.039062 C 40.308594 31.121094 40.3125 31.207031 40.316406 31.289062 C 40.304688 31.289062 40.300781 31.289062 40.289062 31.289062 C 40.296875 31.207031 40.296875 31.121094 40.304688 31.03125 C 40.304688 31.03125 40.304688 31.039062 40.304688 31.039062 Z M 40.304688 31.039062 " fill-opacity="1" fill-rule="nonzero"/></g></g></g></g><g clip-path="url(#31ebb21d54)"><g clip-path="url(#d6438657d2)"><g clip-path="url(#0e24a13aff)"><g clip-path="url(#613df7a737)"><path fill="#000000" d="M 76.847656 39.164062 C 74.425781 39.160156 72.011719 39.148438 69.601562 39.140625 C 69.601562 39.0625 69.605469 38.980469 69.609375 38.898438 C 72.023438 38.84375 74.433594 38.792969 76.847656 39.164062 Z M 76.847656 39.164062 " fill-opacity="1" fill-rule="nonzero"/></g></g></g></g><g clip-path="url(#eb5286b4c9)"><g clip-path="url(#3a042f8215)"><g clip-path="url(#371faf29c4)"><g clip-path="url(#64a9fd6f45)"><path fill="#000000" d="M 46 10.574219 C 45.738281 10.601562 45.46875 10.675781 45.210938 10.644531 C 43.359375 10.4375 41.511719 10.214844 39.660156 9.988281 C 39.3125 9.945312 38.96875 9.847656 38.523438 9.757812 C 38.679688 9.699219 38.753906 9.644531 38.820312 9.652344 C 41.054688 9.949219 43.285156 10.25 45.515625 10.550781 C 45.675781 10.574219 45.835938 10.574219 45.996094 10.578125 C 45.996094 10.578125 46 10.574219 46 10.574219 Z M 46 10.574219 " fill-opacity="1" fill-rule="nonzero"/></g></g></g></g><g clip-path="url(#888d0bba91)"><g clip-path="url(#dec3ecd96d)"><g clip-path="url(#68d70d503e)"><g clip-path="url(#3fcb16e28f)"><path fill="#000000" d="M 36.128906 9.484375 C 36.496094 9.46875 36.863281 9.449219 37.230469 9.433594 C 37.230469 9.5 37.226562 9.570312 37.230469 9.636719 C 36.863281 9.585938 36.503906 9.53125 36.136719 9.480469 C 36.132812 9.484375 36.128906 9.484375 36.128906 9.484375 Z M 36.128906 9.484375 " fill-opacity="1" fill-rule="nonzero"/></g></g></g></g><g clip-path="url(#e18ae13b07)"><g clip-path="url(#c90fb281cf)"><g clip-path="url(#cae9ea6d60)"><g clip-path="url(#fc0ea54952)"><path fill="#000000" d="M 85.429688 60.511719 C 84.023438 59.078125 82.613281 57.644531 81.210938 56.207031 C 81.136719 56.136719 81.101562 56.03125 81.050781 55.941406 L 81.042969 55.957031 C 81.308594 56.183594 81.59375 56.386719 81.835938 56.636719 C 82.992188 57.835938 84.136719 59.039062 85.28125 60.25 C 85.347656 60.320312 85.371094 60.429688 85.414062 60.523438 Z M 85.429688 60.511719 " fill-opacity="1" fill-rule="nonzero"/></g></g></g></g><g clip-path="url(#b44085c203)"><g clip-path="url(#f7af022f02)"><g clip-path="url(#d5bc2696a6)"><g clip-path="url(#8661c13bfe)"><path fill="#000000" d="M 78.292969 52.695312 C 77.570312 51.816406 76.847656 50.945312 76.128906 50.066406 C 76.09375 50.023438 76.101562 49.941406 76.089844 49.878906 C 76.089844 49.878906 76.074219 49.890625 76.074219 49.890625 C 76.785156 50.734375 77.496094 51.578125 78.195312 52.425781 C 78.253906 52.496094 78.253906 52.613281 78.28125 52.707031 Z M 78.292969 52.695312 " fill-opacity="1" fill-rule="nonzero"/></g></g></g></g><g clip-path="url(#3d20e5bae5)"><g clip-path="url(#d31f96707e)"><g clip-path="url(#fd3fe5d3d3)"><g clip-path="url(#a967d48b1e)"><path fill="#000000" d="M 78.460938 52.75 C 78.867188 53.269531 79.277344 53.785156 79.683594 54.300781 L 79.695312 54.292969 C 79.289062 53.773438 78.882812 53.253906 78.476562 52.734375 C 78.472656 52.738281 78.460938 52.75 78.460938 52.75 Z M 78.460938 52.75 " fill-opacity="1" fill-rule="nonzero"/></g></g></g></g><g clip-path="url(#894d7f7237)"><g clip-path="url(#a85713be5b)"><g clip-path="url(#206bcb6a4b)"><g clip-path="url(#d790e6cc0c)"><path fill="#000000" d="M 79.683594 54.300781 C 79.839844 54.503906 79.992188 54.707031 80.148438 54.90625 C 80.148438 54.90625 80.160156 54.894531 80.160156 54.894531 C 80.003906 54.695312 79.847656 54.492188 79.695312 54.292969 C 79.695312 54.292969 79.683594 54.300781 79.683594 54.300781 Z M 79.683594 54.300781 " fill-opacity="1" fill-rule="nonzero"/></g></g></g></g><g clip-path="url(#49d08f67b3)"><g clip-path="url(#6343124290)"><g clip-path="url(#2f6014fcb4)"><g clip-path="url(#242e5313b7)"><path fill="#000000" d="M 80.464844 55.347656 C 80.363281 55.195312 80.261719 55.046875 80.160156 54.898438 C 80.160156 54.898438 80.148438 54.910156 80.148438 54.910156 C 80.25 55.0625 80.351562 55.210938 80.453125 55.363281 C 80.453125 55.359375 80.464844 55.347656 80.464844 55.347656 Z M 80.464844 55.347656 " fill-opacity="1" fill-rule="nonzero"/></g></g></g></g><g clip-path="url(#842d5bcb3e)"><g clip-path="url(#09432fea7e)"><g clip-path="url(#8ef4054218)"><g clip-path="url(#9a6d5c41ad)"><path fill="#000000" d="M 80.894531 55.875 C 80.855469 55.742188 80.816406 55.605469 80.777344 55.476562 C 80.773438 55.476562 80.765625 55.480469 80.765625 55.480469 C 80.804688 55.617188 80.839844 55.753906 80.878906 55.886719 C 80.882812 55.886719 80.894531 55.875 80.894531 55.875 Z M 80.894531 55.875 " fill-opacity="1" fill-rule="nonzero"/><path fill="#000000" d="M 80.453125 55.359375 C 80.507812 55.378906 80.558594 55.390625 80.609375 55.410156 L 80.617188 55.394531 C 80.566406 55.375 80.515625 55.363281 80.464844 55.347656 C 80.464844 55.347656 80.453125 55.359375 80.453125 55.359375 Z M 80.453125 55.359375 " fill-opacity="1" fill-rule="nonzero"/></g></g></g></g><g clip-path="url(#e01193780c)"><g clip-path="url(#b0c8e82e6a)"><g clip-path="url(#11a68cee2a)"><g clip-path="url(#e083df7780)"><path fill="#000000" d="M 76.089844 49.875 C 76.046875 49.847656 76 49.816406 75.960938 49.789062 C 75.960938 49.789062 75.949219 49.800781 75.949219 49.800781 C 75.988281 49.832031 76.03125 49.859375 76.074219 49.886719 C 76.074219 49.886719 76.089844 49.875 76.089844 49.875 Z M 76.089844 49.875 " fill-opacity="1" fill-rule="nonzero"/></g></g></g></g><g clip-path="url(#9ce95959e8)"><g clip-path="url(#ab036c4651)"><g clip-path="url(#6c251fc94a)"><g clip-path="url(#92d59ad52c)"><path fill="#000000" d="M 75.820312 49.710938 C 75.863281 49.742188 75.90625 49.773438 75.949219 49.800781 C 75.949219 49.800781 75.960938 49.789062 75.960938 49.785156 C 75.917969 49.757812 75.871094 49.726562 75.828125 49.699219 C 75.828125 49.703125 75.820312 49.710938 75.820312 49.710938 Z M 75.820312 49.710938 " fill-opacity="1" fill-rule="nonzero"/></g></g></g></g><g clip-path="url(#ddb4b53135)"><g clip-path="url(#f295f9cf35)"><g clip-path="url(#c7ddbce1ac)"><g clip-path="url(#91680b27ee)"><path fill="#000000" d="M 80.609375 55.410156 C 80.660156 55.433594 80.710938 55.460938 80.765625 55.484375 C 80.765625 55.480469 80.777344 55.476562 80.777344 55.476562 C 80.722656 55.449219 80.671875 55.421875 80.617188 55.394531 C 80.617188 55.394531 80.609375 55.410156 80.609375 55.410156 Z M 80.609375 55.410156 " fill-opacity="1" fill-rule="nonzero"/></g></g></g></g><g clip-path="url(#81c86d03f9)"><g clip-path="url(#1d244d93ab)"><g clip-path="url(#0e146606ea)"><g clip-path="url(#44d356f85e)"><path fill="#000000" d="M 81.050781 55.941406 C 81 55.917969 80.949219 55.898438 80.898438 55.875 C 80.894531 55.878906 80.882812 55.890625 80.878906 55.890625 C 80.933594 55.914062 80.988281 55.933594 81.042969 55.957031 C 81.042969 55.957031 81.050781 55.941406 81.050781 55.941406 Z M 81.050781 55.941406 " fill-opacity="1" fill-rule="nonzero"/></g></g></g></g><g clip-path="url(#eaecb5c906)"><g clip-path="url(#01ee1a234d)"><g clip-path="url(#d687e7a680)"><g clip-path="url(#3d156cd5f5)"><path fill="#000000" d="M 85.414062 60.523438 C 85.457031 60.550781 85.496094 60.582031 85.535156 60.609375 C 85.535156 60.609375 85.542969 60.59375 85.542969 60.59375 C 85.507812 60.566406 85.46875 60.539062 85.429688 60.507812 C 85.429688 60.511719 85.414062 60.523438 85.414062 60.523438 Z M 85.414062 60.523438 " fill-opacity="1" fill-rule="nonzero"/><path fill="#000000" d="M 85.535156 60.609375 C 85.59375 60.644531 85.65625 60.679688 85.714844 60.714844 L 85.710938 60.691406 C 85.65625 60.660156 85.601562 60.625 85.546875 60.59375 C 85.546875 60.597656 85.535156 60.609375 85.535156 60.609375 Z M 85.535156 60.609375 " fill-opacity="1" fill-rule="nonzero"/><path fill="#000000" d="M 85.714844 60.714844 C 85.707031 60.710938 85.695312 60.707031 85.683594 60.699219 C 85.6875 60.707031 85.691406 60.71875 85.691406 60.726562 C 85.699219 60.714844 85.703125 60.703125 85.707031 60.691406 C 85.710938 60.691406 85.714844 60.714844 85.714844 60.714844 Z M 85.714844 60.714844 " fill-opacity="1" fill-rule="nonzero"/></g></g></g></g><g clip-path="url(#4f231ae69d)"><g clip-path="url(#bbc65c5f12)"><g clip-path="url(#b32de39e16)"><g clip-path="url(#b5136f1c91)"><path fill="#000000" d="M 78.28125 52.703125 C 78.339844 52.71875 78.398438 52.738281 78.457031 52.75 C 78.460938 52.75 78.472656 52.734375 78.472656 52.734375 C 78.414062 52.71875 78.355469 52.707031 78.292969 52.691406 C 78.292969 52.695312 78.28125 52.703125 78.28125 52.703125 Z M 78.28125 52.703125 " fill-opacity="1" fill-rule="nonzero"/></g></g></g></g><g clip-path="url(#b0a2e40e1d)"><g clip-path="url(#cc49dc02dd)"><g clip-path="url(#f724f01379)"><g clip-path="url(#7bad18874d)"><path fill="#000000" d="M 105.625 52.742188 C 104.804688 52.425781 103.976562 52.121094 103.164062 51.789062 C 102.714844 51.605469 102.289062 51.378906 101.828125 51.164062 C 101.90625 51.101562 101.933594 51.058594 101.953125 51.0625 C 103.285156 51.386719 104.539062 51.878906 105.617188 52.75 C 105.617188 52.753906 105.625 52.742188 105.625 52.742188 Z M 105.625 52.742188 " fill-opacity="1" fill-rule="nonzero"/></g></g></g></g><g clip-path="url(#9ff898360c)"><g clip-path="url(#90719e49cd)"><g clip-path="url(#c64eb5b702)"><g clip-path="url(#fe333b4761)"><path fill="#000000" d="M 106.171875 53.070312 C 106.480469 53.105469 106.792969 53.144531 107.105469 53.179688 C 107.089844 53.246094 107.078125 53.308594 107.0625 53.375 C 106.769531 53.269531 106.476562 53.164062 106.183594 53.054688 C 106.183594 53.054688 106.171875 53.070312 106.171875 53.070312 Z M 106.171875 53.070312 " fill-opacity="1" fill-rule="nonzero"/></g></g></g></g><g clip-path="url(#1d99635106)"><g clip-path="url(#d43dbea005)"><g clip-path="url(#a49c468895)"><g clip-path="url(#0910c23c1d)"><path fill="#000000" d="M 105.882812 53.003906 C 105.796875 52.917969 105.714844 52.828125 105.625 52.742188 C 105.625 52.742188 105.617188 52.753906 105.617188 52.753906 C 105.707031 52.835938 105.792969 52.917969 105.882812 53.003906 C 105.882812 53 105.882812 53.003906 105.882812 53.003906 Z M 105.882812 53.003906 " fill-opacity="1" fill-rule="nonzero"/></g></g></g></g><g clip-path="url(#ec3ba15ffe)"><g clip-path="url(#4b5c010121)"><g clip-path="url(#50fc202239)"><g clip-path="url(#7f1cb8253c)"><path fill="#000000" d="M 105.882812 53 C 105.976562 53.027344 106.074219 53.046875 106.171875 53.070312 C 106.171875 53.070312 106.183594 53.054688 106.183594 53.054688 C 106.082031 53.039062 105.984375 53.019531 105.882812 53 C 105.882812 53.003906 105.882812 53 105.882812 53 Z M 105.882812 53 " fill-opacity="1" fill-rule="nonzero"/></g></g></g></g></g></g></g></svg>