<svg xmlns="http://www.w3.org/2000/svg" xmlns:xlink="http://www.w3.org/1999/xlink" width="105" zoomAndPan="magnify" viewBox="0 0 78.75 78.749998" height="105" preserveAspectRatio="xMidYMid meet" version="1.0"><defs><filter x="0%" y="0%" width="100%" height="100%" id="ae0d3afed5"><feColorMatrix values="0 0 0 0 1 0 0 0 0 1 0 0 0 0 1 0 0 0 1 0" color-interpolation-filters="sRGB"/></filter><g/><clipPath id="e3e757ec7c"><path d="M 19.359375 11.925781 L 59.859375 11.925781 L 59.859375 71.175781 L 19.359375 71.175781 Z M 19.359375 11.925781 " clip-rule="nonzero"/></clipPath><clipPath id="1976c3400f"><path d="M 20.816406 -9.507812 L 79.761719 5.1875 L 57.804688 93.242188 L -1.140625 78.546875 Z M 20.816406 -9.507812 " clip-rule="nonzero"/></clipPath><clipPath id="d7e02b03f1"><path d="M 38 46 L 42 46 L 42 48 L 38 48 Z M 38 46 " clip-rule="nonzero"/></clipPath><clipPath id="52035743b8"><path d="M 20.816406 -9.507812 L 79.761719 5.1875 L 57.804688 93.242188 L -1.140625 78.546875 Z M 20.816406 -9.507812 " clip-rule="nonzero"/></clipPath><clipPath id="ed1d559771"><path d="M 36 53 L 45 53 L 45 54 L 36 54 Z M 36 53 " clip-rule="nonzero"/></clipPath><clipPath id="e861a12f92"><path d="M 20.816406 -9.507812 L 79.761719 5.1875 L 57.804688 93.242188 L -1.140625 78.546875 Z M 20.816406 -9.507812 " clip-rule="nonzero"/></clipPath><clipPath id="1755d9be81"><path d="M 29 53 L 35 53 L 35 54 L 29 54 Z M 29 53 " clip-rule="nonzero"/></clipPath><clipPath id="b7fc4c813e"><path d="M 20.816406 -9.507812 L 79.761719 5.1875 L 57.804688 93.242188 L -1.140625 78.546875 Z M 20.816406 -9.507812 " clip-rule="nonzero"/></clipPath><clipPath id="0934aebe34"><path d="M 34 53 L 35 53 L 35 54 L 34 54 Z M 34 53 " clip-rule="nonzero"/></clipPath><clipPath id="c96d1dea21"><path d="M 20.816406 -9.507812 L 79.761719 5.1875 L 57.804688 93.242188 L -1.140625 78.546875 Z M 20.816406 -9.507812 " clip-rule="nonzero"/></clipPath><clipPath id="f62570d976"><path d="M 47 25 L 50 25 L 50 32 L 47 32 Z M 47 25 " clip-rule="nonzero"/></clipPath><clipPath id="3d8e4cf4f5"><path d="M 20.816406 -9.507812 L 79.761719 5.1875 L 57.804688 93.242188 L -1.140625 78.546875 Z M 20.816406 -9.507812 " clip-rule="nonzero"/></clipPath><clipPath id="7b3542ef8e"><path d="M 58 27 L 59.859375 27 L 59.859375 30 L 58 30 Z M 58 27 " clip-rule="nonzero"/></clipPath><clipPath id="7d297f9707"><path d="M 20.816406 -9.507812 L 79.761719 5.1875 L 57.804688 93.242188 L -1.140625 78.546875 Z M 20.816406 -9.507812 " clip-rule="nonzero"/></clipPath><clipPath id="22dc3c28cc"><path d="M 58 29 L 59 29 L 59 30 L 58 30 Z M 58 29 " clip-rule="nonzero"/></clipPath><clipPath id="1b626db6c1"><path d="M 20.816406 -9.507812 L 79.761719 5.1875 L 57.804688 93.242188 L -1.140625 78.546875 Z M 20.816406 -9.507812 " clip-rule="nonzero"/></clipPath><clipPath id="798a23381f"><path d="M 1 1 L 78.5 1 L 78.5 78.5 L 1 78.5 Z M 1 1 " clip-rule="nonzero"/></clipPath><mask id="0175179ddc"><g filter="url(#ae0d3afed5)"><rect x="-7.875" width="94.5" fill="#000000" y="-7.875" height="94.499998" fill-opacity="0.6784"/></g></mask><clipPath id="6a1b7a0096"><path d="M 0.570312 1.015625 L 77 1.015625 L 77 77.5 L 0.570312 77.5 Z M 0.570312 1.015625 " clip-rule="nonzero"/></clipPath><clipPath id="1a438e1325"><rect x="0" width="78" y="0" height="78"/></clipPath></defs><g clip-path="url(#e3e757ec7c)"><g clip-path="url(#1976c3400f)"><path fill="#3d4550" d="M 30.089844 48.777344 C 31.785156 48.339844 33.472656 47.875 35.175781 47.476562 C 35.964844 47.289062 36.789062 47.234375 37.59375 47.121094 C 37.601562 47.15625 37.613281 47.195312 37.621094 47.230469 C 37.183594 47.332031 36.757812 47.453125 36.316406 47.539062 C 33.878906 47.996094 31.429688 48.40625 29.164062 49.507812 C 28.371094 49.890625 27.59375 50.296875 26.816406 50.703125 C 26.660156 50.785156 26.527344 50.90625 26.324219 51.050781 C 27.242188 50.933594 28.070312 50.820312 28.902344 50.722656 C 31.09375 50.464844 33.273438 50.476562 35.445312 50.894531 C 36.765625 51.148438 38.078125 51.421875 39.398438 51.679688 C 41.488281 52.082031 43.582031 52.484375 45.675781 52.875 C 45.96875 52.929688 46.28125 52.886719 46.578125 52.945312 C 46.742188 52.972656 46.882812 53.117188 47.035156 53.207031 C 46.917969 53.324219 46.820312 53.496094 46.675781 53.550781 C 45.054688 54.179688 43.421875 54.785156 41.792969 55.410156 C 41.226562 55.625 40.683594 55.902344 40.113281 56.101562 C 39.03125 56.476562 37.953125 56.898438 36.84375 57.160156 C 35.019531 57.589844 33.179688 57.945312 31.332031 58.265625 C 28.945312 58.675781 26.640625 58.445312 24.5 57.183594 C 23.183594 56.410156 21.839844 55.691406 20.492188 54.976562 C 20.3125 54.878906 20.027344 54.875 19.835938 54.941406 C 17.550781 55.730469 15.65625 57.183594 13.785156 58.664062 C 12.738281 59.488281 11.660156 60.292969 10.6875 61.207031 C 9.597656 62.234375 8.597656 63.359375 7.589844 64.46875 C 6.960938 65.167969 6.386719 65.917969 5.785156 66.636719 C 4.464844 68.222656 3.613281 70.0625 2.796875 71.941406 C 2.140625 73.449219 1.554688 74.972656 1.085938 76.554688 C 0.898438 77.191406 0.488281 77.777344 0.117188 78.347656 C -0.00390625 78.53125 -0.339844 78.726562 -0.527344 78.683594 C -0.871094 78.605469 -0.796875 78.234375 -0.769531 77.945312 C -0.625 76.597656 -0.21875 75.339844 0.371094 74.121094 C 0.917969 73 1.324219 71.808594 1.914062 70.714844 C 2.496094 69.632812 3.164062 68.582031 3.917969 67.621094 C 5.300781 65.847656 6.714844 64.09375 8.230469 62.441406 C 9.269531 61.304688 10.5 60.347656 11.648438 59.3125 C 11.761719 59.210938 11.886719 59.132812 12 59.042969 C 11.671875 57.414062 11.914062 55.824219 12.140625 54.226562 C 12.625 50.824219 14.136719 47.832031 15.742188 44.867188 C 16.523438 43.429688 17.476562 42.128906 18.539062 40.886719 C 19.863281 39.332031 21.226562 37.828125 22.789062 36.515625 C 22.867188 36.445312 22.9375 36.351562 23.03125 36.3125 C 23.132812 36.273438 23.304688 36.238281 23.351562 36.289062 C 23.425781 36.367188 23.480469 36.550781 23.4375 36.640625 C 22.613281 38.347656 22.382812 40.226562 21.875 42.023438 C 21.53125 43.253906 21.230469 44.496094 20.945312 45.742188 C 20.339844 48.355469 19.195312 50.726562 17.847656 53.019531 C 17.449219 53.695312 17.085938 54.394531 16.777344 55.167969 C 17.496094 54.710938 18.234375 54.285156 18.925781 53.785156 C 21.152344 52.1875 22.851562 50.070312 24.359375 47.824219 C 25.308594 46.410156 26.027344 44.828125 26.742188 43.273438 C 27.019531 42.675781 26.992188 41.941406 27.128906 41.273438 C 27.203125 40.90625 27.269531 40.515625 27.457031 40.203125 C 27.554688 40.035156 27.953125 39.894531 28.128906 39.96875 C 28.300781 40.035156 28.476562 40.394531 28.453125 40.609375 C 28.402344 41.214844 27.984375 41.640625 27.566406 42.042969 C 27.492188 42.109375 27.390625 42.164062 27.347656 42.246094 C 26.691406 43.628906 25.917969 44.972656 25.421875 46.414062 C 24.703125 48.519531 23.335938 50.171875 22.054688 51.902344 C 21.960938 52.03125 21.894531 52.183594 21.8125 52.324219 C 21.792969 52.328125 21.773438 52.328125 21.753906 52.332031 C 21.765625 52.335938 21.777344 52.347656 21.78125 52.34375 C 21.792969 52.335938 21.800781 52.320312 21.804688 52.3125 C 23.605469 51.3125 25.40625 50.316406 27.199219 49.3125 C 28.21875 48.742188 29.234375 48.167969 30.246094 47.582031 C 31.476562 46.867188 32.695312 46.132812 33.925781 45.414062 C 34.972656 44.804688 36.035156 44.214844 37.082031 43.605469 C 39.113281 42.425781 41.15625 41.265625 43.15625 40.039062 C 43.980469 39.53125 44.714844 38.882812 45.46875 38.269531 C 45.59375 38.167969 45.652344 37.925781 45.652344 37.746094 C 45.636719 36.378906 45.59375 35.011719 45.570312 33.644531 C 45.503906 29.941406 46.277344 26.394531 47.902344 23.089844 C 48.648438 21.570312 49.789062 20.234375 50.804688 18.851562 C 51.351562 18.109375 51.996094 17.433594 52.621094 16.753906 C 52.980469 16.367188 53.390625 16.023438 53.796875 15.683594 C 53.890625 15.601562 54.101562 15.558594 54.199219 15.609375 C 54.292969 15.660156 54.363281 15.863281 54.351562 15.992188 C 54.191406 18.417969 54.082031 20.847656 53.816406 23.265625 C 53.660156 24.691406 53.425781 26.15625 52.929688 27.492188 C 52.136719 29.625 51.128906 31.675781 50.152344 33.734375 C 49.886719 34.300781 49.417969 34.769531 49.042969 35.28125 C 49.003906 35.351562 48.96875 35.425781 48.933594 35.496094 C 48.921875 35.488281 48.914062 35.480469 48.90625 35.46875 C 48.914062 35.46875 48.925781 35.472656 48.933594 35.472656 C 48.925781 35.480469 48.921875 35.492188 48.910156 35.5 C 48.953125 35.425781 48.992188 35.347656 49.035156 35.273438 C 49.570312 34.890625 50.113281 34.519531 50.640625 34.121094 C 51.050781 33.8125 51.433594 33.460938 51.832031 33.140625 C 52.644531 32.488281 52.90625 31.5 53.363281 30.632812 C 54.398438 28.675781 54.652344 26.496094 55.117188 24.375 C 55.167969 24.15625 55.207031 23.925781 55.292969 23.71875 C 55.464844 23.324219 55.570312 22.964844 55.476562 22.5 C 55.417969 22.207031 55.664062 21.835938 55.820312 21.523438 C 55.863281 21.445312 56.101562 21.40625 56.21875 21.445312 C 56.3125 21.476562 56.421875 21.65625 56.414062 21.761719 C 56.390625 22.027344 56.375 22.332031 56.238281 22.542969 C 55.5 23.671875 55.238281 24.941406 55.039062 26.238281 C 54.777344 27.921875 54.488281 29.605469 53.71875 31.171875 C 54.230469 30.507812 54.761719 29.859375 55.246094 29.179688 C 56.777344 27.027344 57.945312 24.683594 59.03125 22.277344 C 59.855469 20.453125 60.542969 18.59375 61.085938 16.675781 C 61.183594 16.316406 61.246094 15.914062 61.195312 15.550781 C 61.027344 14.425781 60.867188 13.285156 60.234375 12.300781 C 60.128906 12.140625 59.941406 12.027344 59.789062 11.898438 C 59.6875 11.8125 59.527344 11.765625 59.476562 11.65625 C 59.394531 11.492188 59.363281 11.292969 59.351562 11.105469 C 59.351562 11.054688 59.546875 10.929688 59.578125 10.953125 C 59.71875 11.046875 59.871094 11.164062 59.949219 11.308594 C 60.347656 12.050781 60.722656 12.804688 61.164062 13.667969 C 61.183594 13.4375 61.199219 13.332031 61.195312 13.222656 C 61.125 11.964844 61.074219 10.703125 60.972656 9.445312 C 60.878906 8.25 60.824219 7.042969 60.585938 5.875 C 60.367188 4.816406 59.964844 3.785156 59.558594 2.777344 C 59.433594 2.464844 59.019531 2.273438 58.746094 2.015625 C 58.554688 1.828125 58.347656 1.644531 58.203125 1.417969 C 58.132812 1.308594 58.144531 1.046875 58.222656 0.972656 C 58.332031 0.871094 58.609375 0.800781 58.699219 0.871094 C 58.941406 1.050781 59.203125 1.28125 59.320312 1.550781 C 60.097656 3.347656 60.839844 5.144531 61.070312 7.132812 C 61.226562 8.511719 61.566406 9.867188 61.816406 11.179688 C 61.878906 11.03125 61.984375 10.777344 62.09375 10.527344 C 63.488281 7.398438 65.613281 4.96875 68.757812 3.542969 C 69.28125 3.304688 69.84375 3.152344 70.398438 3 C 70.6875 2.921875 70.84375 3.082031 70.730469 3.390625 C 69.929688 5.640625 69.144531 7.894531 68.3125 10.128906 C 67.429688 12.515625 65.890625 14.390625 63.824219 15.84375 C 63.277344 16.222656 62.742188 16.636719 62.285156 17.117188 C 61.945312 17.476562 61.683594 17.945312 61.488281 18.410156 C 60.589844 20.535156 59.726562 22.679688 58.847656 24.8125 C 58.804688 24.925781 58.75 25.03125 58.757812 25.179688 C 58.972656 24.929688 59.195312 24.6875 59.40625 24.433594 C 60.78125 22.753906 62.332031 21.269531 64.179688 20.113281 C 65.207031 19.476562 66.234375 18.832031 67.214844 18.125 C 67.566406 17.871094 67.789062 17.4375 68.070312 17.082031 C 68.246094 16.855469 68.398438 16.601562 68.605469 16.410156 C 68.855469 16.179688 69.214844 16.148438 69.417969 16.410156 C 69.542969 16.574219 69.550781 16.941406 69.457031 17.144531 C 69.195312 17.730469 68.574219 17.824219 68.058594 18.066406 C 67.230469 18.457031 66.382812 18.820312 65.613281 19.316406 C 63.261719 20.839844 61.339844 22.835938 59.589844 25.015625 C 59.105469 25.617188 58.554688 26.160156 58.035156 26.734375 C 57.988281 26.8125 57.941406 26.890625 57.898438 26.96875 C 57.902344 26.972656 57.902344 26.976562 57.902344 26.984375 C 57.90625 26.976562 57.90625 26.96875 57.910156 26.960938 C 57.953125 26.882812 57.992188 26.804688 58.035156 26.722656 C 58.164062 26.691406 58.308594 26.6875 58.414062 26.621094 C 59.574219 25.902344 60.6875 25.089844 61.898438 24.472656 C 63.132812 23.847656 64.441406 23.316406 65.765625 22.914062 C 68.03125 22.230469 70.355469 21.832031 72.734375 21.871094 C 73.550781 21.886719 74.367188 21.839844 75.183594 21.839844 C 75.304688 21.839844 75.425781 21.953125 75.546875 22.015625 C 75.480469 22.121094 75.4375 22.277344 75.339844 22.324219 C 73.46875 23.234375 71.929688 24.632812 70.25 25.824219 C 69.472656 26.378906 68.746094 27.007812 68.003906 27.609375 C 65.734375 29.449219 63.191406 30.71875 60.320312 31.234375 C 58.835938 31.503906 57.328125 31.640625 55.824219 31.792969 C 54.640625 31.917969 53.691406 32.464844 52.851562 33.289062 C 52.3125 33.820312 51.730469 34.308594 51.144531 34.789062 C 49.679688 35.996094 48.207031 37.183594 46.726562 38.375 C 46.160156 38.832031 45.621094 39.332031 45.007812 39.71875 C 42.34375 41.40625 39.679688 43.09375 36.976562 44.71875 C 34.8125 46.019531 32.59375 47.226562 30.402344 48.484375 C 30.289062 48.550781 30.207031 48.679688 30.109375 48.777344 C 30.105469 48.769531 30.097656 48.765625 30.089844 48.757812 C 30.09375 48.757812 30.101562 48.757812 30.105469 48.757812 C 30.101562 48.761719 30.097656 48.765625 30.089844 48.777344 Z M 68.789062 17.203125 C 68.78125 17.214844 68.769531 17.230469 68.761719 17.246094 C 68.765625 17.234375 68.765625 17.222656 68.769531 17.210938 C 68.769531 17.214844 68.773438 17.222656 68.773438 17.226562 C 68.78125 17.214844 68.785156 17.210938 68.789062 17.203125 Z M 54.890625 31.011719 C 55.160156 30.824219 55.414062 30.601562 55.703125 30.457031 C 56.527344 30.046875 57.367188 29.675781 58.203125 29.285156 L 58.195312 29.277344 C 58.015625 29.40625 57.839844 29.539062 57.65625 29.660156 C 56.925781 30.148438 56.191406 30.632812 55.460938 31.117188 C 56.609375 31.085938 57.699219 30.910156 58.792969 30.828125 C 61.777344 30.613281 64.445312 29.519531 66.863281 27.824219 C 69.136719 26.230469 71.3125 24.507812 73.53125 22.835938 C 73.582031 22.796875 73.601562 22.722656 73.636719 22.667969 L 73.671875 22.671875 C 73.671875 22.671875 73.648438 22.660156 73.648438 22.660156 C 72.589844 22.941406 71.535156 23.230469 70.488281 23.507812 C 71.4375 22.996094 72.429688 22.5625 73.519531 22.390625 C 73.515625 22.386719 73.511719 22.378906 73.503906 22.371094 C 73.507812 22.382812 73.507812 22.394531 73.507812 22.40625 C 73.394531 22.375 73.277344 22.316406 73.164062 22.3125 C 70.371094 22.269531 67.671875 22.773438 65.023438 23.660156 C 63.195312 24.273438 61.558594 25.226562 59.910156 26.199219 C 57.9375 27.359375 56.332031 28.890625 55.003906 30.738281 C 54.945312 30.816406 54.925781 30.925781 54.886719 31.019531 C 54.875 31.015625 54.859375 31.015625 54.84375 31.011719 C 54.863281 31.015625 54.875 31.011719 54.890625 31.011719 Z M 15.523438 51.855469 L 15.523438 51.847656 C 15.492188 51.882812 15.445312 51.910156 15.433594 51.945312 C 15.113281 52.828125 14.804688 53.714844 14.476562 54.59375 C 14.351562 54.933594 14.191406 55.261719 14.042969 55.597656 C 13.613281 56.554688 13.183594 57.511719 12.753906 58.46875 C 13.554688 57.898438 14.382812 57.328125 14.996094 56.578125 C 15.816406 55.570312 16.492188 54.445312 17.183594 53.339844 C 18.914062 50.585938 20.074219 47.597656 20.765625 44.414062 C 21.1875 42.464844 21.734375 40.546875 22.222656 38.617188 C 22.292969 38.347656 22.355469 38.082031 22.421875 37.816406 C 22.265625 37.929688 22.144531 38.0625 22.058594 38.214844 C 21.238281 39.703125 20.421875 41.195312 19.605469 42.683594 C 19.355469 43.140625 19.097656 43.59375 18.84375 44.046875 C 18.84375 44.046875 18.84375 44.050781 18.84375 44.050781 C 18.886719 43.972656 18.9375 43.898438 18.976562 43.816406 C 19.425781 42.894531 19.851562 41.960938 20.328125 41.050781 C 20.886719 39.996094 21.488281 38.964844 22.074219 37.921875 C 21.898438 37.980469 21.78125 38.074219 21.671875 38.175781 C 18.957031 40.863281 16.679688 43.847656 14.976562 47.308594 C 13.503906 50.304688 12.558594 53.402344 12.300781 56.71875 C 12.261719 57.226562 12.273438 57.742188 12.261719 58.253906 C 12.511719 58.054688 12.664062 57.84375 12.78125 57.617188 C 12.984375 57.207031 13.097656 56.742188 13.363281 56.386719 C 14.167969 55.300781 14.402344 53.972656 14.96875 52.789062 C 15.121094 52.464844 15.335938 52.164062 15.523438 51.855469 Z M 44.953125 53.5625 C 44.671875 53.589844 44.386719 53.617188 44.109375 53.644531 L 44.117188 53.652344 C 44.402344 53.558594 44.6875 53.464844 45.085938 53.332031 C 44.859375 53.277344 44.753906 53.246094 44.640625 53.222656 C 42.40625 52.785156 40.175781 52.34375 37.9375 51.910156 C 36.636719 51.65625 35.339844 51.34375 34.027344 51.1875 C 32.367188 50.992188 30.691406 51.066406 29.015625 51.21875 C 26.671875 51.433594 24.457031 52.078125 22.3125 53.023438 C 22.175781 53.085938 22.066406 53.214844 21.949219 53.308594 C 21.929688 53.292969 21.910156 53.277344 21.894531 53.261719 C 21.886719 53.28125 21.878906 53.296875 21.875 53.3125 C 21.898438 53.308594 21.921875 53.300781 21.945312 53.292969 C 24.109375 53.027344 26.234375 53.652344 27.359375 53.53125 C 25.710938 53.40625 23.066406 53.710938 20.304688 54.203125 C 21.574219 54.925781 22.738281 55.542969 23.855469 56.230469 C 26.242188 57.699219 28.789062 58.09375 31.554688 57.714844 C 33.339844 57.464844 35.09375 57.09375 36.84375 56.683594 C 37.722656 56.476562 38.582031 56.167969 39.425781 55.839844 C 40.667969 55.355469 41.882812 54.8125 43.113281 54.296875 C 43.722656 54.042969 44.335938 53.796875 44.949219 53.546875 C 44.984375 53.539062 45.019531 53.535156 45.054688 53.527344 C 45.046875 53.515625 45.039062 53.507812 45.03125 53.496094 C 45.003906 53.523438 44.976562 53.542969 44.953125 53.5625 Z M 53.640625 16.398438 C 51.191406 19.082031 48.753906 21.75 47.523438 25.304688 C 46.3125 28.820312 45.910156 32.414062 46.164062 36.101562 C 46.550781 34.914062 46.875 33.703125 47.664062 32.679688 C 47.316406 34.085938 46.964844 35.488281 46.589844 36.996094 C 46.734375 36.890625 46.804688 36.855469 46.84375 36.804688 C 47.894531 35.511719 49 34.257812 49.96875 32.902344 C 50.480469 32.1875 50.742188 31.292969 51.132812 30.484375 C 51.980469 28.730469 52.828125 26.972656 53.066406 25.003906 C 53.265625 23.359375 53.449219 21.710938 53.601562 20.0625 C 53.6875 19.101562 53.703125 18.128906 53.75 17.164062 C 53.703125 17.152344 53.65625 17.140625 53.609375 17.125 C 52.511719 19.628906 51.414062 22.128906 50.3125 24.636719 C 50.277344 24.621094 50.242188 24.601562 50.207031 24.589844 C 51.152344 21.777344 52.597656 19.175781 53.640625 16.398438 Z M 70.144531 3.480469 C 67.007812 4.574219 64.730469 6.558594 63.152344 9.386719 C 62.222656 11.054688 61.605469 12.808594 61.75 14.757812 C 62.574219 12.503906 63.972656 10.621094 65.363281 8.730469 C 64.628906 9.964844 63.765625 11.132812 63.179688 12.433594 C 62.589844 13.75 62.167969 15.160156 61.980469 16.660156 C 62.65625 16.136719 63.292969 15.65625 63.917969 15.164062 C 65.332031 14.042969 66.628906 12.8125 67.328125 11.09375 C 68.015625 9.40625 68.664062 7.703125 69.304688 6 C 69.605469 5.203125 69.84375 4.386719 70.144531 3.480469 Z M 70.144531 3.480469 " fill-opacity="1" fill-rule="nonzero"/></g></g><g clip-path="url(#d7e02b03f1)"><g clip-path="url(#52035743b8)"><path fill="#3d4550" d="M 38.570312 46.996094 C 38.644531 46.980469 38.714844 46.945312 38.785156 46.949219 C 39.324219 46.984375 39.800781 46.875 40.25 46.523438 C 40.609375 46.238281 41.085938 46.1875 41.480469 46.472656 C 41.652344 46.59375 41.8125 46.867188 41.800781 47.0625 C 41.792969 47.25 41.597656 47.507812 41.417969 47.601562 C 40.949219 47.855469 40.445312 47.75 40.070312 47.417969 C 39.824219 47.199219 39.605469 47.136719 39.308594 47.152344 C 39.058594 47.164062 38.8125 47.121094 38.566406 47.105469 C 38.566406 47.070312 38.566406 47.035156 38.570312 46.996094 Z M 38.570312 46.996094 " fill-opacity="1" fill-rule="nonzero"/></g></g><g clip-path="url(#ed1d559771)"><g clip-path="url(#e861a12f92)"><path fill="#3d4550" d="M 44.105469 53.644531 C 41.953125 53.953125 38.8125 54.15625 36.722656 53.796875 C 37.203125 53.757812 37.683594 53.695312 38.164062 53.683594 C 40.015625 53.652344 41.867188 53.636719 43.71875 53.617188 C 43.851562 53.617188 43.984375 53.640625 44.117188 53.652344 C 44.113281 53.65625 44.105469 53.644531 44.105469 53.644531 Z M 44.105469 53.644531 " fill-opacity="1" fill-rule="nonzero"/></g></g><g clip-path="url(#1755d9be81)"><g clip-path="url(#b7fc4c813e)"><path fill="#3d4550" d="M 34.183594 53.738281 C 34.035156 53.78125 33.886719 53.867188 33.742188 53.863281 C 32.429688 53.820312 31.121094 53.765625 29.8125 53.707031 C 29.601562 53.699219 29.394531 53.675781 29.1875 53.621094 C 30.863281 53.347656 32.515625 53.855469 34.1875 53.742188 C 34.1875 53.742188 34.183594 53.738281 34.183594 53.738281 Z M 34.183594 53.738281 " fill-opacity="1" fill-rule="nonzero"/></g></g><g clip-path="url(#0934aebe34)"><g clip-path="url(#c96d1dea21)"><path fill="#3d4550" d="M 34.1875 53.742188 C 34.257812 53.757812 34.328125 53.777344 34.394531 53.792969 C 34.394531 53.800781 34.390625 53.808594 34.390625 53.816406 C 34.324219 53.789062 34.253906 53.765625 34.183594 53.738281 C 34.183594 53.738281 34.1875 53.742188 34.1875 53.742188 Z M 34.1875 53.742188 " fill-opacity="1" fill-rule="nonzero"/></g></g><g clip-path="url(#f62570d976)"><g clip-path="url(#3d8e4cf4f5)"><path fill="#3d4550" d="M 49.824219 25.851562 C 49.222656 27.832031 48.625 29.800781 48.023438 31.773438 C 47.957031 31.75 47.894531 31.730469 47.828125 31.707031 C 48.375 29.71875 48.929688 27.734375 49.824219 25.851562 Z M 49.824219 25.851562 " fill-opacity="1" fill-rule="nonzero"/></g></g><g clip-path="url(#7b3542ef8e)"><g clip-path="url(#7d297f9707)"><path fill="#3d4550" d="M 61.25 27.996094 C 60.355469 28.371094 59.464844 28.75 58.570312 29.121094 C 58.523438 29.140625 58.460938 29.113281 58.40625 29.109375 C 58.40625 29.109375 58.414062 29.121094 58.414062 29.121094 C 59.277344 28.75 60.140625 28.375 61.007812 28.011719 C 61.078125 27.980469 61.175781 28.011719 61.261719 28.011719 Z M 61.25 27.996094 " fill-opacity="1" fill-rule="nonzero"/></g></g><g clip-path="url(#22dc3c28cc)"><g clip-path="url(#1b626db6c1)"><path fill="#3d4550" d="M 58.402344 29.105469 C 58.371094 29.132812 58.335938 29.164062 58.300781 29.191406 C 58.300781 29.191406 58.308594 29.203125 58.308594 29.203125 C 58.34375 29.175781 58.375 29.148438 58.410156 29.121094 C 58.410156 29.121094 58.402344 29.105469 58.402344 29.105469 Z M 58.402344 29.105469 " fill-opacity="1" fill-rule="nonzero"/><path fill="#3d4550" d="M 58.203125 29.285156 C 58.238281 29.257812 58.273438 29.230469 58.308594 29.203125 C 58.308594 29.203125 58.300781 29.191406 58.296875 29.191406 C 58.265625 29.21875 58.230469 29.25 58.195312 29.277344 C 58.195312 29.277344 58.203125 29.285156 58.203125 29.285156 Z M 58.203125 29.285156 " fill-opacity="1" fill-rule="nonzero"/></g></g><g clip-path="url(#798a23381f)"><g mask="url(#0175179ddc)"><g transform="matrix(1, 0, 0, 1, 1, 1)"><g clip-path="url(#1a438e1325)"><g clip-path="url(#6a1b7a0096)"><path fill="#211d1e" d="M 37.550781 77.460938 C 36.734375 77.378906 35.925781 77.269531 35.117188 77.125 C 34.46875 77.140625 33.816406 77.09375 33.183594 76.921875 C 32.238281 76.667969 31.25 76.597656 30.324219 76.289062 C 29.738281 76.230469 29.136719 76.265625 28.570312 76.054688 C 27.472656 75.699219 26.28125 75.617188 25.253906 75.066406 C 24.878906 74.6875 24.492188 74.425781 23.949219 74.453125 C 23.359375 74.164062 22.691406 74.085938 22.117188 73.753906 C 21.613281 73.558594 21.261719 73.125 20.746094 72.964844 C 20.175781 72.617188 19.558594 72.359375 19 71.992188 C 18.457031 71.527344 17.703125 71.410156 17.183594 70.917969 C 16.378906 70.382812 15.617188 69.777344 14.957031 69.074219 C 14.378906 68.765625 14.3125 68.050781 13.757812 67.765625 C 13.210938 67.675781 12.882812 67.175781 12.542969 66.808594 C 11.976562 66.820312 11.824219 66.144531 11.40625 65.84375 C 10.867188 65.296875 10.429688 64.644531 9.824219 64.167969 C 9.339844 63.902344 9.121094 63.328125 8.738281 62.941406 C 8.226562 62.316406 7.554688 61.804688 7.195312 61.070312 C 6.78125 60.730469 6.675781 60.1875 6.351562 59.800781 C 6.113281 59.3125 5.6875 58.863281 5.582031 58.347656 C 5.289062 57.878906 5.140625 57.328125 4.84375 56.84375 C 4.773438 56.257812 4.160156 56.015625 4.03125 55.4375 C 3.734375 54.8125 3.382812 54.210938 3.226562 53.53125 C 3 52.960938 2.945312 52.316406 2.675781 51.78125 C 2.429688 51.359375 2.53125 50.710938 2.214844 50.414062 C 2.613281 50.171875 1.707031 49.621094 2.015625 49.214844 C 2.132812 49.164062 2.804688 49.148438 2.363281 49.132812 C 1.769531 49.195312 1.644531 48.484375 1.71875 48.039062 C 1.746094 47.574219 1.121094 47.441406 1.273438 46.890625 C 1.132812 46.425781 0.996094 45.941406 1.121094 45.492188 C 0.617188 45.304688 1.210938 44.59375 0.921875 44.28125 C 0.835938 43.957031 1.234375 43.695312 1 43.324219 C 0.886719 42.90625 0.742188 42.429688 0.847656 41.917969 C 0.800781 41.472656 1.210938 41.03125 0.726562 40.808594 C 0.921875 40.285156 0.570312 39.6875 0.867188 39.195312 C 1.039062 38.652344 0.722656 38.070312 0.820312 37.492188 C 0.84375 36.214844 0.644531 34.902344 1.023438 33.667969 C 0.789062 33.28125 1.0625 33.054688 1.433594 33.039062 C 1.328125 32.929688 0.738281 32.90625 0.972656 32.480469 C 1.132812 32.226562 1.539062 32.203125 1.164062 31.890625 C 0.800781 31.476562 1.390625 31.226562 1.15625 30.742188 C 1.25 30.230469 1.226562 29.699219 1.445312 29.191406 C 1.367188 28.683594 2.234375 28.964844 2.164062 28.644531 C 1.730469 28.839844 1.503906 28.601562 1.730469 28.183594 C 1.664062 27.617188 2.171875 27.242188 2.25 26.6875 C 2.445312 26.125 2.730469 25.621094 2.988281 25.09375 C 3.207031 24.652344 3.273438 24.160156 3.542969 23.746094 C 3.773438 23.292969 4.027344 22.851562 4.21875 22.371094 C 4.40625 21.757812 5 21.363281 5.121094 20.714844 C 5.289062 20.210938 5.675781 19.804688 5.894531 19.328125 C 6.0625 18.796875 6.554688 18.363281 6.863281 17.898438 C 7.222656 17.441406 7.390625 16.855469 7.804688 16.433594 C 7.8125 16.152344 8.542969 16.394531 8.128906 16.085938 C 7.984375 15.53125 8.875 15.472656 8.960938 15.136719 C 8.941406 14.632812 9.636719 14.3125 9.917969 13.90625 C 10.335938 13.484375 10.601562 12.945312 11.089844 12.585938 C 11.40625 12.265625 11.78125 12.085938 11.882812 11.617188 C 12.089844 11.367188 12.84375 11.613281 12.824219 11.371094 C 12.171875 11.25 13.21875 10.90625 13.261719 10.570312 C 13.730469 10.152344 14.40625 10.011719 14.820312 9.492188 C 15.332031 9.191406 15.714844 8.738281 16.171875 8.363281 C 16.585938 8.011719 17.128906 7.789062 17.484375 7.382812 C 17.6875 6.914062 18.546875 7.0625 18.621094 6.464844 C 18.972656 6.128906 19.554688 6.320312 19.730469 5.878906 C 20.304688 5.785156 20.613281 5.183594 21.167969 5.09375 C 21.726562 4.753906 22.398438 4.640625 22.902344 4.1875 C 23.402344 3.757812 24.152344 3.84375 24.726562 3.523438 C 24.980469 3.433594 25.242188 3.335938 24.9375 3.160156 C 25.160156 2.847656 25.578125 3.53125 25.832031 3.125 C 26.089844 3.238281 26.492188 2.859375 26.5625 2.964844 C 26.800781 3.070312 26.917969 2.402344 27.3125 2.664062 C 27.808594 2.621094 28.304688 2.472656 28.800781 2.421875 C 28.769531 2.066406 29.351562 2.070312 29.578125 2.003906 C 29.828125 2.203125 30.53125 2.253906 30.085938 1.886719 C 30.5 1.550781 31.109375 1.730469 31.609375 1.679688 C 32.648438 1.578125 33.671875 1.347656 34.691406 1.144531 C 35.660156 1.035156 36.644531 1.089844 37.621094 1.066406 C 39.757812 1.082031 41.902344 1.050781 44.039062 1.140625 C 44.511719 1.339844 44.972656 1.289062 45.492188 1.304688 C 46.171875 1.328125 46.839844 1.480469 47.523438 1.484375 C 48.039062 1.640625 48.570312 1.636719 49.0625 1.863281 C 49.480469 2.015625 50.195312 2.0625 50.050781 2.527344 C 50.503906 2.0625 51.199219 2.53125 51.71875 2.6875 C 52.257812 2.800781 52.753906 3.042969 53.261719 3.257812 C 53.941406 3.40625 54.496094 3.839844 55.109375 4.140625 C 55.464844 4.578125 56.082031 4.597656 56.445312 5.019531 C 56.652344 5.191406 56.722656 5.574219 56.90625 5.15625 C 57.382812 5.40625 57.867188 5.761719 58.386719 5.996094 C 58.980469 6.335938 59.582031 6.671875 60.058594 7.167969 C 60.578125 7.621094 61.226562 7.871094 61.734375 8.339844 C 62.140625 8.734375 62.703125 8.929688 63.042969 9.382812 C 63.550781 9.667969 63.984375 10.0625 64.441406 10.417969 C 65.023438 10.671875 65.207031 11.378906 65.660156 11.765625 C 66.257812 11.949219 66.519531 12.476562 67.015625 12.78125 C 67.679688 13.1875 68.058594 13.90625 68.597656 14.453125 C 68.78125 14.738281 69.617188 15.472656 68.90625 15.582031 C 69.183594 15.742188 69.507812 15.40625 69.742188 15.832031 C 70.371094 16.378906 70.570312 17.222656 71.125 17.824219 C 71.351562 18.132812 71.191406 18.730469 71.703125 18.742188 C 71.753906 19.332031 72.339844 19.609375 72.496094 20.164062 C 72.726562 20.6875 72.828125 21.242188 73.074219 21.75 C 73.242188 22.273438 73.53125 22.785156 73.734375 23.3125 C 73.871094 23.804688 73.984375 24.304688 74.222656 24.765625 C 74.480469 25.308594 74.550781 25.898438 74.644531 26.480469 C 74.914062 26.960938 74.933594 27.519531 75.125 28.03125 C 75.316406 28.75 75.601562 29.449219 75.648438 30.199219 C 75.902344 31.03125 76.046875 31.890625 76.144531 32.757812 C 76.304688 33.207031 76.183594 33.773438 76.511719 34.097656 C 76.511719 34.359375 76.082031 34.542969 76.464844 34.765625 C 76.761719 35.59375 76.722656 36.5 76.65625 37.363281 C 76.78125 37.867188 76.816406 38.398438 76.582031 38.878906 C 76.621094 39.226562 76.804688 39.542969 76.691406 39.871094 C 77.074219 40.222656 76.335938 40.824219 76.667969 41.140625 C 76.625 41.660156 76.515625 42.171875 76.46875 42.691406 C 76.394531 43.257812 76.886719 43.820312 76.644531 44.351562 C 76.328125 44.785156 76.828125 45.484375 76.304688 45.765625 C 76.21875 46.203125 76.113281 46.636719 76.128906 47.09375 C 75.964844 47.679688 75.800781 48.277344 75.691406 48.863281 C 75.609375 49.148438 75.355469 49.296875 75.660156 49.503906 C 75.523438 49.972656 75.566406 50.523438 75.050781 50.757812 C 75.003906 51.257812 74.835938 51.695312 74.722656 52.175781 C 74.652344 52.65625 74.707031 53.136719 74.367188 53.542969 C 74.34375 54.089844 74.011719 54.511719 73.871094 54.988281 C 73.75 55.621094 73.359375 56.175781 73.203125 56.796875 C 72.84375 57.34375 72.300781 57.765625 72.078125 58.394531 C 71.691406 58.738281 71.519531 59.230469 71.175781 59.621094 C 70.792969 59.960938 70.660156 60.515625 70.289062 60.847656 C 70.097656 61.304688 69.59375 61.480469 69.378906 61.886719 C 69.070312 62.382812 68.601562 62.707031 68.160156 63.082031 C 67.980469 63.492188 67.792969 64.28125 67.128906 64.011719 C 66.886719 64.304688 66.902344 64.941406 66.476562 65.226562 C 66.039062 65.660156 65.621094 66.160156 65.0625 66.441406 C 64.722656 66.703125 64.488281 67.261719 64.078125 67.5625 C 63.519531 68.09375 62.960938 68.644531 62.292969 69.039062 C 61.761719 69.265625 61.457031 69.875 60.917969 70.167969 C 60.519531 70.554688 59.910156 70.59375 59.574219 71.058594 C 58.917969 71.429688 58.355469 71.957031 57.667969 72.285156 C 56.765625 72.761719 55.816406 73.148438 54.949219 73.683594 C 54.394531 73.925781 53.730469 73.835938 53.230469 74.214844 C 52.648438 74.523438 51.945312 74.40625 51.386719 74.765625 C 50.875 75.015625 50.347656 75.199219 49.816406 75.398438 C 49.074219 75.820312 48.1875 75.894531 47.441406 76.304688 C 46.84375 76.542969 46.171875 76.417969 45.585938 76.6875 C 45.023438 76.78125 44.484375 76.96875 43.90625 76.976562 C 42.613281 77.078125 41.308594 77.121094 40.035156 77.347656 C 39.34375 77.402344 38.648438 77.4375 37.964844 77.5 C 37.824219 77.492188 37.6875 77.480469 37.550781 77.460938 Z M 41.988281 75.824219 C 42.589844 75.710938 43.183594 75.554688 43.796875 75.539062 C 44.398438 75.476562 44.972656 75.273438 45.578125 75.242188 C 46.148438 75.109375 46.730469 75.058594 47.308594 74.988281 C 48.015625 74.871094 48.714844 74.695312 49.355469 74.378906 C 49.949219 74.292969 50.492188 74.039062 51.0625 73.882812 C 51.484375 73.65625 51.726562 73.332031 52.199219 73.234375 C 52.746094 73.175781 53.21875 72.855469 53.746094 72.71875 C 54.269531 72.4375 54.863281 72.320312 55.355469 71.980469 C 56.140625 71.734375 56.679688 71.03125 57.476562 70.804688 C 57.914062 70.519531 58.394531 70.34375 58.832031 70.058594 C 59.585938 69.875 60.027344 69.164062 60.695312 68.832031 C 61.203125 68.328125 61.839844 67.96875 62.332031 67.445312 C 62.726562 67.054688 63.246094 66.832031 63.621094 66.417969 C 64.421875 65.699219 65.230469 64.988281 65.929688 64.171875 C 66.472656 63.699219 66.964844 63.175781 67.421875 62.625 C 67.871094 62.261719 68.242188 61.84375 68.503906 61.320312 C 68.839844 60.953125 69.109375 60.539062 69.460938 60.183594 C 69.703125 59.757812 69.992188 59.371094 70.210938 58.945312 C 70.582031 58.28125 71.136719 57.746094 71.519531 57.097656 C 71.785156 56.605469 72.128906 56.152344 72.363281 55.648438 C 72.429688 55.15625 72.679688 54.671875 72.902344 54.199219 C 73.160156 53.71875 73.273438 53.171875 73.574219 52.71875 C 73.800781 52.121094 73.949219 51.484375 74.226562 50.925781 C 74.355469 50.398438 74.660156 49.933594 74.746094 49.390625 C 75.082031 48.925781 75.167969 48.367188 75.191406 47.804688 C 75.230469 47.082031 75.351562 46.371094 75.457031 45.65625 C 75.46875 45.15625 75.910156 44.757812 75.78125 44.289062 C 75.761719 43.6875 75.84375 43.066406 75.917969 42.507812 C 76.09375 42.175781 75.613281 41.839844 75.832031 41.4375 C 75.863281 40.945312 75.828125 40.304688 76.222656 40.035156 C 76.480469 40.023438 76.671875 40.015625 76.304688 39.984375 C 75.558594 39.882812 76.171875 38.972656 75.980469 38.496094 C 75.828125 37.980469 75.789062 37.441406 75.820312 36.898438 C 75.910156 36.304688 75.601562 35.777344 75.605469 35.195312 C 75.683594 34.621094 75.285156 34.1875 75.359375 33.621094 C 75.328125 32.855469 75.125 32.113281 74.925781 31.378906 C 74.78125 30.832031 74.917969 30.1875 74.527344 29.726562 C 74.335938 29.140625 74.273438 28.519531 74.085938 27.933594 C 74.011719 27.351562 73.960938 26.738281 73.644531 26.230469 C 73.558594 25.742188 73.152344 25.277344 73.265625 24.78125 C 73.199219 24.179688 72.960938 23.605469 72.703125 23.050781 C 72.503906 22.535156 72.28125 22.054688 72.089844 21.53125 C 71.835938 21.097656 71.558594 20.679688 71.335938 20.226562 C 70.980469 19.808594 70.765625 19.289062 70.355469 18.898438 C 69.964844 18.4375 69.585938 17.964844 69.246094 17.46875 C 69.0625 16.804688 68.449219 16.386719 68.085938 15.824219 C 67.070312 14.441406 65.898438 13.175781 64.730469 11.921875 C 64.371094 11.480469 63.761719 11.277344 63.398438 10.808594 C 62.792969 10.230469 62.132812 9.71875 61.46875 9.21875 C 61.089844 8.785156 60.589844 8.515625 60.15625 8.148438 C 59.460938 7.632812 58.761719 7.101562 57.988281 6.710938 C 57.632812 6.355469 57.324219 6.070312 56.785156 6.0625 C 56.332031 5.871094 55.996094 5.601562 55.566406 5.378906 C 55.070312 5.160156 54.617188 4.820312 54.101562 4.707031 C 53.558594 4.453125 53.019531 4.1875 52.5 3.890625 C 51.976562 3.746094 51.4375 3.453125 50.890625 3.28125 C 50.398438 2.980469 49.824219 2.902344 49.332031 2.609375 C 48.679688 2.550781 48.066406 2.253906 47.410156 2.261719 C 46.871094 2.210938 46.984375 1.902344 47.386719 1.792969 C 46.898438 1.480469 46.804688 2.308594 46.261719 2.082031 C 45.019531 1.953125 43.820312 1.585938 42.574219 1.492188 C 42.035156 1.269531 41.480469 1.378906 40.917969 1.4375 C 39.402344 1.484375 37.863281 1.378906 36.375 1.730469 C 35.746094 1.832031 35.113281 1.644531 34.484375 1.777344 C 34.292969 1.894531 34.105469 1.277344 34.046875 1.605469 C 34.429688 1.898438 33.335938 2.035156 33.089844 2.117188 C 31.625 2.476562 30.117188 2.652344 28.671875 3.09375 C 28.179688 3.191406 27.726562 3.234375 27.316406 3.53125 C 26.863281 3.679688 26.492188 3.199219 26.105469 3.613281 C 25.984375 3.785156 26.46875 3.539062 26.574219 3.519531 C 26.675781 4.132812 25.613281 4.097656 25.261719 4.472656 C 24.707031 4.726562 24.175781 5.054688 23.570312 5.199219 C 23.003906 5.449219 22.5 5.808594 21.917969 6.023438 C 21.464844 6.292969 20.976562 6.519531 20.484375 6.703125 C 20.140625 6.980469 19.835938 7.28125 19.394531 7.429688 C 18.972656 7.707031 18.507812 7.921875 18.105469 8.238281 C 17.671875 8.636719 17.117188 8.78125 16.699219 9.164062 C 16.28125 9.582031 15.796875 9.90625 15.328125 10.296875 C 14.890625 10.558594 14.667969 11.058594 14.144531 11.203125 C 13.429688 12.027344 12.589844 12.734375 11.824219 13.511719 C 11.289062 13.972656 10.8125 14.492188 10.457031 15.101562 C 10.085938 15.484375 9.648438 15.8125 9.324219 16.25 C 8.964844 16.703125 8.683594 17.210938 8.289062 17.644531 C 8 18.160156 7.625 18.621094 7.339844 19.140625 C 7.066406 19.652344 6.660156 20.105469 6.492188 20.660156 C 6.007812 20.890625 6.097656 21.558594 5.683594 21.832031 C 5.636719 22.117188 5.339844 22.183594 5.378906 22.539062 C 5.21875 23.054688 4.746094 23.339844 4.664062 23.882812 C 4.339844 24.398438 4.328125 25.039062 3.898438 25.5 C 3.648438 25.863281 3.636719 26.367188 3.417969 26.679688 C 3.65625 27.09375 2.914062 27.257812 3 27.566406 C 2.921875 28 2.691406 28.519531 2.648438 29.015625 C 2.496094 29.347656 2.652344 29.996094 2.289062 30.109375 C 2.476562 30.480469 1.847656 30.484375 2.230469 30.847656 C 2.289062 31.296875 2.097656 31.898438 1.75 32.109375 C 2.242188 32.234375 1.75 32.863281 1.363281 32.691406 C 1.5625 32.785156 2.058594 33.261719 1.773438 33.660156 C 1.648438 34.292969 1.914062 34.914062 1.753906 35.53125 C 1.664062 36.535156 1.730469 37.542969 1.601562 38.542969 C 1.433594 39.128906 1.804688 39.707031 1.554688 40.257812 C 1.6875 40.65625 1.625 41.238281 1.710938 41.496094 C 1.152344 41.59375 1.933594 41.78125 1.800781 42.152344 C 1.917969 42.957031 2.113281 43.808594 1.867188 44.605469 C 2.269531 44.925781 1.488281 44.667969 1.78125 44.96875 C 2.304688 45.507812 2.324219 46.300781 2.339844 47.003906 C 2.574219 47.5 2.871094 47.976562 2.878906 48.542969 C 3.007812 49.050781 3.296875 49.527344 3.152344 50.019531 C 3.492188 50.226562 3.207031 50.425781 3.585938 50.601562 C 3.738281 51.25 3.675781 51.992188 4.089844 52.558594 C 4.371094 52.984375 4.6875 53.433594 4.855469 53.9375 C 5.058594 54.5625 5.515625 55.074219 5.679688 55.714844 C 5.964844 56.152344 6.28125 56.582031 6.507812 57.058594 C 6.925781 57.820312 7.269531 58.632812 7.78125 59.335938 C 8.066406 59.820312 8.402344 60.28125 8.714844 60.757812 C 8.972656 61.226562 9.316406 61.53125 9.578125 61.953125 C 9.910156 62.402344 10.25 62.851562 10.640625 63.269531 C 10.992188 63.714844 11.5 64.007812 11.800781 64.503906 C 12.109375 64.933594 12.53125 65.28125 12.792969 65.738281 C 13.511719 65.6875 13.59375 66.550781 14.113281 66.890625 C 14.546875 67.25 15.078125 67.511719 15.367188 68.027344 C 15.441406 68.398438 15.863281 68.441406 16.109375 68.4375 C 15.796875 68.691406 16.433594 68.800781 16.441406 69.070312 C 16.917969 69.347656 17.421875 69.59375 17.835938 69.96875 C 18.375 70.210938 18.835938 70.597656 19.40625 70.785156 C 19.984375 71.03125 20.472656 71.449219 21.066406 71.664062 C 21.859375 72.0625 22.625 72.542969 23.46875 72.808594 C 23.902344 73.160156 24.445312 73.34375 24.957031 73.554688 C 25.515625 73.792969 26.089844 74.058594 26.671875 74.207031 C 27.304688 74.277344 27.835938 74.738281 28.492188 74.710938 C 29.109375 74.878906 29.691406 75.171875 30.332031 75.265625 C 30.914062 75.371094 31.507812 75.351562 32.078125 75.523438 C 33.519531 75.734375 34.976562 75.785156 36.421875 75.949219 C 38.25 75.992188 40.082031 75.980469 41.902344 75.835938 L 41.988281 75.820312 Z M 37.75 74.359375 C 37.28125 74.300781 36.75 74.332031 36.257812 74.246094 C 35.703125 74.097656 35.113281 74.011719 34.578125 74.277344 C 34.03125 74.324219 33.515625 74.078125 32.96875 74.066406 C 32.203125 73.988281 31.425781 73.917969 30.695312 73.679688 C 30.078125 73.59375 29.503906 73.328125 28.894531 73.183594 C 28.328125 72.976562 27.71875 73.003906 27.183594 72.710938 C 26.742188 72.410156 26.21875 72.230469 25.738281 71.976562 C 25.203125 71.835938 24.746094 71.492188 24.203125 71.382812 C 23.75 71.003906 23.195312 70.753906 22.621094 70.601562 C 22.105469 70.429688 21.59375 70.28125 21.171875 69.917969 C 20.667969 69.640625 20.144531 69.398438 19.644531 69.117188 C 19.070312 68.949219 18.75 68.324219 18.167969 68.066406 C 17.320312 67.667969 16.71875 66.929688 15.957031 66.40625 C 15.589844 66.011719 15.113281 65.753906 14.714844 65.402344 C 14.339844 65.042969 14.023438 64.648438 13.710938 64.238281 C 13.363281 63.757812 13.003906 63.3125 12.515625 62.972656 C 12.152344 62.457031 11.664062 62.0625 11.261719 61.582031 C 10.925781 61.109375 10.601562 60.648438 10.265625 60.179688 C 10.117188 59.589844 9.496094 59.433594 9.1875 58.980469 C 8.65625 58.269531 8.175781 57.515625 7.765625 56.730469 C 7.480469 55.886719 6.761719 55.257812 6.558594 54.382812 C 6.269531 53.949219 6.152344 53.460938 5.835938 53.046875 C 5.609375 52.609375 5.398438 52.15625 5.257812 51.679688 C 4.933594 51.210938 4.785156 50.644531 4.625 50.097656 C 4.523438 49.8125 4.402344 49.015625 4.730469 49.65625 C 5.0625 50.117188 5.363281 50.566406 5.453125 51.144531 C 5.710938 51.847656 6.089844 52.5 6.4375 53.160156 C 6.632812 53.765625 6.992188 54.308594 7.292969 54.867188 C 7.617188 55.335938 7.871094 55.847656 8.132812 56.347656 C 8.855469 57.425781 9.554688 58.519531 10.3125 59.574219 C 10.617188 60.089844 11.046875 60.507812 11.425781 60.980469 C 11.625 61.472656 12.117188 61.695312 12.394531 62.15625 C 12.863281 62.5 13.332031 62.890625 13.675781 63.371094 C 14.355469 64.1875 15.160156 64.898438 15.941406 65.617188 C 16.613281 66.132812 17.21875 66.726562 17.878906 67.257812 C 18.449219 67.710938 19.066406 68.109375 19.625 68.582031 C 20.757812 69.320312 21.957031 69.976562 23.234375 70.433594 C 24.457031 71.03125 25.792969 71.347656 27.050781 71.855469 C 28.316406 72.339844 29.640625 72.648438 30.9375 73.035156 C 32.324219 73.363281 33.753906 73.5 35.171875 73.628906 C 37.242188 73.792969 39.324219 73.75 41.394531 73.632812 C 42.304688 73.4375 43.242188 73.410156 44.164062 73.261719 C 45.113281 73.121094 46.101562 73.101562 47 72.730469 C 48 72.648438 48.953125 72.320312 49.933594 72.125 C 50.972656 71.804688 51.964844 71.34375 53 71.011719 C 54.472656 70.488281 55.820312 69.679688 57.234375 69.03125 C 57.835938 69.113281 56.933594 69.632812 56.691406 69.714844 C 56.082031 69.964844 55.675781 70.550781 55.023438 70.707031 C 54.574219 71.089844 54.015625 71.222656 53.523438 71.5 C 52.871094 72.007812 52.003906 72.070312 51.261719 72.390625 C 50.753906 72.691406 50.15625 72.640625 49.621094 72.867188 C 49.039062 72.925781 48.46875 73.058594 47.925781 73.269531 C 47.363281 73.375 46.863281 73.695312 46.277344 73.65625 C 44.398438 73.925781 42.515625 74.191406 40.621094 74.3125 C 39.6875 74.363281 38.75 74.46875 37.816406 74.390625 Z M 36.019531 73.058594 C 35.519531 72.910156 34.996094 73.082031 34.503906 72.828125 C 33.839844 72.777344 33.21875 72.46875 32.554688 72.390625 C 31.972656 72.242188 31.375 72.230469 30.789062 72.144531 C 30.15625 71.9375 29.460938 72.074219 28.847656 71.785156 C 27.914062 71.539062 26.925781 71.417969 26.078125 70.929688 C 25.398438 70.648438 24.714844 70.367188 24.09375 69.972656 C 23.296875 69.621094 22.691406 68.914062 21.839844 68.683594 C 21.492188 68.3125 21.007812 68.085938 20.648438 67.710938 C 20.109375 67.234375 19.371094 67.027344 18.929688 66.441406 C 18.367188 66.074219 17.921875 65.542969 17.367188 65.15625 C 16.757812 64.625 16.257812 63.972656 15.578125 63.515625 C 15.085938 63.191406 14.824219 62.652344 14.402344 62.253906 C 13.988281 61.882812 13.726562 61.386719 13.347656 60.988281 C 12.761719 60.464844 12.304688 59.816406 11.804688 59.214844 C 11.355469 58.816406 11.144531 58.230469 10.742188 57.789062 C 10.519531 57.347656 10.203125 57.019531 9.890625 56.617188 C 9.664062 56.117188 9.3125 55.703125 9.066406 55.21875 C 8.65625 54.5 8.195312 53.792969 7.9375 53.003906 C 7.667969 52.617188 7.503906 52.191406 7.277344 51.769531 C 7.09375 51.269531 6.914062 50.777344 6.703125 50.28125 C 6.394531 49.40625 6.140625 48.5 5.722656 47.675781 C 5.660156 47.175781 5.34375 46.746094 5.292969 46.238281 C 5.1875 45.640625 5.039062 45.046875 4.898438 44.464844 C 4.921875 44.082031 4.667969 43.792969 4.863281 43.445312 C 4.664062 42.675781 4.628906 41.871094 4.585938 41.082031 C 4.710938 40.121094 4.65625 39.136719 4.875 38.1875 C 4.957031 37.605469 4.796875 36.980469 5.039062 36.429688 C 5.402344 36.304688 5.132812 37.167969 5.191406 37.40625 C 5.0625 39.113281 5.160156 40.824219 5.15625 42.53125 C 4.789062 42.796875 5.398438 43.148438 5.3125 43.578125 C 5.464844 44.425781 5.414062 45.320312 5.777344 46.117188 C 5.730469 46.644531 6.078125 47.105469 6.09375 47.609375 C 6.191406 48.21875 6.726562 48.679688 6.820312 49.304688 C 6.992188 49.761719 7.289062 50.199219 7.371094 50.667969 C 7.882812 51.148438 8.019531 51.882812 8.347656 52.480469 C 8.59375 53.015625 8.878906 53.535156 9.046875 54.097656 C 9.289062 54.546875 9.605469 54.875 9.902344 55.28125 C 10.207031 55.492188 9.949219 55.847656 10.347656 55.855469 C 10.667969 56.273438 10.960938 56.726562 11.308594 57.074219 C 11.472656 57.636719 11.988281 57.996094 12.175781 58.535156 C 12.5625 58.964844 12.96875 59.386719 13.21875 59.914062 C 13.605469 60.316406 13.957031 60.761719 14.304688 61.167969 C 14.742188 61.425781 14.933594 61.949219 15.316406 62.273438 C 15.691406 62.523438 15.847656 63.191406 16.34375 63.070312 C 16.394531 63.570312 16.882812 63.941406 17.257812 64.199219 C 17.605469 64.550781 18.089844 64.753906 18.421875 65.136719 C 18.902344 65.597656 19.484375 65.933594 19.957031 66.40625 C 20.460938 66.886719 21.050781 67.253906 21.648438 67.601562 C 22.144531 68 22.757812 68.214844 23.269531 68.601562 C 23.804688 68.960938 24.417969 69.191406 24.945312 69.566406 C 25.503906 69.898438 26.15625 69.917969 26.765625 70.03125 C 27.292969 70.164062 27.816406 70.625 28.304688 70.621094 C 28.671875 70.308594 29.019531 71.0625 29.492188 70.964844 C 30.027344 71.121094 30.523438 71.382812 31.089844 71.425781 C 31.929688 71.679688 32.78125 71.902344 33.652344 72.019531 C 34.65625 72.230469 35.671875 72.394531 36.703125 72.363281 L 37.878906 72.363281 C 39.277344 72.472656 39.226562 72.566406 39.886719 72.414062 C 40.34375 72.273438 40.894531 72.320312 41.40625 72.160156 C 42.050781 72.058594 42.675781 71.855469 43.332031 71.894531 C 43.808594 71.75 44.308594 71.71875 44.804688 71.652344 C 45.339844 71.527344 45.871094 71.441406 46.414062 71.351562 C 47.039062 71.417969 47.535156 71.007812 48.132812 71 C 48.40625 70.984375 48.820312 70.835938 48.3125 70.882812 C 48.566406 70.550781 49.257812 70.800781 49.589844 70.429688 C 49.925781 70.480469 50.285156 70.503906 50.3125 70.121094 C 50.839844 69.945312 51.363281 69.8125 51.886719 69.585938 C 52.386719 69.316406 52.941406 69.25 53.40625 68.996094 C 53.800781 68.503906 54.460938 68.519531 54.972656 68.234375 C 55.554688 68.140625 55.78125 67.554688 56.359375 67.53125 C 56.570312 67.09375 57.265625 67.089844 57.589844 66.640625 C 58.015625 66.179688 58.65625 66.019531 59.074219 65.539062 C 59.574219 65.328125 59.957031 64.953125 60.40625 64.644531 C 60.855469 64.285156 61.28125 63.894531 61.625 63.4375 C 61.945312 62.992188 62.554688 62.804688 62.875 62.34375 C 63.429688 61.75 64.015625 61.171875 64.671875 60.6875 C 64.96875 60.28125 65.144531 59.785156 65.554688 59.457031 C 65.976562 59.070312 66.269531 58.578125 66.570312 58.097656 C 66.875 57.664062 67.265625 57.246094 67.441406 56.753906 C 67.789062 56.304688 67.945312 55.734375 68.339844 55.3125 C 68.75 54.523438 69.265625 53.78125 69.5625 52.933594 C 69.878906 52.023438 70.332031 51.167969 70.585938 50.238281 C 70.808594 49.667969 70.863281 49.027344 71.265625 48.535156 C 71.457031 48.042969 71.652344 47.546875 71.738281 47 C 71.976562 45.835938 72.355469 44.6875 72.363281 43.488281 C 72.625 41.195312 72.496094 38.878906 72.371094 36.578125 C 72.226562 35.011719 71.855469 33.476562 71.722656 31.90625 C 71.675781 31.40625 71.34375 31.023438 71.542969 30.507812 C 71.214844 30.074219 71.332031 29.445312 70.96875 28.964844 C 70.625 28.335938 70.539062 27.597656 70.175781 26.980469 C 69.910156 26.8125 69.601562 26.925781 70.035156 26.753906 C 70.160156 26.285156 69.648438 25.816406 69.535156 25.351562 C 69.464844 24.796875 69.171875 24.339844 68.964844 23.832031 C 68.722656 23.324219 68.375 22.855469 68.265625 22.296875 C 67.9375 21.699219 67.558594 21.125 67.207031 20.542969 C 66.714844 19.78125 66.039062 19.15625 65.554688 18.386719 C 64.859375 17.625 64.277344 16.765625 63.585938 16 C 62.742188 14.992188 61.777344 14.09375 60.730469 13.304688 C 59.957031 12.683594 59.238281 11.988281 58.375 11.492188 C 58.226562 11.035156 57.910156 10.734375 57.4375 10.574219 C 56.832031 10.167969 56.195312 9.804688 55.59375 9.398438 C 55.03125 8.890625 54.257812 8.71875 53.632812 8.304688 C 53.105469 8.113281 52.632812 7.785156 52.085938 7.628906 C 51.578125 7.386719 51.054688 7.203125 50.507812 7.082031 C 50.101562 6.917969 49.550781 6.761719 49.25 6.535156 C 50.238281 6.664062 51.148438 7.125 52.121094 7.335938 C 52.621094 7.519531 53.125 7.679688 53.578125 7.960938 C 54.078125 8.121094 54.585938 8.300781 54.96875 8.683594 C 55.488281 9.03125 56.078125 9.253906 56.554688 9.664062 C 57.042969 9.890625 57.320312 10.46875 57.882812 10.484375 C 58.316406 10.902344 58.863281 11.199219 59.34375 11.582031 C 59.957031 12.054688 60.511719 12.597656 61.097656 13.101562 C 62.539062 14.402344 63.839844 15.84375 65.144531 17.277344 C 65.394531 17.761719 65.765625 18.125 66.144531 18.503906 C 66.511719 18.921875 66.839844 19.378906 67.132812 19.84375 C 67.511719 20.148438 67.644531 20.722656 67.9375 21.128906 C 68.15625 21.644531 68.425781 22.070312 68.710938 22.546875 C 68.996094 23.078125 69.1875 23.652344 69.503906 24.167969 C 69.660156 24.730469 70.042969 25.1875 70.171875 25.75 C 70.554688 26.183594 70.472656 26.808594 70.785156 27.257812 C 71.101562 28.042969 71.503906 28.816406 71.707031 29.648438 C 71.851562 30 71.859375 30.351562 72.070312 30.667969 C 72.078125 31.277344 72.222656 31.890625 72.3125 32.496094 C 72.398438 32.984375 72.636719 33.542969 72.53125 33.972656 C 72.707031 34.792969 72.675781 35.636719 72.804688 36.460938 C 73.242188 36.914062 72.792969 37.574219 72.957031 38.128906 C 72.960938 38.660156 73.128906 39.214844 72.992188 39.730469 C 72.703125 39.894531 73.269531 40.046875 73.035156 40.347656 C 72.949219 41.085938 72.945312 41.835938 72.796875 42.566406 C 73.011719 43.0625 72.667969 43.597656 72.683594 44.132812 C 72.550781 44.652344 72.484375 45.175781 72.417969 45.695312 C 72.140625 46.210938 72.136719 46.78125 72.050781 47.347656 C 71.957031 47.953125 71.566406 48.460938 71.457031 49.0625 C 71.261719 49.503906 71.097656 49.945312 70.980469 50.414062 C 70.71875 50.957031 70.582031 51.535156 70.425781 52.113281 C 70.132812 52.53125 69.9375 53.015625 69.78125 53.507812 C 69.5 54.367188 68.851562 55.050781 68.589844 55.914062 C 68.199219 56.324219 67.96875 56.8125 67.675781 57.273438 C 67.496094 57.707031 67.234375 58.152344 66.890625 58.46875 C 66.492188 59.261719 65.945312 59.976562 65.4375 60.703125 C 64.957031 61.015625 64.9375 61.757812 64.339844 61.867188 C 63.910156 61.949219 64.175781 62.679688 63.648438 62.785156 C 63.210938 63.15625 62.953125 63.695312 62.472656 64.03125 C 62.082031 64.429688 61.550781 64.660156 61.140625 65.003906 C 60.796875 65.488281 60.261719 65.820312 59.8125 66.226562 C 59.339844 66.574219 58.847656 66.863281 58.410156 67.25 C 57.863281 67.5625 57.289062 67.816406 56.792969 68.203125 C 55.804688 68.753906 54.804688 69.289062 53.796875 69.792969 C 53.136719 70.125 52.421875 70.335938 51.777344 70.6875 C 51.34375 71.035156 50.75 70.96875 50.242188 71.164062 C 49.519531 71.234375 48.867188 71.574219 48.160156 71.710938 C 47.335938 71.941406 46.488281 72.085938 45.683594 72.363281 C 45.148438 72.53125 44.570312 72.578125 44.011719 72.679688 C 42.585938 72.84375 41.144531 72.863281 39.710938 72.988281 C 39.183594 73.238281 38.652344 72.945312 38.109375 73.0625 C 37.414062 73.09375 36.710938 73.140625 36.019531 73.058594 Z M 55.414062 69.335938 C 55.257812 68.886719 56.089844 69.121094 55.632812 69.382812 C 55.558594 69.40625 55.46875 69.394531 55.414062 69.335938 Z M 57.671875 68.875 C 58.121094 68.464844 58.671875 68.15625 59.175781 67.808594 C 59.632812 67.457031 60.101562 67.125 60.519531 66.71875 C 61.273438 66.117188 62.023438 65.507812 62.675781 64.796875 C 63.503906 63.972656 64.375 63.183594 65.125 62.28125 C 65.59375 61.910156 65.914062 61.375 66.269531 60.898438 C 66.675781 60.433594 67.039062 59.929688 67.390625 59.417969 C 67.777344 58.929688 68.097656 58.394531 68.472656 57.898438 C 68.710938 57.449219 69.101562 57.070312 69.34375 56.601562 C 69.601562 56.039062 69.96875 55.53125 70.304688 55.011719 C 70.574219 54.433594 70.871094 53.871094 71.085938 53.265625 C 71.398438 52.679688 71.535156 52.019531 71.855469 51.433594 C 72.0625 50.839844 72.148438 50.203125 72.386719 49.613281 C 72.675781 48.835938 72.820312 48.019531 72.976562 47.207031 C 73.246094 46.320312 73.210938 45.382812 73.460938 44.492188 C 73.6875 43.246094 73.914062 41.988281 73.910156 40.71875 C 73.894531 39.710938 74.136719 38.710938 74.070312 37.695312 C 74.113281 37.050781 73.996094 36.410156 74.042969 35.765625 C 74.1875 35.980469 74.316406 36.769531 74.414062 37.199219 C 74.496094 37.855469 74.613281 38.53125 74.375 39.167969 C 74.121094 39.703125 74.480469 40.238281 74.246094 40.730469 C 74.164062 41.601562 74.257812 42.484375 74.15625 43.351562 C 74.042969 43.859375 73.992188 44.386719 73.828125 44.882812 C 73.742188 45.414062 73.832031 45.972656 73.65625 46.484375 C 73.523438 46.964844 73.28125 47.46875 73.230469 47.988281 C 73.074219 48.519531 73.101562 49.109375 72.84375 49.628906 C 72.832031 50.1875 72.601562 50.628906 72.496094 51.179688 C 72.238281 51.746094 72.1875 52.414062 71.800781 52.914062 C 71.742188 53.421875 71.355469 53.734375 71.238281 54.207031 C 70.996094 54.6875 70.660156 55.105469 70.554688 55.648438 C 70.292969 56.363281 69.578125 56.777344 69.316406 57.492188 C 69.042969 57.945312 68.652344 58.308594 68.457031 58.800781 C 68.179688 59.386719 67.742188 59.847656 67.398438 60.347656 C 67.078125 60.921875 66.546875 61.355469 66.25 61.945312 C 65.824219 62.496094 65.296875 62.953125 64.757812 63.382812 C 64.429688 63.878906 63.933594 64.1875 63.523438 64.613281 C 62.988281 65.097656 62.578125 65.714844 61.960938 66.109375 C 61.46875 66.367188 61.128906 66.820312 60.652344 67.109375 C 59.953125 67.566406 59.289062 68.066406 58.613281 68.550781 C 58.417969 68.605469 57.769531 69.175781 57.671875 68.875 Z M 4.273438 49.085938 C 4.238281 48.511719 4.660156 49.386719 4.273438 49.085938 Z M 3.460938 46.394531 C 3.355469 45.917969 3.738281 46.417969 3.5 46.472656 Z M 3.292969 45.59375 C 3.15625 45.039062 3.070312 44.464844 3.054688 43.894531 C 3.398438 44.140625 3.308594 44.824219 3.472656 45.238281 C 3.390625 45.316406 3.480469 45.878906 3.292969 45.59375 Z M 2.84375 41.839844 C 3.085938 41.304688 3.042969 42.355469 2.84375 41.839844 Z M 2.8125 41.367188 C 2.730469 40.34375 2.785156 39.3125 2.765625 38.285156 C 2.757812 37.566406 2.816406 36.851562 2.941406 36.144531 C 3.066406 35.078125 2.964844 33.972656 3.292969 32.9375 C 3.554688 32.074219 3.667969 31.164062 3.976562 30.308594 C 4.023438 29.75 4.289062 29.296875 4.464844 28.773438 C 4.601562 28.242188 4.628906 27.71875 5.007812 27.289062 C 5.332031 26.679688 5.445312 25.988281 5.84375 25.417969 C 6.066406 24.925781 6.253906 24.457031 6.527344 23.964844 C 6.847656 23.324219 7.132812 22.652344 7.539062 22.0625 C 7.867188 21.601562 8.117188 21.058594 8.4375 20.578125 C 8.835938 19.707031 9.476562 18.976562 10.070312 18.234375 C 10.597656 17.566406 10.941406 16.777344 11.519531 16.144531 C 12.167969 15.324219 12.984375 14.652344 13.59375 13.804688 C 14.050781 13.425781 14.484375 13.066406 14.980469 12.722656 C 15.839844 12.144531 16.539062 11.363281 17.449219 10.855469 C 17.652344 10.609375 18.273438 10.527344 17.875 10.929688 C 17.433594 11.207031 16.988281 11.484375 16.597656 11.820312 C 16.203125 12.292969 15.566406 12.511719 15.277344 13.074219 C 14.890625 13.472656 14.371094 13.707031 14.007812 14.148438 C 13.503906 14.652344 12.964844 15.128906 12.527344 15.691406 C 12.1875 16.179688 11.753906 16.617188 11.40625 17.109375 C 11.121094 17.65625 10.671875 18.085938 10.339844 18.601562 C 10.140625 19.089844 9.824219 19.53125 9.5 19.949219 C 9.269531 20.441406 8.886719 20.832031 8.601562 21.292969 C 8.40625 21.828125 8.035156 22.265625 7.851562 22.808594 C 7.398438 23.460938 7.023438 24.167969 6.566406 24.820312 C 6.335938 25.34375 5.945312 25.773438 5.84375 26.347656 C 5.617188 26.800781 5.34375 27.242188 5.261719 27.746094 C 4.847656 28.363281 4.660156 29.089844 4.515625 29.804688 C 4.394531 30.339844 4.121094 30.867188 4.117188 31.414062 C 4.050781 32.09375 3.910156 32.769531 3.867188 33.453125 C 3.75 34.3125 3.691406 35.203125 3.320312 36 C 3.46875 36.554688 3.246094 37.125 3.246094 37.699219 C 3.132812 38.589844 3.0625 39.5 3.117188 40.398438 C 3.257812 40.617188 3.195312 41.609375 2.8125 41.367188 Z M 5.128906 36.078125 C 4.859375 35.859375 5.128906 35.042969 5.328125 35.191406 C 5.613281 35.613281 5.277344 35.777344 5.128906 36.078125 Z M 5.253906 34.382812 C 5.375 33.628906 5.476562 32.867188 5.511719 32.109375 C 5.8125 30.886719 6.226562 29.695312 6.589844 28.488281 C 6.824219 27.867188 6.988281 27.179688 7.40625 26.652344 C 7.742188 26.984375 7.117188 27.566406 7.089844 28.007812 C 6.886719 28.558594 6.722656 29.097656 6.511719 29.644531 C 6.40625 30.191406 6.296875 30.714844 6.070312 31.230469 C 5.863281 32.179688 5.84375 33.164062 5.515625 34.082031 C 5.671875 34.402344 5.164062 35.179688 5.253906 34.382812 Z M 73.054688 30.96875 C 73.007812 30.363281 73.609375 31.265625 73.117188 31.085938 L 73.078125 31.035156 Z M 72.964844 30.300781 C 72.765625 29.628906 72.640625 28.933594 72.328125 28.300781 C 72.199219 27.785156 72.09375 27.265625 71.929688 26.757812 C 71.824219 26.226562 71.6875 25.710938 71.507812 25.203125 C 71.058594 24.332031 70.839844 23.359375 70.347656 22.503906 C 69.945312 21.722656 69.605469 20.902344 69.117188 20.167969 C 68.945312 19.5 69.632812 20.25 69.664062 20.527344 C 70.199219 21.320312 70.6875 22.160156 70.988281 23.074219 C 71.1875 23.664062 71.613281 24.164062 71.707031 24.785156 C 71.921875 25.292969 72.132812 25.820312 72.269531 26.359375 C 72.386719 26.988281 72.605469 27.574219 72.800781 28.179688 C 72.964844 28.839844 73.078125 29.523438 73.128906 30.199219 C 73.136719 30.296875 73.015625 30.523438 72.964844 30.300781 Z M 8.214844 24.808594 C 8.191406 24.21875 8.710938 23.75 8.894531 23.203125 C 9.289062 22.34375 9.882812 21.605469 10.292969 20.757812 C 10.644531 20.007812 11.199219 19.390625 11.664062 18.71875 C 11.914062 18.105469 12.46875 17.695312 12.839844 17.160156 C 13.6875 16.140625 14.648438 15.210938 15.679688 14.378906 C 15.933594 14.277344 16.308594 13.738281 16.511719 13.890625 C 16.144531 14.367188 15.820312 14.886719 15.40625 15.328125 C 14.933594 15.789062 14.367188 16.214844 14.128906 16.847656 C 13.597656 17.164062 13.347656 17.765625 12.878906 18.164062 C 12.425781 18.59375 12.035156 19.113281 11.5 19.4375 C 11.097656 19.808594 10.992188 20.410156 10.601562 20.765625 C 10.550781 21.257812 10.050781 21.453125 10.003906 21.953125 C 9.855469 22.488281 9.382812 22.835938 9.199219 23.359375 C 8.894531 23.792969 8.859375 24.351562 8.460938 24.730469 C 8.347656 24.859375 8.277344 25.183594 8.214844 24.808594 Z M 68.691406 19.453125 C 68.445312 19.21875 68.480469 18.648438 68.757812 19.1875 C 68.949219 19.367188 69.191406 20.066406 68.785156 19.578125 Z M 68.230469 18.558594 C 67.890625 18.347656 68.136719 18.039062 68.308594 18.433594 C 68.386719 18.574219 68.433594 18.796875 68.230469 18.558594 Z M 66.859375 16.8125 C 66.578125 16.496094 66.957031 16.257812 67.078125 16.695312 C 67.230469 16.886719 66.964844 16.988281 66.859375 16.8125 Z M 66.269531 15.949219 C 66.089844 15.796875 65.605469 15.078125 66.125 15.390625 C 66.28125 15.585938 66.886719 16.105469 66.550781 16.242188 C 66.429688 16.175781 66.34375 16.0625 66.269531 15.949219 Z M 65.15625 14.664062 C 64.890625 14.449219 64.683594 13.914062 65.128906 14.359375 C 65.269531 14.503906 65.910156 15.023438 65.566406 15.078125 C 65.410156 14.964844 65.285156 14.808594 65.15625 14.664062 Z M 64.078125 13.691406 C 63.359375 12.945312 62.511719 12.332031 61.777344 11.605469 C 61.441406 11.335938 60.742188 11.054688 60.757812 10.621094 C 61.894531 11.097656 62.605469 12.179688 63.5625 12.90625 C 63.90625 13.203125 64.457031 13.605469 64.582031 13.960938 C 64.371094 14.015625 64.207031 13.824219 64.078125 13.691406 Z M 16.710938 13.691406 C 16.964844 13.238281 17.539062 13.074219 17.945312 12.769531 C 18.214844 12.675781 18.742188 12.023438 18.910156 12.378906 C 18.40625 12.640625 18.082031 13.148438 17.550781 13.359375 C 17.359375 13.460938 16.867188 14.042969 16.710938 13.691406 Z M 18.925781 12.050781 C 19.203125 11.703125 19.75 11.628906 20.035156 11.246094 C 20.707031 10.878906 21.242188 10.261719 22.003906 10.058594 C 22.484375 9.808594 22.921875 9.507812 23.378906 9.214844 C 23.886719 8.984375 24.367188 8.675781 24.902344 8.511719 C 25.390625 8.449219 25.726562 7.980469 26.21875 7.890625 C 27.527344 7.613281 28.78125 7.113281 30.0625 6.742188 C 30.566406 6.605469 31.074219 6.5 31.578125 6.355469 C 32.402344 6.042969 33.257812 5.824219 34.113281 5.609375 C 35.550781 5.28125 37.035156 5.257812 38.496094 5.089844 C 39.589844 4.890625 40.707031 4.992188 41.8125 5.007812 C 42.867188 5.066406 43.953125 5.082031 44.953125 5.460938 C 45.058594 5.769531 44.316406 5.390625 44.082031 5.441406 C 42.101562 5.269531 40.105469 5.253906 38.121094 5.335938 C 36.640625 5.429688 35.167969 5.652344 33.746094 6.085938 C 32.472656 6.433594 31.199219 6.8125 29.910156 7.097656 C 29.34375 7.335938 28.71875 7.394531 28.148438 7.628906 C 27.359375 7.878906 26.574219 8.140625 25.820312 8.476562 C 25.3125 8.613281 24.894531 8.933594 24.398438 9.101562 C 23.996094 9.429688 23.546875 9.585938 23.089844 9.824219 C 22.503906 10.121094 21.96875 10.515625 21.394531 10.800781 C 20.921875 11.082031 20.386719 11.261719 20.011719 11.703125 C 19.710938 11.789062 19.164062 12.382812 18.925781 12.050781 Z M 59.785156 10.050781 C 58.972656 9.398438 58.015625 8.972656 57.136719 8.429688 C 56.632812 8.296875 56.207031 8.007812 55.828125 7.660156 C 55.371094 7.253906 54.808594 7.023438 54.25 6.808594 C 53.921875 6.777344 53.792969 6.246094 54.144531 6.550781 C 54.664062 6.757812 55.167969 6.855469 55.578125 7.257812 C 56.132812 7.398438 56.546875 7.839844 57.113281 7.957031 C 57.652344 8.421875 58.261719 8.8125 58.882812 9.160156 C 59.21875 9.542969 59.769531 9.75 60.078125 10.105469 C 59.984375 10.160156 59.871094 10.09375 59.785156 10.050781 Z M 19.390625 9.664062 C 19.632812 9.234375 20.351562 9.070312 20.761719 8.707031 C 21.339844 8.351562 21.960938 8.074219 22.535156 7.714844 C 22.957031 7.371094 23.550781 7.34375 24.003906 7.03125 C 24.628906 6.761719 25.28125 6.542969 25.878906 6.214844 C 26.5 6.101562 27.058594 5.800781 27.660156 5.628906 C 28.210938 5.4375 28.761719 5.324219 29.328125 5.199219 C 30.097656 4.851562 30.945312 4.722656 31.746094 4.457031 C 32.320312 4.28125 32.917969 4.183594 33.492188 4.015625 C 34.449219 4.015625 35.359375 3.621094 36.316406 3.613281 C 36.4375 3.921875 35.546875 3.917969 35.273438 4.027344 C 34.226562 4.285156 33.171875 4.5 32.105469 4.652344 C 31.582031 4.820312 31.074219 5.011719 30.542969 5.144531 C 29.941406 5.273438 29.382812 5.472656 28.792969 5.636719 C 28.320312 5.902344 27.777344 5.964844 27.28125 6.160156 C 26.269531 6.492188 25.273438 6.890625 24.308594 7.34375 C 23.609375 7.535156 22.976562 7.914062 22.300781 8.175781 C 21.796875 8.535156 21.191406 8.703125 20.6875 9.066406 C 20.246094 9.203125 19.8125 9.671875 19.390625 9.664062 Z M 50.554688 6.695312 C 50.578125 6.421875 50.78125 6.953125 50.554688 6.695312 Z M 52.605469 6.078125 C 52.03125 5.976562 51.519531 5.691406 50.941406 5.582031 C 50.332031 5.34375 49.703125 5.148438 49.078125 4.957031 C 47.933594 4.6875 46.773438 4.480469 45.613281 4.269531 C 44.90625 4.105469 45.9375 4.058594 46.148438 4.148438 C 46.855469 4.328125 47.59375 4.304688 48.300781 4.488281 C 48.882812 4.546875 49.429688 4.667969 49.9375 4.945312 C 50.453125 5.160156 50.957031 5.363281 51.5 5.496094 C 52.070312 5.683594 52.675781 5.839844 53.1875 6.144531 C 53.226562 6.296875 52.6875 6.117188 52.605469 6.078125 Z M 46.65625 5.878906 C 46.507812 5.824219 45.652344 5.742188 46.066406 5.589844 C 46.347656 5.734375 47.085938 5.660156 47.097656 5.9375 C 46.953125 5.976562 46.789062 5.953125 46.65625 5.878906 Z M 43.605469 4.074219 C 43.058594 3.996094 42.515625 3.859375 41.980469 3.820312 C 42.527344 3.625 43.148438 3.828125 43.722656 3.8125 C 44.144531 3.84375 44.726562 3.917969 44.996094 4.109375 C 44.539062 4.203125 44.0625 4.105469 43.605469 4.074219 Z M 41.34375 3.859375 C 40.96875 3.597656 41.914062 3.683594 41.433594 3.875 Z M 36.695312 3.675781 C 37.003906 3.5625 37.820312 3.425781 37.890625 3.625 C 37.519531 3.707031 37.042969 3.769531 36.695312 3.675781 Z M 38.234375 3.652344 C 38.574219 3.574219 39.332031 3.519531 39.46875 3.703125 C 39.066406 3.742188 38.621094 3.769531 38.234375 3.652344 Z M 67.480469 63.429688 C 67.394531 63.105469 66.941406 63.78125 67.410156 63.515625 L 67.453125 63.476562 Z M 1.613281 45.351562 C 1.441406 45.183594 1.445312 45.621094 1.613281 45.351562 Z M 1.300781 41.621094 C 0.914062 41.570312 1.382812 41.757812 1.300781 41.621094 Z M 76.074219 34.15625 C 75.8125 33.847656 76.035156 34.507812 76.074219 34.15625 Z M 1.410156 33.339844 C 1.027344 33.019531 1.265625 33.6875 1.410156 33.339844 Z M 1.777344 31.789062 C 1.933594 31.527344 0.984375 31.96875 1.644531 31.84375 L 1.71875 31.820312 Z M 2.023438 31.015625 C 1.691406 30.28125 1.816406 31.496094 2.023438 31.015625 Z M 1.859375 30.234375 C 1.449219 29.992188 1.570312 30.4375 1.925781 30.296875 L 1.914062 30.273438 Z M 1.859375 29.90625 C 1.449219 29.664062 1.570312 30.109375 1.925781 29.972656 L 1.914062 29.949219 Z M 2.351562 29.503906 C 2.257812 29.148438 1.511719 29.007812 2.027344 29.457031 C 2.097656 29.527344 2.292969 29.671875 2.351562 29.503906 Z M 3.582031 25.527344 C 3.433594 25.261719 2.9375 25.855469 3.457031 25.652344 C 3.507812 25.628906 3.578125 25.59375 3.582031 25.527344 Z M 3.582031 24.59375 C 3.363281 24.265625 3.390625 24.914062 3.582031 24.59375 Z M 4.730469 22.792969 C 4.597656 22.574219 4.46875 23.125 4.730469 22.792969 Z M 6.085938 20.179688 C 5.707031 19.859375 5.941406 20.527344 6.085938 20.179688 Z M 6.632812 18.980469 C 6.246094 18.933594 6.714844 19.117188 6.632812 18.980469 Z M 9.984375 14.863281 C 9.808594 14.695312 9.8125 15.136719 9.984375 14.863281 Z M 11.277344 13.414062 C 11.207031 13.070312 10.953125 13.851562 11.277344 13.414062 Z M 11.660156 12.65625 C 11.28125 12.472656 11.652344 13.074219 11.660156 12.65625 Z M 64.132812 10.667969 C 63.84375 10.386719 63.78125 10.816406 64.132812 10.667969 Z M 16.398438 8.683594 C 16.011719 8.632812 16.480469 8.820312 16.398438 8.683594 Z M 59.308594 7.128906 C 58.921875 7.082031 59.390625 7.265625 59.308594 7.128906 Z M 19.910156 6.855469 C 19.738281 6.6875 19.742188 7.125 19.910156 6.855469 Z M 58.390625 6.449219 C 57.929688 6.203125 58.128906 6.597656 58.472656 6.515625 Z M 20.859375 6.214844 C 20.675781 5.921875 20.121094 6.261719 20.652344 6.285156 C 20.703125 6.273438 20.859375 6.300781 20.859375 6.214844 Z M 21.171875 5.835938 C 21.324219 5.628906 22.097656 5.753906 21.472656 5.582031 C 21.179688 5.445312 20.621094 6.261719 21.171875 5.835938 Z M 20.855469 5.632812 C 20.710938 5.324219 20.515625 5.902344 20.855469 5.632812 Z M 56.460938 5.46875 C 56.355469 5.1875 55.957031 5.648438 56.390625 5.527344 Z M 23.027344 5.140625 C 22.808594 4.8125 22.835938 5.460938 23.027344 5.140625 Z M 23.832031 4.417969 C 23.539062 3.921875 23.726562 5.136719 23.875 4.484375 Z M 54.789062 4.300781 C 54.261719 4.089844 54.992188 4.753906 54.789062 4.300781 Z M 25.765625 3.792969 C 25.441406 3.484375 25.792969 4.273438 25.765625 3.792969 Z M 52.976562 3.722656 C 52.734375 3.511719 52.253906 3.789062 52.824219 3.75 L 52.902344 3.742188 Z M 27.542969 3.1875 C 27.382812 2.925781 26.714844 2.738281 27.203125 3.144531 C 27.269531 3.203125 27.511719 3.355469 27.542969 3.1875 Z M 49.652344 2.445312 C 49.582031 2.226562 48.949219 1.9375 49.1875 2.425781 C 49.390625 2.28125 49.492188 2.6875 49.652344 2.445312 Z M 30.429688 2.308594 C 30.042969 2.257812 30.511719 2.441406 30.429688 2.308594 Z M 46.414062 1.636719 C 46.179688 1.347656 45.824219 1.6875 45.589844 1.675781 C 45.859375 1.6875 46.164062 1.738281 46.414062 1.636719 Z M 35.089844 1.546875 C 34.957031 1.324219 34.457031 1.585938 34.929688 1.628906 C 34.976562 1.621094 35.082031 1.617188 35.089844 1.546875 Z M 36.273438 1.472656 C 36.113281 1.269531 35.179688 1.390625 35.871094 1.488281 C 36 1.472656 36.183594 1.609375 36.273438 1.472656 Z M 44.210938 1.410156 C 43.824219 1.359375 44.292969 1.542969 44.210938 1.410156 Z M 75.3125 51.097656 C 74.964844 50.738281 75.53125 50.722656 75.40625 51.101562 L 75.367188 51.109375 Z M 23.871094 3.539062 C 24.175781 3.449219 24 3.6875 23.871094 3.539062 Z M 32.464844 1.351562 C 32.671875 1.121094 33.054688 1.425781 32.59375 1.378906 L 32.527344 1.375 Z M 32.464844 1.351562 " fill-opacity="1" fill-rule="nonzero"/></g></g></g></g></g><g fill="#404443" fill-opacity="1"><g transform="translate(39.336086, 66.267342)"><g><path d="M 19.859375 -20.421875 L 19.5625 -20.421875 C 19.082031 -20.953125 18.609375 -21.382812 18.140625 -21.71875 C 17.679688 -22.050781 17.148438 -22.304688 16.546875 -22.484375 C 15.953125 -22.660156 15.257812 -22.78125 14.46875 -22.84375 C 13.675781 -22.90625 12.71875 -22.9375 11.59375 -22.9375 L 11.59375 -2.84375 C 11.59375 -2.3125 11.617188 -1.875 11.671875 -1.53125 C 11.722656 -1.195312 11.789062 -0.941406 11.875 -0.765625 C 11.96875 -0.585938 12.054688 -0.460938 12.140625 -0.390625 C 12.234375 -0.328125 12.300781 -0.296875 12.34375 -0.296875 L 12.34375 0 L 8.46875 0 L 8.46875 -0.296875 C 8.519531 -0.296875 8.585938 -0.328125 8.671875 -0.390625 C 8.765625 -0.460938 8.847656 -0.585938 8.921875 -0.765625 C 8.992188 -0.941406 9.0625 -1.195312 9.125 -1.53125 C 9.195312 -1.875 9.234375 -2.3125 9.234375 -2.84375 L 9.234375 -22.9375 C 8.109375 -22.9375 7.148438 -22.90625 6.359375 -22.84375 C 5.566406 -22.78125 4.875 -22.660156 4.28125 -22.484375 C 3.695312 -22.304688 3.171875 -22.050781 2.703125 -21.71875 C 2.242188 -21.382812 1.773438 -20.953125 1.296875 -20.421875 L 1 -20.421875 L 1 -23.25 L 19.859375 -23.25 Z M 19.859375 -20.421875 "/></g></g></g><g fill="#404443" fill-opacity="1"><g transform="translate(21.586388, 36.782342)"><g><path d="M 1.421875 -8.625 C 1.003906 -10.195312 0.90625 -11.753906 1.125 -13.296875 C 1.34375 -14.835938 1.828125 -16.253906 2.578125 -17.546875 C 3.328125 -18.847656 4.3125 -19.976562 5.53125 -20.9375 C 6.757812 -21.90625 8.15625 -22.597656 9.71875 -23.015625 C 10.84375 -23.316406 11.96875 -23.445312 13.09375 -23.40625 C 14.21875 -23.363281 15.296875 -23.175781 16.328125 -22.84375 C 17.367188 -22.507812 18.34375 -22.039062 19.25 -21.4375 C 20.164062 -20.832031 20.976562 -20.113281 21.6875 -19.28125 L 20.921875 -16.359375 L 20.625 -16.359375 C 20.125 -17.378906 19.5 -18.34375 18.75 -19.25 C 18 -20.164062 17.160156 -20.929688 16.234375 -21.546875 C 15.304688 -22.171875 14.296875 -22.601562 13.203125 -22.84375 C 12.117188 -23.082031 10.976562 -23.050781 9.78125 -22.75 C 8.351562 -22.375 7.175781 -21.703125 6.25 -20.734375 C 5.320312 -19.765625 4.613281 -18.644531 4.125 -17.375 C 3.644531 -16.101562 3.375 -14.75 3.3125 -13.3125 C 3.257812 -11.882812 3.410156 -10.53125 3.765625 -9.25 C 4.253906 -7.40625 5.023438 -5.863281 6.078125 -4.625 C 7.140625 -3.394531 8.328125 -2.457031 9.640625 -1.8125 C 10.953125 -1.175781 12.316406 -0.828125 13.734375 -0.765625 C 15.160156 -0.710938 16.5 -0.953125 17.75 -1.484375 C 19.007812 -2.015625 20.109375 -2.820312 21.046875 -3.90625 C 21.984375 -5 22.617188 -6.363281 22.953125 -8 L 23.203125 -7.9375 C 22.859375 -6.144531 22.148438 -4.648438 21.078125 -3.453125 C 20.003906 -2.253906 18.742188 -1.363281 17.296875 -0.78125 C 15.859375 -0.195312 14.316406 0.0820312 12.671875 0.0625 C 11.035156 0.0390625 9.46875 -0.289062 7.96875 -0.9375 C 6.46875 -1.59375 5.128906 -2.554688 3.953125 -3.828125 C 2.773438 -5.109375 1.929688 -6.707031 1.421875 -8.625 Z M 1.421875 -8.625 "/></g></g></g></svg>