<svg xmlns="http://www.w3.org/2000/svg" xmlns:xlink="http://www.w3.org/1999/xlink" width="105" zoomAndPan="magnify" viewBox="0 0 78.75 78.749998" height="105" preserveAspectRatio="xMidYMid meet" version="1.0"><defs><g/><clipPath id="35b87c0eae"><path d="M 6.066406 45.839844 L 72.683594 45.839844 L 72.683594 53.625 L 6.066406 53.625 Z M 6.066406 45.839844 " clip-rule="nonzero"/></clipPath></defs><g fill="#545454" fill-opacity="1"><g transform="translate(36.074978, 61.117431)"><g><path d="M 14.359375 0.375 C 11.628906 0.375 9.359375 -0.207031 7.546875 -1.375 C 5.742188 -2.539062 4.390625 -4.164062 3.484375 -6.25 C 2.585938 -8.34375 2.140625 -10.789062 2.140625 -13.59375 C 2.140625 -16.363281 2.597656 -18.804688 3.515625 -20.921875 C 4.429688 -23.035156 5.816406 -24.679688 7.671875 -25.859375 C 9.523438 -27.046875 11.878906 -27.640625 14.734375 -27.640625 C 17.273438 -27.640625 19.226562 -27.207031 20.59375 -26.34375 C 21.957031 -25.476562 22.640625 -24.429688 22.640625 -23.203125 C 22.640625 -22.335938 22.300781 -21.660156 21.625 -21.171875 C 20.945312 -20.691406 20.050781 -20.453125 18.9375 -20.453125 C 18.9375 -22.878906 18.550781 -24.613281 17.78125 -25.65625 C 17.019531 -26.695312 15.800781 -27.21875 14.125 -27.21875 C 11.582031 -27.21875 9.753906 -26.097656 8.640625 -23.859375 C 7.535156 -21.617188 6.984375 -18.234375 6.984375 -13.703125 C 6.984375 -9.097656 7.597656 -5.660156 8.828125 -3.390625 C 10.066406 -1.128906 12.085938 0 14.890625 0 C 16.640625 0 18.0625 -0.460938 19.15625 -1.390625 C 20.25 -2.316406 21.050781 -3.773438 21.5625 -5.765625 C 22.195312 -5.503906 22.515625 -5.007812 22.515625 -4.28125 C 22.515625 -3.613281 22.226562 -2.914062 21.65625 -2.1875 C 21.082031 -1.46875 20.191406 -0.859375 18.984375 -0.359375 C 17.773438 0.128906 16.234375 0.375 14.359375 0.375 Z M 14.359375 0.375 "/></g></g></g><g fill="#545454" fill-opacity="1"><g transform="translate(18.013407, 45.555138)"><g><path d="M 6.03125 0 L 6.03125 -0.375 L 6.828125 -0.375 C 7.722656 -0.375 8.414062 -0.578125 8.90625 -0.984375 C 9.40625 -1.398438 9.65625 -2.085938 9.65625 -3.046875 L 9.65625 -26.875 L 6.71875 -26.875 C 4.757812 -26.875 3.363281 -26.5 2.53125 -25.75 C 1.707031 -25 1.242188 -23.671875 1.140625 -21.765625 L 1.03125 -20.390625 L 0.65625 -20.390625 L 0.921875 -27.25 L 22.9375 -27.25 L 23.171875 -20.390625 L 22.78125 -20.390625 L 22.71875 -21.765625 C 22.582031 -23.671875 22.101562 -25 21.28125 -25.75 C 20.457031 -26.5 19.0625 -26.875 17.09375 -26.875 L 14.125 -26.875 L 14.125 -3.046875 C 14.125 -2.085938 14.359375 -1.398438 14.828125 -0.984375 C 15.296875 -0.578125 15.988281 -0.375 16.90625 -0.375 L 17.71875 -0.375 L 17.71875 0 Z M 6.03125 0 "/></g></g></g><g clip-path="url(#35b87c0eae)"><path fill="#f4f4f4" d="M 6.066406 45.839844 L 72.511719 45.839844 L 72.511719 53.59375 L 6.066406 53.59375 Z M 6.066406 45.839844 " fill-opacity="1" fill-rule="nonzero"/></g><g fill="#737373" fill-opacity="1"><g transform="translate(22.580906, 51.408905)"><g><path d="M 4.429688 -3.113281 C 4.421875 -3.132812 4.402344 -3.148438 4.378906 -3.152344 C 4.355469 -3.15625 4.332031 -3.152344 4.3125 -3.144531 C 3.828125 -2.851562 3.253906 -3.066406 2.59375 -3.3125 C 1.832031 -3.601562 0.964844 -3.921875 -0.0117188 -3.566406 C -0.667969 -3.324219 -0.796875 -2.832031 -0.695312 -2.449219 C -0.601562 -2.09375 -0.324219 -1.84375 -0.0429688 -1.84375 C -0.0195312 -1.84375 0.0078125 -1.847656 0.03125 -1.851562 C 0.0625 -1.851562 0.0898438 -1.871094 0.0976562 -1.902344 C 0.113281 -1.933594 0.105469 -1.964844 0.0859375 -1.992188 C 0.0664062 -2.015625 0.03125 -2.023438 0.00390625 -2.019531 C -0.210938 -1.984375 -0.449219 -2.195312 -0.527344 -2.492188 C -0.566406 -2.640625 -0.640625 -3.148438 0.046875 -3.402344 C 0.515625 -3.570312 1.023438 -3.597656 1.503906 -3.480469 C 1.539062 -3.472656 1.570312 -3.449219 1.589844 -3.421875 C 1.605469 -3.390625 1.613281 -3.355469 1.601562 -3.320312 C 1.460938 -2.785156 1.027344 -1.191406 0.636719 -0.214844 C 0.621094 -0.167969 0.640625 -0.117188 0.6875 -0.101562 C 0.730469 -0.0859375 0.78125 -0.105469 0.800781 -0.152344 C 1.191406 -1.136719 1.625 -2.730469 1.769531 -3.273438 C 1.777344 -3.308594 1.800781 -3.335938 1.832031 -3.355469 C 1.863281 -3.371094 1.898438 -3.375 1.933594 -3.363281 C 2.140625 -3.296875 2.335938 -3.226562 2.53125 -3.148438 C 3.207031 -2.898438 3.84375 -2.660156 4.402344 -2.996094 C 4.445312 -3.019531 4.457031 -3.070312 4.429688 -3.113281 Z M 4.429688 -3.113281 "/></g></g></g><g fill="#737373" fill-opacity="1"><g transform="translate(24.173404, 51.408905)"><g><path d="M 2.132812 -0.890625 C 2.097656 -0.921875 2.042969 -0.921875 2.011719 -0.886719 C 2 -0.875 0.929688 0.210938 0.222656 -0.304688 C 0.0078125 -0.464844 0.21875 -0.875 0.21875 -0.878906 C 0.242188 -0.921875 0.222656 -0.972656 0.179688 -0.992188 C 0.136719 -1.015625 0.0898438 -1 0.0664062 -0.957031 C 0.0507812 -0.9375 -0.214844 -0.414062 0.121094 -0.167969 C 0.277344 -0.0507812 0.46875 0.0117188 0.660156 0.0078125 C 1.371094 0.0078125 2.09375 -0.726562 2.132812 -0.765625 C 2.148438 -0.785156 2.160156 -0.804688 2.160156 -0.828125 C 2.15625 -0.847656 2.148438 -0.871094 2.132812 -0.890625 Z M 0.03125 -1.148438 C 0.0429688 -1.148438 0.0546875 -1.152344 0.0703125 -1.160156 C 0.148438 -1.199219 0.21875 -1.25 0.28125 -1.3125 C 0.3125 -1.351562 0.308594 -1.402344 0.277344 -1.433594 C 0.242188 -1.46875 0.1875 -1.46875 0.15625 -1.433594 C 0.105469 -1.382812 0.0507812 -1.34375 -0.0117188 -1.308594 C -0.046875 -1.292969 -0.0664062 -1.25 -0.0546875 -1.214844 C -0.046875 -1.175781 -0.0117188 -1.148438 0.03125 -1.148438 Z M 0.03125 -1.148438 "/></g></g></g><g fill="#737373" fill-opacity="1"><g transform="translate(26.193641, 51.408905)"><g><path d="M 2.75 -0.796875 C 2.71875 -0.832031 2.664062 -0.835938 2.625 -0.804688 C 2.617188 -0.792969 1.640625 0.0859375 1.035156 -0.3125 C 0.792969 -0.472656 0.734375 -0.851562 0.734375 -0.855469 C 0.730469 -0.894531 0.699219 -0.925781 0.660156 -0.929688 C 0.625 -0.933594 0.585938 -0.914062 0.570312 -0.882812 C 0.414062 -0.539062 0.140625 -0.105469 0.0664062 -0.15625 C 0.0585938 -0.15625 0.046875 -0.167969 0.0351562 -0.191406 C -0.00390625 -0.300781 0.0117188 -0.417969 0.0664062 -0.519531 C 0.191406 -0.777344 0.421875 -0.960938 0.699219 -1.03125 C 0.726562 -1.035156 0.75 -1.058594 0.761719 -1.089844 C 0.769531 -1.121094 0.761719 -1.152344 0.742188 -1.175781 C 0.71875 -1.195312 0.6875 -1.203125 0.660156 -1.199219 C 0.328125 -1.121094 0.0546875 -0.894531 -0.09375 -0.59375 C -0.171875 -0.445312 -0.179688 -0.265625 -0.117188 -0.113281 C -0.0898438 -0.0351562 -0.015625 0.015625 0.0664062 0.015625 L 0.0703125 0.015625 C 0.230469 0.0117188 0.429688 -0.1875 0.570312 -0.40625 C 0.585938 -0.429688 0.617188 -0.445312 0.644531 -0.441406 C 0.675781 -0.441406 0.699219 -0.425781 0.714844 -0.398438 C 0.769531 -0.304688 0.847656 -0.226562 0.9375 -0.171875 C 1.65625 0.304688 2.699219 -0.636719 2.746094 -0.675781 C 2.761719 -0.691406 2.773438 -0.714844 2.773438 -0.734375 C 2.773438 -0.757812 2.765625 -0.78125 2.75 -0.796875 Z M 2.75 -0.796875 "/></g></g></g><g fill="#737373" fill-opacity="1"><g transform="translate(28.852194, 51.408905)"><g><path d="M 2.292969 -0.867188 C 2.253906 -0.898438 2.199219 -0.894531 2.167969 -0.859375 C 1.910156 -0.589844 1.488281 -0.5625 1.199219 -0.796875 C 1.128906 -0.847656 1.035156 -0.84375 0.972656 -0.785156 C 0.933594 -0.75 0.894531 -0.714844 0.855469 -0.671875 C 0.730469 -0.53125 0.707031 -0.648438 0.707031 -0.726562 C 0.707031 -0.796875 0.695312 -0.867188 0.671875 -0.933594 C 0.660156 -0.96875 0.625 -0.992188 0.589844 -0.992188 C 0.554688 -0.988281 0.523438 -0.96875 0.511719 -0.929688 C 0.417969 -0.675781 0.21875 -0.300781 0.0820312 -0.273438 C 0.0742188 -0.269531 0.046875 -0.265625 0.0078125 -0.308594 C -0.0117188 -0.394531 0 -0.488281 0.0429688 -0.566406 C 0.140625 -0.832031 0.386719 -1.019531 0.667969 -1.046875 C 0.71875 -1.050781 0.753906 -1.09375 0.75 -1.140625 C 0.746094 -1.1875 0.703125 -1.222656 0.660156 -1.222656 C 0.304688 -1.1875 0.00390625 -0.957031 -0.121094 -0.625 C -0.179688 -0.480469 -0.210938 -0.289062 -0.121094 -0.195312 C -0.0625 -0.121094 0.0273438 -0.0898438 0.113281 -0.105469 C 0.28125 -0.136719 0.429688 -0.355469 0.535156 -0.554688 C 0.527344 -0.472656 0.515625 -0.386719 0.503906 -0.292969 C 0.5 -0.273438 0.492188 -0.257812 0.484375 -0.242188 C 0.0976562 0.242188 -0.25 0.832031 -0.257812 1.203125 C -0.265625 1.304688 -0.230469 1.402344 -0.164062 1.476562 C -0.132812 1.507812 -0.09375 1.523438 -0.0507812 1.523438 C -0.0117188 1.523438 0.0234375 1.515625 0.0507812 1.496094 C 0.269531 1.351562 0.546875 0.503906 0.65625 -0.167969 C 0.660156 -0.179688 0.664062 -0.195312 0.675781 -0.207031 C 0.789062 -0.347656 0.910156 -0.484375 1.039062 -0.613281 C 1.070312 -0.640625 1.117188 -0.644531 1.148438 -0.621094 C 1.511719 -0.378906 1.992188 -0.429688 2.292969 -0.742188 C 2.324219 -0.78125 2.324219 -0.832031 2.292969 -0.867188 Z M 0.0976562 1.144531 C 0.0234375 1.296875 -0.00390625 1.363281 -0.0429688 1.351562 C -0.0820312 1.339844 -0.0859375 1.273438 -0.0820312 1.207031 C -0.0742188 0.953125 0.367188 0.09375 0.429688 0.121094 C 0.492188 0.148438 0.222656 0.886719 0.0976562 1.144531 Z M 0.0976562 1.144531 "/></g></g></g><g fill="#737373" fill-opacity="1"><g transform="translate(31.020493, 51.408905)"><g><path d="M 2.398438 -0.933594 C 2.382812 -0.953125 2.363281 -0.957031 2.339844 -0.957031 C 2.316406 -0.957031 2.292969 -0.953125 2.277344 -0.933594 C 1.882812 -0.539062 1.324219 -0.359375 0.773438 -0.449219 C 0.730469 -0.460938 0.699219 -0.5 0.707031 -0.542969 C 0.734375 -0.699219 0.722656 -0.863281 0.628906 -0.914062 C 0.570312 -0.949219 0.480469 -0.953125 0.375 -0.773438 C 0.335938 -0.714844 0.324219 -0.640625 0.335938 -0.574219 C 0.351562 -0.503906 0.394531 -0.441406 0.453125 -0.40625 C 0.492188 -0.375 0.449219 -0.324219 0.425781 -0.304688 C 0.363281 -0.226562 0.253906 -0.214844 0.179688 -0.273438 C 0.0820312 -0.316406 0.0390625 -0.421875 0.0742188 -0.515625 C 0.117188 -0.691406 0.289062 -0.84375 0.351562 -0.84375 C 0.398438 -0.84375 0.4375 -0.882812 0.4375 -0.929688 C 0.441406 -0.972656 0.402344 -1.015625 0.355469 -1.015625 L 0.351562 -1.015625 C 0.1875 -1.015625 -0.03125 -0.792969 -0.09375 -0.558594 C -0.148438 -0.386719 -0.0703125 -0.199219 0.09375 -0.121094 C 0.15625 -0.0859375 0.226562 -0.0703125 0.300781 -0.0664062 C 0.441406 -0.0742188 0.566406 -0.15625 0.625 -0.289062 C 0.632812 -0.300781 0.648438 -0.304688 0.660156 -0.304688 C 1.078125 -0.179688 1.84375 -0.257812 2.398438 -0.808594 C 2.417969 -0.828125 2.425781 -0.847656 2.425781 -0.871094 C 2.425781 -0.894531 2.417969 -0.917969 2.398438 -0.933594 Z M 0.535156 -0.558594 C 0.5 -0.59375 0.492188 -0.644531 0.523438 -0.683594 C 0.535156 -0.699219 0.539062 -0.710938 0.546875 -0.722656 C 0.550781 -0.667969 0.546875 -0.613281 0.535156 -0.558594 Z M 0.535156 -0.558594 "/></g></g></g><g fill="#737373" fill-opacity="1"><g transform="translate(33.294082, 51.408905)"><g/></g></g><g fill="#737373" fill-opacity="1"><g transform="translate(34.518069, 51.408905)"><g><path d="M 2.761719 -0.847656 C 2.746094 -0.863281 2.726562 -0.875 2.703125 -0.875 C 2.679688 -0.878906 2.65625 -0.871094 2.640625 -0.859375 C 2.625 -0.847656 1.359375 0.15625 0.304688 -0.277344 C 0.0898438 -0.367188 0.078125 -0.480469 0.0859375 -0.542969 C 0.0859375 -0.554688 0.0898438 -0.5625 0.0976562 -0.570312 C 0.105469 -0.574219 0.117188 -0.574219 0.128906 -0.574219 C 0.34375 -0.558594 0.554688 -0.617188 0.742188 -0.730469 C 0.898438 -0.832031 0.925781 -0.945312 0.914062 -1.015625 C 0.910156 -1.136719 0.8125 -1.230469 0.691406 -1.234375 C 0.429688 -1.246094 -0.00390625 -0.9375 -0.0742188 -0.609375 C -0.105469 -0.488281 -0.101562 -0.257812 0.238281 -0.117188 C 0.445312 -0.03125 0.660156 0.0078125 0.882812 0.0078125 C 1.828125 0.0078125 2.703125 -0.6875 2.75 -0.722656 C 2.765625 -0.738281 2.777344 -0.761719 2.777344 -0.78125 C 2.78125 -0.804688 2.773438 -0.828125 2.761719 -0.847656 Z M 0.203125 -0.773438 C 0.332031 -0.953125 0.546875 -1.070312 0.679688 -1.058594 C 0.71875 -1.058594 0.738281 -1.046875 0.742188 -0.996094 C 0.746094 -0.964844 0.710938 -0.917969 0.644531 -0.875 C 0.511719 -0.785156 0.105469 -0.640625 0.203125 -0.773438 Z M 0.203125 -0.773438 "/></g></g></g><g fill="#737373" fill-opacity="1"><g transform="translate(37.153589, 51.408905)"><g/></g></g><g fill="#737373" fill-opacity="1"><g transform="translate(38.377576, 51.408905)"><g><path d="M 2.710938 -0.632812 C 2.734375 -0.671875 2.726562 -0.722656 2.6875 -0.753906 C 2.648438 -0.78125 2.589844 -0.769531 2.5625 -0.730469 C 2.542969 -0.695312 1.96875 0.125 1.085938 -0.199219 C 0.242188 -0.511719 0.199219 -1.167969 0.308594 -1.664062 C 0.554688 -2.738281 1.664062 -3.804688 2.257812 -3.753906 C 2.367188 -3.746094 2.476562 -3.714844 2.566406 -3.652344 C 2.605469 -3.621094 2.625 -3.574219 2.621094 -3.527344 C 2.617188 -3.480469 2.585938 -3.4375 2.542969 -3.417969 C 2.191406 -3.230469 1.894531 -2.949219 1.683594 -2.609375 C 1.574219 -2.414062 1.550781 -2.253906 1.617188 -2.144531 C 1.667969 -2.070312 1.757812 -2.027344 1.851562 -2.039062 C 2.289062 -2.046875 2.851562 -2.761719 2.890625 -3.308594 C 2.886719 -3.351562 2.914062 -3.390625 2.953125 -3.402344 C 3.101562 -3.449219 3.257812 -3.476562 3.417969 -3.476562 C 3.464844 -3.476562 3.503906 -3.515625 3.503906 -3.566406 C 3.503906 -3.609375 3.464844 -3.652344 3.417969 -3.652344 L 3.414062 -3.652344 C 3.277344 -3.648438 3.144531 -3.628906 3.011719 -3.597656 C 2.925781 -3.578125 2.835938 -3.609375 2.78125 -3.683594 C 2.652344 -3.832031 2.46875 -3.917969 2.269531 -3.921875 C 1.546875 -3.992188 0.386719 -2.789062 0.140625 -1.703125 C -0.0390625 -0.910156 0.273438 -0.316406 1.027344 -0.0390625 C 1.175781 0.015625 1.332031 0.046875 1.492188 0.0507812 C 2.234375 0.0507812 2.703125 -0.621094 2.710938 -0.632812 Z M 1.847656 -2.207031 C 1.816406 -2.207031 1.777344 -2.210938 1.765625 -2.234375 C 1.742188 -2.273438 1.753906 -2.378906 1.832031 -2.523438 C 2.011719 -2.8125 2.253906 -3.050781 2.542969 -3.21875 C 2.578125 -3.238281 2.617188 -3.234375 2.648438 -3.210938 C 2.679688 -3.191406 2.691406 -3.148438 2.683594 -3.113281 C 2.558594 -2.679688 2.121094 -2.214844 1.847656 -2.207031 Z M 1.847656 -2.207031 "/></g></g></g><g fill="#737373" fill-opacity="1"><g transform="translate(41.29277, 51.408905)"><g><path d="M 2.75 -0.796875 C 2.71875 -0.832031 2.664062 -0.835938 2.625 -0.804688 C 2.617188 -0.792969 1.640625 0.0859375 1.035156 -0.3125 C 0.792969 -0.472656 0.734375 -0.851562 0.734375 -0.855469 C 0.730469 -0.894531 0.699219 -0.925781 0.660156 -0.929688 C 0.625 -0.933594 0.585938 -0.914062 0.570312 -0.882812 C 0.414062 -0.539062 0.140625 -0.105469 0.0664062 -0.15625 C 0.0585938 -0.15625 0.046875 -0.167969 0.0351562 -0.191406 C -0.00390625 -0.300781 0.0117188 -0.417969 0.0664062 -0.519531 C 0.191406 -0.777344 0.421875 -0.960938 0.699219 -1.03125 C 0.726562 -1.035156 0.75 -1.058594 0.761719 -1.089844 C 0.769531 -1.121094 0.761719 -1.152344 0.742188 -1.175781 C 0.71875 -1.195312 0.6875 -1.203125 0.660156 -1.199219 C 0.328125 -1.121094 0.0546875 -0.894531 -0.09375 -0.59375 C -0.171875 -0.445312 -0.179688 -0.265625 -0.117188 -0.113281 C -0.0898438 -0.0351562 -0.015625 0.015625 0.0664062 0.015625 L 0.0703125 0.015625 C 0.230469 0.0117188 0.429688 -0.1875 0.570312 -0.40625 C 0.585938 -0.429688 0.617188 -0.445312 0.644531 -0.441406 C 0.675781 -0.441406 0.699219 -0.425781 0.714844 -0.398438 C 0.769531 -0.304688 0.847656 -0.226562 0.9375 -0.171875 C 1.65625 0.304688 2.699219 -0.636719 2.746094 -0.675781 C 2.761719 -0.691406 2.773438 -0.714844 2.773438 -0.734375 C 2.773438 -0.757812 2.765625 -0.78125 2.75 -0.796875 Z M 2.75 -0.796875 "/></g></g></g><g fill="#737373" fill-opacity="1"><g transform="translate(43.951322, 51.408905)"><g><path d="M 2.835938 -0.867188 C 2.820312 -0.882812 2.800781 -0.890625 2.777344 -0.890625 C 2.753906 -0.890625 2.730469 -0.882812 2.714844 -0.867188 C 2.144531 -0.308594 1.136719 -0.191406 0.917969 -0.320312 C 0.769531 -0.40625 0.785156 -0.507812 0.890625 -0.710938 C 0.941406 -0.808594 0.996094 -0.925781 0.902344 -0.992188 C 0.8125 -1.058594 0.726562 -1.015625 0.652344 -0.976562 C 0.542969 -0.914062 0.421875 -0.882812 0.292969 -0.882812 C 0.261719 -0.882812 0.238281 -0.933594 0.242188 -0.953125 C 0.429688 -1.359375 0.34375 -1.433594 0.316406 -1.464844 C 0.265625 -1.515625 0.191406 -1.511719 0.0976562 -1.453125 C -0.0507812 -1.347656 -0.117188 -1.152344 -0.0664062 -0.972656 C -0.0507812 -0.921875 -0.03125 -0.875 0.00390625 -0.835938 C 0 -0.800781 0.015625 -0.765625 0.0507812 -0.75 C 0.0703125 -0.742188 0.09375 -0.742188 0.113281 -0.746094 C 0.171875 -0.722656 0.234375 -0.707031 0.296875 -0.707031 C 0.429688 -0.703125 0.5625 -0.734375 0.679688 -0.800781 C 0.726562 -0.824219 0.742188 -0.804688 0.738281 -0.789062 C 0.660156 -0.636719 0.515625 -0.351562 0.832031 -0.167969 C 0.945312 -0.113281 1.070312 -0.09375 1.195312 -0.101562 C 1.65625 -0.101562 2.378906 -0.300781 2.835938 -0.742188 C 2.851562 -0.757812 2.859375 -0.78125 2.859375 -0.804688 C 2.863281 -0.828125 2.855469 -0.847656 2.835938 -0.867188 Z M 0.09375 -1.046875 C 0.0742188 -1.140625 0.109375 -1.242188 0.183594 -1.304688 C 0.160156 -1.214844 0.132812 -1.128906 0.09375 -1.042969 Z M 0.09375 -1.046875 "/></g></g></g><g fill="#737373" fill-opacity="1"><g transform="translate(46.649358, 51.408905)"><g><path d="M 2.132812 -0.890625 C 2.097656 -0.921875 2.042969 -0.921875 2.011719 -0.886719 C 2 -0.875 0.929688 0.210938 0.222656 -0.304688 C 0.0078125 -0.464844 0.21875 -0.875 0.21875 -0.878906 C 0.242188 -0.921875 0.222656 -0.972656 0.179688 -0.992188 C 0.136719 -1.015625 0.0898438 -1 0.0664062 -0.957031 C 0.0507812 -0.9375 -0.214844 -0.414062 0.121094 -0.167969 C 0.277344 -0.0507812 0.46875 0.0117188 0.660156 0.0078125 C 1.371094 0.0078125 2.09375 -0.726562 2.132812 -0.765625 C 2.148438 -0.785156 2.160156 -0.804688 2.160156 -0.828125 C 2.15625 -0.847656 2.148438 -0.871094 2.132812 -0.890625 Z M 0.03125 -1.148438 C 0.0429688 -1.148438 0.0546875 -1.152344 0.0703125 -1.160156 C 0.148438 -1.199219 0.21875 -1.25 0.28125 -1.3125 C 0.3125 -1.351562 0.308594 -1.402344 0.277344 -1.433594 C 0.242188 -1.46875 0.1875 -1.46875 0.15625 -1.433594 C 0.105469 -1.382812 0.0507812 -1.34375 -0.0117188 -1.308594 C -0.046875 -1.292969 -0.0664062 -1.25 -0.0546875 -1.214844 C -0.046875 -1.175781 -0.0117188 -1.148438 0.03125 -1.148438 Z M 0.03125 -1.148438 "/></g></g></g><g fill="#737373" fill-opacity="1"><g transform="translate(48.669595, 51.408905)"><g><path d="M 2.878906 -0.820312 C 2.855469 -0.832031 2.835938 -0.84375 2.8125 -0.84375 C 2.792969 -0.839844 2.769531 -0.828125 2.753906 -0.8125 C 2.746094 -0.804688 2.019531 -0.03125 1.390625 -0.285156 C 1.257812 -0.359375 1.148438 -0.46875 1.074219 -0.601562 C 1.046875 -0.644531 1.015625 -0.6875 0.972656 -0.726562 C 0.929688 -0.78125 0.867188 -0.808594 0.796875 -0.8125 C 0.628906 -0.828125 0.425781 -0.714844 0.179688 -0.484375 C 0.175781 -0.476562 0.164062 -0.472656 0.15625 -0.480469 C 0.144531 -0.484375 0.136719 -0.496094 0.140625 -0.507812 L 0.214844 -0.828125 C 0.226562 -0.875 0.199219 -0.925781 0.152344 -0.933594 C 0.105469 -0.945312 0.0585938 -0.914062 0.046875 -0.867188 L -0.117188 -0.148438 C -0.128906 -0.109375 -0.109375 -0.0703125 -0.0742188 -0.0507812 C -0.0351562 -0.03125 0.0078125 -0.0429688 0.03125 -0.0742188 C 0.472656 -0.589844 0.699219 -0.636719 0.777344 -0.640625 C 0.855469 -0.644531 0.90625 -0.542969 0.929688 -0.503906 C 1.023438 -0.34375 1.160156 -0.210938 1.328125 -0.128906 C 2.0625 0.171875 2.847656 -0.660156 2.878906 -0.699219 C 2.914062 -0.730469 2.910156 -0.785156 2.878906 -0.820312 Z M 2.878906 -0.820312 "/></g></g></g><g fill="#737373" fill-opacity="1"><g transform="translate(51.410403, 51.408905)"><g><path d="M 2.75 -0.796875 C 2.71875 -0.832031 2.664062 -0.835938 2.625 -0.804688 C 2.617188 -0.792969 1.640625 0.0859375 1.035156 -0.3125 C 0.792969 -0.472656 0.734375 -0.851562 0.734375 -0.855469 C 0.730469 -0.894531 0.699219 -0.925781 0.660156 -0.929688 C 0.625 -0.933594 0.585938 -0.914062 0.570312 -0.882812 C 0.414062 -0.539062 0.140625 -0.105469 0.0664062 -0.15625 C 0.0585938 -0.15625 0.046875 -0.167969 0.0351562 -0.191406 C -0.00390625 -0.300781 0.0117188 -0.417969 0.0664062 -0.519531 C 0.191406 -0.777344 0.421875 -0.960938 0.699219 -1.03125 C 0.726562 -1.035156 0.75 -1.058594 0.761719 -1.089844 C 0.769531 -1.121094 0.761719 -1.152344 0.742188 -1.175781 C 0.71875 -1.195312 0.6875 -1.203125 0.660156 -1.199219 C 0.328125 -1.121094 0.0546875 -0.894531 -0.09375 -0.59375 C -0.171875 -0.445312 -0.179688 -0.265625 -0.117188 -0.113281 C -0.0898438 -0.0351562 -0.015625 0.015625 0.0664062 0.015625 L 0.0703125 0.015625 C 0.230469 0.0117188 0.429688 -0.1875 0.570312 -0.40625 C 0.585938 -0.429688 0.617188 -0.445312 0.644531 -0.441406 C 0.675781 -0.441406 0.699219 -0.425781 0.714844 -0.398438 C 0.769531 -0.304688 0.847656 -0.226562 0.9375 -0.171875 C 1.65625 0.304688 2.699219 -0.636719 2.746094 -0.675781 C 2.761719 -0.691406 2.773438 -0.714844 2.773438 -0.734375 C 2.773438 -0.757812 2.765625 -0.78125 2.75 -0.796875 Z M 2.75 -0.796875 "/></g></g></g></svg>