<svg xmlns="http://www.w3.org/2000/svg" xmlns:xlink="http://www.w3.org/1999/xlink" width="105" zoomAndPan="magnify" viewBox="0 0 78.75 78.749998" height="105" preserveAspectRatio="xMidYMid meet" version="1.0"><defs><g/><clipPath id="7beaf29fd9"><path d="M 0 44.878906 L 78.5 44.878906 L 78.5 54.082031 L 0 54.082031 Z M 0 44.878906 " clip-rule="nonzero"/></clipPath></defs><g fill="#545454" fill-opacity="1"><g transform="translate(35.474055, 62.93773)"><g><path d="M 7.125 0 L 7.125 -0.453125 L 8.078125 -0.453125 C 9.128906 -0.453125 9.945312 -0.691406 10.53125 -1.171875 C 11.125 -1.648438 11.421875 -2.460938 11.421875 -3.609375 L 11.421875 -31.765625 L 7.9375 -31.765625 C 5.625 -31.765625 3.976562 -31.320312 3 -30.4375 C 2.019531 -29.550781 1.472656 -27.976562 1.359375 -25.71875 L 1.21875 -24.09375 L 0.765625 -24.09375 L 1.078125 -32.21875 L 27.125 -32.21875 L 27.390625 -24.09375 L 26.9375 -24.09375 L 26.84375 -25.71875 C 26.695312 -27.976562 26.132812 -29.550781 25.15625 -30.4375 C 24.175781 -31.320312 22.53125 -31.765625 20.21875 -31.765625 L 16.703125 -31.765625 L 16.703125 -3.609375 C 16.703125 -2.460938 16.976562 -1.648438 17.53125 -1.171875 C 18.082031 -0.691406 18.898438 -0.453125 19.984375 -0.453125 L 20.9375 -0.453125 L 20.9375 0 Z M 7.125 0 "/></g></g></g><g fill="#545454" fill-opacity="1"><g transform="translate(13.896615, 44.541587)"><g><path d="M 16.96875 0.453125 C 13.75 0.453125 11.070312 -0.238281 8.9375 -1.625 C 6.800781 -3.007812 5.195312 -4.929688 4.125 -7.390625 C 3.0625 -9.859375 2.53125 -12.75 2.53125 -16.0625 C 2.53125 -19.34375 3.070312 -22.226562 4.15625 -24.71875 C 5.238281 -27.21875 6.875 -29.164062 9.0625 -30.5625 C 11.257812 -31.96875 14.046875 -32.671875 17.421875 -32.671875 C 20.429688 -32.671875 22.738281 -32.160156 24.34375 -31.140625 C 25.957031 -30.117188 26.765625 -28.882812 26.765625 -27.4375 C 26.765625 -26.414062 26.363281 -25.617188 25.5625 -25.046875 C 24.769531 -24.472656 23.707031 -24.1875 22.375 -24.1875 C 22.375 -27.039062 21.921875 -29.082031 21.015625 -30.3125 C 20.117188 -31.550781 18.679688 -32.171875 16.703125 -32.171875 C 13.691406 -32.171875 11.53125 -30.847656 10.21875 -28.203125 C 8.914062 -25.554688 8.265625 -21.554688 8.265625 -16.203125 C 8.265625 -10.753906 8.992188 -6.691406 10.453125 -4.015625 C 11.910156 -1.335938 14.289062 0 17.59375 0 C 19.675781 0 21.363281 -0.546875 22.65625 -1.640625 C 23.945312 -2.742188 24.894531 -4.46875 25.5 -6.8125 C 26.25 -6.507812 26.625 -5.921875 26.625 -5.046875 C 26.625 -4.265625 26.285156 -3.445312 25.609375 -2.59375 C 24.929688 -1.738281 23.878906 -1.015625 22.453125 -0.421875 C 21.023438 0.160156 19.195312 0.453125 16.96875 0.453125 Z M 16.96875 0.453125 "/></g></g></g><g clip-path="url(#7beaf29fd9)"><path fill="#ffffff" d="M 0 44.878906 L 78.75 44.878906 L 78.75 54.082031 L 0 54.082031 Z M 0 44.878906 " fill-opacity="1" fill-rule="nonzero"/></g><g fill="#737373" fill-opacity="1"><g transform="translate(19.52275, 51.461309)"><g><path d="M 3.203125 -0.746094 C 3.234375 -0.792969 3.222656 -0.855469 3.175781 -0.890625 C 3.128906 -0.921875 3.0625 -0.910156 3.03125 -0.863281 C 3.003906 -0.820312 2.328125 0.148438 1.285156 -0.238281 C 0.285156 -0.605469 0.234375 -1.382812 0.367188 -1.96875 C 0.652344 -3.238281 1.964844 -4.5 2.667969 -4.4375 C 2.796875 -4.429688 2.925781 -4.390625 3.035156 -4.320312 C 3.078125 -4.28125 3.105469 -4.226562 3.097656 -4.171875 C 3.09375 -4.113281 3.058594 -4.0625 3.007812 -4.039062 C 2.589844 -3.816406 2.238281 -3.488281 1.992188 -3.085938 C 1.859375 -2.851562 1.832031 -2.664062 1.910156 -2.535156 C 1.972656 -2.449219 2.078125 -2.398438 2.191406 -2.410156 C 2.703125 -2.421875 3.371094 -3.265625 3.417969 -3.910156 C 3.414062 -3.960938 3.445312 -4.007812 3.492188 -4.023438 C 3.664062 -4.078125 3.851562 -4.109375 4.039062 -4.109375 C 4.097656 -4.109375 4.140625 -4.15625 4.140625 -4.214844 C 4.140625 -4.269531 4.09375 -4.316406 4.039062 -4.316406 L 4.035156 -4.316406 C 3.875 -4.3125 3.714844 -4.292969 3.558594 -4.253906 C 3.460938 -4.230469 3.351562 -4.269531 3.289062 -4.355469 C 3.136719 -4.53125 2.917969 -4.628906 2.683594 -4.636719 C 1.828125 -4.71875 0.460938 -3.296875 0.167969 -2.011719 C -0.046875 -1.074219 0.324219 -0.375 1.214844 -0.046875 C 1.390625 0.0195312 1.574219 0.0546875 1.761719 0.0585938 C 2.640625 0.0585938 3.195312 -0.734375 3.203125 -0.746094 Z M 2.183594 -2.609375 C 2.148438 -2.609375 2.101562 -2.613281 2.085938 -2.640625 C 2.058594 -2.6875 2.074219 -2.8125 2.167969 -2.984375 C 2.378906 -3.324219 2.664062 -3.605469 3.007812 -3.804688 C 3.046875 -3.828125 3.09375 -3.824219 3.132812 -3.796875 C 3.167969 -3.769531 3.183594 -3.722656 3.171875 -3.679688 C 3.023438 -3.167969 2.507812 -2.617188 2.183594 -2.609375 Z M 2.183594 -2.609375 "/></g></g></g><g fill="#737373" fill-opacity="1"><g transform="translate(22.968793, 51.461309)"><g><path d="M 3.253906 -0.941406 C 3.214844 -0.984375 3.148438 -0.988281 3.105469 -0.949219 C 3.09375 -0.9375 1.9375 0.101562 1.222656 -0.371094 C 0.9375 -0.554688 0.867188 -1.007812 0.867188 -1.011719 C 0.863281 -1.058594 0.828125 -1.09375 0.78125 -1.101562 C 0.738281 -1.105469 0.691406 -1.082031 0.671875 -1.042969 C 0.492188 -0.636719 0.167969 -0.125 0.078125 -0.183594 C 0.0703125 -0.183594 0.0546875 -0.199219 0.0429688 -0.226562 C -0.00390625 -0.355469 0.0117188 -0.496094 0.078125 -0.613281 C 0.226562 -0.917969 0.5 -1.136719 0.824219 -1.21875 C 0.859375 -1.226562 0.886719 -1.253906 0.898438 -1.289062 C 0.910156 -1.324219 0.898438 -1.363281 0.875 -1.390625 C 0.847656 -1.414062 0.8125 -1.425781 0.777344 -1.417969 C 0.390625 -1.324219 0.0664062 -1.058594 -0.109375 -0.699219 C -0.203125 -0.523438 -0.214844 -0.316406 -0.140625 -0.132812 C -0.105469 -0.0429688 -0.0195312 0.0195312 0.078125 0.0195312 L 0.0820312 0.0195312 C 0.273438 0.015625 0.507812 -0.222656 0.671875 -0.480469 C 0.691406 -0.507812 0.726562 -0.523438 0.761719 -0.519531 C 0.796875 -0.519531 0.828125 -0.503906 0.84375 -0.472656 C 0.910156 -0.363281 1 -0.269531 1.109375 -0.203125 C 1.957031 0.363281 3.191406 -0.75 3.246094 -0.796875 C 3.265625 -0.816406 3.277344 -0.84375 3.277344 -0.867188 C 3.28125 -0.894531 3.269531 -0.921875 3.253906 -0.941406 Z M 3.253906 -0.941406 "/></g></g></g><g fill="#737373" fill-opacity="1"><g transform="translate(26.111461, 51.461309)"><g><path d="M 3.355469 -1.023438 C 3.335938 -1.042969 3.3125 -1.054688 3.285156 -1.054688 C 3.257812 -1.054688 3.230469 -1.042969 3.210938 -1.023438 C 2.535156 -0.367188 1.34375 -0.226562 1.085938 -0.378906 C 0.910156 -0.480469 0.929688 -0.597656 1.054688 -0.839844 C 1.113281 -0.957031 1.179688 -1.09375 1.066406 -1.175781 C 0.960938 -1.253906 0.859375 -1.203125 0.769531 -1.15625 C 0.640625 -1.082031 0.5 -1.042969 0.347656 -1.042969 C 0.3125 -1.042969 0.28125 -1.105469 0.289062 -1.128906 C 0.503906 -1.605469 0.410156 -1.695312 0.375 -1.730469 C 0.316406 -1.789062 0.226562 -1.785156 0.117188 -1.71875 C -0.0625 -1.589844 -0.140625 -1.363281 -0.078125 -1.148438 C -0.0625 -1.089844 -0.0351562 -1.035156 0.00390625 -0.988281 C 0 -0.945312 0.0195312 -0.90625 0.0585938 -0.886719 C 0.0820312 -0.875 0.109375 -0.875 0.136719 -0.882812 C 0.203125 -0.851562 0.277344 -0.835938 0.351562 -0.835938 C 0.507812 -0.832031 0.664062 -0.867188 0.804688 -0.945312 C 0.859375 -0.972656 0.878906 -0.949219 0.871094 -0.933594 C 0.777344 -0.75 0.609375 -0.417969 0.984375 -0.199219 C 1.117188 -0.136719 1.265625 -0.109375 1.414062 -0.121094 C 1.957031 -0.121094 2.8125 -0.355469 3.351562 -0.878906 C 3.371094 -0.894531 3.382812 -0.921875 3.382812 -0.949219 C 3.386719 -0.976562 3.375 -1.003906 3.355469 -1.023438 Z M 0.113281 -1.238281 C 0.0898438 -1.351562 0.128906 -1.46875 0.21875 -1.539062 C 0.191406 -1.4375 0.15625 -1.335938 0.113281 -1.234375 Z M 0.113281 -1.238281 "/></g></g></g><g fill="#737373" fill-opacity="1"><g transform="translate(29.300801, 51.461309)"><g><path d="M 2.519531 -1.050781 C 2.480469 -1.089844 2.417969 -1.089844 2.378906 -1.046875 C 2.363281 -1.035156 1.101562 0.25 0.265625 -0.363281 C 0.0078125 -0.546875 0.257812 -1.035156 0.261719 -1.039062 C 0.285156 -1.089844 0.265625 -1.148438 0.214844 -1.175781 C 0.164062 -1.199219 0.105469 -1.183594 0.078125 -1.132812 C 0.0625 -1.109375 -0.253906 -0.492188 0.144531 -0.199219 C 0.328125 -0.0625 0.550781 0.0117188 0.78125 0.0078125 C 1.621094 0.0078125 2.476562 -0.859375 2.519531 -0.90625 C 2.539062 -0.925781 2.550781 -0.949219 2.550781 -0.976562 C 2.546875 -1.003906 2.539062 -1.03125 2.519531 -1.050781 Z M 0.0351562 -1.359375 C 0.0507812 -1.359375 0.0664062 -1.363281 0.0820312 -1.371094 C 0.175781 -1.417969 0.257812 -1.480469 0.332031 -1.550781 C 0.371094 -1.59375 0.367188 -1.65625 0.328125 -1.695312 C 0.285156 -1.734375 0.222656 -1.734375 0.183594 -1.691406 C 0.125 -1.632812 0.0585938 -1.585938 -0.015625 -1.546875 C -0.0546875 -1.527344 -0.078125 -1.480469 -0.0664062 -1.4375 C -0.0546875 -1.390625 -0.0117188 -1.359375 0.0351562 -1.359375 Z M 0.0351562 -1.359375 "/></g></g></g><g fill="#737373" fill-opacity="1"><g transform="translate(31.688918, 51.461309)"><g><path d="M 3.402344 -0.96875 C 3.378906 -0.984375 3.355469 -0.996094 3.328125 -0.996094 C 3.300781 -0.992188 3.273438 -0.980469 3.257812 -0.960938 C 3.246094 -0.953125 2.390625 -0.0390625 1.644531 -0.339844 C 1.488281 -0.425781 1.359375 -0.550781 1.269531 -0.710938 C 1.238281 -0.761719 1.199219 -0.8125 1.152344 -0.859375 C 1.101562 -0.921875 1.023438 -0.957031 0.941406 -0.960938 C 0.742188 -0.976562 0.503906 -0.84375 0.214844 -0.570312 C 0.207031 -0.5625 0.195312 -0.558594 0.183594 -0.566406 C 0.171875 -0.570312 0.164062 -0.585938 0.167969 -0.597656 L 0.253906 -0.980469 C 0.269531 -1.035156 0.234375 -1.09375 0.179688 -1.105469 C 0.125 -1.117188 0.0703125 -1.082031 0.0546875 -1.027344 L -0.140625 -0.175781 C -0.152344 -0.128906 -0.128906 -0.0820312 -0.0859375 -0.0625 C -0.0429688 -0.0390625 0.0078125 -0.0507812 0.0390625 -0.0859375 C 0.558594 -0.695312 0.824219 -0.753906 0.917969 -0.757812 C 1.011719 -0.761719 1.070312 -0.640625 1.101562 -0.59375 C 1.210938 -0.40625 1.375 -0.25 1.566406 -0.152344 C 2.441406 0.203125 3.367188 -0.78125 3.40625 -0.824219 C 3.445312 -0.863281 3.441406 -0.929688 3.402344 -0.96875 Z M 3.402344 -0.96875 "/></g></g></g><g fill="#737373" fill-opacity="1"><g transform="translate(34.92882, 51.461309)"><g><path d="M 3.253906 -0.941406 C 3.214844 -0.984375 3.148438 -0.988281 3.105469 -0.949219 C 3.09375 -0.9375 1.9375 0.101562 1.222656 -0.371094 C 0.9375 -0.554688 0.867188 -1.007812 0.867188 -1.011719 C 0.863281 -1.058594 0.828125 -1.09375 0.78125 -1.101562 C 0.738281 -1.105469 0.691406 -1.082031 0.671875 -1.042969 C 0.492188 -0.636719 0.167969 -0.125 0.078125 -0.183594 C 0.0703125 -0.183594 0.0546875 -0.199219 0.0429688 -0.226562 C -0.00390625 -0.355469 0.0117188 -0.496094 0.078125 -0.613281 C 0.226562 -0.917969 0.5 -1.136719 0.824219 -1.21875 C 0.859375 -1.226562 0.886719 -1.253906 0.898438 -1.289062 C 0.910156 -1.324219 0.898438 -1.363281 0.875 -1.390625 C 0.847656 -1.414062 0.8125 -1.425781 0.777344 -1.417969 C 0.390625 -1.324219 0.0664062 -1.058594 -0.109375 -0.699219 C -0.203125 -0.523438 -0.214844 -0.316406 -0.140625 -0.132812 C -0.105469 -0.0429688 -0.0195312 0.0195312 0.078125 0.0195312 L 0.0820312 0.0195312 C 0.273438 0.015625 0.507812 -0.222656 0.671875 -0.480469 C 0.691406 -0.507812 0.726562 -0.523438 0.761719 -0.519531 C 0.796875 -0.519531 0.828125 -0.503906 0.84375 -0.472656 C 0.910156 -0.363281 1 -0.269531 1.109375 -0.203125 C 1.957031 0.363281 3.191406 -0.75 3.246094 -0.796875 C 3.265625 -0.816406 3.277344 -0.84375 3.277344 -0.867188 C 3.28125 -0.894531 3.269531 -0.921875 3.253906 -0.941406 Z M 3.253906 -0.941406 "/></g></g></g><g fill="#737373" fill-opacity="1"><g transform="translate(38.071488, 51.461309)"><g/></g></g><g fill="#737373" fill-opacity="1"><g transform="translate(39.518359, 51.461309)"><g><path d="M 3.265625 -1 C 3.246094 -1.019531 3.222656 -1.035156 3.195312 -1.035156 C 3.167969 -1.039062 3.140625 -1.03125 3.121094 -1.015625 C 3.105469 -1.003906 1.605469 0.1875 0.359375 -0.328125 C 0.105469 -0.433594 0.09375 -0.566406 0.101562 -0.640625 C 0.101562 -0.652344 0.105469 -0.664062 0.117188 -0.671875 C 0.125 -0.679688 0.140625 -0.679688 0.152344 -0.675781 C 0.40625 -0.660156 0.65625 -0.726562 0.875 -0.863281 C 1.0625 -0.984375 1.09375 -1.117188 1.082031 -1.203125 C 1.074219 -1.34375 0.960938 -1.457031 0.816406 -1.460938 C 0.507812 -1.476562 -0.00390625 -1.109375 -0.0898438 -0.71875 C -0.125 -0.574219 -0.121094 -0.304688 0.28125 -0.140625 C 0.523438 -0.0390625 0.78125 0.0078125 1.042969 0.0078125 C 2.160156 0.0078125 3.195312 -0.8125 3.25 -0.855469 C 3.269531 -0.871094 3.285156 -0.898438 3.285156 -0.921875 C 3.289062 -0.949219 3.28125 -0.976562 3.265625 -1 Z M 0.242188 -0.914062 C 0.394531 -1.125 0.644531 -1.265625 0.804688 -1.253906 C 0.847656 -1.253906 0.871094 -1.238281 0.878906 -1.179688 C 0.882812 -1.140625 0.839844 -1.085938 0.761719 -1.035156 C 0.601562 -0.929688 0.125 -0.757812 0.242188 -0.914062 Z M 0.242188 -0.914062 "/></g></g></g><g fill="#737373" fill-opacity="1"><g transform="translate(42.6338, 51.461309)"><g/></g></g><g fill="#737373" fill-opacity="1"><g transform="translate(44.080671, 51.461309)"><g><path d="M 5.238281 -3.679688 C 5.226562 -3.703125 5.203125 -3.71875 5.175781 -3.726562 C 5.148438 -3.730469 5.121094 -3.726562 5.097656 -3.714844 C 4.527344 -3.371094 3.847656 -3.621094 3.066406 -3.914062 C 2.164062 -4.257812 1.140625 -4.636719 -0.015625 -4.214844 C -0.789062 -3.929688 -0.941406 -3.347656 -0.820312 -2.894531 C -0.710938 -2.476562 -0.386719 -2.179688 -0.0507812 -2.179688 C -0.0234375 -2.179688 0.0078125 -2.183594 0.0351562 -2.1875 C 0.0742188 -2.191406 0.105469 -2.214844 0.117188 -2.25 C 0.132812 -2.285156 0.125 -2.324219 0.101562 -2.355469 C 0.078125 -2.382812 0.0390625 -2.394531 0.00390625 -2.386719 C -0.25 -2.347656 -0.53125 -2.59375 -0.621094 -2.945312 C -0.667969 -3.121094 -0.757812 -3.722656 0.0546875 -4.023438 C 0.609375 -4.222656 1.210938 -4.253906 1.777344 -4.113281 C 1.820312 -4.105469 1.855469 -4.078125 1.878906 -4.042969 C 1.898438 -4.007812 1.90625 -3.964844 1.894531 -3.925781 C 1.726562 -3.292969 1.214844 -1.410156 0.753906 -0.253906 C 0.734375 -0.199219 0.757812 -0.140625 0.8125 -0.121094 C 0.863281 -0.101562 0.921875 -0.125 0.945312 -0.179688 C 1.410156 -1.34375 1.921875 -3.230469 2.09375 -3.871094 C 2.101562 -3.910156 2.128906 -3.945312 2.164062 -3.964844 C 2.203125 -3.984375 2.246094 -3.988281 2.285156 -3.976562 C 2.527344 -3.898438 2.761719 -3.8125 2.992188 -3.722656 C 3.789062 -3.429688 4.542969 -3.144531 5.203125 -3.539062 C 5.253906 -3.566406 5.269531 -3.628906 5.238281 -3.679688 Z M 5.238281 -3.679688 "/></g></g></g><g fill="#737373" fill-opacity="1"><g transform="translate(45.963159, 51.461309)"><g><path d="M 2.519531 -1.050781 C 2.480469 -1.089844 2.417969 -1.089844 2.378906 -1.046875 C 2.363281 -1.035156 1.101562 0.25 0.265625 -0.363281 C 0.0078125 -0.546875 0.257812 -1.035156 0.261719 -1.039062 C 0.285156 -1.089844 0.265625 -1.148438 0.214844 -1.175781 C 0.164062 -1.199219 0.105469 -1.183594 0.078125 -1.132812 C 0.0625 -1.109375 -0.253906 -0.492188 0.144531 -0.199219 C 0.328125 -0.0625 0.550781 0.0117188 0.78125 0.0078125 C 1.621094 0.0078125 2.476562 -0.859375 2.519531 -0.90625 C 2.539062 -0.925781 2.550781 -0.949219 2.550781 -0.976562 C 2.546875 -1.003906 2.539062 -1.03125 2.519531 -1.050781 Z M 0.0351562 -1.359375 C 0.0507812 -1.359375 0.0664062 -1.363281 0.0820312 -1.371094 C 0.175781 -1.417969 0.257812 -1.480469 0.332031 -1.550781 C 0.371094 -1.59375 0.367188 -1.65625 0.328125 -1.695312 C 0.285156 -1.734375 0.222656 -1.734375 0.183594 -1.691406 C 0.125 -1.632812 0.0585938 -1.585938 -0.015625 -1.546875 C -0.0546875 -1.527344 -0.078125 -1.480469 -0.0664062 -1.4375 C -0.0546875 -1.390625 -0.0117188 -1.359375 0.0351562 -1.359375 Z M 0.0351562 -1.359375 "/></g></g></g><g fill="#737373" fill-opacity="1"><g transform="translate(48.351276, 51.461309)"><g><path d="M 3.253906 -0.941406 C 3.214844 -0.984375 3.148438 -0.988281 3.105469 -0.949219 C 3.09375 -0.9375 1.9375 0.101562 1.222656 -0.371094 C 0.9375 -0.554688 0.867188 -1.007812 0.867188 -1.011719 C 0.863281 -1.058594 0.828125 -1.09375 0.78125 -1.101562 C 0.738281 -1.105469 0.691406 -1.082031 0.671875 -1.042969 C 0.492188 -0.636719 0.167969 -0.125 0.078125 -0.183594 C 0.0703125 -0.183594 0.0546875 -0.199219 0.0429688 -0.226562 C -0.00390625 -0.355469 0.0117188 -0.496094 0.078125 -0.613281 C 0.226562 -0.917969 0.5 -1.136719 0.824219 -1.21875 C 0.859375 -1.226562 0.886719 -1.253906 0.898438 -1.289062 C 0.910156 -1.324219 0.898438 -1.363281 0.875 -1.390625 C 0.847656 -1.414062 0.8125 -1.425781 0.777344 -1.417969 C 0.390625 -1.324219 0.0664062 -1.058594 -0.109375 -0.699219 C -0.203125 -0.523438 -0.214844 -0.316406 -0.140625 -0.132812 C -0.105469 -0.0429688 -0.0195312 0.0195312 0.078125 0.0195312 L 0.0820312 0.0195312 C 0.273438 0.015625 0.507812 -0.222656 0.671875 -0.480469 C 0.691406 -0.507812 0.726562 -0.523438 0.761719 -0.519531 C 0.796875 -0.519531 0.828125 -0.503906 0.84375 -0.472656 C 0.910156 -0.363281 1 -0.269531 1.109375 -0.203125 C 1.957031 0.363281 3.191406 -0.75 3.246094 -0.796875 C 3.265625 -0.816406 3.277344 -0.84375 3.277344 -0.867188 C 3.28125 -0.894531 3.269531 -0.921875 3.253906 -0.941406 Z M 3.253906 -0.941406 "/></g></g></g><g fill="#737373" fill-opacity="1"><g transform="translate(51.493943, 51.461309)"><g><path d="M 2.707031 -1.023438 C 2.664062 -1.0625 2.597656 -1.058594 2.5625 -1.015625 C 2.257812 -0.695312 1.757812 -0.664062 1.417969 -0.941406 C 1.335938 -1 1.222656 -0.996094 1.148438 -0.925781 C 1.105469 -0.886719 1.058594 -0.84375 1.011719 -0.792969 C 0.863281 -0.625 0.835938 -0.765625 0.835938 -0.859375 C 0.835938 -0.941406 0.820312 -1.027344 0.792969 -1.105469 C 0.777344 -1.144531 0.738281 -1.171875 0.695312 -1.171875 C 0.652344 -1.167969 0.617188 -1.144531 0.601562 -1.101562 C 0.496094 -0.796875 0.261719 -0.355469 0.0976562 -0.324219 C 0.0859375 -0.320312 0.0546875 -0.316406 0.0078125 -0.367188 C -0.015625 -0.46875 0 -0.574219 0.0507812 -0.667969 C 0.167969 -0.984375 0.457031 -1.207031 0.789062 -1.238281 C 0.847656 -1.242188 0.890625 -1.292969 0.886719 -1.347656 C 0.882812 -1.40625 0.832031 -1.449219 0.777344 -1.445312 C 0.363281 -1.40625 0.00390625 -1.132812 -0.144531 -0.738281 C -0.210938 -0.566406 -0.25 -0.34375 -0.144531 -0.230469 C -0.0742188 -0.144531 0.03125 -0.105469 0.136719 -0.125 C 0.332031 -0.164062 0.503906 -0.421875 0.628906 -0.652344 C 0.621094 -0.558594 0.609375 -0.457031 0.59375 -0.347656 C 0.589844 -0.324219 0.582031 -0.304688 0.570312 -0.289062 C 0.117188 0.289062 -0.296875 0.984375 -0.304688 1.425781 C -0.316406 1.539062 -0.273438 1.65625 -0.195312 1.742188 C -0.15625 1.78125 -0.109375 1.800781 -0.0585938 1.800781 C -0.015625 1.800781 0.0273438 1.789062 0.0625 1.765625 C 0.320312 1.59375 0.644531 0.59375 0.773438 -0.199219 C 0.777344 -0.214844 0.785156 -0.230469 0.796875 -0.246094 C 0.933594 -0.414062 1.078125 -0.570312 1.230469 -0.722656 C 1.265625 -0.757812 1.320312 -0.761719 1.359375 -0.734375 C 1.785156 -0.449219 2.355469 -0.507812 2.710938 -0.878906 C 2.746094 -0.921875 2.746094 -0.984375 2.707031 -1.023438 Z M 0.117188 1.355469 C 0.0273438 1.53125 -0.00390625 1.609375 -0.0507812 1.59375 C -0.0976562 1.582031 -0.101562 1.507812 -0.0976562 1.429688 C -0.0898438 1.128906 0.433594 0.113281 0.503906 0.144531 C 0.578125 0.175781 0.265625 1.046875 0.117188 1.355469 Z M 0.117188 1.355469 "/></g></g></g><g fill="#737373" fill-opacity="1"><g transform="translate(54.057084, 51.461309)"><g><path d="M 2.835938 -1.105469 C 2.816406 -1.125 2.792969 -1.132812 2.765625 -1.132812 C 2.738281 -1.132812 2.710938 -1.125 2.691406 -1.105469 C 2.226562 -0.636719 1.5625 -0.425781 0.914062 -0.53125 C 0.863281 -0.542969 0.828125 -0.589844 0.835938 -0.640625 C 0.867188 -0.828125 0.851562 -1.019531 0.742188 -1.082031 C 0.671875 -1.121094 0.566406 -1.125 0.445312 -0.914062 C 0.398438 -0.84375 0.382812 -0.757812 0.398438 -0.675781 C 0.417969 -0.59375 0.46875 -0.519531 0.535156 -0.480469 C 0.578125 -0.445312 0.527344 -0.386719 0.503906 -0.359375 C 0.429688 -0.269531 0.300781 -0.253906 0.210938 -0.324219 C 0.0976562 -0.375 0.046875 -0.5 0.0898438 -0.609375 C 0.140625 -0.816406 0.34375 -0.996094 0.417969 -0.996094 C 0.472656 -0.996094 0.515625 -1.042969 0.515625 -1.097656 C 0.519531 -1.152344 0.476562 -1.199219 0.421875 -1.203125 L 0.417969 -1.203125 C 0.222656 -1.203125 -0.0390625 -0.9375 -0.109375 -0.660156 C -0.175781 -0.460938 -0.0820312 -0.238281 0.113281 -0.144531 C 0.1875 -0.101562 0.269531 -0.0820312 0.355469 -0.078125 C 0.519531 -0.0859375 0.667969 -0.1875 0.738281 -0.34375 C 0.746094 -0.355469 0.765625 -0.363281 0.78125 -0.359375 C 1.277344 -0.210938 2.179688 -0.304688 2.835938 -0.957031 C 2.855469 -0.976562 2.867188 -1.003906 2.867188 -1.03125 C 2.867188 -1.058594 2.855469 -1.085938 2.835938 -1.105469 Z M 0.632812 -0.660156 C 0.589844 -0.699219 0.582031 -0.761719 0.617188 -0.808594 C 0.628906 -0.828125 0.636719 -0.839844 0.644531 -0.851562 C 0.648438 -0.789062 0.644531 -0.722656 0.632812 -0.660156 Z M 0.632812 -0.660156 "/></g></g></g></svg>